<svg width="237" height="83" viewBox="0 0 237 83" fill="none" xmlns="http://www.w3.org/2000/svg">
<path d="M232.559 48.4944H225.629C225.657 48.409 225.665 48.3297 225.687 48.3249C227.046 48.0161 227.444 47.2688 226.961 45.8538C226.389 44.1742 225.779 42.5092 225.212 40.8276C225.075 40.4238 224.888 40.2547 224.478 40.2575C221.928 40.2733 219.378 40.2777 216.829 40.2539C216.374 40.2498 216.188 40.4626 216.043 40.8701C215.464 42.4926 214.861 44.1055 214.274 45.7252C213.732 47.2235 214.079 47.9635 215.505 48.4523H209.469C209.479 48.4167 209.487 48.3338 209.504 48.3317C211.101 48.1375 212.024 47.13 212.624 45.5864C215.21 38.9315 217.839 32.2953 220.446 25.6494C220.612 25.2241 220.729 24.7766 220.923 24.1733C221.108 24.5593 221.251 24.8143 221.357 25.0862C224.075 32.0465 226.786 39.01 229.509 45.9687C230.024 47.2838 230.909 48.127 232.286 48.2771C232.354 48.2844 232.421 48.32 232.486 48.3487C232.501 48.3548 232.507 48.3868 232.559 48.4944ZM224.632 39.2637C223.329 35.5517 222.082 32.0004 220.836 28.449C220.759 28.4636 220.681 28.4781 220.604 28.4927C219.304 32.0433 218.004 35.5934 216.66 39.2633H224.632V39.2637Z" fill="#E47825"/>
<path d="M232.56 49.0468H225.629C225.461 49.0468 225.303 48.9598 225.207 48.8134C225.11 48.6669 225.085 48.4796 225.141 48.3104C225.147 48.2942 225.15 48.2785 225.154 48.2643C225.222 47.9936 225.365 47.8322 225.581 47.7836C226.106 47.6647 226.437 47.4797 226.564 47.2349C226.691 46.9885 226.662 46.5871 226.476 46.0425C226.211 45.2648 225.932 44.4762 225.664 43.7131C225.353 42.8306 225.031 41.9182 224.726 41.0147C224.656 40.8083 224.65 40.8067 224.482 40.8095C221.493 40.8281 219.06 40.8269 216.825 40.8059C216.647 40.8039 216.62 40.8043 216.526 41.0669C216.184 42.0262 215.828 42.9969 215.483 43.9356C215.24 44.598 214.997 45.2604 214.757 45.924C214.54 46.524 214.494 46.9481 214.616 47.2208C214.738 47.4951 215.081 47.7257 215.664 47.9256C215.907 48.009 216.057 48.2684 216.017 48.537C215.978 48.8057 215.761 49.004 215.507 49.004H209.47C209.306 49.004 209.153 48.9218 209.056 48.7826C208.961 48.6475 208.93 48.4735 208.97 48.3108C209.054 47.873 209.332 47.7953 209.448 47.7816C210.728 47.6258 211.561 46.8829 212.148 45.3733C213.868 40.9479 215.635 36.4574 217.344 32.1146C218.221 29.8884 219.097 27.6621 219.97 25.4347C220.072 25.1749 220.158 24.8929 220.257 24.5668C220.311 24.3903 220.368 24.2006 220.435 23.993C220.502 23.7834 220.68 23.6369 220.887 23.6212C221.094 23.6062 221.29 23.7231 221.384 23.9206C221.446 24.0501 221.504 24.1646 221.556 24.2702C221.663 24.4846 221.756 24.6699 221.834 24.8722C222.925 27.6641 224.014 30.4564 225.103 33.2487C226.73 37.418 228.356 41.5872 229.987 45.7544C230.458 46.9606 231.228 47.6052 232.339 47.7262C232.474 47.7407 232.584 47.7913 232.657 47.8245L232.685 47.837C232.88 47.9224 232.954 48.0923 232.985 48.1648C232.993 48.1818 233.003 48.2056 233.019 48.2392C233.102 48.4104 233.096 48.6159 233.002 48.7806C232.908 48.9453 232.74 49.0468 232.56 49.0468ZM209.567 48.8801L209.563 48.8805L209.567 48.8801ZM225.797 48.8648C225.797 48.8648 225.795 48.8652 225.795 48.8656C225.796 48.8652 225.797 48.8648 225.797 48.8648ZM232.28 48.8547C232.284 48.8563 232.287 48.8579 232.29 48.8595L232.28 48.8547ZM232.233 48.8259H232.234H232.233ZM227.366 47.9422H230.191C229.709 47.5081 229.322 46.9205 229.033 46.1813C227.402 42.0137 225.775 37.8441 224.149 33.6744C223.103 30.9926 222.057 28.3103 221.009 25.6289C220.982 25.7074 220.953 25.7851 220.923 25.8628C220.049 28.0902 219.173 30.3173 218.296 32.5439C216.588 36.8855 214.821 41.3748 213.102 45.7981C212.753 46.6948 212.307 47.3936 211.754 47.9001H213.789C213.749 47.835 213.714 47.7674 213.682 47.6978C213.428 47.1277 213.463 46.4378 213.793 45.5262C214.034 44.861 214.277 44.1974 214.521 43.5335C214.864 42.5968 215.22 41.6285 215.56 40.674C215.682 40.3325 215.9 39.9003 216.42 39.7535C216.346 39.7122 216.282 39.6515 216.233 39.5758C216.137 39.4249 216.117 39.2331 216.179 39.0632L220.123 28.2921C220.189 28.1133 220.337 27.9834 220.515 27.9498L220.746 27.9061C220.991 27.8596 221.233 28.0065 221.32 28.2561L225.116 39.0709C225.176 39.2404 225.154 39.4306 225.057 39.5795C225.009 39.6535 224.946 39.713 224.873 39.7539C225.266 39.8607 225.532 40.15 225.698 40.6412C226 41.5374 226.321 42.4462 226.631 43.3251C226.901 44.0906 227.18 44.8825 227.447 45.6654C227.744 46.5362 227.751 47.2252 227.468 47.7719C227.437 47.8301 227.403 47.8876 227.366 47.9422ZM217.417 38.7116H223.887L220.72 29.6925L217.417 38.7116Z" fill="#E47825"/>
<path d="M177.559 48.4985H171.477C171.499 48.4196 171.506 48.3407 171.522 48.3383C173.113 48.1303 174.044 47.1277 174.645 45.5836C177.162 39.1234 179.722 32.683 182.258 26.2313C182.498 25.6204 182.68 24.9831 182.96 24.1455C183.269 24.8941 183.516 25.463 183.742 26.0412C186.34 32.6887 188.931 39.3399 191.532 45.9858C192.036 47.2733 192.909 48.0955 194.246 48.2736C194.345 48.2869 194.44 48.3379 194.517 48.4852H187.54C187.712 48.3763 187.787 48.297 187.874 48.2788C188.937 48.0543 189.443 47.2673 189.091 46.1906C188.485 44.3317 187.819 42.4948 187.14 40.6642C187.07 40.4753 186.746 40.2831 186.538 40.281C183.94 40.2552 181.342 40.2531 178.745 40.2859C178.532 40.2887 178.215 40.542 178.13 40.7605C177.453 42.5085 176.803 44.2686 176.181 46.0396C175.761 47.2365 176.147 47.856 177.559 48.4985ZM182.847 28.4276C182.775 28.4377 182.702 28.4483 182.629 28.4588C181.325 32.028 180.02 35.5975 178.684 39.2501H186.641C185.348 35.5632 184.098 31.9952 182.847 28.4276Z" fill="#E47825"/>
<path d="M177.559 49.0519H171.477C171.315 49.0519 171.162 48.9701 171.064 48.8313C170.967 48.6926 170.936 48.5129 170.981 48.3462C170.986 48.3296 170.989 48.313 170.992 48.2985C171.074 47.8999 171.32 47.8097 171.459 47.7911C172.748 47.6227 173.583 46.8766 174.169 45.3722C175.784 41.2277 177.443 37.0228 179.048 32.956C179.961 30.644 180.873 28.332 181.783 26.0183C181.935 25.6307 182.065 25.2241 182.216 24.7535C182.294 24.5079 182.378 24.2461 182.473 23.9608C182.545 23.748 182.73 23.6027 182.941 23.5946C183.151 23.5894 183.347 23.7164 183.433 23.9232C183.536 24.1716 183.632 24.4006 183.722 24.6163C183.907 25.0569 184.067 25.4369 184.22 25.8294C185.212 28.3684 186.203 30.9082 187.194 33.448C188.798 37.5574 190.402 41.6663 192.009 45.7736C192.467 46.9422 193.22 47.5811 194.31 47.7267C194.594 47.7644 194.823 47.9351 194.97 48.22C195.058 48.3911 195.055 48.5991 194.962 48.7678C194.869 48.9362 194.7 49.0393 194.517 49.0393H187.541C187.308 49.0393 187.104 48.8726 187.042 48.6327C186.981 48.3927 187.077 48.1382 187.277 48.0116C187.33 47.978 187.372 47.9481 187.408 47.9222C187.506 47.8514 187.618 47.7712 187.775 47.7385C188.056 47.679 188.427 47.5422 188.595 47.2278C188.714 47.0069 188.717 46.7196 188.604 46.3745C187.981 44.4647 187.282 42.5455 186.677 40.9145C186.638 40.8813 186.562 40.8405 186.523 40.8352C183.756 40.8085 181.217 40.8097 178.775 40.8401C178.721 40.8615 178.628 40.9396 178.602 40.9857C177.929 42.726 177.275 44.4966 176.665 46.2361C176.4 46.9891 176.424 47.3828 177.761 47.9914C177.987 48.0941 178.115 48.3531 178.065 48.61C178.016 48.8674 177.805 49.0519 177.559 49.0519ZM173.717 47.9472H175.856C175.489 47.45 175.367 46.7888 175.697 45.8481C176.312 44.0969 176.97 42.3149 177.652 40.5516C177.775 40.2339 178.131 39.8827 178.51 39.7714C178.409 39.7326 178.32 39.6602 178.257 39.5627C178.161 39.4117 178.141 39.2199 178.203 39.05L182.148 28.2587C182.217 28.0722 182.374 27.9391 182.56 27.9124L182.779 27.8812C183.018 27.8476 183.247 27.9941 183.331 28.2353L187.124 39.0573C187.183 39.2268 187.162 39.417 187.065 39.5659C187.001 39.6638 186.911 39.7358 186.808 39.7739C187.141 39.8714 187.497 40.1287 187.62 40.4625C188.233 42.1138 188.944 44.0641 189.579 46.0103C189.848 46.8337 189.68 47.4253 189.492 47.7769C189.463 47.8311 189.431 47.8837 189.397 47.9347H192.199C191.721 47.5038 191.339 46.9252 191.055 46.2005C189.447 42.0928 187.844 37.9834 186.24 33.8737C185.248 31.3343 184.257 28.7948 183.265 26.2554C183.187 26.0543 183.106 25.8545 183.02 25.6465C182.928 25.9241 182.837 26.1854 182.734 26.4464C181.825 28.7605 180.912 31.0733 179.999 33.3857C178.395 37.4509 176.736 41.655 175.122 45.7971C174.763 46.7208 174.297 47.435 173.717 47.9472ZM179.441 38.6984H185.895L182.736 29.6854L179.441 38.6984Z" fill="#E47825"/>
<path d="M122.095 24.7676H127.591C127.595 24.8061 127.599 24.8445 127.603 24.8825C127.42 24.9161 127.237 24.9445 127.056 24.9837C126.07 25.1977 125.606 25.7946 125.605 26.8777C125.602 31.1607 125.619 35.4436 125.598 39.7265C125.587 41.9192 125.206 44.0107 123.867 45.7805C122.553 47.5183 120.838 48.5271 118.788 48.8265C115.761 49.2679 112.915 48.8362 110.572 46.5035C108.865 44.8049 108.214 42.6062 108.194 40.1886C108.159 35.9579 108.184 31.7267 108.184 27.4956C108.184 25.5186 107.988 25.2617 106.174 24.7195H109.212H112.262C112.267 24.7684 112.272 24.817 112.276 24.8664C112.062 24.9068 111.848 24.9445 111.634 24.9886C110.732 25.1755 110.192 25.7925 110.191 26.7547C110.187 31.4006 110.115 36.0497 110.243 40.692C110.322 43.5478 111.456 46.003 113.969 47.2828C118.209 49.4427 124.019 47.1246 124.145 40.5095C124.232 35.9688 124.167 31.4249 124.158 26.8822C124.155 25.6218 123.687 25.1795 122.095 24.7676Z" fill="#E47825"/>
<path d="M116.812 49.529C114.153 49.529 111.983 48.6627 110.219 46.9066C108.555 45.2501 107.7 42.9911 107.677 40.1923C107.652 37.2074 107.657 34.1735 107.662 31.24C107.665 29.9918 107.667 28.7427 107.667 27.4944C107.667 25.7707 107.636 25.7291 106.035 25.2504C105.786 25.1764 105.627 24.917 105.662 24.6435C105.697 24.3699 105.915 24.166 106.174 24.166H112.262C112.526 24.166 112.747 24.3788 112.775 24.6597L112.79 24.8065C112.819 25.095 112.634 25.3584 112.366 25.409L112.167 25.4462C112.022 25.4734 111.877 25.5001 111.732 25.53C111.053 25.6708 110.708 26.0827 110.708 26.7544C110.707 27.9217 110.701 29.0895 110.696 30.2572C110.68 33.6742 110.663 37.2078 110.759 40.6746C110.814 42.6921 111.455 45.3901 114.191 46.7832C116.3 47.8579 118.793 47.7454 120.696 46.4903C122.536 45.2764 123.577 43.1485 123.628 40.4974C123.691 37.1702 123.673 33.7819 123.656 30.5048C123.649 29.2974 123.643 28.09 123.64 26.8822C123.638 26.0321 123.501 25.6991 121.973 25.303C121.718 25.2371 121.55 24.9785 121.581 24.7005C121.612 24.4225 121.832 24.2138 122.094 24.2138H127.59C127.854 24.2138 128.075 24.4254 128.104 24.7054L128.116 24.8207C128.146 25.1112 127.959 25.3762 127.69 25.4256C127.63 25.4365 127.571 25.4466 127.512 25.4572C127.394 25.4778 127.276 25.498 127.159 25.5235C126.413 25.6854 126.122 26.0649 126.122 26.8766C126.121 28.3535 126.122 29.8307 126.123 31.308C126.125 34.0675 126.128 36.9209 126.114 39.7282C126.1 42.4469 125.514 44.4797 124.269 46.1265C122.883 47.9586 121.063 49.0507 118.858 49.3724C118.146 49.4768 117.464 49.529 116.812 49.529ZM108.303 25.271C108.621 25.7408 108.701 26.408 108.701 27.4948C108.701 28.7439 108.698 29.9934 108.696 31.2425C108.691 34.1735 108.686 37.2042 108.711 40.183C108.731 42.7018 109.455 44.6367 110.923 46.0986C112.053 47.2226 113.343 47.9315 114.861 48.2435C114.482 48.1201 114.109 47.9659 113.747 47.781C111.244 46.5068 109.817 43.9945 109.726 40.7074C109.63 37.2216 109.647 33.6787 109.662 30.2524C109.667 29.0858 109.673 27.9197 109.674 26.7536C109.675 26.1681 109.84 25.6635 110.143 25.2714H108.303V25.271ZM124.255 25.3192C124.53 25.6959 124.673 26.1936 124.675 26.8802C124.677 28.0864 124.684 29.2926 124.69 30.4988C124.707 33.7827 124.726 37.1783 124.662 40.5201C124.604 43.5228 123.417 45.9545 121.315 47.3792C122.127 46.901 122.846 46.2507 123.465 45.4322C124.555 43.9909 125.069 42.1766 125.081 39.7225C125.095 36.9185 125.092 34.0671 125.09 31.3092C125.089 29.8315 125.087 28.3539 125.089 26.8762C125.089 26.2377 125.23 25.7177 125.51 25.3188H124.255V25.3192Z" fill="#E47825"/>
<path d="M157.486 48.4538C157.486 48.4122 157.48 48.3689 157.487 48.3668C159.626 47.6919 159.819 47.414 159.819 45.0004C159.819 39.3656 159.819 33.7312 159.819 28.0965C159.819 25.8435 159.497 25.3899 157.383 24.813C157.653 24.7765 157.801 24.7385 157.949 24.7389C160.766 24.7498 163.585 24.7025 166.4 24.7956C169.871 24.9109 172.116 27.5122 172.162 31.2068C172.22 35.796 167.755 39.1224 163.286 37.1179C163.223 37.09 163.179 37.0148 163.002 36.8359C163.291 36.8359 163.456 36.8213 163.618 36.8379C165.222 37.0063 166.723 36.7117 168.02 35.635C169.109 34.7307 169.726 33.5115 169.833 32.046C169.945 30.5307 169.865 29.0336 169.083 27.6842C168.333 26.3918 167.243 25.7124 165.829 25.6716C164.688 25.6384 163.545 25.6865 162.404 25.6538C161.906 25.6396 161.795 25.8545 161.796 26.3416C161.807 32.8589 161.799 39.3765 161.807 45.8938C161.809 47.2974 162.562 48.1269 163.902 48.2762C163.994 48.2863 164.083 48.3219 164.169 48.4538H157.486Z" fill="#E47825"/>
<path d="M164.169 49.006H157.486C157.201 49.006 156.97 48.7591 156.97 48.4541L156.969 48.4371C156.949 47.9879 157.271 47.8593 157.336 47.8382C159.266 47.2293 159.303 47.1763 159.303 44.9998V28.0959C159.303 26.0906 159.131 25.8595 157.256 25.3473C157.015 25.2817 156.852 25.0426 156.868 24.7776C156.883 24.5125 157.072 24.2973 157.319 24.2637C157.41 24.2516 157.487 24.2386 157.554 24.2277C157.695 24.2046 157.816 24.1897 157.951 24.1852C158.776 24.1884 159.601 24.1868 160.426 24.1848C162.389 24.1803 164.418 24.1763 166.416 24.2422C170.112 24.3648 172.63 27.1604 172.68 31.1981C172.709 33.5279 171.636 35.7056 169.808 37.0235C167.843 38.4405 165.393 38.6602 163.087 37.626C162.951 37.5657 162.868 37.4734 162.788 37.3844C162.754 37.3472 162.71 37.2986 162.648 37.2359C162.495 37.0805 162.445 36.8406 162.523 36.6302C162.601 36.4198 162.792 36.2818 163.003 36.2818C163.101 36.2818 163.185 36.2798 163.258 36.2782C163.406 36.2753 163.534 36.2725 163.669 36.2867C165.295 36.457 166.615 36.1009 167.704 35.197C168.68 34.3874 169.223 33.3119 169.319 32.0009C169.412 30.7437 169.404 29.2822 168.644 27.9729C167.982 26.8302 167.056 26.2573 165.816 26.2213C165.253 26.2051 164.675 26.2087 164.117 26.2128C163.553 26.2164 162.969 26.2205 162.391 26.2039C162.362 26.2031 162.338 26.2031 162.318 26.2043C162.315 26.2358 162.313 26.2795 162.313 26.3382C162.319 29.8742 162.32 33.4102 162.32 36.9466C162.321 39.9279 162.321 42.9095 162.325 45.8908C162.326 47.0027 162.86 47.6023 163.956 47.7245C164.222 47.7545 164.437 47.8932 164.594 48.1372C164.704 48.306 164.716 48.5261 164.627 48.7077C164.538 48.8919 164.361 49.006 164.169 49.006ZM159.667 47.9013H161.944C161.519 47.4033 161.292 46.7235 161.291 45.8944C161.287 42.9123 161.287 39.9307 161.287 36.9486C161.286 33.413 161.286 29.8778 161.28 26.3422C161.279 26.042 161.312 25.6625 161.574 25.3898C161.611 25.3509 161.65 25.3173 161.69 25.2886C161.267 25.2886 160.847 25.2894 160.429 25.2906C160.163 25.2914 159.898 25.2918 159.633 25.2922C160.18 25.8624 160.337 26.6926 160.337 28.0963V45.0002C160.336 46.5268 160.219 47.3422 159.667 47.9013ZM167.52 25.4893C168.33 25.8559 169 26.4924 169.523 27.393C170.444 28.9824 170.449 30.7377 170.349 32.0891C170.231 33.6999 169.535 35.0768 168.337 36.0714C167.741 36.5666 167.092 36.9255 166.381 37.1505C167.394 37.0793 168.368 36.7301 169.23 36.1086C170.767 35 171.671 33.1702 171.646 31.2143C171.608 28.1897 170.025 26.0497 167.52 25.4893Z" fill="#E47825"/>
<path d="M113.165 54.0029C110.779 54.4698 108.467 54.2606 106.234 53.1354C103.813 51.915 101.906 50.0166 100.107 47.9574C96.927 44.3182 93.7314 40.6944 90.5449 37.0613C90.448 36.9509 90.3776 36.8133 90.2671 36.6454C91.6616 34.7744 93.0501 32.9111 94.4397 31.0482C95.4231 29.7296 96.4156 28.4186 97.39 27.0918C98.3249 25.8185 98.2038 25.3334 96.7514 24.7588H102.989C102.995 24.7912 103.001 24.8235 103.007 24.8559C102.881 24.8935 102.756 24.951 102.627 24.9656C101.409 25.1076 100.421 25.6979 99.6248 26.684C97.326 29.5321 95.0321 32.3847 92.7139 35.215C92.3698 35.635 92.3577 35.892 92.7219 36.3031C96.4921 40.5601 100.199 44.8819 104.022 49.0835C106.081 51.3461 108.556 52.9808 111.529 53.5691C112.067 53.6755 112.614 53.7233 113.157 53.7982C113.159 53.8669 113.162 53.9349 113.165 54.0029Z" fill="#E47825"/>
<path d="M110.837 54.7912C109.139 54.7912 107.547 54.4081 106.014 53.6357C103.411 52.3243 101.376 50.2206 99.7287 48.3351C97.7107 46.0251 95.6519 43.6831 93.6608 41.4177C92.4957 40.0921 91.3309 38.7666 90.1673 37.4398C90.0727 37.3322 90.003 37.2189 89.9357 37.1096C89.908 37.0643 89.8781 37.0162 89.8444 36.9648C89.7119 36.7641 89.7191 36.4942 89.8622 36.302L91.0947 34.6483C92.0759 33.3321 93.0551 32.0183 94.0344 30.7049C94.3554 30.2748 94.6775 29.845 94.9993 29.4153C95.6523 28.5442 96.3272 27.6435 96.9821 26.7517C97.495 26.0529 97.4768 25.851 97.4681 25.8174C97.459 25.783 97.3727 25.5953 96.5706 25.2777C96.3359 25.185 96.197 24.9256 96.2413 24.6622C96.2855 24.3988 96.4998 24.207 96.75 24.207H102.988C103.233 24.207 103.444 24.3915 103.494 24.6485L103.513 24.746C103.567 25.0304 103.407 25.3108 103.145 25.3885C103.112 25.3986 103.079 25.41 103.047 25.4213C102.947 25.4561 102.824 25.499 102.682 25.5152C101.619 25.639 100.747 26.1395 100.015 27.0451L98.8566 28.4815C96.976 30.8125 95.0319 33.2232 93.1021 35.5794C93.0222 35.6769 92.9889 35.7335 92.9753 35.7618C92.9893 35.7881 93.0222 35.8399 93.0964 35.9237C94.4251 37.424 95.7681 38.9576 97.0665 40.4401C99.452 43.164 101.919 45.9806 104.392 48.6988C106.525 51.0432 108.957 52.4991 111.623 53.0267C111.972 53.0959 112.325 53.1388 112.698 53.1845C112.873 53.2059 113.048 53.227 113.222 53.2513C113.471 53.2856 113.661 53.5062 113.672 53.774L113.681 53.9784C113.693 54.2543 113.512 54.4971 113.258 54.5469C112.426 54.7099 111.62 54.7912 110.837 54.7912ZM90.9092 36.6698C90.9134 36.6747 90.9172 36.6795 90.921 36.684C92.0846 38.0107 93.2493 39.3359 94.4141 40.661C96.4056 42.9269 98.4648 45.2697 100.484 47.5809C102.144 49.4806 104.016 51.4078 106.454 52.6362C107.472 53.1493 108.522 53.4734 109.618 53.6102C107.447 52.83 105.446 51.4426 103.651 49.4696C101.171 46.7437 98.7006 43.9231 96.3117 41.1955C95.0141 39.7138 93.6725 38.1819 92.3458 36.6836C91.8063 36.0746 91.7996 35.4924 92.3242 34.8518C94.2513 32.499 96.1947 30.0902 98.0737 27.7604L99.2328 26.324C99.5538 25.9263 99.904 25.5884 100.281 25.3117H98.3887C98.419 25.3764 98.444 25.4444 98.4629 25.5164C98.6351 26.1674 98.2437 26.8225 97.7952 27.4331C97.1373 28.3293 96.4604 29.232 95.806 30.1052C95.4846 30.5341 95.1632 30.963 94.8426 31.3927C93.8629 32.7061 92.884 34.0195 91.9029 35.3362L90.9092 36.6698Z" fill="#E47825"/>
<path d="M131.953 42.4599C131.884 43.9922 132.108 45.2404 132.886 46.3236C134.087 47.9959 135.722 48.3318 137.518 47.9287C139.15 47.5626 140.354 46.5239 140.787 44.7549C141.23 42.9458 140.856 41.3374 139.498 40.0232C137.412 38.005 135.312 35.9972 133.322 33.8734C130.534 30.897 131.887 25.5248 135.703 24.5343C136.91 24.2207 138.244 24.4432 139.52 24.4655C140.116 24.476 140.711 24.5942 141.345 24.6678V28.6509C141.256 28.4684 141.181 28.3806 141.171 28.2847C140.924 25.9088 138.704 24.8782 136.766 25.2189C135.257 25.4839 134.211 26.432 133.729 28.0007C133.211 29.6843 133.66 31.1312 134.835 32.3127C136.83 34.3209 138.79 36.3788 140.887 38.2611C143.784 40.862 143.247 47.1325 139.106 48.5652C136.725 49.389 134.415 48.988 132.203 47.8041C131.6 47.4812 131.341 46.9734 131.325 46.2435C131.287 44.606 131.443 43.3711 131.953 42.4599Z" fill="#E47825"/>
<path d="M136.573 49.5476C135.067 49.5476 133.528 49.1304 131.972 48.2973C131.221 47.8955 130.829 47.2085 130.808 46.256C130.766 44.3769 130.982 43.1185 131.509 42.1754C131.63 41.9577 131.875 41.8565 132.102 41.9298C132.329 42.003 132.48 42.232 132.469 42.4849C132.4 44.0148 132.655 45.0943 133.296 45.9861C134.264 47.3335 135.61 47.7915 137.412 47.3869C138.472 47.149 139.831 46.4745 140.287 44.6136C140.698 42.9369 140.326 41.5688 139.15 40.4314L138.533 39.8342C136.678 38.0409 134.759 36.187 132.957 34.263C131.499 32.7068 130.973 30.4632 131.551 28.2608C132.117 26.0981 133.624 24.5039 135.581 23.9961C136.535 23.7484 137.536 23.8075 138.503 23.865C138.842 23.8852 139.193 23.9058 139.528 23.9115C139.966 23.9192 140.401 23.9807 140.822 24.0402C141.012 24.0669 141.204 24.0944 141.4 24.1171C141.662 24.1478 141.861 24.3845 141.861 24.6661V28.6488C141.861 28.9033 141.698 29.1247 141.467 29.1854C141.236 29.2461 140.996 29.1295 140.886 28.9042C140.86 28.8503 140.835 28.8066 140.813 28.769C140.752 28.6606 140.676 28.5258 140.657 28.3442C140.575 27.5572 140.227 26.894 139.649 26.4258C138.915 25.8314 137.869 25.5826 136.849 25.7623C135.524 25.9949 134.639 26.8054 134.219 28.1714C133.783 29.5912 134.1 30.8136 135.188 31.9085C135.618 32.3414 136.047 32.7764 136.475 33.2114C138.004 34.7643 139.585 36.3698 141.219 37.8362C142.809 39.2641 143.545 41.7845 143.094 44.2563C142.666 46.6007 141.234 48.407 139.264 49.0883C138.382 49.3955 137.484 49.5476 136.573 49.5476ZM134.714 25.5361C133.674 26.1592 132.895 27.227 132.546 28.5594C132.071 30.3713 132.497 32.2115 133.687 33.4816C135.471 35.3862 137.38 37.2309 139.226 39.0149L139.844 39.6125C141.312 41.0331 141.797 42.8098 141.287 44.8936C140.913 46.4207 139.983 47.5455 138.625 48.1419C138.732 48.11 138.839 48.0756 138.946 48.0388C140.576 47.4747 141.718 46.0193 142.079 44.0459C142.46 41.9621 141.861 39.8573 140.554 38.6835C138.896 37.1953 137.304 35.578 135.763 34.0137C135.336 33.5796 134.908 33.1458 134.479 32.7141C133.108 31.3343 132.678 29.6446 133.237 27.8274C133.538 26.8507 134.037 26.0799 134.714 25.5361ZM131.839 45.4864C131.834 45.7203 131.835 45.9675 131.841 46.2293C131.853 46.7771 132.025 47.0899 132.434 47.3092C132.869 47.5423 133.299 47.7393 133.725 47.9008C133.262 47.5872 132.845 47.1729 132.476 46.659C132.212 46.2924 132.001 45.9052 131.839 45.4864ZM139.414 25.0149C139.724 25.1573 140.013 25.335 140.274 25.5466C140.479 25.7133 140.664 25.8978 140.828 26.0973V25.1561C140.78 25.1497 140.733 25.1428 140.686 25.1363C140.277 25.078 139.889 25.0238 139.511 25.0169C139.479 25.0165 139.446 25.0157 139.414 25.0149Z" fill="#E47825"/>
<path d="M205.298 48.5336C203.221 48.5336 201.145 48.5344 199.069 48.532C198.936 48.532 198.803 48.5118 198.656 48.5C198.691 48.4037 198.706 48.322 198.723 48.3212C200.209 48.2686 201.016 47.0924 201 45.4459C200.94 39.1913 200.976 32.9354 200.976 26.6799C200.976 25.5846 200.974 25.583 199.923 25.5814C198.466 25.5798 197.009 25.5794 195.552 25.5814C193.91 25.5834 193.331 26.0524 192.828 27.7166V24.3679C198.912 24.8956 204.968 24.9376 211.089 24.355V27.9294C211.089 27.929 211.017 27.9274 211.012 27.9092C210.606 26.0423 210.061 25.5826 208.234 25.581C206.704 25.5798 205.175 25.5947 203.645 25.5749C203.156 25.5688 202.961 25.7335 202.962 26.2875C202.975 32.88 202.964 39.4733 202.976 46.0658C202.978 47.2769 203.714 48.1084 204.834 48.2662C204.994 48.2888 205.154 48.3155 205.313 48.3406C205.308 48.4054 205.303 48.4697 205.298 48.5336Z" fill="#E47825"/>
<path d="M202.926 49.0838C201.64 49.0838 200.354 49.0834 199.068 49.0821C198.954 49.0821 198.849 49.0712 198.747 49.0611C198.705 49.0567 198.661 49.0522 198.617 49.049C198.453 49.036 198.305 48.9401 198.218 48.7916C198.131 48.6431 198.114 48.459 198.175 48.2956C198.184 48.2713 198.19 48.2478 198.197 48.2284C198.31 47.8582 198.536 47.7732 198.706 47.7675C200.33 47.7101 200.49 46.128 200.483 45.4502C200.44 40.9197 200.447 36.3139 200.453 31.8602C200.456 30.1328 200.459 28.4059 200.459 26.6786C200.459 26.486 200.459 26.274 200.449 26.1445C200.323 26.1331 200.113 26.1327 199.922 26.1323C198.465 26.1307 197.009 26.1303 195.552 26.1323C194.151 26.134 193.754 26.4455 193.319 27.8852C193.241 28.1441 192.997 28.3035 192.747 28.2611C192.496 28.2186 192.31 27.9871 192.31 27.7156V24.367C192.31 24.2128 192.371 24.0655 192.477 23.9607C192.583 23.8563 192.724 23.8041 192.869 23.8163C199.222 24.367 205.166 24.3629 211.043 23.8037C211.187 23.7908 211.331 23.8418 211.438 23.9466C211.545 24.0514 211.606 24.1991 211.606 24.354V27.9285C211.606 28.1061 211.526 28.2728 211.391 28.3764C211.293 28.452 211.175 28.4885 211.057 28.4796C210.633 28.4553 210.53 28.132 210.509 28.0333C210.157 26.4176 209.817 26.1336 208.233 26.1323C207.754 26.1323 207.274 26.1331 206.795 26.1344C205.761 26.1372 204.691 26.1396 203.638 26.1263C203.565 26.1242 203.517 26.1299 203.487 26.1344C203.482 26.1647 203.478 26.2129 203.478 26.2849C203.485 29.7379 203.485 33.2484 203.486 36.6432C203.486 39.7835 203.487 42.9234 203.492 46.0636C203.493 46.9749 204.02 47.5931 204.901 47.7178C205.015 47.7335 205.127 47.7517 205.24 47.7699L205.388 47.7934C205.658 47.8355 205.851 48.0957 205.828 48.3862L205.813 48.5764C205.791 48.8628 205.567 49.0838 205.298 49.0838H204.111C203.717 49.0838 203.322 49.0838 202.926 49.0838ZM200.702 47.9783C201.516 47.9787 202.33 47.9791 203.143 47.9787C202.708 47.494 202.46 46.8332 202.459 46.0653C202.454 42.9246 202.453 39.7839 202.453 36.6432C202.452 33.2488 202.452 29.7391 202.445 26.2873C202.444 26.017 202.475 25.6241 202.748 25.3356C202.75 25.3332 202.752 25.3308 202.754 25.3284C202.24 25.332 201.725 25.3312 201.207 25.3267C201.433 25.5638 201.492 25.9762 201.492 26.6782C201.492 28.4059 201.49 30.1337 201.487 31.8614C201.48 36.3122 201.474 40.9144 201.517 45.4385C201.527 46.5011 201.232 47.3771 200.702 47.9783ZM209.09 25.0759C209.731 25.1584 210.207 25.3522 210.572 25.703V24.9557C210.079 24.9998 209.584 25.0399 209.09 25.0759ZM193.344 24.9642V25.6731C193.714 25.3381 194.175 25.1515 194.779 25.0726C194.303 25.0399 193.824 25.0034 193.344 24.9642Z" fill="#E47825"/>
<path d="M153.368 48.5036H146.705C146.695 48.4607 146.686 48.4178 146.676 48.3749C146.83 48.3397 146.982 48.2936 147.137 48.2717C148.173 48.1265 148.985 47.3362 148.991 46.2207C149.02 39.8086 149.016 33.3966 148.99 26.9845C148.985 25.9888 148.305 25.2528 147.392 25.0193C147.166 24.9614 146.933 24.9303 146.715 24.7737H153.307C153.294 24.8336 153.291 24.9036 153.276 24.9068C151.472 25.275 151.015 25.8706 151.015 27.8573V44.9931C151.015 47.4779 151.209 47.7583 153.368 48.5036Z" fill="#E47825"/>
<path d="M153.368 49.0553H146.705C146.465 49.0553 146.256 48.8789 146.201 48.6292L146.173 48.5002C146.141 48.3557 146.166 48.2036 146.24 48.0781C146.314 47.9527 146.432 47.8645 146.568 47.8338C146.613 47.8232 146.658 47.8123 146.703 47.8006C146.813 47.7727 146.938 47.7415 147.07 47.7229C147.766 47.6254 148.469 47.122 148.473 46.2169C148.501 40.1435 148.501 33.8532 148.472 26.986C148.469 26.1569 147.85 25.7033 147.271 25.5552C147.234 25.5455 147.196 25.5366 147.158 25.5281C146.949 25.4792 146.688 25.4181 146.427 25.2319C146.238 25.0964 146.154 24.8451 146.22 24.6121C146.286 24.3794 146.487 24.22 146.714 24.22H153.307C153.464 24.22 153.614 24.2973 153.712 24.4296C153.81 24.5623 153.846 24.7355 153.81 24.8997L153.806 24.924C153.746 25.3145 153.509 25.4197 153.373 25.4476C151.807 25.7673 151.532 26.1274 151.532 27.8555V44.9913C151.532 47.2228 151.588 47.3065 153.527 47.9762C153.769 48.0595 153.918 48.3193 153.879 48.588C153.839 48.857 153.623 49.0553 153.368 49.0553ZM148.861 47.9503H151.14C150.605 47.3737 150.497 46.5467 150.497 44.9921V27.8563C150.497 26.6594 150.674 25.8676 151.145 25.3254H148.903C149.285 25.7709 149.503 26.3442 149.505 26.9815C149.534 33.8524 149.534 40.1463 149.506 46.223C149.504 46.8914 149.266 47.4927 148.861 47.9503Z" fill="#E47825"/>
<path d="M84.8389 24.7644H91.4394C91.4432 24.8016 91.4473 24.8389 91.4515 24.8761C91.2251 24.9182 90.9976 24.9513 90.7731 25.0031C89.7625 25.2374 89.1174 26.1158 89.1125 27.3261C89.1012 30.2062 89.1084 33.0859 89.1084 35.9656C89.1084 39.1305 89.108 42.2959 89.1084 45.4613C89.1087 47.3978 89.5736 47.9821 91.3591 48.3013C91.3947 48.3078 91.4227 48.3648 91.5188 48.4664H84.7C84.8234 48.3847 84.9006 48.2948 84.9873 48.2827C86.4594 48.0739 87.1211 47.2938 87.1275 45.7C87.137 43.339 87.1301 40.978 87.1301 38.6171C87.1301 35.0888 87.1301 31.5604 87.1301 28.0317C87.1298 25.8791 86.749 25.3539 84.8389 24.7644Z" fill="#E47825"/>
<path d="M91.5188 49.0177H84.6999C84.469 49.0177 84.2661 48.8538 84.2029 48.6163C84.1396 48.3788 84.2316 48.1255 84.4285 47.9952C84.4584 47.9754 84.4841 47.9548 84.5076 47.9361C84.6018 47.8621 84.7313 47.7605 84.9194 47.7338C86.147 47.5598 86.6058 47.0075 86.6111 45.6966C86.6179 44.0384 86.6164 42.3515 86.6149 40.7201C86.6141 40.0189 86.6138 39.3173 86.6138 38.6161V28.0307C86.6138 26.1262 86.3984 25.8195 84.6961 25.2939C84.4489 25.2178 84.2918 24.9584 84.3278 24.6857C84.3637 24.413 84.5818 24.2107 84.8396 24.2107H91.4401C91.7024 24.2107 91.9231 24.4211 91.9534 24.6995L91.9655 24.8112C91.9969 25.1021 91.8103 25.3691 91.5404 25.4189C91.4669 25.4327 91.3935 25.4452 91.3197 25.4581C91.1671 25.4844 91.0233 25.5095 90.8836 25.5419C90.1027 25.7228 89.6341 26.3904 89.6303 27.3271C89.6224 29.3919 89.6235 31.4919 89.625 33.5227C89.6254 34.3364 89.6261 35.1505 89.6261 35.9642V37.4253C89.6261 40.1035 89.6257 42.7817 89.6261 45.4598C89.6265 47.1172 89.9157 47.4822 91.4454 47.7553C91.6486 47.7917 91.7614 47.9289 91.822 48.0021C91.8372 48.0207 91.8565 48.0442 91.8833 48.0725C92.0321 48.2299 92.0775 48.4682 91.9976 48.6754C91.917 48.8826 91.7285 49.0177 91.5188 49.0177ZM86.9609 47.9127H89.231C88.7703 47.3842 88.592 46.6106 88.5916 45.4603C88.5912 42.7821 88.5912 40.1035 88.5916 37.4253V35.9642C88.5916 35.1509 88.5908 34.3368 88.5905 33.5235C88.5889 31.4911 88.5874 29.3899 88.5958 27.3222C88.5988 26.5272 88.8452 25.83 89.2737 25.3149H86.9877C87.4882 25.8943 87.6472 26.7125 87.6472 28.0299V38.6153C87.6472 39.3161 87.6479 40.0173 87.6483 40.7181C87.6498 42.3507 87.6513 44.0392 87.6445 45.7002C87.6403 46.6563 87.4147 47.3911 86.9609 47.9127Z" fill="#E47825"/>
<path d="M38.5132 31.3691C38.4141 31.3691 38.319 31.327 38.249 31.2521L33.7441 26.4363C33.5983 26.2805 33.5983 26.0276 33.7441 25.8719L38.249 21.0568C38.3947 20.9007 38.6313 20.9007 38.7771 21.0568L43.282 25.8719C43.4277 26.0276 43.4277 26.2805 43.282 26.4363L38.7771 31.2521C38.707 31.327 38.612 31.3691 38.5132 31.3691ZM34.5363 26.1543L38.5128 30.4052L42.4893 26.1543L38.5128 21.9037L34.5363 26.1543Z" fill="#F8A932"/>
<path d="M38.5133 28.8125C38.4175 28.8125 38.3221 28.7736 38.2491 28.6955L36.1338 26.4345C36.0638 26.3596 36.0244 26.2585 36.0244 26.1521C36.0244 26.0461 36.0638 25.9445 36.1338 25.8697L38.2491 23.609C38.3952 23.4532 38.6314 23.4532 38.7775 23.609L40.8927 25.8697C40.9628 25.9445 41.0021 26.0457 41.0021 26.1521C41.0021 26.2581 40.9628 26.3596 40.8927 26.4345L38.7775 28.6955C38.7041 28.7736 38.6087 28.8125 38.5133 28.8125ZM36.9261 26.1525L38.5133 27.8491L40.1001 26.1525L38.5133 24.4567L36.9261 26.1525Z" fill="#F8A932"/>
<path d="M38.5133 18.5629C37.7589 18.5629 37.1445 17.9062 37.1445 17.0993C37.1445 16.2925 37.7589 15.6362 38.5133 15.6362C39.2678 15.6362 39.8821 16.2925 39.8821 17.0993C39.8817 17.9062 39.2678 18.5629 38.5133 18.5629ZM38.5133 16.435C38.1704 16.435 37.8918 16.7328 37.8918 17.0993C37.8918 17.4659 38.1704 17.7641 38.5133 17.7641C38.8563 17.7641 39.1349 17.4659 39.1349 17.0993C39.1349 16.7328 38.8559 16.435 38.5133 16.435Z" fill="#16AC7D"/>
<path d="M38.5133 36.6708C37.7589 36.6708 37.1445 36.0145 37.1445 35.2077C37.1445 34.4008 37.7589 33.7441 38.5133 33.7441C39.2678 33.7441 39.8821 34.4008 39.8821 35.2077C39.8821 36.0145 39.2678 36.6708 38.5133 36.6708ZM38.5133 34.5429C38.1704 34.5429 37.8918 34.8411 37.8918 35.2077C37.8918 35.5742 38.1704 35.872 38.5133 35.872C38.8563 35.872 39.1349 35.5738 39.1349 35.2077C39.1349 34.8411 38.8559 34.5429 38.5133 34.5429Z" fill="#16AC7D"/>
<path d="M38.5132 61.4271C38.4141 61.4271 38.319 61.385 38.249 61.3102L33.7441 56.4943C33.5983 56.3386 33.5983 56.0857 33.7441 55.9299L38.249 51.1149C38.3947 50.9591 38.6313 50.9591 38.7771 51.1149L43.282 55.9299C43.4277 56.0857 43.4277 56.3386 43.282 56.4943L38.7771 61.3102C38.707 61.385 38.612 61.4271 38.5132 61.4271ZM34.5363 56.2119L38.5128 60.4629L42.4893 56.2119L38.5128 51.9614L34.5363 56.2119Z" fill="#F8A932"/>
<path d="M38.5133 58.8727C38.4175 58.8727 38.3221 58.8339 38.2491 58.7558L36.1338 56.4948C36.0638 56.4199 36.0244 56.3188 36.0244 56.2124C36.0244 56.1064 36.0638 56.0052 36.1338 55.9299L38.2491 53.6693C38.3952 53.5135 38.6314 53.5135 38.7775 53.6693L40.8927 55.9299C40.9628 56.0048 41.0021 56.106 41.0021 56.2124C41.0021 56.3184 40.9628 56.4199 40.8927 56.4948L38.7775 58.7558C38.7041 58.8339 38.6087 58.8727 38.5133 58.8727ZM36.9261 56.2124L38.5133 57.9089L40.1001 56.2124L38.5133 54.5166L36.9261 56.2124Z" fill="#F8A932"/>
<path d="M38.5133 48.6212C37.7589 48.6212 37.1445 47.9645 37.1445 47.1577C37.1445 46.3509 37.7589 45.6946 38.5133 45.6946C39.2678 45.6946 39.8821 46.3509 39.8821 47.1577C39.8817 47.9645 39.2678 48.6212 38.5133 48.6212ZM38.5133 46.4929C38.1704 46.4929 37.8918 46.7911 37.8918 47.1573C37.8918 47.5235 38.1704 47.8221 38.5133 47.8221C38.8563 47.8221 39.1349 47.5239 39.1349 47.1573C39.1349 46.7907 38.8559 46.4929 38.5133 46.4929Z" fill="#16AC7D"/>
<path d="M38.5133 66.7308C37.7589 66.7308 37.1445 66.0745 37.1445 65.2677C37.1445 64.4609 37.7589 63.8042 38.5133 63.8042C39.2678 63.8042 39.8821 64.4609 39.8821 65.2677C39.8817 66.0745 39.2678 66.7308 38.5133 66.7308ZM38.5133 64.6029C38.1704 64.6029 37.8918 64.9011 37.8918 65.2677C37.8918 65.6343 38.1704 65.9321 38.5133 65.9321C38.8563 65.9321 39.1349 65.6339 39.1349 65.2677C39.1349 64.9011 38.8559 64.6029 38.5133 64.6029Z" fill="#16AC7D"/>
<path d="M57.148 41.4887C57.148 41.5947 57.1087 41.6963 57.0386 41.7711L52.5333 46.5861C52.3876 46.7419 52.151 46.7419 52.0053 46.5861L47.5007 41.7711C47.3546 41.6153 47.3546 41.3624 47.5007 41.2067L52.0053 36.3912C52.151 36.2355 52.3876 36.2355 52.5333 36.3912L57.0386 41.2067C57.1087 41.2811 57.148 41.3827 57.148 41.4887ZM52.2691 45.7392L56.246 41.4887L52.2691 37.2381L48.2926 41.4887L52.2691 45.7392Z" fill="#F8A932"/>
<path d="M54.7578 41.4893C54.7578 41.5916 54.7215 41.6936 54.6484 41.7717L52.5332 44.0327C52.4631 44.1076 52.3685 44.1497 52.269 44.1497C52.1698 44.1497 52.0748 44.1076 52.0047 44.0327L49.8899 41.7717C49.7437 41.6159 49.7437 41.363 49.8899 41.2068L52.0047 38.9458C52.0748 38.8709 52.1698 38.8289 52.269 38.8289C52.3681 38.8289 52.4631 38.8709 52.5332 38.9458L54.6484 41.2068C54.7215 41.2849 54.7578 41.3869 54.7578 41.4893ZM52.269 43.1854L53.8558 41.4893L52.269 39.7927L50.6825 41.4893L52.269 43.1854Z" fill="#F8A932"/>
<path d="M45.1672 41.4897C45.1672 42.2962 44.5528 42.9529 43.798 42.9529C43.0432 42.9529 42.4292 42.2962 42.4292 41.4897C42.4292 40.6833 43.0432 40.0266 43.798 40.0266C44.5528 40.0266 45.1672 40.6833 45.1672 41.4897ZM43.1761 41.4897C43.1761 41.8563 43.4546 42.1541 43.7976 42.1541C44.1406 42.1541 44.4195 41.8563 44.4195 41.4897C44.4195 41.1232 44.1406 40.8253 43.7976 40.8253C43.455 40.8249 43.1761 41.1232 43.1761 41.4897Z" fill="#16AC7D"/>
<path d="M62.1093 41.4897C62.1093 42.2962 61.4953 42.9529 60.7405 42.9529C59.9857 42.9529 59.3713 42.2962 59.3713 41.4897C59.3713 40.6833 59.9857 40.0266 60.7405 40.0266C61.4953 40.0266 62.1093 40.6833 62.1093 41.4897ZM60.1186 41.4897C60.1186 41.8563 60.3976 42.1541 60.7405 42.1541C61.0835 42.1541 61.3621 41.8563 61.3621 41.4897C61.3621 41.1232 61.0831 40.8253 60.7405 40.8253C60.3976 40.8249 60.1186 41.1232 60.1186 41.4897Z" fill="#16AC7D"/>
<path d="M29.624 41.4325C29.624 41.5385 29.5846 41.6401 29.5146 41.715L25.0092 46.53C24.8635 46.6858 24.6269 46.6858 24.4812 46.53L19.9762 41.715C19.8305 41.5592 19.8305 41.3063 19.9762 41.1505L24.4812 36.3351C24.6269 36.1793 24.8635 36.1793 25.0092 36.3351L29.5146 41.1505C29.5846 41.2254 29.624 41.3269 29.624 41.4325ZM24.7454 45.6835L28.7223 41.4329L24.7454 37.1824L20.7689 41.4329L24.7454 45.6835Z" fill="#F8A932"/>
<path d="M27.2344 41.4331C27.2344 41.5355 27.198 41.6374 27.125 41.7155L25.0097 43.9766C24.9397 44.0514 24.8451 44.0935 24.7455 44.0935C24.6463 44.0935 24.5513 44.0514 24.4813 43.9766L22.3664 41.7155C22.2203 41.5597 22.2203 41.3069 22.3664 41.1507L24.4813 38.8896C24.5513 38.8148 24.6459 38.7727 24.7455 38.7727C24.8447 38.7727 24.9393 38.8148 25.0097 38.8896L27.125 41.1507C27.1977 41.2288 27.2344 41.3307 27.2344 41.4331ZM24.7455 43.1293L26.3323 41.4331L24.7455 39.7365L23.1591 41.4331L24.7455 43.1293Z" fill="#F8A932"/>
<path d="M17.6437 41.4338C17.6437 42.2402 17.0294 42.8969 16.2746 42.8969C15.5198 42.8969 14.9058 42.2402 14.9058 41.4338C14.9058 40.6274 15.5198 39.9707 16.2746 39.9707C17.0294 39.9707 17.6437 40.6274 17.6437 41.4338ZM15.653 41.4338C15.653 41.8004 15.9316 42.0982 16.2746 42.0982C16.6175 42.0982 16.8969 41.8004 16.8969 41.4338C16.8969 41.0672 16.6179 40.7694 16.2746 40.7694C15.9316 40.7694 15.653 41.0672 15.653 41.4338Z" fill="#16AC7D"/>
<path d="M34.5859 41.4338C34.5859 42.2402 33.9719 42.8969 33.2171 42.8969C32.4623 42.8969 31.8479 42.2402 31.8479 41.4338C31.8479 40.6274 32.4623 39.9707 33.2171 39.9707C33.9719 39.9707 34.5859 40.6274 34.5859 41.4338ZM32.5948 41.4338C32.5948 41.8004 32.8737 42.0982 33.2167 42.0982C33.5596 42.0982 33.8382 41.8004 33.8382 41.4338C33.8382 41.0672 33.5593 40.7694 33.2167 40.7694C32.8741 40.7694 32.5948 41.0672 32.5948 41.4338Z" fill="#16AC7D"/>
<path d="M38.7376 39.9616C38.7546 40.1671 38.6414 40.3609 38.4658 40.4273C38.4147 40.403 38.3753 40.3727 38.3356 40.3306C38.2508 40.2335 38.1997 40.1068 38.211 39.9616C38.2224 39.8466 38.2958 39.139 38.4768 38.0198C38.6581 39.139 38.7262 39.8466 38.7376 39.9616Z" fill="#F8A932"/>
<path d="M38.2307 42.8432C38.2137 42.6376 38.3269 42.4438 38.5025 42.3774C38.5536 42.4017 38.593 42.4317 38.6327 42.4741C38.7179 42.5712 38.7686 42.6979 38.7572 42.8432C38.7459 42.9581 38.6724 43.6658 38.4915 44.7849C38.3098 43.6658 38.2421 42.9581 38.2307 42.8432Z" fill="#F8A932"/>
<path d="M39.8611 41.77C39.6684 41.7881 39.4875 41.6673 39.425 41.4796C39.4478 41.425 39.4761 41.383 39.5159 41.3405C39.6064 41.2496 39.7252 41.1954 39.8611 41.2075C39.9686 41.2196 40.6307 41.2981 41.6777 41.4914C40.6307 41.6854 39.9686 41.7578 39.8611 41.77Z" fill="#F8A932"/>
<path d="M37.1105 41.1852C37.3028 41.167 37.4842 41.2879 37.5462 41.4755C37.5235 41.5301 37.4951 41.5721 37.4558 41.6146C37.3649 41.7052 37.2464 41.7598 37.1105 41.7476C37.003 41.7355 36.341 41.657 35.2939 41.4638C36.341 41.2701 37.003 41.1973 37.1105 41.1852Z" fill="#F8A932"/>
<path d="M64.752 12.9434L57.0387 21.1884C56.6302 21.625 55.9659 21.6237 55.5586 21.1884L54.5649 20.1258C54.1565 19.6892 54.1565 18.9803 54.5649 18.5438L58.5062 14.3308C58.9135 13.8955 59.5779 13.8942 59.9863 14.3308C60.3936 14.7662 60.3936 15.4775 59.9863 15.9129L56.8312 19.2854C56.6858 19.4404 56.45 19.4404 56.305 19.2854C56.1597 19.1301 56.1597 18.878 56.305 18.7226L59.4598 15.3501C59.5779 15.2242 59.5779 15.0191 59.4598 14.8932C59.3417 14.7674 59.1501 14.7674 59.0324 14.8932L55.0911 19.1062C54.973 19.232 54.973 19.4372 55.0911 19.563L56.0847 20.6251C56.2028 20.751 56.3944 20.751 56.5121 20.6251L64.2255 12.3801C64.3686 12.2272 64.3042 12.0548 64.2812 12.0055C64.2581 11.9561 64.1676 11.8007 63.9673 11.8323C60.7418 12.3474 53.4244 13.8906 48.1514 17.8231C47.9209 17.9955 47.6934 18.1707 47.4727 18.3532C47.4356 18.057 47.3924 17.7612 47.344 17.4642C47.562 17.2919 47.7842 17.1264 48.0106 16.9633C53.393 13.0866 60.6325 11.5596 63.8583 11.0445C64.3133 10.9725 64.7395 11.21 64.947 11.6478C65.1533 12.0872 65.0776 12.5958 64.752 12.9434Z" fill="#E47825"/>
<path d="M60.9965 32.0564C60.7194 32.0034 60.4438 31.9564 60.1671 31.9168C60.3367 31.6793 60.5018 31.4373 60.6619 31.1921C64.3401 25.5569 65.7823 17.736 66.2646 14.2882C66.2941 14.0741 66.1487 13.9774 66.1026 13.9527C66.0564 13.9281 65.8951 13.8593 65.752 14.0122L58.0386 22.2572C57.9209 22.3831 57.9209 22.5882 58.0386 22.714L59.0323 23.7762C59.15 23.902 59.3419 23.902 59.4596 23.7762L63.401 19.5632C63.5187 19.4374 63.5187 19.2323 63.401 19.1064C63.2844 18.9814 63.0917 18.9806 62.9736 19.1064L59.8185 22.479C59.6731 22.6343 59.4385 22.6355 59.2924 22.479C59.147 22.3236 59.147 22.0719 59.2924 21.9165L62.4471 18.544C62.8544 18.1086 63.5198 18.1086 63.9275 18.544C64.3359 18.9806 64.3348 19.6907 63.9275 20.1261L59.9858 24.339C59.5774 24.7756 58.9142 24.7756 58.5058 24.339L57.5121 23.2769C57.1044 22.8415 57.1037 22.1314 57.5121 21.6948L65.2255 13.4498C65.5506 13.1022 66.0265 13.0209 66.4372 13.2418C66.8468 13.4636 67.0686 13.9192 67.0016 14.4051C66.5197 17.8529 65.0907 25.5893 61.4663 31.343C61.3133 31.5846 61.1574 31.8233 60.9965 32.0564Z" fill="#E47825"/>
<path d="M66.422 69.7479C66.0113 69.9704 65.5355 69.8875 65.2103 69.5395L57.4973 61.2949C57.09 60.8595 57.0889 60.1494 57.4973 59.7128L58.4913 58.6507C58.8986 58.2153 59.5641 58.2153 59.9714 58.6507L63.9127 62.8636C64.3212 63.3002 64.32 64.0103 63.9127 64.4457C63.5039 64.8823 62.8407 64.8823 62.4323 64.4457L59.2772 61.0732C59.1318 60.9178 59.1318 60.6657 59.2772 60.5103C59.4225 60.3554 59.6583 60.3554 59.8037 60.5103L62.9584 63.8829C63.0765 64.0087 63.2681 64.0087 63.3858 63.8829C63.5039 63.757 63.5039 63.5519 63.3858 63.426L59.4445 59.2131C59.3264 59.0873 59.1348 59.0873 59.0171 59.2131L58.0235 60.2752C57.9057 60.4011 57.9057 60.6062 58.0235 60.7321L65.7369 68.977C65.8811 69.1312 66.0424 69.0624 66.0874 69.0365C66.1328 69.0131 66.2801 68.9164 66.2494 68.7035C65.7683 65.259 64.3291 57.455 60.6607 51.8211C60.4995 51.5746 60.3363 51.3327 60.1667 51.0952C60.4427 51.0567 60.7183 51.0094 60.9953 50.9568C61.1566 51.1894 61.3122 51.4282 61.4636 51.6713C65.0797 57.4227 66.5042 65.1429 66.9853 68.5854C67.0538 69.0705 66.8327 69.5269 66.422 69.7479Z" fill="#E47825"/>
<path d="M63.8436 71.9443C60.6211 71.43 53.39 69.9054 48.0083 66.0344C47.782 65.8713 47.5586 65.7046 47.3398 65.5338C47.3894 65.2377 47.4337 64.9431 47.4704 64.6473C47.6926 64.8286 47.919 65.005 48.1507 65.1762C53.4214 69.1022 60.7298 70.6438 63.9541 71.1581C64.1532 71.1909 64.2437 71.0331 64.2657 70.9849C64.2899 70.9364 64.3542 70.7644 64.21 70.6102L56.4966 62.3652C56.3785 62.2394 56.187 62.2394 56.0692 62.3652L55.0752 63.4274C54.9575 63.5532 54.9575 63.7584 55.0752 63.8842L59.0169 68.0971C59.135 68.223 59.3265 68.223 59.4443 68.0971C59.5624 67.9713 59.5624 67.7661 59.4443 67.6403L56.2892 64.2682C56.1438 64.1128 56.1438 63.8607 56.2892 63.7054C56.4341 63.55 56.67 63.55 56.8153 63.7054L59.9704 67.0779C60.3789 67.5145 60.3789 68.2234 59.9704 68.66C59.5631 69.0957 58.8988 69.097 58.4903 68.66L54.5487 64.447C54.1414 64.0117 54.1414 63.3003 54.5487 62.865L55.5423 61.8028C55.9508 61.3662 56.6151 61.3674 57.0228 61.8028L64.7362 70.0474C65.0613 70.3954 65.1393 70.904 64.9311 71.3426C64.7248 71.7808 64.2975 72.0171 63.8436 71.9443Z" fill="#E47825"/>
<path d="M29.6617 65.5478C29.4437 65.7201 29.2207 65.8864 28.9932 66.0483C23.6127 69.9205 16.3804 71.4464 13.1561 71.9606C12.8192 72.0145 12.4948 71.8975 12.2665 71.6535C12.1885 71.5702 12.1212 71.4714 12.0686 71.359C11.8611 70.9191 11.9368 70.4105 12.2624 70.0625L19.9758 61.8176C20.3842 61.381 21.0485 61.3822 21.457 61.8188L22.4495 62.8797C22.8579 63.3163 22.8579 64.0252 22.4495 64.4618L18.5082 68.6747C18.1009 69.1101 17.4366 69.1113 17.0281 68.6747C16.6208 68.2393 16.6208 67.528 17.0281 67.0926L20.1832 63.7205C20.3286 63.5651 20.5644 63.5651 20.7098 63.7205C20.8562 63.8767 20.8547 64.1275 20.7098 64.2829L17.5547 67.6554C17.4369 67.7813 17.4377 67.9872 17.5547 68.1123C17.6728 68.2381 17.8643 68.2381 17.982 68.1123L21.9237 63.8993C22.0414 63.7735 22.0414 63.5684 21.9237 63.4425L20.9312 62.3816C20.8131 62.2558 20.6208 62.2545 20.5027 62.3804L12.7889 70.625C12.6458 70.7779 12.7102 70.9503 12.7333 70.9997C12.7563 71.049 12.8468 71.2044 13.0471 71.1728C16.2714 70.6586 23.5794 69.1169 28.8517 65.1897C29.0822 65.0197 29.3086 64.8429 29.5308 64.6621C29.5682 64.957 29.6114 65.2528 29.6617 65.5478Z" fill="#E47825"/>
<path d="M19.5028 61.313L11.7894 69.558C11.4642 69.9055 10.9884 69.9865 10.5777 69.766C10.4725 69.7097 10.3797 69.6377 10.3006 69.5535C10.072 69.3091 9.96371 68.9636 10.0133 68.6027C10.4955 65.1573 11.9219 57.4254 15.5444 51.674C15.6959 51.4309 15.8518 51.1946 16.012 50.9607C16.289 51.0137 16.5657 51.0598 16.8424 51.0991C16.6729 51.3366 16.5078 51.5786 16.3477 51.8238C12.6736 57.4589 11.2314 65.273 10.7503 68.72C10.7208 68.9336 10.8673 69.0316 10.9123 69.0554C10.9585 69.0801 11.1198 69.1489 11.2628 68.996L18.9759 60.751C19.094 60.6251 19.094 60.4204 18.9759 60.2941L17.9822 59.2316C17.8645 59.1058 17.6726 59.1058 17.5545 59.2316L13.6132 63.4449C13.4954 63.5708 13.4954 63.7759 13.6132 63.9017C13.7313 64.028 13.9228 64.028 14.0405 63.9017L17.1956 60.5292C17.341 60.3743 17.5768 60.3743 17.7221 60.5292C17.8675 60.6846 17.8675 60.9367 17.7221 61.092L14.5671 64.4646C14.1598 64.9 13.4943 64.9 13.087 64.4646C12.6786 64.028 12.6797 63.3179 13.087 62.8825L17.0283 58.6696C17.4368 58.233 18.0999 58.233 18.5084 58.6696L19.502 59.7317C19.9112 60.1675 19.9112 60.8764 19.5028 61.313Z" fill="#E47825"/>
<path d="M16.3532 31.1887C16.5133 31.4364 16.6783 31.6783 16.8479 31.9159C16.5712 31.9551 16.2953 32 16.0186 32.053C15.8573 31.82 15.7006 31.5824 15.5492 31.3393C11.9236 25.5867 10.4961 17.852 10.015 14.405C9.94649 13.9199 10.1679 13.463 10.5783 13.2425C10.989 13.02 11.4648 13.1029 11.7899 13.4509L19.5033 21.6959C19.9106 22.1313 19.9118 22.8414 19.5033 23.278L18.5093 24.3401C18.102 24.7755 17.4365 24.7755 17.0292 24.3401L13.0876 20.1272C12.6791 19.6906 12.6803 18.9805 13.0876 18.5451C13.496 18.1085 14.1592 18.1085 14.5676 18.5451L17.7227 21.9176C17.8677 22.073 17.8677 22.3251 17.7227 22.4805C17.5774 22.6358 17.3415 22.6358 17.1962 22.4805L14.0411 19.1079C13.9234 18.9821 13.7315 18.9821 13.6137 19.1079C13.496 19.2338 13.496 19.4389 13.6137 19.5647L17.555 23.7777C17.6731 23.9035 17.8647 23.9035 17.9824 23.7777L18.976 22.7155C19.0941 22.5897 19.0941 22.3846 18.976 22.2587L11.2627 14.0137C11.1184 13.8596 10.9572 13.9283 10.911 13.953C10.8667 13.9777 10.7194 14.0748 10.7497 14.2873C11.2316 17.7363 12.675 25.5536 16.3532 31.1887Z" fill="#E47825"/>
<path d="M29.6588 17.4578C29.6092 17.7536 29.5661 18.0498 29.5294 18.3455C29.3072 18.1643 29.0808 17.9875 28.8491 17.8167C23.5769 13.8898 16.27 12.349 13.0457 11.8348C12.8469 11.802 12.7561 11.9598 12.733 12.0071C12.7099 12.0565 12.6456 12.2289 12.7898 12.383L20.5032 20.628C20.6209 20.7543 20.8128 20.7543 20.9306 20.628L21.9242 19.5659C22.0423 19.44 22.0423 19.2349 21.9242 19.1091L17.9829 14.8961C17.8652 14.7703 17.6733 14.7703 17.5555 14.8961C17.4378 15.022 17.4378 15.2271 17.5555 15.353L20.7106 18.7255C20.856 18.8809 20.856 19.1325 20.7106 19.2879C20.5653 19.4433 20.3295 19.4433 20.1841 19.2879L17.029 15.9154C16.6206 15.4788 16.6206 14.7699 17.029 14.3333C17.4363 13.8979 18.1006 13.8967 18.5091 14.3333L22.4504 18.5462C22.8577 18.9816 22.8577 19.6929 22.4504 20.1283L21.4567 21.1909C21.0483 21.6274 20.384 21.6262 19.9767 21.1909L12.2636 12.9459C11.9385 12.5983 11.8605 12.0897 12.0687 11.6507C12.275 11.2116 12.7023 10.9753 13.1562 11.0486C16.3787 11.5629 23.6098 13.0875 28.9915 16.9585C29.2167 17.1203 29.44 17.2866 29.6588 17.4578Z" fill="#E47825"/>
<path d="M75.9498 41.1474H65.0416C64.4647 41.1474 63.9953 40.6457 63.9953 40.029V38.5254C63.9953 37.9088 64.4647 37.4071 65.0416 37.4071H70.6148C71.1928 37.4083 71.6622 37.91 71.6622 38.5267C71.6622 39.1433 71.1928 39.645 70.6159 39.645L66.1533 39.6438C65.9482 39.645 65.7809 39.4662 65.7816 39.2465C65.7816 39.026 65.9478 38.8483 66.1533 38.8491L70.6159 38.8479C70.7821 38.8479 70.918 38.7027 70.918 38.525C70.918 38.3474 70.7821 38.2022 70.6159 38.2022L65.0416 38.2034C64.8743 38.2022 64.7384 38.3474 64.7395 38.5263V40.0274C64.7395 40.2054 64.8754 40.3503 65.0416 40.3503H75.9502C76.1531 40.3515 76.2216 40.1816 76.2375 40.1286C76.2542 40.0768 76.2935 39.8979 76.1312 39.7697C73.5109 37.696 67.3219 33.2609 60.9962 32.0535C60.7191 32.0005 60.4435 31.9532 60.1664 31.9139C59.4063 31.8035 58.6455 31.744 57.8914 31.744C48.676 31.744 39.8024 40.691 39.4742 41.0264L39.4617 41.0398C39.4545 41.0475 39.4462 41.0543 39.4375 41.0612C39.411 41.0847 39.3807 41.1037 39.3489 41.1175C39.347 41.1175 39.3447 41.1199 39.3425 41.1199C39.3224 41.1276 39.3016 41.1345 39.2804 41.1389C39.2111 41.1547 39.138 41.1466 39.0718 41.1187C39.0623 41.1154 39.0518 41.111 39.0423 41.1053C39.0287 41.0972 39.0158 41.0908 39.0033 41.0814C38.9844 41.0681 38.9662 41.0531 38.9507 41.0365C38.9495 41.0353 38.9495 41.0353 38.9488 41.0345L38.9382 41.0232C38.9246 41.0082 38.9128 40.9941 38.9034 40.9771C38.9003 40.9734 38.8969 40.9702 38.8958 40.9669C38.8905 40.9589 38.8852 40.9512 38.8822 40.9431C38.8534 40.8901 38.839 40.8318 38.8356 40.7723C38.8345 40.7642 38.8345 40.7578 38.8345 40.7484C38.8345 40.674 38.8534 40.6 38.8924 40.536C38.9049 40.5134 38.9196 40.4931 38.9378 40.4741L38.9473 40.464C38.9639 40.4462 40.1389 39.2372 42.0622 37.6968C42.8424 37.07 43.7479 36.3882 44.748 35.7109C47.9564 33.5393 52.841 30.9485 57.8899 30.9485C58.8101 30.9485 59.7368 31.0343 60.6608 31.1892C60.9292 31.2333 61.1976 31.2839 61.4652 31.3402C67.8321 32.6702 73.9546 37.0567 76.5737 39.1291C76.9424 39.4217 77.0885 39.9113 76.9443 40.3782C76.8004 40.846 76.4101 41.1462 75.9498 41.1474Z" fill="#F8A932"/>
<path d="M76.5733 43.8807C73.9531 45.9524 67.8303 50.3409 61.4637 51.6709C61.1964 51.7272 60.9288 51.7769 60.6604 51.8206C59.7361 51.9756 58.8098 52.0614 57.8918 52.0614C52.8406 52.0614 47.9572 49.4722 44.7487 47.2982C43.7656 46.6321 42.8738 45.9625 42.102 45.3467C40.5492 44.1057 39.4765 43.0735 39.0987 42.6988C39.0029 42.6033 38.9514 42.5503 38.948 42.5471C38.8735 42.4694 38.8345 42.3646 38.8345 42.2614C38.8345 42.2525 38.8345 42.2432 38.8356 42.2355V42.2222C38.8439 42.1368 38.8787 42.0522 38.9397 41.9847C39.0828 41.8273 39.3186 41.8228 39.4659 41.9758C39.4723 41.9826 39.5268 42.0389 39.626 42.1356C40.8755 43.3676 49.2374 51.2659 57.8907 51.2659C58.6444 51.2659 59.4056 51.2064 60.1668 51.0951C60.4424 51.0567 60.7183 51.0093 60.9951 50.9567C67.3211 49.7494 73.5102 45.3147 76.1312 43.2418C76.2932 43.1135 76.2534 42.9335 76.2375 42.8829C76.222 42.8299 76.1535 42.66 75.9502 42.6592H65.0416C64.8754 42.6592 64.7395 42.8044 64.7395 42.982V44.4856C64.7395 44.6637 64.8754 44.8085 65.0416 44.8085H70.6148C70.7821 44.8073 70.9168 44.6632 70.918 44.4844C70.918 44.3068 70.7821 44.1615 70.6159 44.1615L66.1534 44.1627C65.9482 44.1615 65.7816 43.9839 65.7809 43.7646C65.782 43.5453 65.9482 43.3673 66.1534 43.366L70.6159 43.3672C71.1928 43.3672 71.6626 43.869 71.6626 44.4856C71.6626 45.1023 71.1932 45.6044 70.6159 45.6044H65.0408C64.4639 45.6044 63.9946 45.1027 63.9946 44.4856L63.9957 42.9833C63.9957 42.3666 64.4651 41.8649 65.042 41.8649H75.9502C76.4101 41.8637 76.8008 42.1663 76.945 42.6333C77.0881 43.0986 76.9427 43.589 76.5733 43.8807Z" fill="#F8A932"/>
<path d="M39.5542 82.5799C39.1173 82.4258 38.8342 82.0082 38.8353 81.5166V69.8566C38.8353 69.2399 39.3047 68.7382 39.8816 68.7382L41.2871 68.737C41.864 68.737 42.3334 69.2387 42.3322 69.8566L42.3334 75.815C42.3334 76.4317 41.864 76.9338 41.2871 76.9338C40.7102 76.9338 40.2404 76.4317 40.2404 75.815L40.2393 71.0453C40.2401 70.826 40.4066 70.648 40.6118 70.6468C40.817 70.648 40.9835 70.8256 40.9846 71.0453L40.9835 75.815C40.9835 75.9927 41.1194 76.1379 41.2856 76.1379C41.4529 76.1367 41.5877 75.9927 41.5888 75.8138V69.8566C41.5888 69.6789 41.4529 69.5337 41.2867 69.5337H39.8801C39.7139 69.5337 39.578 69.6789 39.578 69.8566V81.5166C39.5791 81.7338 39.7381 81.8071 39.7873 81.8237C39.8346 81.8407 40.0031 81.8832 40.1231 81.71C42.0623 78.908 46.2111 72.2948 47.3395 65.5344C47.3891 65.2382 47.4334 64.9436 47.4701 64.6475C47.5734 63.8329 47.6302 63.0205 47.6302 62.2124C47.6302 52.9895 40.2844 44.0772 39.0977 42.7011C39.0019 42.5874 38.9451 42.5243 38.9387 42.5178C38.8682 42.4401 38.8323 42.339 38.8346 42.2374V42.2241C38.8376 42.1262 38.8754 42.0295 38.9474 41.955C39.0946 41.8021 39.3304 41.8065 39.4735 41.9639C39.4766 41.9671 39.5295 42.0258 39.6249 42.1371C39.9861 42.5522 40.9472 43.6965 42.1009 45.3486C42.6759 46.17 43.2979 47.1188 43.9179 48.1639C45.9518 51.5939 48.374 56.8139 48.374 62.2132C48.374 63.1969 48.2941 64.187 48.1499 65.1759C48.1079 65.4616 48.0606 65.7484 48.0076 66.0345C46.7633 72.8402 42.6597 79.3826 40.7208 82.1822C40.449 82.5779 39.9899 82.7329 39.5542 82.5799Z" fill="#F8A932"/>
<path d="M37.4466 82.5801C37.0097 82.7342 36.5517 82.5777 36.278 82.184C34.341 79.3864 30.2415 72.8489 28.9931 66.0496C28.9405 65.764 28.8931 65.4767 28.8511 65.191C28.7058 64.1965 28.6248 63.2007 28.6248 62.2126C28.6248 56.8157 31.0482 51.5945 33.0798 48.1645C33.7009 47.1181 34.3251 46.1673 34.9009 45.3447C36.0528 43.6975 37.0127 42.554 37.3739 42.1389C37.4696 42.0276 37.5234 41.9677 37.5268 41.9645C37.5624 41.924 37.6055 41.8937 37.651 41.8722H37.6529C37.7846 41.8148 37.9424 41.8419 38.0507 41.9556C38.1234 42.0308 38.1631 42.13 38.1643 42.2299C38.1643 42.2368 38.1654 42.2424 38.1643 42.2481C38.1631 42.346 38.1294 42.4427 38.0609 42.518C38.0549 42.5249 37.9988 42.5868 37.9042 42.6993C36.7239 44.0665 29.3686 52.9864 29.3686 62.2138C29.3686 63.0263 29.4246 63.8444 29.5299 64.6634C29.5677 64.9584 29.6109 65.2541 29.6612 65.5491C30.7942 72.3055 34.9387 78.9118 36.8765 81.7105C36.9965 81.8837 37.1638 81.8421 37.2122 81.8242C37.2607 81.8064 37.4208 81.7344 37.4197 81.5171V69.8571C37.4197 69.6795 37.2838 69.5342 37.1176 69.5342H35.7132C35.5459 69.533 35.41 69.6783 35.4112 69.8571L35.41 75.8156C35.41 75.9932 35.5459 76.1385 35.7121 76.1385C35.8783 76.1385 36.0142 75.9932 36.0142 75.8156L36.0153 71.0459C36.0142 70.8266 36.1815 70.6474 36.387 70.6486C36.5933 70.6486 36.7595 70.8262 36.7587 71.0459L36.7599 75.8156C36.7599 76.4322 36.2905 76.9344 35.7132 76.9344C35.136 76.9344 34.667 76.4322 34.6658 75.8144V69.8571C34.6658 69.2405 35.1352 68.7388 35.7125 68.7388H37.1191C37.696 68.7388 38.1654 69.2405 38.1654 69.8571V81.5171C38.1646 82.0088 37.8838 82.4259 37.4466 82.5801Z" fill="#F8A932"/>
<path d="M38.0519 42.5488C38.0488 42.552 37.9981 42.6038 37.9046 42.6973C37.528 43.0687 36.4571 44.1005 34.9013 45.3427C34.1287 45.9618 33.2362 46.6323 32.2516 47.2995C29.0431 49.4711 24.1581 52.0619 19.1092 52.0619C18.1931 52.0619 17.2692 51.9765 16.3478 51.8223C16.0783 51.7795 15.8122 51.7289 15.5445 51.6726C9.17342 50.3447 3.04684 45.9537 0.425482 43.8812C0.150666 43.6639 0 43.3366 0 42.9923C0 42.8729 0.0178039 42.7523 0.0556574 42.6334C0.199879 42.1664 0.589392 41.8646 1.04931 41.8638H11.9576C12.5345 41.8638 13.0038 42.3655 13.005 42.9834L13.0038 44.4853C13.0038 45.102 12.5345 45.6041 11.9576 45.6041H6.38438C5.8075 45.6041 5.3381 45.1024 5.33697 44.4845C5.33697 43.8679 5.80635 43.3657 6.38362 43.3657L10.8462 43.3669C11.0513 43.3657 11.219 43.5446 11.2179 43.7643C11.2179 43.9848 11.0517 44.1624 10.8462 44.1616L6.38362 44.1628C6.21744 44.1628 6.08156 44.3081 6.08156 44.4857C6.08156 44.6638 6.21744 44.8086 6.38362 44.8086H11.9587C12.1253 44.8086 12.2608 44.6634 12.2608 44.4857L12.2596 42.9838C12.2596 42.8057 12.1237 42.6609 11.9576 42.6609H1.04931C0.846039 42.6597 0.778647 42.8308 0.761991 42.8826C0.745336 42.9344 0.706345 43.1133 0.869494 43.2427C3.48971 45.3164 9.68408 49.7547 16.0121 50.9601C16.2891 51.0131 16.5658 51.0592 16.8425 51.0985C17.5996 51.2077 18.3563 51.2672 19.1081 51.2672C27.7678 51.2672 36.1244 43.3678 37.3739 42.1381C37.4738 42.0402 37.5276 41.9852 37.534 41.9783C37.6824 41.8241 37.9171 41.8278 38.0606 41.9872C38.1226 42.056 38.1575 42.1422 38.1647 42.2291C38.1647 42.236 38.1658 42.2417 38.1647 42.247C38.17 42.3554 38.1321 42.4654 38.0519 42.5488Z" fill="#F8A932"/>
<path d="M38.0647 41.0248L38.048 41.0426C38.0405 41.0507 38.0321 41.0572 38.0238 41.0641C38.0072 41.0798 37.9882 41.0932 37.9682 41.1033C37.9599 41.1078 37.9515 41.1122 37.9439 41.1159C37.8482 41.162 37.7388 41.162 37.643 41.1159C37.6354 41.1126 37.6271 41.1078 37.6184 41.1033C37.5999 41.092 37.5794 41.0798 37.5628 41.0641C37.5544 41.0572 37.5461 41.0507 37.5385 41.0426L37.526 41.0293C37.1986 40.6951 28.3189 31.748 19.1096 31.748C18.3601 31.748 17.6041 31.8063 16.8482 31.9168C16.5715 31.9564 16.2955 32.0009 16.0188 32.0539C9.68781 33.2581 3.49272 37.6972 0.869094 39.7721C0.707081 39.9004 0.746829 40.0804 0.761591 40.1322C0.778247 40.184 0.846771 40.3539 1.05004 40.3552H11.9587C12.1248 40.3552 12.2607 40.2099 12.2607 40.0323V38.5287C12.2607 38.3507 12.1248 38.2058 11.9587 38.2058L6.38435 38.207C6.21817 38.207 6.0834 38.3511 6.08227 38.5299C6.08227 38.7075 6.21817 38.8528 6.38435 38.8528L10.8469 38.8516C11.0521 38.8528 11.2186 39.0304 11.2198 39.2497C11.2186 39.469 11.0521 39.6471 10.8469 39.6483H6.38548C5.80746 39.6471 5.33809 39.1453 5.33809 38.5283C5.33809 37.9117 5.80746 37.4099 6.38472 37.4099L11.959 37.4111C12.5367 37.4099 13.0064 37.9121 13.0053 38.5295V40.0307C13.0064 40.6485 12.5367 41.1502 11.959 41.149H1.05041C0.590494 41.1502 0.199849 40.8476 0.0556274 40.3807C0.018531 40.2625 0.00186803 40.1411 0.000732422 40.0226C0.00186803 39.677 0.152161 39.3497 0.426977 39.1324C3.04833 37.0595 9.17717 32.6665 15.5494 31.3398C15.8167 31.2835 16.0851 31.233 16.3538 31.1893C17.274 31.0363 18.195 30.9517 19.1088 30.9521C24.16 30.9521 29.0435 33.5413 32.2519 35.7154C33.2509 36.3919 34.1552 37.0725 34.9353 37.6968C36.861 39.2396 38.0367 40.4494 38.0526 40.466L38.0651 40.4794C38.0723 40.4871 38.0787 40.4964 38.0851 40.5053C38.0999 40.5231 38.1124 40.5433 38.1222 40.5648C38.1264 40.5737 38.1306 40.583 38.1336 40.5907C38.1768 40.693 38.1768 40.81 38.1336 40.9123C38.1306 40.9204 38.1264 40.9293 38.1222 40.9382C38.1116 40.9585 38.0999 40.9799 38.0851 40.9977C38.0783 41.0078 38.0719 41.0167 38.0647 41.0248Z" fill="#F8A932"/>
<path d="M38.0645 41.0229L38.0479 41.0407C38.0403 41.0488 38.032 41.0553 38.0236 41.0622C38.007 41.078 37.9881 41.0913 37.968 41.1014C37.9597 41.1059 37.9513 41.1103 37.9438 41.114C37.848 41.1601 37.7386 41.1601 37.6428 41.114C37.6353 41.1107 37.6269 41.1059 37.6182 41.1014C37.5997 41.0901 37.5792 41.078 37.5626 41.0622C37.5543 41.0553 37.5459 41.0488 37.5384 41.0407L37.5259 41.0274C37.51 41.0104 36.3785 39.7536 34.9352 37.6953C34.3507 36.8618 33.714 35.8948 33.0811 34.827C31.0472 31.3974 28.625 26.1769 28.625 20.778C28.625 19.7944 28.7049 18.8043 28.8491 17.8154C28.8911 17.5297 28.9384 17.2424 28.991 16.9568C30.2353 10.151 34.339 3.60909 36.2782 0.809102C36.5508 0.41419 37.0099 0.258811 37.4456 0.411759C37.8825 0.56592 38.1656 0.983088 38.1645 1.47511V13.1351C38.1656 13.753 37.6962 14.2547 37.1182 14.2539L35.7127 14.2551C35.1358 14.2551 34.666 13.7534 34.666 13.1367V7.17665C34.666 6.56001 35.1354 6.05827 35.7127 6.05827C36.29 6.05827 36.7593 6.56 36.7601 7.17786V11.9467C36.759 12.1661 36.5924 12.3441 36.3876 12.3449C36.1825 12.3437 36.0159 12.1661 36.0148 11.9467L36.0159 7.17665C36.0159 6.99902 35.88 6.85376 35.7138 6.85376C35.5465 6.85497 35.4117 6.99902 35.4106 7.17786V13.1351C35.4106 13.3128 35.5465 13.458 35.7127 13.458H37.1193C37.2855 13.458 37.4214 13.3128 37.4214 13.1351V1.47511C37.4203 1.25783 37.2613 1.18499 37.2121 1.168C37.1648 1.15101 36.9963 1.10852 36.8763 1.2817C34.9371 4.08371 30.7883 10.6969 29.6588 17.4565C29.6092 17.7527 29.566 18.0485 29.5289 18.3442C29.4248 19.1579 29.3692 19.9712 29.3692 20.7793C29.3692 30.6229 37.7394 40.115 38.052 40.465L38.0645 40.4783C38.0717 40.486 38.0782 40.4953 38.0846 40.5042C38.0994 40.522 38.1119 40.5423 38.1217 40.5637C38.1259 40.5726 38.13 40.5819 38.133 40.5896C38.1762 40.692 38.1762 40.8089 38.133 40.9113C38.13 40.9193 38.1259 40.9283 38.1217 40.9372C38.1111 40.9574 38.0994 40.9788 38.0846 40.9966C38.0782 41.0059 38.0717 41.0148 38.0645 41.0229Z" fill="#F8A932"/>
<path d="M39.474 41.029L39.4615 41.0424C39.4543 41.0501 39.446 41.0569 39.4372 41.0638C39.4107 41.0877 39.3805 41.1067 39.3487 41.1201C39.3464 41.1201 39.3445 41.1221 39.3422 41.1221C39.3222 41.1298 39.3014 41.1367 39.2802 41.1411C39.2105 41.1569 39.1378 41.1492 39.0716 41.1209C39.0621 41.1176 39.0515 41.1128 39.0421 41.1075C39.0284 41.0994 39.0156 41.093 39.0031 41.0837C38.9842 41.0703 38.966 41.0553 38.9504 41.0387C38.9493 41.0379 38.9493 41.0379 38.9486 41.0367L38.938 41.0254C38.9243 41.0108 38.9126 40.9963 38.9031 40.9793C38.8997 40.9756 38.8967 40.9724 38.8956 40.9691C38.8903 40.9614 38.885 40.9534 38.8819 40.9457C38.8536 40.8927 38.8388 40.8344 38.8358 40.7745C38.8346 40.7668 38.8346 40.76 38.8346 40.7506C38.8346 40.6766 38.8535 40.6022 38.8925 40.5382C38.905 40.5156 38.9198 40.4953 38.938 40.4763L38.9474 40.4662C39.259 40.115 47.6302 30.6225 47.6302 20.7785C47.6302 19.9749 47.5754 19.1648 47.4724 18.3548C47.4353 18.0586 47.3922 17.7628 47.3437 17.4658C46.2153 10.703 42.0635 4.08415 40.1232 1.28335C40.002 1.10896 39.8347 1.15063 39.7863 1.16844C39.7378 1.18664 39.5777 1.25867 39.5788 1.47555V13.1356C39.5788 13.3132 39.7147 13.4584 39.8809 13.4584L41.2864 13.4597C41.4526 13.4597 41.5885 13.3144 41.5873 13.1356L41.5885 7.17708C41.5885 6.99945 41.4526 6.85419 41.2864 6.85419C41.1202 6.85419 40.9843 6.99945 40.9843 7.17708L40.9836 11.9472C40.9843 12.1665 40.817 12.3453 40.6119 12.3445C40.4063 12.3457 40.239 12.1669 40.2401 11.9472L40.239 7.17708C40.239 6.56044 40.7084 6.0583 41.2853 6.0583C41.8633 6.05952 42.3327 6.56125 42.3327 7.17789V13.1351C42.3327 13.7518 41.8633 14.2535 41.2864 14.2535L39.8809 14.2547C39.3029 14.2535 38.8335 13.7518 38.8335 13.1351V1.47514C38.8346 0.983528 39.1155 0.565957 39.5535 0.41301C39.9892 0.257635 40.4472 0.414223 40.7209 0.807921C42.6601 3.60993 46.7664 10.1579 48.0099 16.9645C48.0625 17.2506 48.1098 17.537 48.1507 17.8243C48.2949 18.8112 48.3741 19.8001 48.3741 20.7793C48.3741 26.1761 45.9507 31.3974 43.9187 34.8274C43.285 35.8964 42.6468 36.8642 42.0616 37.6994C40.6205 39.7541 39.4899 41.01 39.474 41.029Z" fill="#F8A932"/>
<path d="M107.945 68.9146V59.3336C107.945 59.1143 107.89 59.0556 107.685 59.0556H107.384C107.179 59.0556 107.096 58.9678 107.096 58.7485V58.5583C107.096 58.339 107.179 58.2512 107.384 58.2512H109.341C109.546 58.2512 109.628 58.339 109.628 58.5583V58.7485C109.628 58.9678 109.546 59.0556 109.341 59.0556H109.04C108.835 59.0556 108.78 59.1143 108.78 59.3336V68.9146C108.78 69.1339 108.698 69.2217 108.492 69.2217H108.232C108.027 69.2217 107.945 69.1339 107.945 68.9146Z" fill="#E47825"/>
<path d="M110.996 68.9134V58.5571C110.996 58.3378 111.078 58.25 111.283 58.25H112.871C113.076 58.25 113.158 58.3378 113.158 58.5571V58.7473C113.158 58.9666 113.076 59.0544 112.871 59.0544H112.091C111.886 59.0544 111.831 59.1131 111.831 59.3324V62.8283C111.831 63.0476 111.886 63.1063 112.091 63.1063H112.816C113.021 63.1063 113.103 63.1941 113.103 63.4134V63.6036C113.103 63.8229 113.021 63.9107 112.816 63.9107H112.091C111.886 63.9107 111.831 63.9693 111.831 64.1886V68.1382C111.831 68.3575 111.886 68.4161 112.091 68.4161H112.871C113.076 68.4161 113.158 68.5039 113.158 68.7233V68.9134C113.158 69.1327 113.076 69.2205 112.871 69.2205H111.284C111.078 69.2205 110.996 69.1327 110.996 68.9134Z" fill="#E47825"/>
<path d="M114.663 66.955C114.663 66.838 114.677 66.7061 114.841 66.7061H115.265C115.416 66.7061 115.498 66.7498 115.498 66.955C115.498 67.9791 115.635 68.5055 116.141 68.5055C116.593 68.5055 116.784 67.9936 116.771 67.2475C116.757 64.556 114.814 62.4499 114.773 60.2411C114.746 59.2028 114.992 58.135 116.114 58.135C117.277 58.135 117.442 59.2611 117.442 60.2269C117.442 60.3439 117.428 60.4753 117.264 60.4753H116.853C116.702 60.4753 116.62 60.4317 116.62 60.2269C116.606 59.4808 116.565 58.9689 116.128 58.9689C115.662 58.9689 115.594 59.4808 115.608 60.2123C115.676 62.1286 117.592 64.3079 117.619 67.2042C117.633 68.3016 117.236 69.3398 116.127 69.3398C115.033 69.3394 114.663 68.2862 114.663 66.955Z" fill="#E47825"/>
<path d="M119.124 67.2038V60.2706C119.124 59.1591 119.315 58.135 120.479 58.135C121.642 58.135 121.833 59.1591 121.833 60.2706V67.2038C121.833 68.3153 121.642 69.3394 120.479 69.3394C119.315 69.3394 119.124 68.3153 119.124 67.2038ZM120.985 67.2625V60.2119C120.985 59.4658 120.958 58.9685 120.479 58.9685C119.999 58.9685 119.958 59.4658 119.958 60.2119V67.2625C119.958 68.0086 119.999 68.5059 120.479 68.5059C120.958 68.5059 120.985 68.0082 120.985 67.2625Z" fill="#E47825"/>
<path d="M125.802 69.2205H125.405C125.254 69.2205 125.159 69.1327 125.131 68.9867L124.584 64.9639H124.461H124.433C124.228 64.9639 124.173 65.0226 124.173 65.2419V68.9134C124.173 69.1327 124.091 69.2205 123.886 69.2205H123.626C123.421 69.2205 123.339 69.1327 123.339 68.9134V58.5571C123.339 58.3378 123.421 58.25 123.626 58.25H124.461C125.583 58.25 125.952 59.1713 125.952 60.912V62.3015C125.952 63.4571 125.788 64.2615 125.35 64.6564L125.993 68.9276C126.021 69.1036 125.952 69.2205 125.802 69.2205ZM124.475 64.1595C125.104 64.1595 125.131 63.6477 125.131 62.3602V60.8537C125.131 59.5666 124.967 59.0544 124.475 59.0544H124.434C124.229 59.0544 124.174 59.1131 124.174 59.3324V63.8815C124.174 64.1008 124.229 64.1595 124.434 64.1595H124.475Z" fill="#E47825"/>
<path d="M127.457 67.2038V60.2706C127.457 59.1591 127.649 58.135 128.812 58.135C129.975 58.135 130.167 59.1591 130.167 60.2706V67.2038C130.167 68.3153 129.975 69.3394 128.812 69.3394C127.649 69.3394 127.457 68.3153 127.457 67.2038ZM129.318 67.2625V60.2119C129.318 59.4658 129.291 58.9685 128.811 58.9685C128.332 58.9685 128.291 59.4658 128.291 60.2119V67.2625C128.291 68.0086 128.332 68.5059 128.811 68.5059C129.291 68.5059 129.318 68.0082 129.318 67.2625Z" fill="#E47825"/>
<path d="M131.672 66.955C131.672 66.838 131.686 66.7061 131.85 66.7061H132.274C132.425 66.7061 132.507 66.7498 132.507 66.955C132.507 67.9791 132.644 68.5055 133.15 68.5055C133.602 68.5055 133.793 67.9936 133.78 67.2475C133.766 64.556 131.823 62.4499 131.782 60.2411C131.754 59.2028 132.001 58.135 133.123 58.135C134.286 58.135 134.45 59.2611 134.45 60.2269C134.45 60.3439 134.437 60.4753 134.272 60.4753H133.862C133.711 60.4753 133.629 60.4317 133.629 60.2269C133.615 59.4808 133.574 58.9689 133.136 58.9689C132.671 58.9689 132.603 59.4808 132.616 60.2123C132.685 62.1286 134.601 64.3079 134.628 67.2042C134.642 68.3016 134.245 69.3398 133.136 69.3398C132.041 69.3394 131.672 68.2862 131.672 66.955Z" fill="#E47825"/>
<path d="M142.044 68.9134V58.5571C142.044 58.3378 142.126 58.25 142.331 58.25H143.207C144.452 58.25 144.822 59.1713 144.822 60.912V62.3165C144.822 64.0717 144.452 64.9934 143.207 64.9934H143.138C142.933 64.9934 142.878 65.0521 142.878 65.2714V68.9134C142.878 69.1327 142.796 69.2205 142.591 69.2205H142.331C142.126 69.2205 142.044 69.1327 142.044 68.9134ZM143.221 64.1886C143.836 64.1886 144 63.6622 144 62.3893V60.8534C144 59.5662 143.836 59.054 143.221 59.054H143.138C142.933 59.054 142.878 59.1127 142.878 59.332V63.9103C142.878 64.1296 142.933 64.1882 143.138 64.1882H143.221V64.1886Z" fill="#E47825"/>
<path d="M146.313 68.9134V58.5571C146.313 58.3378 146.395 58.25 146.601 58.25H148.188C148.393 58.25 148.475 58.3378 148.475 58.5571V58.7473C148.475 58.9666 148.393 59.0544 148.188 59.0544H147.408C147.203 59.0544 147.148 59.1131 147.148 59.3324V62.8283C147.148 63.0476 147.203 63.1063 147.408 63.1063H148.133C148.338 63.1063 148.421 63.1941 148.421 63.4134V63.6036C148.421 63.8229 148.338 63.9107 148.133 63.9107H147.408C147.203 63.9107 147.148 63.9693 147.148 64.1886V68.1382C147.148 68.3575 147.203 68.4161 147.408 68.4161H148.188C148.393 68.4161 148.475 68.5039 148.475 68.7233V68.9134C148.475 69.1327 148.393 69.2205 148.188 69.2205H146.601C146.395 69.2205 146.313 69.1327 146.313 68.9134Z" fill="#E47825"/>
<path d="M152.443 69.2205H152.047C151.896 69.2205 151.8 69.1327 151.773 68.9867L151.225 64.9639H151.102H151.075C150.87 64.9639 150.815 65.0226 150.815 65.2419V68.9134C150.815 69.1327 150.733 69.2205 150.528 69.2205H150.268C150.063 69.2205 149.98 69.1327 149.98 68.9134V58.5571C149.98 58.3378 150.063 58.25 150.268 58.25H151.102C152.224 58.25 152.594 59.1713 152.594 60.912V62.3015C152.594 63.4571 152.43 64.2615 151.992 64.6564L152.635 68.9276C152.662 69.1036 152.594 69.2205 152.443 69.2205ZM151.116 64.1595C151.746 64.1595 151.773 63.6477 151.773 62.3602V60.8537C151.773 59.5666 151.609 59.0544 151.116 59.0544H151.075C150.87 59.0544 150.815 59.1131 150.815 59.3324V63.8815C150.815 64.1008 150.87 64.1595 151.075 64.1595H151.116Z" fill="#E47825"/>
<path d="M154.099 67.2019V58.5571C154.099 58.3378 154.181 58.25 154.386 58.25H154.646C154.852 58.25 154.934 58.3378 154.934 58.5571V67.2606C154.934 68.0067 155.03 68.504 155.508 68.504C156.001 68.504 156.083 68.0067 156.083 67.2606V58.5571C156.083 58.3378 156.165 58.25 156.37 58.25H156.644C156.849 58.25 156.931 58.3378 156.931 58.5571V67.2019C156.931 68.3134 156.685 69.3375 155.508 69.3375C154.346 69.3375 154.099 68.3134 154.099 67.2019Z" fill="#E47825"/>
<path d="M158.163 68.8989L159.326 58.5426C159.353 58.2937 159.436 58.25 159.655 58.25H159.86C160.079 58.25 160.161 58.2937 160.188 58.5426L161.352 68.8989C161.365 69.1036 161.27 69.2206 161.105 69.2206H160.791C160.626 69.2206 160.544 69.1473 160.517 68.928L160.271 66.5877C160.257 66.4266 160.175 66.3829 160.038 66.3829H159.477C159.354 66.3829 159.272 66.4266 159.245 66.5877L159.012 68.928C158.971 69.1473 158.889 69.2206 158.725 69.2206H158.41C158.245 69.221 158.149 69.104 158.163 68.8989ZM160.038 65.5494C160.12 65.5494 160.174 65.5057 160.147 65.3884L159.833 61.4534C159.819 61.3365 159.71 61.3365 159.682 61.4534L159.367 65.3884C159.354 65.5053 159.408 65.5494 159.477 65.5494H160.038Z" fill="#E47825"/>
<path d="M162.583 68.9134V58.5571C162.583 58.3378 162.665 58.25 162.87 58.25H163.061C163.267 58.25 163.404 58.3087 163.444 58.5571L164.43 64.8615C164.443 64.9639 164.58 64.9639 164.58 64.847V58.5571C164.58 58.3378 164.663 58.25 164.868 58.25H165.128C165.333 58.25 165.415 58.3378 165.415 58.5571V68.9134C165.415 69.1327 165.333 69.2205 165.128 69.2205H164.936C164.731 69.2205 164.608 69.1619 164.567 68.9134L163.568 62.609C163.554 62.5066 163.417 62.5066 163.417 62.6236V68.9134C163.417 69.1327 163.335 69.2205 163.13 69.2205H162.87C162.665 69.2205 162.583 69.1327 162.583 68.9134Z" fill="#E47825"/>
<path d="M166.921 67.2038V60.2706C166.921 59.1591 167.112 58.135 168.276 58.135C169.439 58.135 169.63 59.1591 169.63 60.2706V67.2038C169.63 68.3153 169.439 69.3394 168.276 69.3394C167.112 69.3394 166.921 68.3153 166.921 67.2038ZM168.782 67.2625V60.2119C168.782 59.4658 168.755 58.9685 168.275 58.9685C167.796 58.9685 167.755 59.4658 167.755 60.2119V67.2625C167.755 68.0086 167.796 68.5059 168.275 68.5059C168.755 68.5055 168.782 68.0082 168.782 67.2625Z" fill="#E47825"/>
<path d="M171.135 66.955C171.135 66.838 171.149 66.7061 171.313 66.7061H171.738C171.888 66.7061 171.97 66.7498 171.97 66.955C171.97 67.9791 172.107 68.5055 172.613 68.5055C173.065 68.5055 173.257 67.9936 173.243 67.2475C173.229 64.556 171.286 62.4499 171.245 60.2411C171.218 59.2028 171.464 58.135 172.586 58.135C173.749 58.135 173.914 59.2611 173.914 60.2269C173.914 60.3439 173.9 60.4753 173.736 60.4753H173.325C173.174 60.4753 173.092 60.4317 173.092 60.2269C173.079 59.4808 173.037 58.9689 172.6 58.9689C172.135 58.9689 172.066 59.4808 172.08 60.2123C172.148 62.1286 174.064 64.3079 174.091 67.2042C174.105 68.3016 173.708 69.3398 172.599 69.3398C171.505 69.3394 171.135 68.2862 171.135 66.955Z" fill="#E47825"/>
<path d="M181.507 66.955C181.507 66.838 181.521 66.7061 181.685 66.7061H182.11C182.26 66.7061 182.342 66.7498 182.342 66.955C182.342 67.9791 182.479 68.5055 182.985 68.5055C183.437 68.5055 183.629 67.9936 183.615 67.2475C183.601 64.556 181.658 62.4499 181.617 60.2411C181.59 59.2028 181.836 58.135 182.958 58.135C184.121 58.135 184.286 59.2611 184.286 60.2269C184.286 60.3439 184.272 60.4753 184.108 60.4753H183.697C183.546 60.4753 183.464 60.4317 183.464 60.2269C183.451 59.4808 183.409 58.9689 182.972 58.9689C182.507 58.9689 182.438 59.4808 182.452 60.2123C182.52 62.1286 184.436 64.3079 184.463 67.2042C184.477 68.3016 184.08 69.3398 182.971 69.3398C181.877 69.3394 181.507 68.2862 181.507 66.955Z" fill="#E47825"/>
<path d="M185.968 68.9134V58.5571C185.968 58.3378 186.05 58.25 186.255 58.25H187.842C188.047 58.25 188.13 58.3378 188.13 58.5571V58.7473C188.13 58.9666 188.047 59.0544 187.842 59.0544H187.063C186.857 59.0544 186.802 59.1131 186.802 59.3324V62.8283C186.802 63.0476 186.857 63.1063 187.063 63.1063H187.788C187.993 63.1063 188.075 63.1941 188.075 63.4134V63.6036C188.075 63.8229 187.993 63.9107 187.788 63.9107H187.063C186.857 63.9107 186.802 63.9693 186.802 64.1886V68.1382C186.802 68.3575 186.857 68.4161 187.063 68.4161H187.842C188.047 68.4161 188.13 68.5039 188.13 68.7233V68.9134C188.13 69.1327 188.047 69.2205 187.842 69.2205H186.255C186.05 69.2205 185.968 69.1327 185.968 68.9134Z" fill="#E47825"/>
<path d="M189.635 68.9134V58.5571C189.635 58.3378 189.717 58.25 189.922 58.25H190.182C190.388 58.25 190.47 58.3378 190.47 58.5571V68.1382C190.47 68.3575 190.525 68.4161 190.73 68.4161H191.428C191.633 68.4161 191.715 68.5039 191.715 68.7233V68.9134C191.715 69.1327 191.633 69.2205 191.428 69.2205H189.923C189.717 69.2205 189.635 69.1327 189.635 68.9134Z" fill="#E47825"/>
<path d="M192.974 68.9134V58.5571C192.974 58.3378 193.056 58.25 193.261 58.25H194.848C195.053 58.25 195.135 58.3378 195.135 58.5571V58.7473C195.135 58.9666 195.053 59.0544 194.848 59.0544H194.068C193.863 59.0544 193.808 59.1131 193.808 59.3324V62.8283C193.808 63.0476 193.863 63.1063 194.068 63.1063H194.793C194.998 63.1063 195.081 63.1941 195.081 63.4134V63.6036C195.081 63.8229 194.998 63.9107 194.793 63.9107H194.068C193.863 63.9107 193.808 63.9693 193.808 64.1886V68.1382C193.808 68.3575 193.863 68.4161 194.068 68.4161H194.848C195.053 68.4161 195.135 68.5039 195.135 68.7233V68.9134C195.135 69.1327 195.053 69.2205 194.848 69.2205H193.261C193.056 69.2205 192.974 69.1327 192.974 68.9134Z" fill="#E47825"/>
<path d="M196.641 67.2038V60.2706C196.641 59.1591 196.832 58.135 197.995 58.135C199.159 58.135 199.337 59.1591 199.337 60.2852C199.337 60.4899 199.254 60.5777 199.049 60.5777H198.789C198.584 60.5777 198.502 60.4899 198.502 60.2852V60.1974C198.502 59.4662 198.475 58.9685 197.995 58.9685C197.516 58.9685 197.475 59.4658 197.475 60.2119V67.2625C197.475 68.0086 197.516 68.5059 197.995 68.5059C198.475 68.5059 198.502 68.0086 198.502 67.2771V67.1893C198.502 66.9845 198.584 66.8967 198.789 66.8967H199.049C199.254 66.8967 199.337 66.9845 199.337 67.1893C199.337 68.3153 199.159 69.3394 197.995 69.3394C196.832 69.3394 196.641 68.3153 196.641 67.2038Z" fill="#E47825"/>
<path d="M201.553 68.9134V59.3324C201.553 59.1131 201.498 59.0544 201.293 59.0544H200.992C200.787 59.0544 200.705 58.9666 200.705 58.7473V58.5571C200.705 58.3378 200.787 58.25 200.992 58.25H202.949C203.155 58.25 203.237 58.3378 203.237 58.5571V58.7473C203.237 58.9666 203.155 59.0544 202.949 59.0544H202.648C202.443 59.0544 202.388 59.1131 202.388 59.3324V68.9134C202.388 69.1327 202.306 69.2205 202.101 69.2205H201.841C201.636 69.2205 201.553 69.1327 201.553 68.9134Z" fill="#E47825"/>
<path d="M204.605 67.2038V60.2706C204.605 59.1591 204.796 58.135 205.96 58.135C207.123 58.135 207.314 59.1591 207.314 60.2706V67.2038C207.314 68.3153 207.123 69.3394 205.96 69.3394C204.796 69.3394 204.605 68.3153 204.605 67.2038ZM206.466 67.2625V60.2119C206.466 59.4658 206.438 58.9685 205.959 58.9685C205.48 58.9685 205.439 59.4658 205.439 60.2119V67.2625C205.439 68.0086 205.48 68.5059 205.959 68.5059C206.438 68.5059 206.466 68.0082 206.466 67.2625Z" fill="#E47825"/>
<path d="M208.819 66.955C208.819 66.838 208.833 66.7061 208.997 66.7061H209.421C209.571 66.7061 209.654 66.7498 209.654 66.955C209.654 67.9791 209.791 68.5055 210.297 68.5055C210.748 68.5055 210.94 67.9936 210.926 67.2475C210.913 64.556 208.969 62.4499 208.928 60.2411C208.901 59.2028 209.147 58.135 210.269 58.135C211.433 58.135 211.597 59.2611 211.597 60.2269C211.597 60.3439 211.583 60.4753 211.419 60.4753H211.008C210.858 60.4753 210.776 60.4317 210.776 60.2269C210.762 59.4808 210.721 58.9689 210.283 58.9689C209.818 58.9689 209.749 59.4808 209.763 60.2123C209.831 62.1286 211.747 64.3079 211.774 67.2042C211.788 68.3016 211.391 69.3398 210.283 69.3398C209.189 69.3394 208.819 68.2862 208.819 66.955Z" fill="#E47825"/>
<path d="M104.036 63.3911C104.036 63.4304 104.022 63.4676 103.996 63.4955L102.333 65.273C102.279 65.3305 102.192 65.3305 102.138 65.273L100.475 63.4955C100.421 63.4381 100.421 63.3446 100.475 63.2871L102.138 61.5096C102.192 61.4522 102.279 61.4522 102.333 61.5096L103.996 63.2871C104.022 63.3147 104.036 63.3519 104.036 63.3911Z" fill="#E47825"/>
<path d="M218.309 63.3911C218.309 63.4304 218.294 63.4676 218.268 63.4955L216.605 65.273C216.552 65.3305 216.464 65.3305 216.41 65.273L214.748 63.4955C214.694 63.4381 214.694 63.3446 214.748 63.2871L216.41 61.5096C216.464 61.4522 216.552 61.4522 216.605 61.5096L218.268 63.2871C218.294 63.3147 218.309 63.3519 218.309 63.3911Z" fill="#E47825"/>
<path d="M227.593 24.4026C227.594 21.8814 229.507 19.8368 231.865 19.8389C234.224 19.8409 236.136 21.8867 236.133 24.4063C236.13 26.9287 234.214 28.9732 231.859 28.968C229.499 28.9631 227.592 26.9214 227.593 24.4026ZM228.46 24.4046C228.461 26.4128 229.983 28.0402 231.862 28.0414C233.742 28.0426 235.267 26.4116 235.266 24.4026C235.266 22.3941 233.743 20.7671 231.864 20.7659C229.984 20.7651 228.459 22.3953 228.46 24.4046Z" fill="#E47825"/>
<path d="M229.992 26.6886C229.992 25.0964 229.992 23.507 229.992 21.9144C230.003 21.9136 230.014 21.912 230.024 21.912C230.63 21.9124 231.235 21.91 231.841 21.914C232.134 21.916 232.425 21.9476 232.705 22.0504C232.92 22.1293 233.11 22.2478 233.248 22.4465C233.353 22.5962 233.409 22.7674 233.434 22.9506C233.468 23.1938 233.464 23.4358 233.399 23.6733C233.306 24.0112 233.092 24.2333 232.798 24.3757C232.736 24.4057 232.671 24.43 232.606 24.4575C232.629 24.4656 232.651 24.4728 232.673 24.4809C232.862 24.5509 233.006 24.6841 233.126 24.8499C233.234 24.9993 233.318 25.1639 233.396 25.3323C233.599 25.7709 233.803 26.2095 234.007 26.6477C234.013 26.6598 234.018 26.6728 234.025 26.6902C234.009 26.6902 233.997 26.6902 233.986 26.6902C233.603 26.6902 233.22 26.6898 232.837 26.691C232.809 26.691 232.795 26.6813 232.783 26.6546C232.598 26.2508 232.413 25.8465 232.224 25.4447C232.178 25.3464 232.119 25.2542 232.059 25.1643C231.95 25.0029 231.798 24.9123 231.615 24.8945C231.461 24.8795 231.305 24.8831 231.145 24.8783C231.145 25.4852 231.145 26.0853 231.145 26.6877C230.758 26.6886 230.377 26.6886 229.992 26.6886ZM231.145 24.0334C231.154 24.0342 231.16 24.035 231.166 24.035C231.338 24.035 231.51 24.0387 231.682 24.033C231.77 24.0298 231.858 24.0168 231.943 23.9946C232.119 23.9485 232.237 23.8323 232.281 23.6393C232.313 23.5009 232.315 23.3609 232.287 23.2221C232.252 23.0405 232.157 22.9122 231.986 22.8576C231.938 22.8422 231.888 22.8252 231.839 22.8236C231.611 22.8155 231.382 22.8127 231.153 22.8082C231.151 22.8082 231.149 22.8102 231.145 22.8123C231.145 23.2173 231.145 23.6235 231.145 24.0334Z" fill="#E47825"/>
</svg>
