<svg width="46" height="13" viewBox="0 0 46 13" fill="none" xmlns="http://www.w3.org/2000/svg">
<path d="M15.7762 5.80722C16.3313 6.02366 16.804 6.26341 17.1361 6.73257C17.9372 7.86142 17.7263 9.65385 16.661 10.7477C15.9847 11.4411 15.1484 11.7988 14.2563 12.0049C12.9534 12.3068 11.6336 12.2744 10.3258 12.0593C8.93322 11.8312 8.36358 10.9473 8.66052 9.48665C9.24592 6.61723 9.86404 3.75559 10.4761 0.892645C10.5234 0.671023 10.5525 0.439043 10.8736 0.405346C12.3923 0.244638 13.9073 0.0281963 15.4344 0.304252C16.0331 0.413119 16.6113 0.588078 17.1336 0.926343C18.5105 1.81931 18.679 3.64543 17.4985 4.82612C17.0258 5.30176 16.4452 5.57004 15.7762 5.80722ZM12.1875 10.1982C12.7656 10.158 13.4831 10.1217 14.1182 9.70697C14.689 9.33371 14.9436 8.78161 14.8611 8.07398C14.7811 7.39226 14.3279 7.10714 13.7606 6.94643C13.1849 6.78313 12.6153 7.02288 12.0408 6.95031C11.8311 6.92439 11.8311 7.13305 11.7984 7.28598C11.6542 7.95085 11.5015 8.61443 11.3645 9.28189C11.1972 10.1036 11.2712 10.1956 12.1875 10.1982ZM13.2383 4.95442C14.0927 4.9298 14.683 4.73798 15.112 4.41268C15.7471 3.93185 15.6998 2.9015 15.2441 2.52954C14.5448 1.95928 13.7315 2.18738 12.9825 2.36364C12.6201 2.44918 12.7486 3.00908 12.6383 3.34605C12.5208 3.70375 12.4771 4.08737 12.3971 4.45933C12.3305 4.7639 12.4456 4.92721 12.7304 4.94924C12.8989 4.9635 13.0686 4.95313 13.2383 4.95442Z" fill="white"/>
<path d="M33.1626 0.251953C33.8983 0.251953 34.6316 0.264903 35.3575 0.415242C37.6192 0.881814 38.6324 2.949 37.6882 5.21057C36.875 7.1611 35.343 8.0061 33.4644 8.28475C32.8863 8.37029 32.3009 8.43509 31.7191 8.31327C31.4016 8.24717 31.3034 8.38196 31.244 8.70726C31.1046 9.47581 30.9374 10.2418 30.7398 10.996C30.5107 11.8748 30.1156 12.1884 29.2805 12.2247C28.9424 12.2389 28.6006 12.2027 28.2637 12.2351C27.854 12.2739 27.8419 12.0679 27.9134 11.7296C28.666 8.18108 29.4187 4.63253 30.152 1.08011C30.2429 0.63816 30.4222 0.45154 30.8501 0.399699C31.6197 0.305088 32.3906 0.27269 33.1626 0.251953ZM32.9566 6.24351C34.3019 6.23055 35.2582 5.49828 35.5309 4.27353C35.766 3.21468 35.3236 2.50446 34.3286 2.31394C33.9334 2.23877 33.5444 2.26987 33.1493 2.28543C32.8196 2.29709 32.696 2.46947 32.6378 2.78311C32.4851 3.58924 32.3203 4.39406 32.1578 5.1976C31.9676 6.13852 32.0536 6.25258 32.9566 6.24351Z" fill="white"/>
<path d="M18.9648 6.2757C19.1612 5.18703 19.4242 4.12816 19.9599 3.15743C21.7101 -0.0100867 25.1546 -0.571259 27.7192 0.49149C28.5579 0.838828 28.7652 1.32225 28.5507 2.23725C28.4791 2.54312 28.3907 2.84509 28.3046 3.16781C27.0865 2.36556 25.8018 2.05969 24.4831 2.54441C22.893 3.12892 22.19 4.53253 21.8834 6.2083C21.7428 6.97555 21.7646 7.74151 22.0531 8.46469C22.6009 9.83979 24.1341 10.4269 25.6709 9.89942C26.1594 9.73223 26.5848 9.44191 27.0853 9.16326C26.9387 9.83979 26.7981 10.4632 26.6684 11.0892C26.5739 11.5454 26.306 11.8668 25.9121 11.9951C24.1826 12.5589 22.4833 12.5135 20.8883 11.5182C19.8484 10.8688 19.3042 9.82813 19.0691 8.58782C19.04 8.4323 19.0024 8.27936 18.9685 8.12384C18.9661 7.50822 18.9648 6.89131 18.9648 6.2757Z" fill="white"/>
<path d="M42.2984 1.42578C43.6183 2.14766 44.6812 3.19353 45.4993 4.49473C46.0508 5.37083 46.0556 6.34284 45.4727 7.21895C44.3225 8.94782 42.7856 10.2063 41.0003 11.0875C39.9714 11.5956 38.8648 11.1148 38.2042 10.0624C37.9994 9.7371 38.0624 9.58157 38.3703 9.42216C39.169 9.00744 39.9108 8.49033 40.5943 7.8838C41.3567 7.20599 41.9954 6.4232 42.3336 5.40324C42.9008 4.07223 42.9529 2.74512 42.2984 1.42578Z" fill="#EE6B57"/>
<path d="M4.25733 1.43555C5.57478 2.16651 6.64741 3.20851 7.45339 4.52138C8.00849 5.42471 7.96971 6.42654 7.36007 7.30654C6.21593 8.96027 4.72395 10.1915 2.99562 11.0611C1.90724 11.6093 0.680688 11.078 0.073472 9.96209C-0.111965 9.62124 0.0880158 9.54217 0.292845 9.43072C1.12186 8.98488 1.89876 8.45092 2.60657 7.81068C3.3362 7.15101 3.94099 6.38894 4.26702 5.40785C4.84151 4.08201 4.87424 2.75879 4.25733 1.43555Z" fill="#EF6B57"/>
<path d="M4.25717 1.43366C4.87409 2.7557 4.84136 4.08032 4.26807 5.40625C3.5045 4.5534 2.62943 3.86128 1.61012 3.41023C1.13622 3.20026 1.13622 2.96567 1.39438 2.57035C1.69981 2.10375 2.03918 1.68509 2.49368 1.37662C3.09606 0.970932 3.68267 0.910023 4.25717 1.43366Z" fill="white"/>
<path d="M42.2987 1.42308C42.9544 2.74237 42.9023 4.06814 42.3338 5.40039C41.5521 4.54635 40.6624 3.85042 39.631 3.38646C39.2298 3.20633 39.1874 3.01193 39.4225 2.63739C39.7413 2.13197 40.0989 1.68486 40.5909 1.36087C41.1788 0.972083 41.7448 0.917658 42.2987 1.42308Z" fill="white"/>
</svg>
