<svg width="23" height="28" viewBox="0 0 23 28" fill="none" xmlns="http://www.w3.org/2000/svg">
<mask id="path-1-inside-1" fill="white">
<path d="M5.52503 21.3737C5.63188 21.3737 5.70533 21.3737 5.77877 21.3737C10.257 21.3737 14.7351 21.3743 19.2134 21.372C19.4354 21.3718 19.647 21.4084 19.769 21.6658C19.9136 21.9705 19.8786 22.6589 19.769 22.9728C19.667 23.265 19.4498 23.3261 19.2085 23.3259C14.2191 23.3224 9.22947 23.3233 4.24001 23.3228C3.82032 23.3228 3.66515 23.0961 3.63795 22.5663C3.61586 22.1366 3.74963 21.4648 3.97798 21.145C4.57424 20.3103 5.14165 19.4431 5.72604 18.5947C5.80114 18.4858 5.81329 18.3934 5.78857 18.2574C5.12273 14.5968 4.45206 10.9375 3.80168 7.27238C3.51177 5.63827 3.26064 3.99307 3.00096 2.35065C2.9652 2.12434 2.9028 2.0241 2.70773 1.99271C1.99122 1.87704 1.27761 1.73294 0.563315 1.59594C0.163092 1.51929 -0.0457851 1.17748 0.00847067 0.699027C0.0652115 0.199414 0.3358 -0.0622712 0.744582 0.0126447C1.75004 0.19716 3.574 0.323257 4.57932 0.508813C4.78543 0.546791 4.8615 0.708589 4.89905 0.938193C5.19601 2.75196 5.49586 4.56502 5.79351 6.37879C5.8878 6.95349 5.88601 6.95384 6.35912 6.95384C11.6072 6.95384 16.0353 7.02491 21.2835 7.02491C21.354 7.02491 21.4246 7.02318 21.495 7.02561C21.9464 7.04069 22.1774 7.45603 22.0286 7.99084C21.8192 8.74278 21.6068 9.49367 21.3952 10.2446C20.6935 12.7341 19.991 15.2233 19.29 17.7133C19.1432 18.2346 19.0009 18.3636 18.5539 18.3972C16.5069 18.5519 14.4602 18.7111 12.4133 18.8674C10.642 19.0026 8.8708 19.1381 7.09941 19.2674C6.97668 19.2764 6.89523 19.3295 6.81764 19.4457C6.42515 20.0339 6.02672 20.6159 5.63078 21.2007C5.60165 21.2437 5.57611 21.2898 5.52503 21.3737Z"/>
</mask>
<path d="M5.52503 21.3737L3.81654 20.334L1.9666 23.3737H5.52503V21.3737ZM19.2134 21.372L19.2144 23.372H19.2149L19.2134 21.372ZM19.769 21.6658L17.9619 22.5227L17.9621 22.523L19.769 21.6658ZM19.769 22.9728L17.8809 22.3134L17.8808 22.3135L19.769 22.9728ZM19.2085 23.3259L19.21 21.3259H19.2099L19.2085 23.3259ZM4.24001 23.3228L4.24022 21.3228H4.24001V23.3228ZM3.63795 22.5663L5.63532 22.4638L5.63531 22.4637L3.63795 22.5663ZM3.97798 21.145L2.35058 19.9824L2.35034 19.9828L3.97798 21.145ZM5.72604 18.5947L4.07957 17.4593L4.07899 17.4602L5.72604 18.5947ZM5.78857 18.2574L7.75633 17.8998L7.75629 17.8995L5.78857 18.2574ZM3.80168 7.27238L1.83243 7.62175L1.83245 7.62182L3.80168 7.27238ZM3.00096 2.35065L1.02547 2.66277L1.0255 2.66298L3.00096 2.35065ZM2.70773 1.99271L2.38899 3.96715L2.39 3.96731L2.70773 1.99271ZM0.563315 1.59594L0.940039 -0.368263L0.939515 -0.368363L0.563315 1.59594ZM0.00847067 0.699027L-1.97875 0.473339L-1.97879 0.473676L0.00847067 0.699027ZM0.744582 0.0126447L1.10558 -1.95451L1.10511 -1.95459L0.744582 0.0126447ZM4.57932 0.508813L4.2163 2.47559L4.2169 2.4757L4.57932 0.508813ZM4.89905 0.938193L2.92527 1.261L2.92533 1.26134L4.89905 0.938193ZM5.79351 6.37879L7.76712 6.05498L7.76711 6.05491L5.79351 6.37879ZM21.495 7.02561L21.4261 9.02442L21.4282 9.02449L21.495 7.02561ZM22.0286 7.99084L23.9553 8.52746L23.9554 8.52701L22.0286 7.99084ZM21.3952 10.2446L23.3202 10.7872L23.3202 10.7871L21.3952 10.2446ZM19.29 17.7133L17.3648 17.1712L17.3648 17.1713L19.29 17.7133ZM18.5539 18.3972L18.4038 16.4029L18.4032 16.4029L18.5539 18.3972ZM12.4133 18.8674L12.2611 16.8732L12.261 16.8732L12.4133 18.8674ZM7.09941 19.2674L6.95373 17.2727L6.95286 17.2728L7.09941 19.2674ZM6.81764 19.4457L5.15439 18.335L5.15398 18.3356L6.81764 19.4457ZM5.63078 21.2007L7.28669 22.3223L7.28686 22.322L5.63078 21.2007ZM5.52503 23.3737C5.52524 23.3737 5.52544 23.3737 5.52565 23.3737C5.52586 23.3737 5.52607 23.3737 5.52628 23.3737C5.52649 23.3737 5.52669 23.3737 5.5269 23.3737C5.52711 23.3737 5.52732 23.3737 5.52753 23.3737C5.52773 23.3737 5.52794 23.3737 5.52815 23.3737C5.52836 23.3737 5.52856 23.3737 5.52877 23.3737C5.52898 23.3737 5.52918 23.3737 5.52939 23.3737C5.5296 23.3737 5.5298 23.3737 5.53001 23.3737C5.53022 23.3737 5.53042 23.3737 5.53063 23.3737C5.53084 23.3737 5.53104 23.3737 5.53125 23.3737C5.53146 23.3737 5.53166 23.3737 5.53187 23.3737C5.53207 23.3737 5.53228 23.3737 5.53249 23.3737C5.53269 23.3737 5.5329 23.3737 5.5331 23.3737C5.53331 23.3737 5.53351 23.3737 5.53372 23.3737C5.53392 23.3737 5.53413 23.3737 5.53433 23.3737C5.53454 23.3737 5.53474 23.3737 5.53495 23.3737C5.53515 23.3737 5.53536 23.3737 5.53556 23.3737C5.53577 23.3737 5.53597 23.3737 5.53617 23.3737C5.53638 23.3737 5.53658 23.3737 5.53679 23.3737C5.53699 23.3737 5.53719 23.3737 5.5374 23.3737C5.5376 23.3737 5.53781 23.3737 5.53801 23.3737C5.53821 23.3737 5.53842 23.3737 5.53862 23.3737C5.53882 23.3737 5.53903 23.3737 5.53923 23.3737C5.53943 23.3737 5.53963 23.3737 5.53984 23.3737C5.54004 23.3737 5.54024 23.3737 5.54044 23.3737C5.54065 23.3737 5.54085 23.3737 5.54105 23.3737C5.54125 23.3737 5.54146 23.3737 5.54166 23.3737C5.54186 23.3737 5.54206 23.3737 5.54226 23.3737C5.54247 23.3737 5.54267 23.3737 5.54287 23.3737C5.54307 23.3737 5.54327 23.3737 5.54347 23.3737C5.54367 23.3737 5.54388 23.3737 5.54408 23.3737C5.54428 23.3737 5.54448 23.3737 5.54468 23.3737C5.54488 23.3737 5.54508 23.3737 5.54528 23.3737C5.54548 23.3737 5.54568 23.3737 5.54588 23.3737C5.54608 23.3737 5.54628 23.3737 5.54648 23.3737C5.54668 23.3737 5.54688 23.3737 5.54708 23.3737C5.54728 23.3737 5.54748 23.3737 5.54768 23.3737C5.54788 23.3737 5.54808 23.3737 5.54828 23.3737C5.54848 23.3737 5.54868 23.3737 5.54888 23.3737C5.54908 23.3737 5.54928 23.3737 5.54948 23.3737C5.54967 23.3737 5.54987 23.3737 5.55007 23.3737C5.55027 23.3737 5.55047 23.3737 5.55067 23.3737C5.55087 23.3737 5.55106 23.3737 5.55126 23.3737C5.55146 23.3737 5.55166 23.3737 5.55186 23.3737C5.55205 23.3737 5.55225 23.3737 5.55245 23.3737C5.55265 23.3737 5.55285 23.3737 5.55304 23.3737C5.55324 23.3737 5.55344 23.3737 5.55364 23.3737C5.55383 23.3737 5.55403 23.3737 5.55423 23.3737C5.55442 23.3737 5.55462 23.3737 5.55482 23.3737C5.55501 23.3737 5.55521 23.3737 5.55541 23.3737C5.5556 23.3737 5.5558 23.3737 5.556 23.3737C5.55619 23.3737 5.55639 23.3737 5.55659 23.3737C5.55678 23.3737 5.55698 23.3737 5.55717 23.3737C5.55737 23.3737 5.55757 23.3737 5.55776 23.3737C5.55796 23.3737 5.55815 23.3737 5.55835 23.3737C5.55854 23.3737 5.55874 23.3737 5.55893 23.3737C5.55913 23.3737 5.55932 23.3737 5.55952 23.3737C5.55971 23.3737 5.55991 23.3737 5.5601 23.3737C5.5603 23.3737 5.56049 23.3737 5.56069 23.3737C5.56088 23.3737 5.56108 23.3737 5.56127 23.3737C5.56146 23.3737 5.56166 23.3737 5.56185 23.3737C5.56205 23.3737 5.56224 23.3737 5.56244 23.3737C5.56263 23.3737 5.56282 23.3737 5.56302 23.3737C5.56321 23.3737 5.5634 23.3737 5.5636 23.3737C5.56379 23.3737 5.56398 23.3737 5.56418 23.3737C5.56437 23.3737 5.56456 23.3737 5.56476 23.3737C5.56495 23.3737 5.56514 23.3737 5.56533 23.3737C5.56553 23.3737 5.56572 23.3737 5.56591 23.3737C5.5661 23.3737 5.5663 23.3737 5.56649 23.3737C5.56668 23.3737 5.56687 23.3737 5.56707 23.3737C5.56726 23.3737 5.56745 23.3737 5.56764 23.3737C5.56783 23.3737 5.56803 23.3737 5.56822 23.3737C5.56841 23.3737 5.5686 23.3737 5.56879 23.3737C5.56898 23.3737 5.56917 23.3737 5.56937 23.3737C5.56956 23.3737 5.56975 23.3737 5.56994 23.3737C5.57013 23.3737 5.57032 23.3737 5.57051 23.3737C5.5707 23.3737 5.57089 23.3737 5.57108 23.3737C5.57127 23.3737 5.57146 23.3737 5.57165 23.3737C5.57185 23.3737 5.57204 23.3737 5.57223 23.3737C5.57242 23.3737 5.57261 23.3737 5.5728 23.3737C5.57299 23.3737 5.57318 23.3737 5.57337 23.3737C5.57355 23.3737 5.57374 23.3737 5.57393 23.3737C5.57412 23.3737 5.57431 23.3737 5.5745 23.3737C5.57469 23.3737 5.57488 23.3737 5.57507 23.3737C5.57526 23.3737 5.57545 23.3737 5.57564 23.3737C5.57583 23.3737 5.57601 23.3737 5.5762 23.3737C5.57639 23.3737 5.57658 23.3737 5.57677 23.3737C5.57696 23.3737 5.57714 23.3737 5.57733 23.3737C5.57752 23.3737 5.57771 23.3737 5.5779 23.3737C5.57808 23.3737 5.57827 23.3737 5.57846 23.3737C5.57865 23.3737 5.57884 23.3737 5.57902 23.3737C5.57921 23.3737 5.5794 23.3737 5.57959 23.3737C5.57977 23.3737 5.57996 23.3737 5.58015 23.3737C5.58034 23.3737 5.58052 23.3737 5.58071 23.3737C5.5809 23.3737 5.58108 23.3737 5.58127 23.3737C5.58146 23.3737 5.58164 23.3737 5.58183 23.3737C5.58202 23.3737 5.5822 23.3737 5.58239 23.3737C5.58257 23.3737 5.58276 23.3737 5.58295 23.3737C5.58313 23.3737 5.58332 23.3737 5.58351 23.3737C5.58369 23.3737 5.58388 23.3737 5.58406 23.3737C5.58425 23.3737 5.58443 23.3737 5.58462 23.3737C5.58481 23.3737 5.58499 23.3737 5.58518 23.3737C5.58536 23.3737 5.58555 23.3737 5.58573 23.3737C5.58592 23.3737 5.5861 23.3737 5.58629 23.3737C5.58647 23.3737 5.58666 23.3737 5.58684 23.3737C5.58703 23.3737 5.58721 23.3737 5.58739 23.3737C5.58758 23.3737 5.58776 23.3737 5.58795 23.3737C5.58813 23.3737 5.58832 23.3737 5.5885 23.3737C5.58868 23.3737 5.58887 23.3737 5.58905 23.3737C5.58924 23.3737 5.58942 23.3737 5.5896 23.3737C5.58979 23.3737 5.58997 23.3737 5.59015 23.3737C5.59034 23.3737 5.59052 23.3737 5.5907 23.3737C5.59089 23.3737 5.59107 23.3737 5.59125 23.3737C5.59144 23.3737 5.59162 23.3737 5.5918 23.3737C5.59199 23.3737 5.59217 23.3737 5.59235 23.3737C5.59253 23.3737 5.59272 23.3737 5.5929 23.3737C5.59308 23.3737 5.59326 23.3737 5.59345 23.3737C5.59363 23.3737 5.59381 23.3737 5.59399 23.3737C5.59417 23.3737 5.59436 23.3737 5.59454 23.3737C5.59472 23.3737 5.5949 23.3737 5.59508 23.3737C5.59527 23.3737 5.59545 23.3737 5.59563 23.3737C5.59581 23.3737 5.59599 23.3737 5.59617 23.3737C5.59635 23.3737 5.59654 23.3737 5.59672 23.3737C5.5969 23.3737 5.59708 23.3737 5.59726 23.3737C5.59744 23.3737 5.59762 23.3737 5.5978 23.3737C5.59798 23.3737 5.59816 23.3737 5.59834 23.3737C5.59852 23.3737 5.5987 23.3737 5.59889 23.3737C5.59907 23.3737 5.59925 23.3737 5.59943 23.3737C5.59961 23.3737 5.59979 23.3737 5.59997 23.3737C5.60015 23.3737 5.60033 23.3737 5.60051 23.3737C5.60069 23.3737 5.60087 23.3737 5.60104 23.3737C5.60122 23.3737 5.6014 23.3737 5.60158 23.3737C5.60176 23.3737 5.60194 23.3737 5.60212 23.3737C5.6023 23.3737 5.60248 23.3737 5.60266 23.3737C5.60284 23.3737 5.60302 23.3737 5.6032 23.3737C5.60337 23.3737 5.60355 23.3737 5.60373 23.3737C5.60391 23.3737 5.60409 23.3737 5.60427 23.3737C5.60445 23.3737 5.60462 23.3737 5.6048 23.3737C5.60498 23.3737 5.60516 23.3737 5.60534 23.3737C5.60551 23.3737 5.60569 23.3737 5.60587 23.3737C5.60605 23.3737 5.60623 23.3737 5.6064 23.3737C5.60658 23.3737 5.60676 23.3737 5.60694 23.3737C5.60711 23.3737 5.60729 23.3737 5.60747 23.3737C5.60765 23.3737 5.60782 23.3737 5.608 23.3737C5.60818 23.3737 5.60836 23.3737 5.60853 23.3737C5.60871 23.3737 5.60889 23.3737 5.60906 23.3737C5.60924 23.3737 5.60942 23.3737 5.60959 23.3737C5.60977 23.3737 5.60995 23.3737 5.61012 23.3737C5.6103 23.3737 5.61048 23.3737 5.61065 23.3737C5.61083 23.3737 5.611 23.3737 5.61118 23.3737C5.61136 23.3737 5.61153 23.3737 5.61171 23.3737C5.61188 23.3737 5.61206 23.3737 5.61224 23.3737C5.61241 23.3737 5.61259 23.3737 5.61276 23.3737C5.61294 23.3737 5.61311 23.3737 5.61329 23.3737C5.61346 23.3737 5.61364 23.3737 5.61381 23.3737C5.61399 23.3737 5.61416 23.3737 5.61434 23.3737C5.61451 23.3737 5.61469 23.3737 5.61486 23.3737C5.61504 23.3737 5.61521 23.3737 5.61539 23.3737C5.61556 23.3737 5.61574 23.3737 5.61591 23.3737C5.61609 23.3737 5.61626 23.3737 5.61644 23.3737C5.61661 23.3737 5.61678 23.3737 5.61696 23.3737C5.61713 23.3737 5.61731 23.3737 5.61748 23.3737C5.61765 23.3737 5.61783 23.3737 5.618 23.3737C5.61818 23.3737 5.61835 23.3737 5.61852 23.3737C5.6187 23.3737 5.61887 23.3737 5.61904 23.3737C5.61922 23.3737 5.61939 23.3737 5.61956 23.3737C5.61974 23.3737 5.61991 23.3737 5.62008 23.3737C5.62026 23.3737 5.62043 23.3737 5.6206 23.3737C5.62077 23.3737 5.62095 23.3737 5.62112 23.3737C5.62129 23.3737 5.62147 23.3737 5.62164 23.3737C5.62181 23.3737 5.62198 23.3737 5.62216 23.3737C5.62233 23.3737 5.6225 23.3737 5.62267 23.3737C5.62284 23.3737 5.62302 23.3737 5.62319 23.3737C5.62336 23.3737 5.62353 23.3737 5.6237 23.3737C5.62388 23.3737 5.62405 23.3737 5.62422 23.3737C5.62439 23.3737 5.62456 23.3737 5.62473 23.3737C5.62491 23.3737 5.62508 23.3737 5.62525 23.3737C5.62542 23.3737 5.62559 23.3737 5.62576 23.3737C5.62593 23.3737 5.62611 23.3737 5.62628 23.3737C5.62645 23.3737 5.62662 23.3737 5.62679 23.3737C5.62696 23.3737 5.62713 23.3737 5.6273 23.3737C5.62747 23.3737 5.62764 23.3737 5.62781 23.3737C5.62798 23.3737 5.62815 23.3737 5.62832 23.3737C5.6285 23.3737 5.62867 23.3737 5.62884 23.3737C5.62901 23.3737 5.62918 23.3737 5.62935 23.3737C5.62952 23.3737 5.62969 23.3737 5.62986 23.3737C5.63003 23.3737 5.6302 23.3737 5.63037 23.3737C5.63054 23.3737 5.63071 23.3737 5.63088 23.3737C5.63104 23.3737 5.63121 23.3737 5.63138 23.3737C5.63155 23.3737 5.63172 23.3737 5.63189 23.3737C5.63206 23.3737 5.63223 23.3737 5.6324 23.3737C5.63257 23.3737 5.63274 23.3737 5.63291 23.3737C5.63307 23.3737 5.63324 23.3737 5.63341 23.3737C5.63358 23.3737 5.63375 23.3737 5.63392 23.3737C5.63409 23.3737 5.63426 23.3737 5.63442 23.3737C5.63459 23.3737 5.63476 23.3737 5.63493 23.3737C5.6351 23.3737 5.63527 23.3737 5.63543 23.3737C5.6356 23.3737 5.63577 23.3737 5.63594 23.3737C5.63611 23.3737 5.63627 23.3737 5.63644 23.3737C5.63661 23.3737 5.63678 23.3737 5.63695 23.3737C5.63711 23.3737 5.63728 23.3737 5.63745 23.3737C5.63762 23.3737 5.63778 23.3737 5.63795 23.3737C5.63812 23.3737 5.63829 23.3737 5.63845 23.3737C5.63862 23.3737 5.63879 23.3737 5.63895 23.3737C5.63912 23.3737 5.63929 23.3737 5.63945 23.3737C5.63962 23.3737 5.63979 23.3737 5.63996 23.3737C5.64012 23.3737 5.64029 23.3737 5.64046 23.3737C5.64062 23.3737 5.64079 23.3737 5.64095 23.3737C5.64112 23.3737 5.64129 23.3737 5.64145 23.3737C5.64162 23.3737 5.64179 23.3737 5.64195 23.3737C5.64212 23.3737 5.64228 23.3737 5.64245 23.3737C5.64262 23.3737 5.64278 23.3737 5.64295 23.3737C5.64311 23.3737 5.64328 23.3737 5.64345 23.3737C5.64361 23.3737 5.64378 23.3737 5.64394 23.3737C5.64411 23.3737 5.64427 23.3737 5.64444 23.3737C5.6446 23.3737 5.64477 23.3737 5.64494 23.3737C5.6451 23.3737 5.64527 23.3737 5.64543 23.3737C5.6456 23.3737 5.64576 23.3737 5.64593 23.3737C5.64609 23.3737 5.64626 23.3737 5.64642 23.3737C5.64659 23.3737 5.64675 23.3737 5.64691 23.3737C5.64708 23.3737 5.64724 23.3737 5.64741 23.3737C5.64757 23.3737 5.64774 23.3737 5.6479 23.3737C5.64807 23.3737 5.64823 23.3737 5.6484 23.3737C5.64856 23.3737 5.64872 23.3737 5.64889 23.3737C5.64905 23.3737 5.64922 23.3737 5.64938 23.3737C5.64954 23.3737 5.64971 23.3737 5.64987 23.3737C5.65003 23.3737 5.6502 23.3737 5.65036 23.3737C5.65053 23.3737 5.65069 23.3737 5.65085 23.3737C5.65102 23.3737 5.65118 23.3737 5.65134 23.3737C5.65151 23.3737 5.65167 23.3737 5.65183 23.3737C5.652 23.3737 5.65216 23.3737 5.65232 23.3737C5.65249 23.3737 5.65265 23.3737 5.65281 23.3737C5.65298 23.3737 5.65314 23.3737 5.6533 23.3737C5.65346 23.3737 5.65363 23.3737 5.65379 23.3737C5.65395 23.3737 5.65411 23.3737 5.65428 23.3737C5.65444 23.3737 5.6546 23.3737 5.65476 23.3737C5.65493 23.3737 5.65509 23.3737 5.65525 23.3737C5.65541 23.3737 5.65558 23.3737 5.65574 23.3737C5.6559 23.3737 5.65606 23.3737 5.65622 23.3737C5.65639 23.3737 5.65655 23.3737 5.65671 23.3737C5.65687 23.3737 5.65703 23.3737 5.6572 23.3737C5.65736 23.3737 5.65752 23.3737 5.65768 23.3737C5.65784 23.3737 5.658 23.3737 5.65816 23.3737C5.65833 23.3737 5.65849 23.3737 5.65865 23.3737C5.65881 23.3737 5.65897 23.3737 5.65913 23.3737C5.65929 23.3737 5.65946 23.3737 5.65962 23.3737C5.65978 23.3737 5.65994 23.3737 5.6601 23.3737C5.66026 23.3737 5.66042 23.3737 5.66058 23.3737C5.66074 23.3737 5.6609 23.3737 5.66106 23.3737C5.66122 23.3737 5.66139 23.3737 5.66155 23.3737C5.66171 23.3737 5.66187 23.3737 5.66203 23.3737C5.66219 23.3737 5.66235 23.3737 5.66251 23.3737C5.66267 23.3737 5.66283 23.3737 5.66299 23.3737C5.66315 23.3737 5.66331 23.3737 5.66347 23.3737C5.66363 23.3737 5.66379 23.3737 5.66395 23.3737C5.66411 23.3737 5.66427 23.3737 5.66443 23.3737C5.66459 23.3737 5.66475 23.3737 5.66491 23.3737C5.66507 23.3737 5.66523 23.3737 5.66539 23.3737C5.66555 23.3737 5.66571 23.3737 5.66586 23.3737C5.66602 23.3737 5.66618 23.3737 5.66634 23.3737C5.6665 23.3737 5.66666 23.3737 5.66682 23.3737C5.66698 23.3737 5.66714 23.3737 5.6673 23.3737C5.66746 23.3737 5.66762 23.3737 5.66777 23.3737C5.66793 23.3737 5.66809 23.3737 5.66825 23.3737C5.66841 23.3737 5.66857 23.3737 5.66873 23.3737C5.66889 23.3737 5.66904 23.3737 5.6692 23.3737C5.66936 23.3737 5.66952 23.3737 5.66968 23.3737C5.66984 23.3737 5.66999 23.3737 5.67015 23.3737C5.67031 23.3737 5.67047 23.3737 5.67063 23.3737C5.67079 23.3737 5.67094 23.3737 5.6711 23.3737C5.67126 23.3737 5.67142 23.3737 5.67158 23.3737C5.67173 23.3737 5.67189 23.3737 5.67205 23.3737C5.67221 23.3737 5.67236 23.3737 5.67252 23.3737C5.67268 23.3737 5.67284 23.3737 5.673 23.3737C5.67315 23.3737 5.67331 23.3737 5.67347 23.3737C5.67362 23.3737 5.67378 23.3737 5.67394 23.3737C5.6741 23.3737 5.67425 23.3737 5.67441 23.3737C5.67457 23.3737 5.67473 23.3737 5.67488 23.3737C5.67504 23.3737 5.6752 23.3737 5.67535 23.3737C5.67551 23.3737 5.67567 23.3737 5.67582 23.3737C5.67598 23.3737 5.67614 23.3737 5.67629 23.3737C5.67645 23.3737 5.67661 23.3737 5.67676 23.3737C5.67692 23.3737 5.67708 23.3737 5.67723 23.3737C5.67739 23.3737 5.67755 23.3737 5.6777 23.3737C5.67786 23.3737 5.67802 23.3737 5.67817 23.3737C5.67833 23.3737 5.67849 23.3737 5.67864 23.3737C5.6788 23.3737 5.67895 23.3737 5.67911 23.3737C5.67927 23.3737 5.67942 23.3737 5.67958 23.3737C5.67973 23.3737 5.67989 23.3737 5.68005 23.3737C5.6802 23.3737 5.68036 23.3737 5.68051 23.3737C5.68067 23.3737 5.68082 23.3737 5.68098 23.3737C5.68114 23.3737 5.68129 23.3737 5.68145 23.3737C5.6816 23.3737 5.68176 23.3737 5.68191 23.3737C5.68207 23.3737 5.68222 23.3737 5.68238 23.3737C5.68253 23.3737 5.68269 23.3737 5.68284 23.3737C5.683 23.3737 5.68315 23.3737 5.68331 23.3737C5.68347 23.3737 5.68362 23.3737 5.68377 23.3737C5.68393 23.3737 5.68408 23.3737 5.68424 23.3737C5.68439 23.3737 5.68455 23.3737 5.6847 23.3737C5.68486 23.3737 5.68501 23.3737 5.68517 23.3737C5.68532 23.3737 5.68548 23.3737 5.68563 23.3737C5.68579 23.3737 5.68594 23.3737 5.6861 23.3737C5.68625 23.3737 5.6864 23.3737 5.68656 23.3737C5.68671 23.3737 5.68687 23.3737 5.68702 23.3737C5.68718 23.3737 5.68733 23.3737 5.68748 23.3737C5.68764 23.3737 5.68779 23.3737 5.68795 23.3737C5.6881 23.3737 5.68825 23.3737 5.68841 23.3737C5.68856 23.3737 5.68872 23.3737 5.68887 23.3737C5.68902 23.3737 5.68918 23.3737 5.68933 23.3737C5.68948 23.3737 5.68964 23.3737 5.68979 23.3737C5.68995 23.3737 5.6901 23.3737 5.69025 23.3737C5.69041 23.3737 5.69056 23.3737 5.69071 23.3737C5.69087 23.3737 5.69102 23.3737 5.69117 23.3737C5.69133 23.3737 5.69148 23.3737 5.69163 23.3737C5.69179 23.3737 5.69194 23.3737 5.69209 23.3737C5.69225 23.3737 5.6924 23.3737 5.69255 23.3737C5.6927 23.3737 5.69286 23.3737 5.69301 23.3737C5.69316 23.3737 5.69332 23.3737 5.69347 23.3737C5.69362 23.3737 5.69377 23.3737 5.69393 23.3737C5.69408 23.3737 5.69423 23.3737 5.69438 23.3737C5.69454 23.3737 5.69469 23.3737 5.69484 23.3737C5.69499 23.3737 5.69515 23.3737 5.6953 23.3737C5.69545 23.3737 5.6956 23.3737 5.69576 23.3737C5.69591 23.3737 5.69606 23.3737 5.69621 23.3737C5.69637 23.3737 5.69652 23.3737 5.69667 23.3737C5.69682 23.3737 5.69697 23.3737 5.69713 23.3737C5.69728 23.3737 5.69743 23.3737 5.69758 23.3737C5.69773 23.3737 5.69789 23.3737 5.69804 23.3737C5.69819 23.3737 5.69834 23.3737 5.69849 23.3737C5.69865 23.3737 5.6988 23.3737 5.69895 23.3737C5.6991 23.3737 5.69925 23.3737 5.6994 23.3737C5.69956 23.3737 5.69971 23.3737 5.69986 23.3737C5.70001 23.3737 5.70016 23.3737 5.70031 23.3737C5.70046 23.3737 5.70062 23.3737 5.70077 23.3737C5.70092 23.3737 5.70107 23.3737 5.70122 23.3737C5.70137 23.3737 5.70152 23.3737 5.70167 23.3737C5.70183 23.3737 5.70198 23.3737 5.70213 23.3737C5.70228 23.3737 5.70243 23.3737 5.70258 23.3737C5.70273 23.3737 5.70288 23.3737 5.70303 23.3737C5.70319 23.3737 5.70334 23.3737 5.70349 23.3737C5.70364 23.3737 5.70379 23.3737 5.70394 23.3737C5.70409 23.3737 5.70424 23.3737 5.70439 23.3737C5.70454 23.3737 5.70469 23.3737 5.70484 23.3737C5.70499 23.3737 5.70514 23.3737 5.70529 23.3737C5.70544 23.3737 5.7056 23.3737 5.70575 23.3737C5.7059 23.3737 5.70605 23.3737 5.7062 23.3737C5.70635 23.3737 5.7065 23.3737 5.70665 23.3737C5.7068 23.3737 5.70695 23.3737 5.7071 23.3737C5.70725 23.3737 5.7074 23.3737 5.70755 23.3737C5.7077 23.3737 5.70785 23.3737 5.708 23.3737C5.70815 23.3737 5.7083 23.3737 5.70845 23.3737C5.7086 23.3737 5.70875 23.3737 5.7089 23.3737C5.70905 23.3737 5.7092 23.3737 5.70935 23.3737C5.7095 23.3737 5.70965 23.3737 5.7098 23.3737C5.70995 23.3737 5.7101 23.3737 5.71025 23.3737C5.71039 23.3737 5.71054 23.3737 5.71069 23.3737C5.71084 23.3737 5.71099 23.3737 5.71114 23.3737C5.71129 23.3737 5.71144 23.3737 5.71159 23.3737C5.71174 23.3737 5.71189 23.3737 5.71204 23.3737C5.71219 23.3737 5.71234 23.3737 5.71249 23.3737C5.71264 23.3737 5.71278 23.3737 5.71293 23.3737C5.71308 23.3737 5.71323 23.3737 5.71338 23.3737C5.71353 23.3737 5.71368 23.3737 5.71383 23.3737C5.71398 23.3737 5.71413 23.3737 5.71427 23.3737C5.71442 23.3737 5.71457 23.3737 5.71472 23.3737C5.71487 23.3737 5.71502 23.3737 5.71517 23.3737C5.71532 23.3737 5.71547 23.3737 5.71561 23.3737C5.71576 23.3737 5.71591 23.3737 5.71606 23.3737C5.71621 23.3737 5.71636 23.3737 5.71651 23.3737C5.71665 23.3737 5.7168 23.3737 5.71695 23.3737C5.7171 23.3737 5.71725 23.3737 5.7174 23.3737C5.71754 23.3737 5.71769 23.3737 5.71784 23.3737C5.71799 23.3737 5.71814 23.3737 5.71829 23.3737C5.71843 23.3737 5.71858 23.3737 5.71873 23.3737C5.71888 23.3737 5.71903 23.3737 5.71918 23.3737C5.71932 23.3737 5.71947 23.3737 5.71962 23.3737C5.71977 23.3737 5.71992 23.3737 5.72006 23.3737C5.72021 23.3737 5.72036 23.3737 5.72051 23.3737C5.72066 23.3737 5.7208 23.3737 5.72095 23.3737C5.7211 23.3737 5.72125 23.3737 5.72139 23.3737C5.72154 23.3737 5.72169 23.3737 5.72184 23.3737C5.72199 23.3737 5.72213 23.3737 5.72228 23.3737C5.72243 23.3737 5.72258 23.3737 5.72272 23.3737C5.72287 23.3737 5.72302 23.3737 5.72317 23.3737C5.72331 23.3737 5.72346 23.3737 5.72361 23.3737C5.72376 23.3737 5.7239 23.3737 5.72405 23.3737C5.7242 23.3737 5.72435 23.3737 5.72449 23.3737C5.72464 23.3737 5.72479 23.3737 5.72494 23.3737C5.72508 23.3737 5.72523 23.3737 5.72538 23.3737C5.72552 23.3737 5.72567 23.3737 5.72582 23.3737C5.72597 23.3737 5.72611 23.3737 5.72626 23.3737C5.72641 23.3737 5.72655 23.3737 5.7267 23.3737C5.72685 23.3737 5.727 23.3737 5.72714 23.3737C5.72729 23.3737 5.72744 23.3737 5.72758 23.3737C5.72773 23.3737 5.72788 23.3737 5.72802 23.3737C5.72817 23.3737 5.72832 23.3737 5.72846 23.3737C5.72861 23.3737 5.72876 23.3737 5.7289 23.3737C5.72905 23.3737 5.7292 23.3737 5.72934 23.3737C5.72949 23.3737 5.72964 23.3737 5.72978 23.3737C5.72993 23.3737 5.73008 23.3737 5.73022 23.3737C5.73037 23.3737 5.73052 23.3737 5.73066 23.3737C5.73081 23.3737 5.73096 23.3737 5.7311 23.3737C5.73125 23.3737 5.7314 23.3737 5.73154 23.3737C5.73169 23.3737 5.73184 23.3737 5.73198 23.3737C5.73213 23.3737 5.73227 23.3737 5.73242 23.3737C5.73257 23.3737 5.73271 23.3737 5.73286 23.3737C5.73301 23.3737 5.73315 23.3737 5.7333 23.3737C5.73344 23.3737 5.73359 23.3737 5.73374 23.3737C5.73388 23.3737 5.73403 23.3737 5.73418 23.3737C5.73432 23.3737 5.73447 23.3737 5.73461 23.3737C5.73476 23.3737 5.73491 23.3737 5.73505 23.3737C5.7352 23.3737 5.73534 23.3737 5.73549 23.3737C5.73564 23.3737 5.73578 23.3737 5.73593 23.3737C5.73607 23.3737 5.73622 23.3737 5.73636 23.3737C5.73651 23.3737 5.73666 23.3737 5.7368 23.3737C5.73695 23.3737 5.73709 23.3737 5.73724 23.3737C5.73739 23.3737 5.73753 23.3737 5.73768 23.3737C5.73782 23.3737 5.73797 23.3737 5.73811 23.3737C5.73826 23.3737 5.7384 23.3737 5.73855 23.3737C5.7387 23.3737 5.73884 23.3737 5.73899 23.3737C5.73913 23.3737 5.73928 23.3737 5.73942 23.3737C5.73957 23.3737 5.73971 23.3737 5.73986 23.3737C5.74001 23.3737 5.74015 23.3737 5.7403 23.3737C5.74044 23.3737 5.74059 23.3737 5.74073 23.3737C5.74088 23.3737 5.74102 23.3737 5.74117 23.3737C5.74131 23.3737 5.74146 23.3737 5.7416 23.3737C5.74175 23.3737 5.7419 23.3737 5.74204 23.3737C5.74219 23.3737 5.74233 23.3737 5.74248 23.3737C5.74262 23.3737 5.74277 23.3737 5.74291 23.3737C5.74306 23.3737 5.7432 23.3737 5.74335 23.3737C5.74349 23.3737 5.74364 23.3737 5.74378 23.3737C5.74393 23.3737 5.74407 23.3737 5.74422 23.3737C5.74436 23.3737 5.74451 23.3737 5.74465 23.3737C5.7448 23.3737 5.74494 23.3737 5.74509 23.3737C5.74523 23.3737 5.74538 23.3737 5.74552 23.3737C5.74567 23.3737 5.74581 23.3737 5.74596 23.3737C5.7461 23.3737 5.74625 23.3737 5.74639 23.3737C5.74654 23.3737 5.74668 23.3737 5.74683 23.3737C5.74697 23.3737 5.74712 23.3737 5.74726 23.3737C5.74741 23.3737 5.74755 23.3737 5.74769 23.3737C5.74784 23.3737 5.74798 23.3737 5.74813 23.3737C5.74827 23.3737 5.74842 23.3737 5.74856 23.3737C5.74871 23.3737 5.74885 23.3737 5.749 23.3737C5.74914 23.3737 5.74929 23.3737 5.74943 23.3737C5.74958 23.3737 5.74972 23.3737 5.74986 23.3737C5.75001 23.3737 5.75015 23.3737 5.7503 23.3737C5.75044 23.3737 5.75059 23.3737 5.75073 23.3737C5.75088 23.3737 5.75102 23.3737 5.75117 23.3737C5.75131 23.3737 5.75145 23.3737 5.7516 23.3737C5.75174 23.3737 5.75189 23.3737 5.75203 23.3737C5.75218 23.3737 5.75232 23.3737 5.75247 23.3737C5.75261 23.3737 5.75275 23.3737 5.7529 23.3737C5.75304 23.3737 5.75319 23.3737 5.75333 23.3737C5.75348 23.3737 5.75362 23.3737 5.75376 23.3737C5.75391 23.3737 5.75405 23.3737 5.7542 23.3737C5.75434 23.3737 5.75449 23.3737 5.75463 23.3737C5.75477 23.3737 5.75492 23.3737 5.75506 23.3737C5.75521 23.3737 5.75535 23.3737 5.7555 23.3737C5.75564 23.3737 5.75578 23.3737 5.75593 23.3737C5.75607 23.3737 5.75622 23.3737 5.75636 23.3737C5.7565 23.3737 5.75665 23.3737 5.75679 23.3737C5.75694 23.3737 5.75708 23.3737 5.75722 23.3737C5.75737 23.3737 5.75751 23.3737 5.75766 23.3737C5.7578 23.3737 5.75794 23.3737 5.75809 23.3737C5.75823 23.3737 5.75838 23.3737 5.75852 23.3737C5.75866 23.3737 5.75881 23.3737 5.75895 23.3737C5.7591 23.3737 5.75924 23.3737 5.75938 23.3737C5.75953 23.3737 5.75967 23.3737 5.75982 23.3737C5.75996 23.3737 5.7601 23.3737 5.76025 23.3737C5.76039 23.3737 5.76054 23.3737 5.76068 23.3737C5.76082 23.3737 5.76097 23.3737 5.76111 23.3737C5.76126 23.3737 5.7614 23.3737 5.76154 23.3737C5.76169 23.3737 5.76183 23.3737 5.76197 23.3737C5.76212 23.3737 5.76226 23.3737 5.76241 23.3737C5.76255 23.3737 5.76269 23.3737 5.76284 23.3737C5.76298 23.3737 5.76312 23.3737 5.76327 23.3737C5.76341 23.3737 5.76356 23.3737 5.7637 23.3737C5.76384 23.3737 5.76399 23.3737 5.76413 23.3737C5.76428 23.3737 5.76442 23.3737 5.76456 23.3737C5.76471 23.3737 5.76485 23.3737 5.76499 23.3737C5.76514 23.3737 5.76528 23.3737 5.76542 23.3737C5.76557 23.3737 5.76571 23.3737 5.76586 23.3737C5.766 23.3737 5.76614 23.3737 5.76629 23.3737C5.76643 23.3737 5.76657 23.3737 5.76672 23.3737C5.76686 23.3737 5.767 23.3737 5.76715 23.3737C5.76729 23.3737 5.76744 23.3737 5.76758 23.3737C5.76772 23.3737 5.76787 23.3737 5.76801 23.3737C5.76815 23.3737 5.7683 23.3737 5.76844 23.3737C5.76858 23.3737 5.76873 23.3737 5.76887 23.3737C5.76902 23.3737 5.76916 23.3737 5.7693 23.3737C5.76945 23.3737 5.76959 23.3737 5.76973 23.3737C5.76988 23.3737 5.77002 23.3737 5.77016 23.3737C5.77031 23.3737 5.77045 23.3737 5.77059 23.3737C5.77074 23.3737 5.77088 23.3737 5.77103 23.3737C5.77117 23.3737 5.77131 23.3737 5.77146 23.3737C5.7716 23.3737 5.77174 23.3737 5.77189 23.3737C5.77203 23.3737 5.77217 23.3737 5.77232 23.3737C5.77246 23.3737 5.7726 23.3737 5.77275 23.3737C5.77289 23.3737 5.77303 23.3737 5.77318 23.3737C5.77332 23.3737 5.77346 23.3737 5.77361 23.3737C5.77375 23.3737 5.7739 23.3737 5.77404 23.3737C5.77418 23.3737 5.77433 23.3737 5.77447 23.3737C5.77461 23.3737 5.77476 23.3737 5.7749 23.3737C5.77504 23.3737 5.77519 23.3737 5.77533 23.3737C5.77547 23.3737 5.77562 23.3737 5.77576 23.3737C5.7759 23.3737 5.77605 23.3737 5.77619 23.3737C5.77633 23.3737 5.77648 23.3737 5.77662 23.3737C5.77676 23.3737 5.77691 23.3737 5.77705 23.3737C5.77719 23.3737 5.77734 23.3737 5.77748 23.3737C5.77763 23.3737 5.77777 23.3737 5.77791 23.3737C5.77806 23.3737 5.7782 23.3737 5.77834 23.3737C5.77849 23.3737 5.77863 23.3737 5.77877 23.3737V19.3737C5.77863 19.3737 5.77849 19.3737 5.77834 19.3737C5.7782 19.3737 5.77806 19.3737 5.77791 19.3737C5.77777 19.3737 5.77763 19.3737 5.77748 19.3737C5.77734 19.3737 5.77719 19.3737 5.77705 19.3737C5.77691 19.3737 5.77676 19.3737 5.77662 19.3737C5.77648 19.3737 5.77633 19.3737 5.77619 19.3737C5.77605 19.3737 5.7759 19.3737 5.77576 19.3737C5.77562 19.3737 5.77547 19.3737 5.77533 19.3737C5.77519 19.3737 5.77504 19.3737 5.7749 19.3737C5.77476 19.3737 5.77461 19.3737 5.77447 19.3737C5.77433 19.3737 5.77418 19.3737 5.77404 19.3737C5.7739 19.3737 5.77375 19.3737 5.77361 19.3737C5.77346 19.3737 5.77332 19.3737 5.77318 19.3737C5.77303 19.3737 5.77289 19.3737 5.77275 19.3737C5.7726 19.3737 5.77246 19.3737 5.77232 19.3737C5.77217 19.3737 5.77203 19.3737 5.77189 19.3737C5.77174 19.3737 5.7716 19.3737 5.77146 19.3737C5.77131 19.3737 5.77117 19.3737 5.77103 19.3737C5.77088 19.3737 5.77074 19.3737 5.77059 19.3737C5.77045 19.3737 5.77031 19.3737 5.77016 19.3737C5.77002 19.3737 5.76988 19.3737 5.76973 19.3737C5.76959 19.3737 5.76945 19.3737 5.7693 19.3737C5.76916 19.3737 5.76902 19.3737 5.76887 19.3737C5.76873 19.3737 5.76858 19.3737 5.76844 19.3737C5.7683 19.3737 5.76815 19.3737 5.76801 19.3737C5.76787 19.3737 5.76772 19.3737 5.76758 19.3737C5.76744 19.3737 5.76729 19.3737 5.76715 19.3737C5.767 19.3737 5.76686 19.3737 5.76672 19.3737C5.76657 19.3737 5.76643 19.3737 5.76629 19.3737C5.76614 19.3737 5.766 19.3737 5.76586 19.3737C5.76571 19.3737 5.76557 19.3737 5.76542 19.3737C5.76528 19.3737 5.76514 19.3737 5.76499 19.3737C5.76485 19.3737 5.76471 19.3737 5.76456 19.3737C5.76442 19.3737 5.76428 19.3737 5.76413 19.3737C5.76399 19.3737 5.76384 19.3737 5.7637 19.3737C5.76356 19.3737 5.76341 19.3737 5.76327 19.3737C5.76312 19.3737 5.76298 19.3737 5.76284 19.3737C5.76269 19.3737 5.76255 19.3737 5.76241 19.3737C5.76226 19.3737 5.76212 19.3737 5.76197 19.3737C5.76183 19.3737 5.76169 19.3737 5.76154 19.3737C5.7614 19.3737 5.76126 19.3737 5.76111 19.3737C5.76097 19.3737 5.76082 19.3737 5.76068 19.3737C5.76054 19.3737 5.76039 19.3737 5.76025 19.3737C5.7601 19.3737 5.75996 19.3737 5.75982 19.3737C5.75967 19.3737 5.75953 19.3737 5.75938 19.3737C5.75924 19.3737 5.7591 19.3737 5.75895 19.3737C5.75881 19.3737 5.75866 19.3737 5.75852 19.3737C5.75838 19.3737 5.75823 19.3737 5.75809 19.3737C5.75794 19.3737 5.7578 19.3737 5.75766 19.3737C5.75751 19.3737 5.75737 19.3737 5.75722 19.3737C5.75708 19.3737 5.75694 19.3737 5.75679 19.3737C5.75665 19.3737 5.7565 19.3737 5.75636 19.3737C5.75622 19.3737 5.75607 19.3737 5.75593 19.3737C5.75578 19.3737 5.75564 19.3737 5.7555 19.3737C5.75535 19.3737 5.75521 19.3737 5.75506 19.3737C5.75492 19.3737 5.75477 19.3737 5.75463 19.3737C5.75449 19.3737 5.75434 19.3737 5.7542 19.3737C5.75405 19.3737 5.75391 19.3737 5.75376 19.3737C5.75362 19.3737 5.75348 19.3737 5.75333 19.3737C5.75319 19.3737 5.75304 19.3737 5.7529 19.3737C5.75275 19.3737 5.75261 19.3737 5.75247 19.3737C5.75232 19.3737 5.75218 19.3737 5.75203 19.3737C5.75189 19.3737 5.75174 19.3737 5.7516 19.3737C5.75145 19.3737 5.75131 19.3737 5.75117 19.3737C5.75102 19.3737 5.75088 19.3737 5.75073 19.3737C5.75059 19.3737 5.75044 19.3737 5.7503 19.3737C5.75015 19.3737 5.75001 19.3737 5.74986 19.3737C5.74972 19.3737 5.74958 19.3737 5.74943 19.3737C5.74929 19.3737 5.74914 19.3737 5.749 19.3737C5.74885 19.3737 5.74871 19.3737 5.74856 19.3737C5.74842 19.3737 5.74827 19.3737 5.74813 19.3737C5.74798 19.3737 5.74784 19.3737 5.74769 19.3737C5.74755 19.3737 5.74741 19.3737 5.74726 19.3737C5.74712 19.3737 5.74697 19.3737 5.74683 19.3737C5.74668 19.3737 5.74654 19.3737 5.74639 19.3737C5.74625 19.3737 5.7461 19.3737 5.74596 19.3737C5.74581 19.3737 5.74567 19.3737 5.74552 19.3737C5.74538 19.3737 5.74523 19.3737 5.74509 19.3737C5.74494 19.3737 5.7448 19.3737 5.74465 19.3737C5.74451 19.3737 5.74436 19.3737 5.74422 19.3737C5.74407 19.3737 5.74393 19.3737 5.74378 19.3737C5.74364 19.3737 5.74349 19.3737 5.74335 19.3737C5.7432 19.3737 5.74306 19.3737 5.74291 19.3737C5.74277 19.3737 5.74262 19.3737 5.74248 19.3737C5.74233 19.3737 5.74219 19.3737 5.74204 19.3737C5.7419 19.3737 5.74175 19.3737 5.7416 19.3737C5.74146 19.3737 5.74131 19.3737 5.74117 19.3737C5.74102 19.3737 5.74088 19.3737 5.74073 19.3737C5.74059 19.3737 5.74044 19.3737 5.7403 19.3737C5.74015 19.3737 5.74001 19.3737 5.73986 19.3737C5.73971 19.3737 5.73957 19.3737 5.73942 19.3737C5.73928 19.3737 5.73913 19.3737 5.73899 19.3737C5.73884 19.3737 5.7387 19.3737 5.73855 19.3737C5.7384 19.3737 5.73826 19.3737 5.73811 19.3737C5.73797 19.3737 5.73782 19.3737 5.73768 19.3737C5.73753 19.3737 5.73739 19.3737 5.73724 19.3737C5.73709 19.3737 5.73695 19.3737 5.7368 19.3737C5.73666 19.3737 5.73651 19.3737 5.73636 19.3737C5.73622 19.3737 5.73607 19.3737 5.73593 19.3737C5.73578 19.3737 5.73564 19.3737 5.73549 19.3737C5.73534 19.3737 5.7352 19.3737 5.73505 19.3737C5.73491 19.3737 5.73476 19.3737 5.73461 19.3737C5.73447 19.3737 5.73432 19.3737 5.73418 19.3737C5.73403 19.3737 5.73388 19.3737 5.73374 19.3737C5.73359 19.3737 5.73344 19.3737 5.7333 19.3737C5.73315 19.3737 5.73301 19.3737 5.73286 19.3737C5.73271 19.3737 5.73257 19.3737 5.73242 19.3737C5.73227 19.3737 5.73213 19.3737 5.73198 19.3737C5.73184 19.3737 5.73169 19.3737 5.73154 19.3737C5.7314 19.3737 5.73125 19.3737 5.7311 19.3737C5.73096 19.3737 5.73081 19.3737 5.73066 19.3737C5.73052 19.3737 5.73037 19.3737 5.73022 19.3737C5.73008 19.3737 5.72993 19.3737 5.72978 19.3737C5.72964 19.3737 5.72949 19.3737 5.72934 19.3737C5.7292 19.3737 5.72905 19.3737 5.7289 19.3737C5.72876 19.3737 5.72861 19.3737 5.72846 19.3737C5.72832 19.3737 5.72817 19.3737 5.72802 19.3737C5.72788 19.3737 5.72773 19.3737 5.72758 19.3737C5.72744 19.3737 5.72729 19.3737 5.72714 19.3737C5.727 19.3737 5.72685 19.3737 5.7267 19.3737C5.72655 19.3737 5.72641 19.3737 5.72626 19.3737C5.72611 19.3737 5.72597 19.3737 5.72582 19.3737C5.72567 19.3737 5.72552 19.3737 5.72538 19.3737C5.72523 19.3737 5.72508 19.3737 5.72494 19.3737C5.72479 19.3737 5.72464 19.3737 5.72449 19.3737C5.72435 19.3737 5.7242 19.3737 5.72405 19.3737C5.7239 19.3737 5.72376 19.3737 5.72361 19.3737C5.72346 19.3737 5.72331 19.3737 5.72317 19.3737C5.72302 19.3737 5.72287 19.3737 5.72272 19.3737C5.72258 19.3737 5.72243 19.3737 5.72228 19.3737C5.72213 19.3737 5.72199 19.3737 5.72184 19.3737C5.72169 19.3737 5.72154 19.3737 5.72139 19.3737C5.72125 19.3737 5.7211 19.3737 5.72095 19.3737C5.7208 19.3737 5.72066 19.3737 5.72051 19.3737C5.72036 19.3737 5.72021 19.3737 5.72006 19.3737C5.71992 19.3737 5.71977 19.3737 5.71962 19.3737C5.71947 19.3737 5.71932 19.3737 5.71918 19.3737C5.71903 19.3737 5.71888 19.3737 5.71873 19.3737C5.71858 19.3737 5.71843 19.3737 5.71829 19.3737C5.71814 19.3737 5.71799 19.3737 5.71784 19.3737C5.71769 19.3737 5.71754 19.3737 5.7174 19.3737C5.71725 19.3737 5.7171 19.3737 5.71695 19.3737C5.7168 19.3737 5.71665 19.3737 5.71651 19.3737C5.71636 19.3737 5.71621 19.3737 5.71606 19.3737C5.71591 19.3737 5.71576 19.3737 5.71561 19.3737C5.71547 19.3737 5.71532 19.3737 5.71517 19.3737C5.71502 19.3737 5.71487 19.3737 5.71472 19.3737C5.71457 19.3737 5.71442 19.3737 5.71427 19.3737C5.71413 19.3737 5.71398 19.3737 5.71383 19.3737C5.71368 19.3737 5.71353 19.3737 5.71338 19.3737C5.71323 19.3737 5.71308 19.3737 5.71293 19.3737C5.71278 19.3737 5.71264 19.3737 5.71249 19.3737C5.71234 19.3737 5.71219 19.3737 5.71204 19.3737C5.71189 19.3737 5.71174 19.3737 5.71159 19.3737C5.71144 19.3737 5.71129 19.3737 5.71114 19.3737C5.71099 19.3737 5.71084 19.3737 5.71069 19.3737C5.71054 19.3737 5.71039 19.3737 5.71025 19.3737C5.7101 19.3737 5.70995 19.3737 5.7098 19.3737C5.70965 19.3737 5.7095 19.3737 5.70935 19.3737C5.7092 19.3737 5.70905 19.3737 5.7089 19.3737C5.70875 19.3737 5.7086 19.3737 5.70845 19.3737C5.7083 19.3737 5.70815 19.3737 5.708 19.3737C5.70785 19.3737 5.7077 19.3737 5.70755 19.3737C5.7074 19.3737 5.70725 19.3737 5.7071 19.3737C5.70695 19.3737 5.7068 19.3737 5.70665 19.3737C5.7065 19.3737 5.70635 19.3737 5.7062 19.3737C5.70605 19.3737 5.7059 19.3737 5.70575 19.3737C5.7056 19.3737 5.70544 19.3737 5.70529 19.3737C5.70514 19.3737 5.70499 19.3737 5.70484 19.3737C5.70469 19.3737 5.70454 19.3737 5.70439 19.3737C5.70424 19.3737 5.70409 19.3737 5.70394 19.3737C5.70379 19.3737 5.70364 19.3737 5.70349 19.3737C5.70334 19.3737 5.70319 19.3737 5.70303 19.3737C5.70288 19.3737 5.70273 19.3737 5.70258 19.3737C5.70243 19.3737 5.70228 19.3737 5.70213 19.3737C5.70198 19.3737 5.70183 19.3737 5.70167 19.3737C5.70152 19.3737 5.70137 19.3737 5.70122 19.3737C5.70107 19.3737 5.70092 19.3737 5.70077 19.3737C5.70062 19.3737 5.70046 19.3737 5.70031 19.3737C5.70016 19.3737 5.70001 19.3737 5.69986 19.3737C5.69971 19.3737 5.69956 19.3737 5.6994 19.3737C5.69925 19.3737 5.6991 19.3737 5.69895 19.3737C5.6988 19.3737 5.69865 19.3737 5.69849 19.3737C5.69834 19.3737 5.69819 19.3737 5.69804 19.3737C5.69789 19.3737 5.69773 19.3737 5.69758 19.3737C5.69743 19.3737 5.69728 19.3737 5.69713 19.3737C5.69697 19.3737 5.69682 19.3737 5.69667 19.3737C5.69652 19.3737 5.69637 19.3737 5.69621 19.3737C5.69606 19.3737 5.69591 19.3737 5.69576 19.3737C5.6956 19.3737 5.69545 19.3737 5.6953 19.3737C5.69515 19.3737 5.69499 19.3737 5.69484 19.3737C5.69469 19.3737 5.69454 19.3737 5.69438 19.3737C5.69423 19.3737 5.69408 19.3737 5.69393 19.3737C5.69377 19.3737 5.69362 19.3737 5.69347 19.3737C5.69332 19.3737 5.69316 19.3737 5.69301 19.3737C5.69286 19.3737 5.6927 19.3737 5.69255 19.3737C5.6924 19.3737 5.69225 19.3737 5.69209 19.3737C5.69194 19.3737 5.69179 19.3737 5.69163 19.3737C5.69148 19.3737 5.69133 19.3737 5.69117 19.3737C5.69102 19.3737 5.69087 19.3737 5.69071 19.3737C5.69056 19.3737 5.69041 19.3737 5.69025 19.3737C5.6901 19.3737 5.68995 19.3737 5.68979 19.3737C5.68964 19.3737 5.68948 19.3737 5.68933 19.3737C5.68918 19.3737 5.68902 19.3737 5.68887 19.3737C5.68872 19.3737 5.68856 19.3737 5.68841 19.3737C5.68825 19.3737 5.6881 19.3737 5.68795 19.3737C5.68779 19.3737 5.68764 19.3737 5.68748 19.3737C5.68733 19.3737 5.68718 19.3737 5.68702 19.3737C5.68687 19.3737 5.68671 19.3737 5.68656 19.3737C5.6864 19.3737 5.68625 19.3737 5.6861 19.3737C5.68594 19.3737 5.68579 19.3737 5.68563 19.3737C5.68548 19.3737 5.68532 19.3737 5.68517 19.3737C5.68501 19.3737 5.68486 19.3737 5.6847 19.3737C5.68455 19.3737 5.68439 19.3737 5.68424 19.3737C5.68408 19.3737 5.68393 19.3737 5.68377 19.3737C5.68362 19.3737 5.68347 19.3737 5.68331 19.3737C5.68315 19.3737 5.683 19.3737 5.68284 19.3737C5.68269 19.3737 5.68253 19.3737 5.68238 19.3737C5.68222 19.3737 5.68207 19.3737 5.68191 19.3737C5.68176 19.3737 5.6816 19.3737 5.68145 19.3737C5.68129 19.3737 5.68114 19.3737 5.68098 19.3737C5.68082 19.3737 5.68067 19.3737 5.68051 19.3737C5.68036 19.3737 5.6802 19.3737 5.68005 19.3737C5.67989 19.3737 5.67973 19.3737 5.67958 19.3737C5.67942 19.3737 5.67927 19.3737 5.67911 19.3737C5.67895 19.3737 5.6788 19.3737 5.67864 19.3737C5.67849 19.3737 5.67833 19.3737 5.67817 19.3737C5.67802 19.3737 5.67786 19.3737 5.6777 19.3737C5.67755 19.3737 5.67739 19.3737 5.67723 19.3737C5.67708 19.3737 5.67692 19.3737 5.67676 19.3737C5.67661 19.3737 5.67645 19.3737 5.67629 19.3737C5.67614 19.3737 5.67598 19.3737 5.67582 19.3737C5.67567 19.3737 5.67551 19.3737 5.67535 19.3737C5.6752 19.3737 5.67504 19.3737 5.67488 19.3737C5.67473 19.3737 5.67457 19.3737 5.67441 19.3737C5.67425 19.3737 5.6741 19.3737 5.67394 19.3737C5.67378 19.3737 5.67362 19.3737 5.67347 19.3737C5.67331 19.3737 5.67315 19.3737 5.673 19.3737C5.67284 19.3737 5.67268 19.3737 5.67252 19.3737C5.67236 19.3737 5.67221 19.3737 5.67205 19.3737C5.67189 19.3737 5.67173 19.3737 5.67158 19.3737C5.67142 19.3737 5.67126 19.3737 5.6711 19.3737C5.67094 19.3737 5.67079 19.3737 5.67063 19.3737C5.67047 19.3737 5.67031 19.3737 5.67015 19.3737C5.66999 19.3737 5.66984 19.3737 5.66968 19.3737C5.66952 19.3737 5.66936 19.3737 5.6692 19.3737C5.66904 19.3737 5.66889 19.3737 5.66873 19.3737C5.66857 19.3737 5.66841 19.3737 5.66825 19.3737C5.66809 19.3737 5.66793 19.3737 5.66777 19.3737C5.66762 19.3737 5.66746 19.3737 5.6673 19.3737C5.66714 19.3737 5.66698 19.3737 5.66682 19.3737C5.66666 19.3737 5.6665 19.3737 5.66634 19.3737C5.66618 19.3737 5.66602 19.3737 5.66586 19.3737C5.66571 19.3737 5.66555 19.3737 5.66539 19.3737C5.66523 19.3737 5.66507 19.3737 5.66491 19.3737C5.66475 19.3737 5.66459 19.3737 5.66443 19.3737C5.66427 19.3737 5.66411 19.3737 5.66395 19.3737C5.66379 19.3737 5.66363 19.3737 5.66347 19.3737C5.66331 19.3737 5.66315 19.3737 5.66299 19.3737C5.66283 19.3737 5.66267 19.3737 5.66251 19.3737C5.66235 19.3737 5.66219 19.3737 5.66203 19.3737C5.66187 19.3737 5.66171 19.3737 5.66155 19.3737C5.66139 19.3737 5.66122 19.3737 5.66106 19.3737C5.6609 19.3737 5.66074 19.3737 5.66058 19.3737C5.66042 19.3737 5.66026 19.3737 5.6601 19.3737C5.65994 19.3737 5.65978 19.3737 5.65962 19.3737C5.65946 19.3737 5.65929 19.3737 5.65913 19.3737C5.65897 19.3737 5.65881 19.3737 5.65865 19.3737C5.65849 19.3737 5.65833 19.3737 5.65816 19.3737C5.658 19.3737 5.65784 19.3737 5.65768 19.3737C5.65752 19.3737 5.65736 19.3737 5.6572 19.3737C5.65703 19.3737 5.65687 19.3737 5.65671 19.3737C5.65655 19.3737 5.65639 19.3737 5.65622 19.3737C5.65606 19.3737 5.6559 19.3737 5.65574 19.3737C5.65558 19.3737 5.65541 19.3737 5.65525 19.3737C5.65509 19.3737 5.65493 19.3737 5.65476 19.3737C5.6546 19.3737 5.65444 19.3737 5.65428 19.3737C5.65411 19.3737 5.65395 19.3737 5.65379 19.3737C5.65363 19.3737 5.65346 19.3737 5.6533 19.3737C5.65314 19.3737 5.65298 19.3737 5.65281 19.3737C5.65265 19.3737 5.65249 19.3737 5.65232 19.3737C5.65216 19.3737 5.652 19.3737 5.65183 19.3737C5.65167 19.3737 5.65151 19.3737 5.65134 19.3737C5.65118 19.3737 5.65102 19.3737 5.65085 19.3737C5.65069 19.3737 5.65053 19.3737 5.65036 19.3737C5.6502 19.3737 5.65003 19.3737 5.64987 19.3737C5.64971 19.3737 5.64954 19.3737 5.64938 19.3737C5.64922 19.3737 5.64905 19.3737 5.64889 19.3737C5.64872 19.3737 5.64856 19.3737 5.6484 19.3737C5.64823 19.3737 5.64807 19.3737 5.6479 19.3737C5.64774 19.3737 5.64757 19.3737 5.64741 19.3737C5.64724 19.3737 5.64708 19.3737 5.64691 19.3737C5.64675 19.3737 5.64659 19.3737 5.64642 19.3737C5.64626 19.3737 5.64609 19.3737 5.64593 19.3737C5.64576 19.3737 5.6456 19.3737 5.64543 19.3737C5.64527 19.3737 5.6451 19.3737 5.64494 19.3737C5.64477 19.3737 5.6446 19.3737 5.64444 19.3737C5.64427 19.3737 5.64411 19.3737 5.64394 19.3737C5.64378 19.3737 5.64361 19.3737 5.64345 19.3737C5.64328 19.3737 5.64311 19.3737 5.64295 19.3737C5.64278 19.3737 5.64262 19.3737 5.64245 19.3737C5.64228 19.3737 5.64212 19.3737 5.64195 19.3737C5.64179 19.3737 5.64162 19.3737 5.64145 19.3737C5.64129 19.3737 5.64112 19.3737 5.64095 19.3737C5.64079 19.3737 5.64062 19.3737 5.64046 19.3737C5.64029 19.3737 5.64012 19.3737 5.63996 19.3737C5.63979 19.3737 5.63962 19.3737 5.63945 19.3737C5.63929 19.3737 5.63912 19.3737 5.63895 19.3737C5.63879 19.3737 5.63862 19.3737 5.63845 19.3737C5.63829 19.3737 5.63812 19.3737 5.63795 19.3737C5.63778 19.3737 5.63762 19.3737 5.63745 19.3737C5.63728 19.3737 5.63711 19.3737 5.63695 19.3737C5.63678 19.3737 5.63661 19.3737 5.63644 19.3737C5.63627 19.3737 5.63611 19.3737 5.63594 19.3737C5.63577 19.3737 5.6356 19.3737 5.63543 19.3737C5.63527 19.3737 5.6351 19.3737 5.63493 19.3737C5.63476 19.3737 5.63459 19.3737 5.63442 19.3737C5.63426 19.3737 5.63409 19.3737 5.63392 19.3737C5.63375 19.3737 5.63358 19.3737 5.63341 19.3737C5.63324 19.3737 5.63307 19.3737 5.63291 19.3737C5.63274 19.3737 5.63257 19.3737 5.6324 19.3737C5.63223 19.3737 5.63206 19.3737 5.63189 19.3737C5.63172 19.3737 5.63155 19.3737 5.63138 19.3737C5.63121 19.3737 5.63104 19.3737 5.63088 19.3737C5.63071 19.3737 5.63054 19.3737 5.63037 19.3737C5.6302 19.3737 5.63003 19.3737 5.62986 19.3737C5.62969 19.3737 5.62952 19.3737 5.62935 19.3737C5.62918 19.3737 5.62901 19.3737 5.62884 19.3737C5.62867 19.3737 5.6285 19.3737 5.62832 19.3737C5.62815 19.3737 5.62798 19.3737 5.62781 19.3737C5.62764 19.3737 5.62747 19.3737 5.6273 19.3737C5.62713 19.3737 5.62696 19.3737 5.62679 19.3737C5.62662 19.3737 5.62645 19.3737 5.62628 19.3737C5.62611 19.3737 5.62593 19.3737 5.62576 19.3737C5.62559 19.3737 5.62542 19.3737 5.62525 19.3737C5.62508 19.3737 5.62491 19.3737 5.62473 19.3737C5.62456 19.3737 5.62439 19.3737 5.62422 19.3737C5.62405 19.3737 5.62388 19.3737 5.6237 19.3737C5.62353 19.3737 5.62336 19.3737 5.62319 19.3737C5.62302 19.3737 5.62284 19.3737 5.62267 19.3737C5.6225 19.3737 5.62233 19.3737 5.62216 19.3737C5.62198 19.3737 5.62181 19.3737 5.62164 19.3737C5.62147 19.3737 5.62129 19.3737 5.62112 19.3737C5.62095 19.3737 5.62077 19.3737 5.6206 19.3737C5.62043 19.3737 5.62026 19.3737 5.62008 19.3737C5.61991 19.3737 5.61974 19.3737 5.61956 19.3737C5.61939 19.3737 5.61922 19.3737 5.61904 19.3737C5.61887 19.3737 5.6187 19.3737 5.61852 19.3737C5.61835 19.3737 5.61818 19.3737 5.618 19.3737C5.61783 19.3737 5.61765 19.3737 5.61748 19.3737C5.61731 19.3737 5.61713 19.3737 5.61696 19.3737C5.61678 19.3737 5.61661 19.3737 5.61644 19.3737C5.61626 19.3737 5.61609 19.3737 5.61591 19.3737C5.61574 19.3737 5.61556 19.3737 5.61539 19.3737C5.61521 19.3737 5.61504 19.3737 5.61486 19.3737C5.61469 19.3737 5.61451 19.3737 5.61434 19.3737C5.61416 19.3737 5.61399 19.3737 5.61381 19.3737C5.61364 19.3737 5.61346 19.3737 5.61329 19.3737C5.61311 19.3737 5.61294 19.3737 5.61276 19.3737C5.61259 19.3737 5.61241 19.3737 5.61224 19.3737C5.61206 19.3737 5.61188 19.3737 5.61171 19.3737C5.61153 19.3737 5.61136 19.3737 5.61118 19.3737C5.611 19.3737 5.61083 19.3737 5.61065 19.3737C5.61048 19.3737 5.6103 19.3737 5.61012 19.3737C5.60995 19.3737 5.60977 19.3737 5.60959 19.3737C5.60942 19.3737 5.60924 19.3737 5.60906 19.3737C5.60889 19.3737 5.60871 19.3737 5.60853 19.3737C5.60836 19.3737 5.60818 19.3737 5.608 19.3737C5.60782 19.3737 5.60765 19.3737 5.60747 19.3737C5.60729 19.3737 5.60711 19.3737 5.60694 19.3737C5.60676 19.3737 5.60658 19.3737 5.6064 19.3737C5.60623 19.3737 5.60605 19.3737 5.60587 19.3737C5.60569 19.3737 5.60551 19.3737 5.60534 19.3737C5.60516 19.3737 5.60498 19.3737 5.6048 19.3737C5.60462 19.3737 5.60445 19.3737 5.60427 19.3737C5.60409 19.3737 5.60391 19.3737 5.60373 19.3737C5.60355 19.3737 5.60337 19.3737 5.6032 19.3737C5.60302 19.3737 5.60284 19.3737 5.60266 19.3737C5.60248 19.3737 5.6023 19.3737 5.60212 19.3737C5.60194 19.3737 5.60176 19.3737 5.60158 19.3737C5.6014 19.3737 5.60122 19.3737 5.60104 19.3737C5.60087 19.3737 5.60069 19.3737 5.60051 19.3737C5.60033 19.3737 5.60015 19.3737 5.59997 19.3737C5.59979 19.3737 5.59961 19.3737 5.59943 19.3737C5.59925 19.3737 5.59907 19.3737 5.59889 19.3737C5.5987 19.3737 5.59852 19.3737 5.59834 19.3737C5.59816 19.3737 5.59798 19.3737 5.5978 19.3737C5.59762 19.3737 5.59744 19.3737 5.59726 19.3737C5.59708 19.3737 5.5969 19.3737 5.59672 19.3737C5.59654 19.3737 5.59635 19.3737 5.59617 19.3737C5.59599 19.3737 5.59581 19.3737 5.59563 19.3737C5.59545 19.3737 5.59527 19.3737 5.59508 19.3737C5.5949 19.3737 5.59472 19.3737 5.59454 19.3737C5.59436 19.3737 5.59417 19.3737 5.59399 19.3737C5.59381 19.3737 5.59363 19.3737 5.59345 19.3737C5.59326 19.3737 5.59308 19.3737 5.5929 19.3737C5.59272 19.3737 5.59253 19.3737 5.59235 19.3737C5.59217 19.3737 5.59199 19.3737 5.5918 19.3737C5.59162 19.3737 5.59144 19.3737 5.59125 19.3737C5.59107 19.3737 5.59089 19.3737 5.5907 19.3737C5.59052 19.3737 5.59034 19.3737 5.59015 19.3737C5.58997 19.3737 5.58979 19.3737 5.5896 19.3737C5.58942 19.3737 5.58924 19.3737 5.58905 19.3737C5.58887 19.3737 5.58868 19.3737 5.5885 19.3737C5.58832 19.3737 5.58813 19.3737 5.58795 19.3737C5.58776 19.3737 5.58758 19.3737 5.58739 19.3737C5.58721 19.3737 5.58703 19.3737 5.58684 19.3737C5.58666 19.3737 5.58647 19.3737 5.58629 19.3737C5.5861 19.3737 5.58592 19.3737 5.58573 19.3737C5.58555 19.3737 5.58536 19.3737 5.58518 19.3737C5.58499 19.3737 5.58481 19.3737 5.58462 19.3737C5.58443 19.3737 5.58425 19.3737 5.58406 19.3737C5.58388 19.3737 5.58369 19.3737 5.58351 19.3737C5.58332 19.3737 5.58313 19.3737 5.58295 19.3737C5.58276 19.3737 5.58257 19.3737 5.58239 19.3737C5.5822 19.3737 5.58202 19.3737 5.58183 19.3737C5.58164 19.3737 5.58146 19.3737 5.58127 19.3737C5.58108 19.3737 5.5809 19.3737 5.58071 19.3737C5.58052 19.3737 5.58034 19.3737 5.58015 19.3737C5.57996 19.3737 5.57977 19.3737 5.57959 19.3737C5.5794 19.3737 5.57921 19.3737 5.57902 19.3737C5.57884 19.3737 5.57865 19.3737 5.57846 19.3737C5.57827 19.3737 5.57808 19.3737 5.5779 19.3737C5.57771 19.3737 5.57752 19.3737 5.57733 19.3737C5.57714 19.3737 5.57696 19.3737 5.57677 19.3737C5.57658 19.3737 5.57639 19.3737 5.5762 19.3737C5.57601 19.3737 5.57583 19.3737 5.57564 19.3737C5.57545 19.3737 5.57526 19.3737 5.57507 19.3737C5.57488 19.3737 5.57469 19.3737 5.5745 19.3737C5.57431 19.3737 5.57412 19.3737 5.57393 19.3737C5.57374 19.3737 5.57355 19.3737 5.57337 19.3737C5.57318 19.3737 5.57299 19.3737 5.5728 19.3737C5.57261 19.3737 5.57242 19.3737 5.57223 19.3737C5.57204 19.3737 5.57185 19.3737 5.57165 19.3737C5.57146 19.3737 5.57127 19.3737 5.57108 19.3737C5.57089 19.3737 5.5707 19.3737 5.57051 19.3737C5.57032 19.3737 5.57013 19.3737 5.56994 19.3737C5.56975 19.3737 5.56956 19.3737 5.56937 19.3737C5.56917 19.3737 5.56898 19.3737 5.56879 19.3737C5.5686 19.3737 5.56841 19.3737 5.56822 19.3737C5.56803 19.3737 5.56783 19.3737 5.56764 19.3737C5.56745 19.3737 5.56726 19.3737 5.56707 19.3737C5.56687 19.3737 5.56668 19.3737 5.56649 19.3737C5.5663 19.3737 5.5661 19.3737 5.56591 19.3737C5.56572 19.3737 5.56553 19.3737 5.56533 19.3737C5.56514 19.3737 5.56495 19.3737 5.56476 19.3737C5.56456 19.3737 5.56437 19.3737 5.56418 19.3737C5.56398 19.3737 5.56379 19.3737 5.5636 19.3737C5.5634 19.3737 5.56321 19.3737 5.56302 19.3737C5.56282 19.3737 5.56263 19.3737 5.56244 19.3737C5.56224 19.3737 5.56205 19.3737 5.56185 19.3737C5.56166 19.3737 5.56146 19.3737 5.56127 19.3737C5.56108 19.3737 5.56088 19.3737 5.56069 19.3737C5.56049 19.3737 5.5603 19.3737 5.5601 19.3737C5.55991 19.3737 5.55971 19.3737 5.55952 19.3737C5.55932 19.3737 5.55913 19.3737 5.55893 19.3737C5.55874 19.3737 5.55854 19.3737 5.55835 19.3737C5.55815 19.3737 5.55796 19.3737 5.55776 19.3737C5.55757 19.3737 5.55737 19.3737 5.55717 19.3737C5.55698 19.3737 5.55678 19.3737 5.55659 19.3737C5.55639 19.3737 5.55619 19.3737 5.556 19.3737C5.5558 19.3737 5.5556 19.3737 5.55541 19.3737C5.55521 19.3737 5.55501 19.3737 5.55482 19.3737C5.55462 19.3737 5.55442 19.3737 5.55423 19.3737C5.55403 19.3737 5.55383 19.3737 5.55364 19.3737C5.55344 19.3737 5.55324 19.3737 5.55304 19.3737C5.55285 19.3737 5.55265 19.3737 5.55245 19.3737C5.55225 19.3737 5.55205 19.3737 5.55186 19.3737C5.55166 19.3737 5.55146 19.3737 5.55126 19.3737C5.55106 19.3737 5.55087 19.3737 5.55067 19.3737C5.55047 19.3737 5.55027 19.3737 5.55007 19.3737C5.54987 19.3737 5.54967 19.3737 5.54948 19.3737C5.54928 19.3737 5.54908 19.3737 5.54888 19.3737C5.54868 19.3737 5.54848 19.3737 5.54828 19.3737C5.54808 19.3737 5.54788 19.3737 5.54768 19.3737C5.54748 19.3737 5.54728 19.3737 5.54708 19.3737C5.54688 19.3737 5.54668 19.3737 5.54648 19.3737C5.54628 19.3737 5.54608 19.3737 5.54588 19.3737C5.54568 19.3737 5.54548 19.3737 5.54528 19.3737C5.54508 19.3737 5.54488 19.3737 5.54468 19.3737C5.54448 19.3737 5.54428 19.3737 5.54408 19.3737C5.54388 19.3737 5.54367 19.3737 5.54347 19.3737C5.54327 19.3737 5.54307 19.3737 5.54287 19.3737C5.54267 19.3737 5.54247 19.3737 5.54226 19.3737C5.54206 19.3737 5.54186 19.3737 5.54166 19.3737C5.54146 19.3737 5.54125 19.3737 5.54105 19.3737C5.54085 19.3737 5.54065 19.3737 5.54044 19.3737C5.54024 19.3737 5.54004 19.3737 5.53984 19.3737C5.53963 19.3737 5.53943 19.3737 5.53923 19.3737C5.53903 19.3737 5.53882 19.3737 5.53862 19.3737C5.53842 19.3737 5.53821 19.3737 5.53801 19.3737C5.53781 19.3737 5.5376 19.3737 5.5374 19.3737C5.53719 19.3737 5.53699 19.3737 5.53679 19.3737C5.53658 19.3737 5.53638 19.3737 5.53617 19.3737C5.53597 19.3737 5.53577 19.3737 5.53556 19.3737C5.53536 19.3737 5.53515 19.3737 5.53495 19.3737C5.53474 19.3737 5.53454 19.3737 5.53433 19.3737C5.53413 19.3737 5.53392 19.3737 5.53372 19.3737C5.53351 19.3737 5.53331 19.3737 5.5331 19.3737C5.5329 19.3737 5.53269 19.3737 5.53249 19.3737C5.53228 19.3737 5.53207 19.3737 5.53187 19.3737C5.53166 19.3737 5.53146 19.3737 5.53125 19.3737C5.53104 19.3737 5.53084 19.3737 5.53063 19.3737C5.53042 19.3737 5.53022 19.3737 5.53001 19.3737C5.5298 19.3737 5.5296 19.3737 5.52939 19.3737C5.52918 19.3737 5.52898 19.3737 5.52877 19.3737C5.52856 19.3737 5.52836 19.3737 5.52815 19.3737C5.52794 19.3737 5.52773 19.3737 5.52753 19.3737C5.52732 19.3737 5.52711 19.3737 5.5269 19.3737C5.52669 19.3737 5.52649 19.3737 5.52628 19.3737C5.52607 19.3737 5.52586 19.3737 5.52565 19.3737C5.52544 19.3737 5.52524 19.3737 5.52503 19.3737V23.3737ZM5.77877 23.3737C10.2567 23.3737 14.7355 23.3743 19.2144 23.372L19.2124 19.372C14.7348 19.3743 10.2573 19.3737 5.77877 19.3737V23.3737ZM19.2149 23.372C19.253 23.372 19.0266 23.3836 18.7378 23.2593C18.577 23.1901 18.4113 23.0858 18.2629 22.9405C18.1162 22.7969 18.0209 22.6472 17.9619 22.5227L21.5761 20.8088C21.316 20.2602 20.8814 19.8272 20.3196 19.5853C19.8389 19.3784 19.3957 19.3719 19.2118 19.372L19.2149 23.372ZM17.9621 22.523C17.9135 22.4207 17.8901 22.3407 17.8797 22.3009C17.8685 22.2582 17.8647 22.2314 17.8638 22.2251C17.8625 22.2151 17.8655 22.2347 17.8646 22.2808C17.8639 22.3246 17.8601 22.3655 17.8563 22.3923C17.8544 22.4048 17.8537 22.4068 17.8555 22.3987C17.8569 22.3926 17.8639 22.362 17.8809 22.3134L21.6572 23.6322C21.8085 23.1991 21.8577 22.7151 21.864 22.3508C21.8695 22.0383 21.8559 21.3985 21.576 20.8086L17.9621 22.523ZM17.8808 22.3135C17.9755 22.0424 18.2033 21.7054 18.601 21.4937C18.9265 21.3204 19.196 21.3259 19.21 21.3259L19.2071 25.3259C19.4623 25.3261 19.9611 25.3012 20.4811 25.0243C21.0731 24.709 21.4605 24.1955 21.6573 23.6321L17.8808 22.3135ZM19.2099 21.3259C14.2197 21.3224 9.22894 21.3233 4.24022 21.3228L4.2398 25.3228C9.23 25.3233 14.2185 25.3224 19.2071 25.3259L19.2099 21.3259ZM4.24001 21.3228C4.30556 21.3228 4.48542 21.3303 4.71398 21.4215C4.9664 21.5222 5.20038 21.6944 5.37626 21.9228C5.53737 22.1319 5.59836 22.3212 5.61995 22.4041C5.6409 22.4846 5.63803 22.5165 5.63532 22.4638L1.64058 22.6689C1.65859 23.0198 1.72277 23.7346 2.20733 24.3636C2.81001 25.1461 3.65802 25.3228 4.24001 25.3228V21.3228ZM5.63531 22.4637C5.63583 22.4737 5.63536 22.473 5.63576 22.4611C5.63613 22.4498 5.63716 22.4323 5.63947 22.4094C5.64427 22.3621 5.65293 22.308 5.6647 22.256C5.67684 22.2023 5.68784 22.1705 5.69098 22.1624C5.69214 22.1594 5.68838 22.1697 5.67766 22.1907C5.66748 22.2106 5.64481 22.2523 5.60561 22.3072L2.35034 19.9828C2.00938 20.4603 1.8456 21.0097 1.7634 21.3729C1.67338 21.7706 1.61815 22.2326 1.64059 22.669L5.63531 22.4637ZM5.60537 22.3076C6.20949 21.4619 6.83025 20.5173 7.37308 19.7293L4.07899 17.4602C3.45304 18.3689 2.93898 19.1588 2.35058 19.9824L5.60537 22.3076ZM7.3725 19.7302C7.53982 19.4875 7.69701 19.171 7.76519 18.7787C7.82964 18.4079 7.79181 18.095 7.75633 17.8998L3.82081 18.6151C3.81005 18.5559 3.7785 18.3571 3.82428 18.0938C3.87378 17.8089 3.98736 17.5931 4.07957 17.4593L7.3725 19.7302ZM7.75629 17.8995C7.08979 14.2353 6.42031 10.5825 5.77092 6.92294L1.83245 7.62182C2.48381 11.2925 3.15568 14.9583 3.82086 18.6154L7.75629 17.8995ZM5.77093 6.923C5.48529 5.31298 5.23843 3.69543 4.97642 2.03831L1.0255 2.66298C1.28286 4.29072 1.53824 5.96356 1.83243 7.62175L5.77093 6.923ZM4.97645 2.03852C4.9491 1.86539 4.86622 1.35181 4.494 0.872259C4.03928 0.286433 3.43597 0.0841669 3.02546 0.0181125L2.39 3.96731C2.17456 3.93265 1.69999 3.79619 1.33418 3.32491C1.18209 3.12897 1.10675 2.94582 1.07043 2.83702C1.05202 2.78189 1.04106 2.73807 1.03497 2.71103C1.02886 2.68388 1.02604 2.66641 1.02547 2.66277L4.97645 2.03852ZM3.02647 0.0182762C2.34818 -0.0912231 1.68057 -0.226232 0.940039 -0.368263L0.186591 3.56014C0.874654 3.6921 1.63426 3.84531 2.38899 3.96715L3.02647 0.0182762ZM0.939515 -0.368363C1.25211 -0.308496 1.59933 -0.10598 1.8179 0.248532C2.01401 0.56662 2.00539 0.839255 1.99573 0.924378L-1.97879 0.473676C-2.0427 1.03726 -1.97402 1.72002 -1.58697 2.34779C-1.17747 3.01198 -0.525698 3.42372 0.187115 3.56024L0.939515 -0.368363ZM1.9957 0.924715C1.99254 0.952487 1.95297 1.27873 1.61569 1.59637C1.21032 1.97812 0.707239 2.03911 0.384054 1.97988L1.10511 -1.95459C0.373144 -2.08874 -0.469627 -1.93436 -1.12667 -1.31559C-1.71562 -0.760939 -1.91886 -0.0540456 -1.97875 0.473339L1.9957 0.924715ZM0.383583 1.97979C0.973791 2.08811 1.76533 2.17379 2.44339 2.24835C3.17956 2.32931 3.80215 2.39915 4.2163 2.47559L4.94233 -1.45797C4.35116 -1.56708 3.55911 -1.65307 2.88062 -1.72768C2.144 -1.80868 1.52083 -1.8783 1.10558 -1.95451L0.383583 1.97979ZM4.2169 2.4757C4.03565 2.44231 3.82335 2.36942 3.61331 2.23152C3.40271 2.09326 3.24792 1.92478 3.14048 1.76432C3.03809 1.61138 2.98594 1.47698 2.96036 1.39833C2.9349 1.3201 2.92636 1.26763 2.92527 1.261L6.87283 0.615386C6.83874 0.406976 6.75318 -0.029563 6.46431 -0.461032C6.11372 -0.984669 5.57384 -1.34161 4.94173 -1.45808L4.2169 2.4757ZM2.92533 1.26134C3.22204 3.07359 3.52313 4.89419 3.81991 6.70267L7.76711 6.05491C7.4686 4.23586 7.16998 2.43032 6.87277 0.615047L2.92533 1.26134ZM3.8199 6.7026C3.83712 6.80755 3.86971 7.01804 3.91639 7.20229C3.9583 7.36768 4.08679 7.85404 4.50575 8.2816C4.98403 8.7697 5.54032 8.89009 5.82103 8.92738C6.05122 8.95796 6.29678 8.95384 6.35912 8.95384V4.95384C6.18491 4.95384 6.25328 4.94966 6.3478 4.96222C6.49283 4.98149 6.95497 5.06588 7.36277 5.48205C7.71125 5.83769 7.79294 6.2162 7.79388 6.2199C7.79959 6.24244 7.79705 6.23738 7.76712 6.05498L3.8199 6.7026ZM6.35912 8.95384C8.97473 8.95384 11.3867 8.97155 13.8066 8.98932C16.2249 9.00708 18.651 9.02491 21.2835 9.02491V5.02491C18.6678 5.02491 16.2558 5.0072 13.836 4.98943C11.4177 4.97166 8.99156 4.95384 6.35912 4.95384V8.95384ZM21.2835 9.02491C21.3087 9.02491 21.3323 9.02476 21.3505 9.02463C21.3708 9.02449 21.3834 9.02438 21.3967 9.02434C21.4224 9.02424 21.4283 9.0245 21.4261 9.02442L21.5639 5.02679C21.4486 5.02282 21.2874 5.02491 21.2835 5.02491V9.02491ZM21.4282 9.02449C20.9856 9.0097 20.499 8.75484 20.2373 8.28225C20.014 7.87911 20.0759 7.54782 20.1018 7.45467L23.9554 8.52701C24.1301 7.89905 24.1509 7.09269 23.7365 6.3444C23.2837 5.52667 22.4558 5.0566 21.5618 5.02672L21.4282 9.02449ZM20.1019 7.45422C19.8936 8.20229 19.6825 8.94882 19.4702 9.702L23.3202 10.7871C23.5312 10.0385 23.7447 9.28326 23.9553 8.52746L20.1019 7.45422ZM19.4702 9.70197C18.7687 12.1907 18.066 14.681 17.3648 17.1712L21.2151 18.2553C21.9161 15.7657 22.6182 13.2775 23.3202 10.7872L19.4702 9.70197ZM17.3648 17.1713C17.3414 17.2544 17.341 17.2367 17.3706 17.1746C17.405 17.1024 17.4949 16.9379 17.6761 16.7703C18.0795 16.3969 18.5086 16.395 18.4038 16.4029L18.704 20.3916C19.0461 20.3658 19.7699 20.2826 20.393 19.706C20.9461 19.1941 21.1346 18.5415 21.2151 18.2552L17.3648 17.1713ZM18.4032 16.4029C16.3562 16.5576 14.3032 16.7173 12.2611 16.8732L12.5655 20.8615C14.6173 20.7049 16.6576 20.5462 18.7046 20.3915L18.4032 16.4029ZM12.261 16.8732C10.489 17.0085 8.7212 17.1437 6.95373 17.2727L7.24509 21.2621C9.0204 21.1325 10.7951 20.9968 12.5656 20.8615L12.261 16.8732ZM6.95286 17.2728C6.62104 17.2972 6.238 17.3933 5.86719 17.6295C5.51496 17.8538 5.29096 18.1305 5.15439 18.335L8.4809 20.5564C8.42191 20.6447 8.27743 20.8368 8.016 21.0033C7.73599 21.1816 7.45505 21.2467 7.24597 21.262L6.95286 17.2728ZM5.15398 18.3356C4.76636 18.9166 4.37845 19.483 3.9747 20.0793L7.28686 22.322C7.67499 21.7488 8.08394 21.1513 8.4813 20.5558L5.15398 18.3356ZM3.97486 20.0791C3.92745 20.1491 3.89016 20.2111 3.87035 20.2442C3.84523 20.2861 3.83752 20.2995 3.81654 20.334L7.23351 22.4135C7.25016 22.3861 7.26439 22.3624 7.27611 22.3428C7.28179 22.3333 7.28721 22.3242 7.29141 22.3171C7.29591 22.3096 7.29912 22.3042 7.30192 22.2995C7.31493 22.2778 7.30497 22.2953 7.28669 22.3223L3.97486 20.0791Z" fill="white" mask="url(#path-1-inside-1)"/>
<path d="M5.59722 22.3879L8.14128 18.8262L7.12365 18.3174L4.57959 21.3703L5.59722 22.3879Z" fill="white"/>
<circle cx="8.78617" cy="26.0074" r="1.46439" fill="white"/>
<circle cx="16.1084" cy="26.0074" r="1.46439" fill="white"/>
</svg>
