<svg width="59" height="19" viewBox="0 0 59 19" fill="none" xmlns="http://www.w3.org/2000/svg">
<path d="M0.984027 7H3.01803C4.17003 7 4.98903 6.334 5.12403 5.263L5.46603 2.437C5.60103 1.366 4.94403 0.7 3.79203 0.7H1.75803C1.69503 0.7 1.64103 0.745 1.63203 0.817L0.885027 6.883C0.876027 6.955 0.921027 7 0.984027 7ZM1.56903 6.397L2.19003 1.303C2.19903 1.276 2.21703 1.258 2.24403 1.258H3.75603C4.52103 1.258 4.93503 1.744 4.83603 2.527L4.51203 5.182C4.41303 5.956 3.87303 6.442 3.11703 6.442H1.60503C1.57803 6.442 1.56903 6.424 1.56903 6.397ZM7.91972 6.523C7.28072 6.523 6.89372 6.163 6.83972 5.641C6.82172 5.506 6.83072 5.281 6.86672 4.984C6.86672 4.957 6.89372 4.939 6.92072 4.939H9.71072C9.78272 4.939 9.82772 4.894 9.83672 4.822C9.89072 4.399 9.90872 4.165 9.89972 3.922C9.85472 2.977 9.37772 2.374 8.34272 2.374C7.47872 2.374 6.78572 2.887 6.49772 3.661C6.38972 3.94 6.34472 4.246 6.29072 4.705C6.22772 5.209 6.21872 5.614 6.29972 5.947C6.45272 6.64 6.96572 7.072 7.79372 7.072C8.58572 7.072 9.19772 6.676 9.53972 6.091C9.58472 6.028 9.56672 5.974 9.51272 5.938L9.26972 5.794C9.21572 5.758 9.15272 5.785 9.11672 5.848C8.87372 6.253 8.45972 6.514 7.91972 6.523ZM8.27072 2.932C8.87372 2.932 9.23372 3.292 9.28772 3.814C9.29672 3.94 9.28772 4.147 9.26972 4.39C9.26972 4.417 9.25172 4.435 9.22472 4.435H6.97472C6.94772 4.435 6.93872 4.417 6.93872 4.39C6.98372 4.129 7.02872 3.922 7.08272 3.778C7.26272 3.283 7.67672 2.932 8.27072 2.932ZM14.6479 3.58C14.5309 2.851 14.0269 2.374 13.1989 2.374C12.7309 2.374 12.3169 2.572 12.0199 2.923C11.9929 2.95 11.9659 2.941 11.9749 2.905L12.0109 2.563C12.0199 2.491 11.9839 2.446 11.9119 2.446H11.5249C11.4529 2.446 11.4079 2.491 11.3989 2.563L10.6519 8.629C10.6429 8.701 10.6789 8.746 10.7509 8.746H11.1379C11.2099 8.746 11.2639 8.701 11.2729 8.629L11.5249 6.55C11.5339 6.514 11.5609 6.496 11.5789 6.532C11.7949 6.874 12.1549 7.072 12.6229 7.072C13.4689 7.072 14.0899 6.586 14.3869 5.839C14.5129 5.533 14.5759 5.164 14.6299 4.723C14.6839 4.264 14.7019 3.895 14.6479 3.58ZM13.6669 5.857C13.4779 6.244 13.0909 6.514 12.6229 6.514C12.1549 6.514 11.8759 6.235 11.7859 5.839C11.7139 5.596 11.6959 5.326 11.7679 4.723C11.8399 4.129 11.9209 3.859 12.0469 3.625C12.2359 3.22 12.5869 2.932 13.0729 2.932C13.5589 2.932 13.9009 3.202 13.9909 3.634C14.0629 3.877 14.0809 4.138 14.0089 4.723C13.9369 5.344 13.8289 5.614 13.6669 5.857ZM17.656 1.735H17.962C18.025 1.735 18.061 1.708 18.106 1.654L18.772 0.727C18.826 0.646 18.808 0.582999 18.727 0.582999H18.349C18.286 0.582999 18.241 0.61 18.205 0.663999L17.593 1.591C17.539 1.672 17.566 1.735 17.656 1.735ZM17.269 7.072C18.106 7.072 18.799 6.595 19.123 5.821C19.24 5.524 19.321 5.146 19.375 4.714C19.429 4.291 19.438 3.913 19.393 3.607C19.267 2.851 18.691 2.374 17.845 2.374C16.981 2.374 16.297 2.851 15.973 3.616C15.865 3.904 15.784 4.273 15.73 4.714C15.676 5.146 15.667 5.524 15.712 5.821C15.847 6.595 16.414 7.072 17.269 7.072ZM17.341 6.514C16.756 6.514 16.378 6.172 16.315 5.632C16.288 5.434 16.306 5.11 16.36 4.723C16.405 4.345 16.459 4.012 16.54 3.814C16.747 3.283 17.197 2.932 17.764 2.932C18.349 2.932 18.727 3.283 18.79 3.814C18.817 4.012 18.799 4.327 18.745 4.723C18.7 5.083 18.646 5.416 18.565 5.632C18.358 6.172 17.899 6.514 17.341 6.514ZM21.8074 7.045C22.7884 7.045 23.4904 6.532 23.5894 5.758C23.6974 4.867 22.8784 4.624 22.1584 4.408C21.5914 4.228 21.1414 4.066 21.1954 3.616C21.2494 3.184 21.6814 2.923 22.2664 2.923C22.9234 2.923 23.2744 3.247 23.2294 3.643L23.2204 3.697C23.2114 3.733 23.2564 3.76 23.3284 3.76H23.6794C23.7514 3.76 23.8054 3.715 23.8144 3.643C23.8954 2.932 23.3194 2.401 22.3384 2.401C21.3934 2.401 20.6824 2.887 20.5834 3.661C20.4844 4.516 21.2494 4.777 21.9784 5.002C22.5274 5.182 23.0224 5.317 22.9594 5.803C22.9054 6.226 22.4644 6.55 21.8524 6.55C21.2314 6.55 20.8534 6.19 20.8984 5.812L20.9074 5.731C20.9164 5.686 20.8714 5.65 20.8084 5.65H20.4304C20.3584 5.65 20.3134 5.695 20.3044 5.767L20.2954 5.848C20.2144 6.505 20.7994 7.045 21.8074 7.045ZM25.6034 1.627C25.8824 1.627 26.0984 1.438 26.1344 1.159C26.1704 0.889 25.9994 0.7 25.7204 0.7C25.4414 0.7 25.2254 0.889 25.1894 1.159C25.1534 1.438 25.3244 1.627 25.6034 1.627ZM24.7574 7H25.1444C25.2164 7 25.2614 6.955 25.2704 6.883L25.8014 2.563C25.8104 2.491 25.7744 2.446 25.7024 2.446H25.3154C25.2434 2.446 25.1894 2.491 25.1804 2.563L24.6584 6.883C24.6494 6.955 24.6854 7 24.7574 7ZM29.2059 2.86L29.2419 2.563C29.2509 2.491 29.2149 2.446 29.1429 2.446H28.1889C28.1619 2.446 28.1529 2.428 28.1529 2.401L28.2789 1.393C28.2879 1.321 28.2429 1.276 28.1799 1.276H27.8019C27.7299 1.276 27.6849 1.321 27.6759 1.393L27.5499 2.401C27.5499 2.428 27.5229 2.446 27.5049 2.446H27.0009C26.9289 2.446 26.8839 2.491 26.8749 2.563L26.8389 2.86C26.8299 2.932 26.8659 2.977 26.9379 2.977H27.4329C27.4599 2.977 27.4779 2.995 27.4779 3.022L27.1269 5.848C27.0099 6.784 27.5049 6.991 28.2609 6.991H28.5579C28.6389 6.982 28.6749 6.937 28.6839 6.865L28.7289 6.55C28.7379 6.478 28.6929 6.433 28.6299 6.433H28.4319C27.9099 6.433 27.6849 6.235 27.7569 5.65L28.0719 3.022C28.0809 2.995 28.0989 2.977 28.1259 2.977H29.0799C29.1429 2.977 29.1969 2.932 29.2059 2.86ZM31.4369 7.072C32.2739 7.072 32.9669 6.595 33.2909 5.821C33.4079 5.524 33.4889 5.146 33.5429 4.714C33.5969 4.291 33.6059 3.913 33.5609 3.607C33.4349 2.851 32.8589 2.374 32.0129 2.374C31.1489 2.374 30.4649 2.851 30.1409 3.616C30.0329 3.904 29.9519 4.273 29.8979 4.714C29.8439 5.146 29.8349 5.524 29.8799 5.821C30.0149 6.595 30.5819 7.072 31.4369 7.072ZM31.5089 6.514C30.9239 6.514 30.5459 6.172 30.4829 5.632C30.4559 5.434 30.4739 5.11 30.5279 4.723C30.5729 4.345 30.6269 4.012 30.7079 3.814C30.9149 3.283 31.3649 2.932 31.9319 2.932C32.5169 2.932 32.8949 3.283 32.9579 3.814C32.9849 4.012 32.9669 4.327 32.9129 4.723C32.8679 5.083 32.8139 5.416 32.7329 5.632C32.5259 6.172 32.0669 6.514 31.5089 6.514ZM37.9584 7.072C38.7954 7.072 39.4884 6.595 39.8124 5.821C39.9294 5.524 40.0104 5.146 40.0644 4.714C40.1184 4.291 40.1274 3.913 40.0824 3.607C39.9564 2.851 39.3804 2.374 38.5344 2.374C37.6704 2.374 36.9864 2.851 36.6624 3.616C36.5544 3.904 36.4734 4.273 36.4194 4.714C36.3654 5.146 36.3564 5.524 36.4014 5.821C36.5364 6.595 37.1034 7.072 37.9584 7.072ZM38.0304 6.514C37.4454 6.514 37.0674 6.172 37.0044 5.632C36.9774 5.434 36.9954 5.11 37.0494 4.723C37.0944 4.345 37.1484 4.012 37.2294 3.814C37.4364 3.283 37.8864 2.932 38.4534 2.932C39.0384 2.932 39.4164 3.283 39.4794 3.814C39.5064 4.012 39.4884 4.327 39.4344 4.723C39.3894 5.083 39.3354 5.416 39.2544 5.632C39.0474 6.172 38.5884 6.514 38.0304 6.514ZM43.4509 2.383C42.9379 2.383 42.5059 2.563 42.2179 2.923C42.1909 2.959 42.1729 2.932 42.1729 2.896L42.2179 2.563C42.2269 2.491 42.1819 2.446 42.1189 2.446H41.7229C41.6509 2.446 41.6059 2.491 41.5969 2.563L41.0659 6.883C41.0569 6.955 41.0929 7 41.1649 7H41.5519C41.6239 7 41.6779 6.955 41.6869 6.883L42.0559 3.886C42.1819 3.319 42.6499 2.941 43.2439 2.941C43.8649 2.941 44.2249 3.4 44.1439 4.066L43.7929 6.883C43.7839 6.955 43.8289 7 43.8919 7H44.2879C44.3599 7 44.4049 6.955 44.4139 6.883L44.7739 3.94C44.8909 2.995 44.3689 2.383 43.4509 2.383ZM45.8758 7H46.2628C46.3348 7 46.3888 6.955 46.3978 6.883L47.1358 0.817C47.1448 0.745 47.1088 0.7 47.0368 0.7H46.6498C46.5778 0.7 46.5328 0.745 46.5238 0.817L45.7768 6.883C45.7678 6.955 45.8038 7 45.8758 7ZM48.8153 1.627C49.0943 1.627 49.3103 1.438 49.3463 1.159C49.3823 0.889 49.2113 0.7 48.9323 0.7C48.6533 0.7 48.4373 0.889 48.4013 1.159C48.3653 1.438 48.5363 1.627 48.8153 1.627ZM47.9693 7H48.3563C48.4283 7 48.4733 6.955 48.4823 6.883L49.0133 2.563C49.0223 2.491 48.9863 2.446 48.9143 2.446H48.5273C48.4553 2.446 48.4013 2.491 48.3923 2.563L47.8703 6.883C47.8613 6.955 47.8973 7 47.9693 7ZM52.3278 2.383C51.8148 2.383 51.3828 2.563 51.0948 2.923C51.0678 2.959 51.0498 2.932 51.0498 2.896L51.0948 2.563C51.1038 2.491 51.0588 2.446 50.9958 2.446H50.5998C50.5278 2.446 50.4828 2.491 50.4738 2.563L49.9428 6.883C49.9338 6.955 49.9698 7 50.0418 7H50.4288C50.5008 7 50.5548 6.955 50.5638 6.883L50.9328 3.886C51.0588 3.319 51.5268 2.941 52.1208 2.941C52.7418 2.941 53.1018 3.4 53.0208 4.066L52.6698 6.883C52.6608 6.955 52.7058 7 52.7688 7H53.1648C53.2368 7 53.2818 6.955 53.2908 6.883L53.6508 3.94C53.7678 2.995 53.2458 2.383 52.3278 2.383ZM56.4178 6.523C55.7788 6.523 55.3918 6.163 55.3378 5.641C55.3198 5.506 55.3288 5.281 55.3648 4.984C55.3648 4.957 55.3918 4.939 55.4188 4.939H58.2088C58.2808 4.939 58.3258 4.894 58.3348 4.822C58.3888 4.399 58.4068 4.165 58.3978 3.922C58.3528 2.977 57.8758 2.374 56.8408 2.374C55.9768 2.374 55.2838 2.887 54.9958 3.661C54.8878 3.94 54.8428 4.246 54.7888 4.705C54.7258 5.209 54.7168 5.614 54.7978 5.947C54.9508 6.64 55.4638 7.072 56.2918 7.072C57.0838 7.072 57.6958 6.676 58.0378 6.091C58.0828 6.028 58.0648 5.974 58.0108 5.938L57.7678 5.794C57.7138 5.758 57.6508 5.785 57.6148 5.848C57.3718 6.253 56.9578 6.514 56.4178 6.523ZM56.7688 2.932C57.3718 2.932 57.7318 3.292 57.7858 3.814C57.7948 3.94 57.7858 4.147 57.7678 4.39C57.7678 4.417 57.7498 4.435 57.7228 4.435H55.4728C55.4458 4.435 55.4368 4.417 55.4368 4.39C55.4818 4.129 55.5268 3.922 55.5808 3.778C55.7608 3.283 56.1748 2.932 56.7688 2.932ZM13.3578 17.072C14.1948 17.072 14.8878 16.595 15.2118 15.821C15.3288 15.524 15.4098 15.146 15.4638 14.714C15.5178 14.291 15.5268 13.913 15.4818 13.607C15.3558 12.851 14.7798 12.374 13.9338 12.374C13.0698 12.374 12.3858 12.851 12.0618 13.616C11.9538 13.904 11.8728 14.273 11.8188 14.714C11.7648 15.146 11.7558 15.524 11.8008 15.821C11.9358 16.595 12.5028 17.072 13.3578 17.072ZM13.4298 16.514C12.8448 16.514 12.4668 16.172 12.4038 15.632C12.3768 15.434 12.3948 15.11 12.4488 14.723C12.4938 14.345 12.5478 14.012 12.6288 13.814C12.8358 13.283 13.2858 12.932 13.8528 12.932C14.4378 12.932 14.8158 13.283 14.8788 13.814C14.9058 14.012 14.8878 14.327 14.8338 14.723C14.7888 15.083 14.7348 15.416 14.6538 15.632C14.4468 16.172 13.9878 16.514 13.4298 16.514ZM21.4453 12.563L21.4093 12.887C21.4093 12.923 21.3733 12.941 21.3553 12.905C21.1393 12.563 20.7793 12.374 20.3203 12.374C19.4743 12.374 18.8533 12.86 18.5563 13.607C18.4303 13.913 18.3673 14.282 18.3133 14.723C18.2593 15.182 18.2323 15.551 18.2953 15.866C18.4123 16.595 18.9163 17.072 19.7443 17.072C20.2033 17.072 20.6083 16.874 20.9053 16.532C20.9413 16.496 20.9683 16.514 20.9593 16.55L20.9143 16.883C20.9143 16.955 20.9503 17 21.0223 17H21.4093C21.4813 17 21.5263 16.955 21.5353 16.883L22.0663 12.563C22.0753 12.491 22.0393 12.446 21.9673 12.446H21.5803C21.5083 12.446 21.4543 12.491 21.4453 12.563ZM20.8963 15.821C20.6983 16.226 20.3563 16.514 19.8703 16.514C19.3843 16.514 19.0423 16.244 18.9523 15.812C18.8803 15.569 18.8623 15.308 18.9343 14.723C19.0063 14.102 19.1143 13.832 19.2673 13.589C19.4653 13.202 19.8523 12.932 20.3203 12.932C20.7883 12.932 21.0673 13.211 21.1573 13.607C21.2293 13.85 21.2473 14.12 21.1753 14.723C21.1033 15.317 21.0223 15.587 20.8963 15.821ZM26.1918 12.563L26.1558 12.869C26.1558 12.905 26.1288 12.923 26.1018 12.887C25.8858 12.572 25.5258 12.374 24.9948 12.374C24.2118 12.374 23.5818 12.869 23.2938 13.571C23.1588 13.877 23.0958 14.255 23.0418 14.723C22.9878 15.164 22.9698 15.542 23.0058 15.821C23.1228 16.613 23.7348 17.027 24.4638 17.027C25.0038 17.027 25.3818 16.811 25.6608 16.496C25.6878 16.46 25.7148 16.478 25.7058 16.514L25.6698 16.829C25.5438 17.837 24.9768 18.242 23.7528 18.188C23.6808 18.179 23.6358 18.215 23.6268 18.296L23.5638 18.656C23.5548 18.737 23.5818 18.773 23.6628 18.782C25.0218 18.863 26.1018 18.368 26.2908 16.847L26.8128 12.563C26.8218 12.491 26.7858 12.446 26.7138 12.446H26.3268C26.2548 12.446 26.2008 12.491 26.1918 12.563ZM25.7778 15.623C25.6338 16.091 25.2288 16.487 24.6258 16.487C24.0498 16.487 23.6898 16.1 23.6358 15.614C23.6088 15.488 23.5998 15.2 23.6628 14.705C23.7258 14.219 23.7888 13.976 23.8608 13.805C24.0588 13.319 24.4818 12.932 25.0578 12.932C25.6338 12.932 25.9668 13.319 25.9938 13.805C26.0118 13.985 26.0028 14.093 25.9308 14.714C25.8588 15.335 25.8318 15.452 25.7778 15.623ZM29.3738 16.523C28.7348 16.523 28.3478 16.163 28.2938 15.641C28.2758 15.506 28.2848 15.281 28.3208 14.984C28.3208 14.957 28.3478 14.939 28.3748 14.939H31.1648C31.2368 14.939 31.2818 14.894 31.2908 14.822C31.3448 14.399 31.3628 14.165 31.3538 13.922C31.3088 12.977 30.8318 12.374 29.7968 12.374C28.9328 12.374 28.2398 12.887 27.9518 13.661C27.8438 13.94 27.7988 14.246 27.7448 14.705C27.6818 15.209 27.6728 15.614 27.7538 15.947C27.9068 16.64 28.4198 17.072 29.2478 17.072C30.0398 17.072 30.6518 16.676 30.9938 16.091C31.0388 16.028 31.0208 15.974 30.9668 15.938L30.7238 15.794C30.6698 15.758 30.6068 15.785 30.5708 15.848C30.3278 16.253 29.9138 16.514 29.3738 16.523ZM29.7248 12.932C30.3278 12.932 30.6878 13.292 30.7418 13.814C30.7508 13.94 30.7418 14.147 30.7238 14.39C30.7238 14.417 30.7058 14.435 30.6788 14.435H28.4288C28.4018 14.435 28.3928 14.417 28.3928 14.39C28.4378 14.129 28.4828 13.922 28.5368 13.778C28.7168 13.283 29.1308 12.932 29.7248 12.932ZM34.653 12.383C34.14 12.383 33.708 12.563 33.42 12.923C33.393 12.959 33.375 12.932 33.375 12.896L33.42 12.563C33.429 12.491 33.384 12.446 33.321 12.446H32.925C32.853 12.446 32.808 12.491 32.799 12.563L32.268 16.883C32.259 16.955 32.295 17 32.367 17H32.754C32.826 17 32.88 16.955 32.889 16.883L33.258 13.886C33.384 13.319 33.852 12.941 34.446 12.941C35.067 12.941 35.427 13.4 35.346 14.066L34.995 16.883C34.986 16.955 35.031 17 35.094 17H35.49C35.562 17 35.607 16.955 35.616 16.883L35.976 13.94C36.093 12.995 35.571 12.383 34.653 12.383ZM38.617 17.072C39.481 17.072 40.219 16.595 40.48 15.902C40.498 15.839 40.516 15.785 40.525 15.749C40.552 15.668 40.507 15.623 40.444 15.614L40.075 15.551C40.003 15.542 39.949 15.569 39.931 15.65C39.922 15.65 39.922 15.659 39.922 15.659C39.922 15.668 39.922 15.686 39.904 15.704C39.751 16.163 39.274 16.514 38.689 16.514C38.095 16.514 37.735 16.154 37.69 15.632C37.672 15.452 37.672 15.155 37.726 14.714C37.771 14.309 37.843 13.994 37.915 13.805C38.086 13.292 38.536 12.932 39.13 12.932C39.733 12.932 40.111 13.31 40.156 13.751C40.156 13.787 40.165 13.823 40.165 13.859C40.165 13.94 40.21 13.967 40.282 13.958L40.669 13.913C40.741 13.904 40.786 13.859 40.786 13.778C40.786 13.715 40.786 13.625 40.768 13.535C40.669 12.896 40.084 12.374 39.202 12.374C38.347 12.374 37.654 12.869 37.357 13.607C37.249 13.886 37.168 14.21 37.105 14.705C37.051 15.164 37.033 15.515 37.078 15.821C37.204 16.577 37.762 17.072 38.617 17.072ZM42.5311 11.627C42.8101 11.627 43.0261 11.438 43.0621 11.159C43.0981 10.889 42.9271 10.7 42.6481 10.7C42.3691 10.7 42.1531 10.889 42.1171 11.159C42.0811 11.438 42.2521 11.627 42.5311 11.627ZM41.6851 17H42.0721C42.1441 17 42.1891 16.955 42.1981 16.883L42.7291 12.563C42.7381 12.491 42.7021 12.446 42.6301 12.446H42.2431C42.1711 12.446 42.1171 12.491 42.1081 12.563L41.5861 16.883C41.5771 16.955 41.6131 17 41.6851 17ZM46.8897 12.563L46.8537 12.887C46.8537 12.923 46.8177 12.941 46.7997 12.905C46.5837 12.563 46.2237 12.374 45.7647 12.374C44.9187 12.374 44.2977 12.86 44.0007 13.607C43.8747 13.913 43.8117 14.282 43.7577 14.723C43.7037 15.182 43.6767 15.551 43.7397 15.866C43.8567 16.595 44.3607 17.072 45.1887 17.072C45.6477 17.072 46.0527 16.874 46.3497 16.532C46.3857 16.496 46.4127 16.514 46.4037 16.55L46.3587 16.883C46.3587 16.955 46.3947 17 46.4667 17H46.8537C46.9257 17 46.9707 16.955 46.9797 16.883L47.5107 12.563C47.5197 12.491 47.4837 12.446 47.4117 12.446H47.0247C46.9527 12.446 46.8987 12.491 46.8897 12.563ZM46.3407 15.821C46.1427 16.226 45.8007 16.514 45.3147 16.514C44.8287 16.514 44.4867 16.244 44.3967 15.812C44.3247 15.569 44.3067 15.308 44.3787 14.723C44.4507 14.102 44.5587 13.832 44.7117 13.589C44.9097 13.202 45.2967 12.932 45.7647 12.932C46.2327 12.932 46.5117 13.211 46.6017 13.607C46.6737 13.85 46.6917 14.12 46.6197 14.723C46.5477 15.317 46.4667 15.587 46.3407 15.821Z" fill="white"/>
</svg>
