<svg width="40" height="35" viewBox="0 0 40 35" fill="none" xmlns="http://www.w3.org/2000/svg">
<path d="M18.783 34.3234C12.9282 34.3234 7.07328 34.3326 1.21841 34.305C0.808827 34.3027 0.127625 34.1136 0.0521758 33.8532C-0.077166 33.4106 0.0457089 32.749 0.291458 32.3387C1.02655 31.117 1.89314 29.9851 2.66272 28.7842C2.82009 28.5375 2.83518 28.1503 2.83734 27.8275C2.85243 22.0993 2.85674 16.3687 2.8589 10.6405C2.8589 8.86785 3.37626 8.04492 5.00381 7.93427C7.4225 7.7683 9.85197 7.79135 12.2793 7.79596C16.5411 7.80518 20.8008 7.8582 25.0626 7.902C25.7395 7.90892 25.9227 7.5862 25.968 6.87161C26.1857 3.43697 28.8221 0.435684 31.8746 0.0553377C35.3474 -0.375722 38.4689 1.74269 39.4088 5.32256C40.3292 8.84019 38.9108 12.5123 35.5759 14.0913C34.9271 14.3979 34.6878 14.739 34.6921 15.4974C34.7201 19.5706 34.6792 23.6437 34.7136 27.7169C34.718 28.2747 34.9227 28.8902 35.2008 29.372C35.8066 30.4277 36.5546 31.3913 37.1711 32.4401C37.4083 32.8435 37.6734 33.5143 37.5139 33.814C37.3479 34.1298 36.6883 34.2727 36.2442 34.275C30.4238 34.3027 24.6056 34.2934 18.7852 34.2934C18.7852 34.305 18.7852 34.3142 18.783 34.3234ZM5.11375 26.7626C5.59663 26.7626 5.94586 26.7626 6.29508 26.7626C10.7035 26.758 15.1097 26.7695 19.5181 26.7418C21.3418 26.7303 23.1677 26.5966 24.9914 26.5989C27.2053 26.6035 29.4193 26.6819 31.6332 26.7557C32.3122 26.7787 32.4653 26.4237 32.4631 25.7875C32.4566 22.4335 32.476 19.0819 32.4717 15.7279C32.4717 15.3937 32.3769 15.0594 32.2863 14.4532C31.9371 14.9303 31.7603 15.147 31.6094 15.3844C30.3397 17.3807 28.557 18.4664 26.3344 18.6623C25.4786 18.7384 24.7694 18.8099 24.9074 20.2852C23.6377 19.7066 22.5533 19.2133 21.469 18.7177C21.4604 18.5724 21.4496 18.4295 21.441 18.2843C22.5339 17.7449 23.629 17.2055 24.7737 16.6431C24.9526 17.2124 25.0583 17.5513 25.1574 17.8625C27.6861 18.0838 30.1026 16.6984 30.9541 14.5523C29.2942 13.9875 27.9297 12.9479 27.0286 11.3597C26.6643 10.7166 26.2978 10.516 25.6252 10.5183C19.1732 10.5391 12.7212 10.5229 6.26921 10.5206C5.89628 10.5206 5.52333 10.5598 5.11806 10.5829C5.11375 16.0045 5.11375 21.3017 5.11375 26.7626ZM38.8634 7.34876C38.859 3.65595 36.3283 1.10417 32.8511 0.961249C29.2403 0.811415 26.5651 4.41895 26.6255 7.47094C26.6837 10.4399 28.7618 14.0037 32.8748 13.9599C35.7764 13.9276 38.9388 11.4358 38.8634 7.34876ZM37.1194 33.4567C36.2442 32.2119 35.5134 31.0778 34.6792 30.0382C34.3795 29.6647 33.8341 29.3144 33.3965 29.3074C30.5618 29.259 27.7249 29.319 24.8901 29.3213C18.0544 29.3259 11.2209 29.3167 4.38513 29.3236C4.0122 29.3236 3.47111 29.2913 3.29434 29.5241C2.37601 30.732 1.54823 32.0183 0.653614 33.3322C0.901519 33.4405 0.989899 33.5166 1.08044 33.5166C5.30776 33.5281 9.53509 33.5489 13.7603 33.5051C14.0534 33.5028 14.5083 33.0763 14.5988 32.7559C14.7972 32.0575 15.183 31.9076 15.7737 31.9145C17.7828 31.9422 19.7919 31.9145 21.7988 31.9952C22.1502 32.0091 22.6978 32.3733 22.7883 32.6937C23.0017 33.4474 23.4048 33.565 24.0365 33.5627C28.0547 33.5443 32.0708 33.5535 36.089 33.5489C36.3584 33.5489 36.6257 33.5028 37.1194 33.4567ZM18.8003 27.5164C18.8003 27.5141 18.8003 27.514 18.8003 27.5117C14.4285 27.5117 10.0546 27.4956 5.68286 27.5256C4.72357 27.5325 4.34849 27.1037 4.34849 26.1148C4.35711 21.062 4.35279 16.0091 4.33555 10.9563C4.33339 9.97201 4.85722 9.58705 5.65483 9.58244C6.9116 9.57552 8.16838 9.67234 9.4273 9.68617C12.8441 9.72535 16.263 9.7484 19.6798 9.76685C21.5833 9.77837 23.4868 9.78068 25.3881 9.7438C25.6338 9.73919 25.8753 9.46949 26.1189 9.32196C25.8818 9.12142 25.6683 8.81253 25.401 8.74568C24.9979 8.64656 24.5603 8.72032 24.1378 8.71571C18.0027 8.64886 11.8697 8.57279 5.7346 8.51516C4.11567 8.50133 3.56811 9.09375 3.56596 10.7811C3.5638 16.3249 3.58106 21.8665 3.54872 27.4103C3.54441 28.277 3.75351 28.5859 4.60716 28.5767C14.0685 28.4776 23.5277 28.4061 32.9891 28.36C33.819 28.3554 34.0044 27.9912 33.9915 27.2075C33.9613 25.2619 33.9807 23.3164 33.9785 21.3709C33.9785 19.3723 33.9893 17.3761 33.9592 15.3775C33.9548 15.147 33.7306 14.9234 33.6078 14.6952C33.4763 14.9211 33.2866 15.1309 33.2284 15.3775C33.1615 15.6611 33.209 15.9769 33.209 16.2788C33.209 19.5222 33.2111 22.7655 33.2068 26.0065C33.2046 27.355 33.0516 27.5164 31.8099 27.5164C27.477 27.5164 23.1397 27.5164 18.8003 27.5164ZM22.2494 33.4751C21.8398 32.5761 21.6717 32.5508 16.2609 32.7306C15.9138 32.7421 15.571 32.9887 15.2261 33.1247C15.2606 33.2423 15.2951 33.3576 15.3296 33.4751C17.5952 33.4751 19.8609 33.4751 22.2494 33.4751Z" fill="white"/>
<path d="M15.2478 22.0768C13.215 22.0768 11.1822 22.086 9.14936 22.0722C8.0672 22.0652 7.54768 21.5074 7.53259 20.3455C7.51534 18.9901 7.52397 17.6346 7.53043 16.2791C7.53474 15.3639 7.92924 14.6908 8.80661 14.6654C11.8268 14.5848 14.8512 14.5387 17.8713 14.5709C18.7207 14.5802 19.1583 15.3317 19.1906 16.203C19.2445 17.6323 19.2618 19.0638 19.2208 20.4931C19.1885 21.6111 18.4922 22.2612 17.4316 22.2865C16.7029 22.3027 15.9743 22.2888 15.2457 22.2888C15.2478 22.222 15.2478 22.1505 15.2478 22.0768ZM14.6335 21.4912C14.6335 21.4359 14.6335 21.3783 14.6335 21.323C15.5841 21.323 16.5434 21.4059 17.479 21.2792C17.8282 21.2331 18.3628 20.7213 18.3952 20.3801C18.5094 19.1122 18.4598 17.8282 18.4491 16.5488C18.4426 15.7166 18.0093 15.3132 17.244 15.3478C16.5801 15.3778 15.914 15.4953 15.2522 15.4815C13.3638 15.4423 11.4754 15.3386 9.58481 15.2925C8.33666 15.2625 8.13618 15.493 8.11247 16.86C8.09522 17.8006 8.09522 18.7434 8.10385 19.6839C8.11678 21.2976 8.39702 21.5373 9.93619 21.5005C11.5012 21.4613 13.0663 21.4912 14.6335 21.4912Z" fill="white"/>
<path d="M7.59082 23.7688C7.89693 23.7089 8.2052 23.5982 8.51131 23.5959C11.7405 23.5774 14.9676 23.5705 18.1968 23.589C18.4965 23.5913 18.7961 23.7965 19.0958 23.9072C18.7897 24.0501 18.4835 24.3153 18.1753 24.3199C14.9784 24.3499 11.7815 24.3407 8.58459 24.3291C8.25908 24.3291 7.93574 24.2484 7.61023 24.2046C7.6016 24.0594 7.59513 23.9141 7.59082 23.7688Z" fill="white"/>
<path d="M32.429 10.0916C32.498 8.94363 32.9054 7.78878 31.4201 7.04885C30.4177 6.55095 30.5686 4.86362 31.5258 4.20898C31.9741 3.9024 32.4333 3.60966 32.9054 3.30078C35.1365 5.47217 35.1366 5.47216 34.4704 6.09915C34.1622 5.64966 33.8518 5.19786 33.4788 4.65386C32.9722 6.17983 33.0994 6.61088 34.1471 7.30932C35.4427 8.17373 35.4362 9.81265 34.1298 10.7139C33.703 11.009 33.2589 11.2787 32.8386 11.5484C32.4225 11.281 31.9461 11.0574 31.5689 10.7116C31.183 10.359 30.8489 9.91407 30.5794 9.45075C30.4846 9.28939 30.6441 8.95515 30.6872 8.69929C30.8898 8.83298 31.1356 8.92518 31.2865 9.10728C31.5883 9.47149 31.8383 9.88179 32.11 10.2737C32.2177 10.216 32.3234 10.1538 32.429 10.0916ZM33.6405 7.74959C33.5327 7.80952 33.4271 7.86715 33.3193 7.92709C33.3193 8.58634 33.3193 9.24329 33.3193 9.90254C33.3991 9.96247 33.481 10.0201 33.5607 10.08C33.841 9.69739 34.326 9.32396 34.3454 8.92749C34.3627 8.54715 33.8949 8.14376 33.6405 7.74959ZM31.8103 6.76762C32.0065 6.71691 32.2048 6.66851 32.401 6.6178C32.3643 6.06458 32.3255 5.51135 32.2889 4.96044C32.0022 5.11257 31.4719 5.26471 31.4719 5.41223C31.4762 5.86403 31.6831 6.31583 31.8103 6.76762Z" fill="white"/>
<path d="M34.1513 31.1441C33.7525 31.2086 33.3516 31.3307 32.9528 31.3307C27.3156 31.3514 21.6785 31.3629 16.0435 31.3652C12.2106 31.3675 8.37995 31.3606 4.54712 31.3468C4.15693 31.3445 3.7646 31.2547 3.37442 31.2063C3.36364 31.0751 3.35286 30.9438 3.34424 30.8125C3.69777 30.7388 4.04915 30.6007 4.40268 30.5984C7.75048 30.5753 11.0961 30.5684 14.4439 30.5707C20.6955 30.5753 26.947 30.5915 33.1964 30.6076C33.4939 30.6076 33.7913 30.6559 34.0888 30.6813C34.1082 30.8356 34.1298 30.9899 34.1513 31.1441Z" fill="white"/>
<path d="M18.783 34.3234C12.9282 34.3234 7.07328 34.3326 1.21841 34.305C0.808827 34.3027 0.127625 34.1136 0.0521758 33.8532C-0.077166 33.4106 0.0457089 32.749 0.291458 32.3387C1.02655 31.117 1.89314 29.9851 2.66272 28.7842C2.82009 28.5375 2.83518 28.1503 2.83734 27.8275C2.85243 22.0993 2.85674 16.3687 2.8589 10.6405C2.8589 8.86785 3.37626 8.04492 5.00381 7.93427C7.4225 7.7683 9.85197 7.79135 12.2793 7.79596C16.5411 7.80518 20.8008 7.8582 25.0626 7.902C25.7395 7.90892 25.9227 7.5862 25.968 6.87161C26.1857 3.43697 28.8221 0.435684 31.8746 0.0553377C35.3474 -0.375722 38.4689 1.74269 39.4088 5.32256C40.3292 8.84019 38.9108 12.5123 35.5759 14.0913C34.9271 14.3979 34.6878 14.739 34.6921 15.4974C34.7201 19.5706 34.6792 23.6437 34.7136 27.7169C34.718 28.2747 34.9227 28.8902 35.2008 29.372C35.8066 30.4277 36.5546 31.3913 37.1711 32.4401C37.4083 32.8435 37.6734 33.5143 37.5139 33.814C37.3479 34.1298 36.6883 34.2727 36.2442 34.275C30.4238 34.3027 24.6056 34.2934 18.7852 34.2934C18.7852 34.305 18.7852 34.3142 18.783 34.3234ZM5.11375 26.7626C5.59663 26.7626 5.94586 26.7626 6.29508 26.7626C10.7035 26.758 15.1097 26.7695 19.5181 26.7418C21.3418 26.7303 23.1677 26.5966 24.9914 26.5989C27.2053 26.6035 29.4193 26.6819 31.6332 26.7557C32.3122 26.7787 32.4653 26.4237 32.4631 25.7875C32.4566 22.4335 32.476 19.0819 32.4717 15.7279C32.4717 15.3937 32.3769 15.0594 32.2863 14.4532C31.9371 14.9303 31.7603 15.147 31.6094 15.3844C30.3397 17.3807 28.557 18.4664 26.3344 18.6623C25.4786 18.7384 24.7694 18.8099 24.9074 20.2852C23.6377 19.7066 22.5533 19.2133 21.469 18.7177C21.4604 18.5724 21.4496 18.4295 21.441 18.2843C22.5339 17.7449 23.629 17.2055 24.7737 16.6431C24.9526 17.2124 25.0583 17.5513 25.1574 17.8625C27.6861 18.0838 30.1026 16.6984 30.9541 14.5523C29.2942 13.9875 27.9297 12.9479 27.0286 11.3597C26.6643 10.7166 26.2978 10.516 25.6252 10.5183C19.1732 10.5391 12.7212 10.5229 6.26921 10.5206C5.89628 10.5206 5.52333 10.5598 5.11806 10.5829C5.11375 16.0045 5.11375 21.3017 5.11375 26.7626ZM38.8634 7.34876C38.859 3.65595 36.3283 1.10417 32.8511 0.961249C29.2403 0.811415 26.5651 4.41895 26.6255 7.47094C26.6837 10.4399 28.7618 14.0037 32.8748 13.9599C35.7764 13.9276 38.9388 11.4358 38.8634 7.34876ZM37.1194 33.4567C36.2442 32.2119 35.5134 31.0778 34.6792 30.0382C34.3795 29.6647 33.8341 29.3144 33.3965 29.3074C30.5618 29.259 27.7249 29.319 24.8901 29.3213C18.0544 29.3259 11.2209 29.3167 4.38513 29.3236C4.0122 29.3236 3.47111 29.2913 3.29434 29.5241C2.37601 30.732 1.54823 32.0183 0.653614 33.3322C0.901519 33.4405 0.989899 33.5166 1.08044 33.5166C5.30776 33.5281 9.53509 33.5489 13.7603 33.5051C14.0534 33.5028 14.5083 33.0763 14.5988 32.7559C14.7972 32.0575 15.183 31.9076 15.7737 31.9145C17.7828 31.9422 19.7919 31.9145 21.7988 31.9952C22.1502 32.0091 22.6978 32.3733 22.7883 32.6937C23.0017 33.4474 23.4048 33.565 24.0365 33.5627C28.0547 33.5443 32.0708 33.5535 36.089 33.5489C36.3584 33.5489 36.6257 33.5028 37.1194 33.4567ZM18.8003 27.5164C18.8003 27.5141 18.8003 27.514 18.8003 27.5117C14.4285 27.5117 10.0546 27.4956 5.68286 27.5256C4.72357 27.5325 4.34849 27.1037 4.34849 26.1148C4.35711 21.062 4.35279 16.0091 4.33555 10.9563C4.33339 9.97201 4.85722 9.58705 5.65483 9.58244C6.9116 9.57552 8.16838 9.67234 9.4273 9.68617C12.8441 9.72535 16.263 9.7484 19.6798 9.76685C21.5833 9.77837 23.4868 9.78068 25.3881 9.7438C25.6338 9.73919 25.8753 9.46949 26.1189 9.32196C25.8818 9.12142 25.6683 8.81253 25.401 8.74568C24.9979 8.64656 24.5603 8.72032 24.1378 8.71571C18.0027 8.64886 11.8697 8.57279 5.7346 8.51516C4.11567 8.50133 3.56811 9.09375 3.56596 10.7811C3.5638 16.3249 3.58106 21.8665 3.54872 27.4103C3.54441 28.277 3.75351 28.5859 4.60716 28.5767C14.0685 28.4776 23.5277 28.4061 32.9891 28.36C33.819 28.3554 34.0044 27.9912 33.9915 27.2075C33.9613 25.2619 33.9807 23.3164 33.9785 21.3709C33.9785 19.3723 33.9893 17.3761 33.9592 15.3775C33.9548 15.147 33.7306 14.9234 33.6078 14.6952C33.4763 14.9211 33.2866 15.1309 33.2284 15.3775C33.1615 15.6611 33.209 15.9769 33.209 16.2788C33.209 19.5222 33.2111 22.7655 33.2068 26.0065C33.2046 27.355 33.0516 27.5164 31.8099 27.5164C27.477 27.5164 23.1397 27.5164 18.8003 27.5164ZM22.2494 33.4751C21.8398 32.5761 21.6717 32.5508 16.2609 32.7306C15.9138 32.7421 15.571 32.9887 15.2261 33.1247C15.2606 33.2423 15.2951 33.3576 15.3296 33.4751C17.5952 33.4751 19.8609 33.4751 22.2494 33.4751Z" fill="white"/>
</svg>
