<svg width="69" height="14" viewBox="0 0 69 14" fill="none" xmlns="http://www.w3.org/2000/svg">
<path d="M0.0473633 12.4854C0.0473633 12.4235 0.0473633 12.3616 0.0473633 12.2996C0.246538 12.1204 0.195647 11.8727 0.195647 11.6438C0.198279 8.4162 0.197404 5.18765 0.196527 1.96004C0.196527 1.75644 0.222848 1.54533 0.0710541 1.37926C0.282513 0.440997 0.884424 0.0178427 1.74254 0.0150279C5.11887 0.00283056 8.49607 0.0169042 11.8733 1.5533e-05C12.3164 -0.00186098 12.4261 0.166087 12.4243 0.612698C12.4111 4.22312 12.4261 7.83448 12.4094 11.4458C12.4059 12.2837 12.033 12.8983 11.238 13.145C10.9739 12.9114 10.6598 13.0165 10.3694 13.0155C6.98076 13.0052 3.59215 13.0062 0.204423 13.0033C0.186874 12.8176 0.231622 12.6121 0.0473633 12.4854ZM2.8481 3.8572C2.8016 3.85438 2.75422 3.84594 2.70859 3.85251C2.69455 3.85438 2.67437 3.89567 2.67437 3.92006C2.65594 6.08275 2.63752 8.24637 2.63664 10.4091C2.63664 10.4785 2.52696 10.8256 2.85073 10.6905C3.17538 10.8632 3.50792 10.7309 3.82028 10.6718C5.43913 10.3687 7.04481 9.97371 8.67156 9.73445C9.40333 9.62655 9.54372 9.31786 9.51915 8.61417C9.47089 7.23493 9.51827 5.85287 9.49897 4.47269C9.49019 3.83374 9.76571 2.9743 9.37262 2.614C8.9848 2.2584 8.23548 2.68437 7.65726 2.81104C6.05508 3.16289 4.40816 3.2858 2.8481 3.8572ZM9.64111 9.39574C9.66656 9.42107 9.692 9.4464 9.71832 9.47268C9.71832 7.25276 9.71832 5.03284 9.71832 2.81385C9.69288 2.81385 9.66743 2.81385 9.64111 2.81385C9.64111 5.0075 9.64111 7.20115 9.64111 9.39574Z" fill="#1063AB"/>
<path d="M42.875 4.93503C44.8123 2.71981 47.2147 4.40585 47.6674 6.35555C48.3773 9.40957 46.3004 11.9597 43.5874 11.2889C42.245 10.9567 41.35 9.83835 41.3009 8.2405C41.2421 6.33491 41.3 4.42462 41.2649 2.51809C41.2526 1.85755 41.651 1.97577 41.9695 2.02081C42.302 2.06772 42.875 1.69617 42.875 2.49557C42.875 3.25649 42.875 4.01835 42.875 4.93503ZM46.1381 7.58372C46.1179 7.37918 46.1039 7.1146 46.0627 6.8547C45.9117 5.89956 45.4195 5.39947 44.6061 5.36381C43.8331 5.33004 43.197 5.82074 42.9917 6.69144C42.8223 7.41015 42.8364 8.1448 43.075 8.85506C43.2532 9.38611 43.5857 9.73139 44.1157 9.87213C45.3125 10.1883 46.1899 9.23036 46.1381 7.58372Z" fill="#1FA951"/>
<path d="M63.7144 2.09766C64.0039 3.24325 63.7819 4.40949 63.8363 5.5654C63.8583 6.02984 63.8398 6.49614 63.8398 7.18387C64.5286 6.3235 65.1165 5.62076 65.6701 4.88893C66.3177 4.03138 67.153 3.8897 68.1822 4.07172C67.3943 5.03436 66.659 5.9651 65.8868 6.85924C65.5657 7.23172 65.5332 7.47848 65.8754 7.8763C66.637 8.76294 67.3302 9.71526 68.0751 10.6197C68.3875 10.9988 68.2761 11.1799 67.8821 11.2643C67.2082 11.4078 66.6309 11.208 66.1825 10.6404C65.4402 9.70212 64.7032 8.75825 63.9074 7.74494C63.6547 8.91869 64.0057 10.0868 63.7082 11.1967C63.581 11.1545 63.4459 11.0579 63.3283 11.0785C62.5342 11.2146 62.371 10.8158 62.3886 10.0399C62.4351 8.07427 62.3947 6.10677 62.4096 4.14021C62.414 3.55944 62.2333 2.91862 62.5062 2.41197C62.7387 1.98319 63.359 2.45888 63.7144 2.09766Z" fill="#23AA53"/>
<path d="M35.6286 9.73754C35.7515 11.0689 35.6725 11.1787 34.5029 11.3626C32.6006 11.6609 30.9335 10.6401 30.4545 8.8828C29.9359 6.98285 30.7379 4.88681 32.2628 4.15873C34.2467 3.21111 36.342 4.44959 36.3797 6.57377C36.3946 7.40037 36.0621 7.91546 35.3207 8.12375C34.409 8.3799 33.4746 8.41555 32.541 8.39397C31.9452 8.38083 31.9426 8.63604 32.2032 9.06294C32.8103 10.0565 33.7404 10.08 34.6968 9.97303C34.9943 9.9402 35.2838 9.82761 35.6286 9.73754ZM33.02 7.20615C33.3587 7.18832 33.6641 7.20521 33.958 7.14986C34.3809 7.07011 34.8802 7.03351 34.8811 6.38143C34.8819 5.80254 34.5547 5.46195 34.0624 5.31746C33.5702 5.17298 33.0867 5.2152 32.6568 5.55296C32.2023 5.9095 31.8934 6.42272 32.0487 6.98191C32.1891 7.48575 32.7261 7.04384 33.02 7.20615Z" fill="#1FA951"/>
<path d="M49.1015 5.60051C48.912 4.3535 48.9866 4.23246 50.0974 3.96974C52.5472 3.38986 53.9686 4.58432 53.9783 7.23221C53.98 7.73139 53.9888 8.23151 53.9826 8.73068C53.9633 10.2001 53.2605 11.114 51.9163 11.3532C51.0626 11.5052 50.2106 11.448 49.4323 10.9929C48.7014 10.5651 48.3057 9.91201 48.3461 8.98403C48.3864 8.07106 48.8673 7.53247 49.6157 7.22189C50.2624 6.95354 50.9476 6.90287 51.6338 6.84939C51.8882 6.82968 52.305 7.08678 52.3691 6.58197C52.4279 6.11939 52.262 5.68495 51.833 5.48697C51.2907 5.23644 50.7125 5.21486 50.1334 5.34998C49.7894 5.43161 49.4464 5.517 49.1015 5.60051ZM51.6066 8.06074C51.2223 8.06543 50.8345 8.06637 50.4791 8.25215C49.9798 8.513 49.821 9.1182 50.1439 9.57609C50.5133 10.1006 51.0538 10.0603 51.575 9.99645C52.0813 9.93546 52.3217 9.56671 52.4085 9.05346C52.5595 8.16301 52.4691 8.0476 51.6066 8.06074Z" fill="#1FA951"/>
<path d="M24.981 8.6958C24.981 9.22404 24.981 9.75321 24.981 10.2814C24.981 11.2131 24.4958 11.5603 23.6561 11.2675C23.3323 11.155 23.4367 10.9016 23.4341 10.6971C23.4218 9.69879 23.4367 8.70049 23.4244 7.7022C23.4201 7.35223 23.3929 6.99851 23.3306 6.65511C23.1621 5.72156 22.6716 5.30404 21.8573 5.36502C21.1203 5.42038 20.664 5.91765 20.6307 6.84464C20.5851 8.10565 20.5649 9.37134 20.6158 10.6305C20.6482 11.4374 20.1736 11.2675 19.7594 11.2704C19.369 11.2732 18.9399 11.4224 18.9785 10.6605C19.0426 9.40137 18.9759 8.13567 19.0004 6.87373C19.0373 5.02819 20.2595 3.84131 22.0741 3.85163C23.7877 3.86101 24.9248 5.03007 24.9731 6.84652C24.9898 7.46295 24.9757 8.07937 24.9757 8.69674C24.9766 8.6958 24.9792 8.6958 24.981 8.6958Z" fill="#1EA950"/>
<path d="M59.4402 7.89741C59.3964 7.46114 59.3876 7.01736 59.3025 6.59048C59.1244 5.7048 58.6462 5.31919 57.8512 5.37079C57.0493 5.4224 56.65 5.95343 56.6158 6.74153C56.5596 8.03252 56.5403 9.32819 56.5895 10.6182C56.6167 11.3257 56.2587 11.306 55.8244 11.2703C55.4401 11.2384 54.9268 11.4992 54.9627 10.6595C55.018 9.36947 54.9425 8.07286 54.9741 6.78093C55.0171 5.03866 56.2332 3.8734 57.9706 3.84994C59.6579 3.82743 60.8406 4.94297 60.9442 6.68148C60.9714 7.1459 60.9328 7.61501 60.9249 8.08224C60.8994 8.07098 60.874 8.05128 60.8485 8.05128C60.8275 8.05128 60.788 8.0738 60.788 8.08787C60.7748 8.7859 60.7669 9.48488 60.752 10.1838C60.7432 10.6032 60.8748 11.078 60.1922 11.0855C59.5368 11.093 59.6254 10.6652 59.5903 10.2195C59.5297 9.44547 59.7895 8.64799 59.4402 7.89741Z" fill="#1FA951"/>
<path d="M26.3326 2.07493C26.4923 2.05242 26.6546 2.03928 26.8126 2.00644C27.6514 1.83287 27.9646 2.20441 27.8137 3.08445C27.7084 3.69899 27.9515 3.93635 28.5306 3.85661C28.828 3.81532 29.1378 3.81908 29.4352 3.85942C29.7107 3.89695 30.1547 3.62299 30.1801 4.23565C30.2003 4.71977 30.0661 5.14665 29.5896 5.26206C29.1939 5.35775 28.7719 5.36995 28.3639 5.35306C27.9252 5.33524 27.7909 5.51819 27.8049 5.96947C27.8304 6.76227 27.8006 7.556 27.8146 8.34973C27.8357 9.53845 28.227 9.87996 29.351 9.8687C29.5914 9.86589 30.0275 9.3874 30.131 10.031C30.2196 10.5855 30.1143 11.0565 29.508 11.2854C27.8909 11.8952 26.3344 10.7853 26.2773 8.94925C26.3265 8.84792 26.4142 8.74941 26.4186 8.6462C26.5248 6.47329 26.2598 4.291 26.5616 2.12184C26.5634 2.11809 26.4125 2.09088 26.3326 2.07493ZM27.7058 5.61576C27.6812 5.61576 27.6575 5.61576 27.633 5.61576C27.633 6.65812 27.633 7.69954 27.633 8.7419C27.6575 8.7419 27.6812 8.7419 27.7058 8.7419C27.7058 7.69954 27.7058 6.65812 27.7058 5.61576Z" fill="#1EA950"/>
<path d="M37.6572 11.233C37.3334 11.3278 37.2018 11.1908 37.2106 10.8389C37.251 9.22985 37.1027 7.61512 37.2957 6.0126C37.4765 4.51422 38.7241 3.5985 40.0789 3.85557C40.6457 3.96347 40.5553 4.36598 40.5737 4.7713C40.593 5.19164 40.5123 5.42338 40.0385 5.38961C39.2286 5.33237 38.9961 5.98258 38.8066 6.65248C38.7777 6.58868 38.7961 6.47609 38.6785 6.5033C38.6618 6.50706 38.6408 6.54459 38.6408 6.56617C38.639 7.58979 38.5943 8.61717 38.6548 9.63704C38.7057 10.489 38.646 11.1683 37.6572 11.233Z" fill="#28AB54"/>
<path d="M17.6923 10.892C17.6923 10.9511 17.6923 11.0102 17.6923 11.0693C16.1971 11.0459 16.3744 11.2711 16.3691 9.68822C16.3612 7.14649 16.3665 4.60569 16.3665 2.06395C16.7517 1.99077 17.1377 1.99264 17.5229 2.06395C17.5229 4.70421 17.5185 7.34352 17.5273 9.98377C17.5282 10.2906 17.4141 10.6368 17.6923 10.892Z" fill="#0DA94D"/>
<path d="M63.7144 2.09654C63.359 2.45779 62.7386 1.98207 62.5061 2.41181C62.2324 2.9185 62.414 3.55936 62.4096 4.14017C62.3947 6.10685 62.435 8.07447 62.3885 10.0402C62.3701 10.8162 62.5342 11.215 63.3283 11.0789C63.4459 11.0583 63.581 11.1549 63.7082 11.1971C62.2183 11.3754 62.2183 11.3754 62.2183 9.84786C62.2183 7.58749 62.2718 5.32524 62.1929 3.06863C62.1604 2.1322 62.4482 1.87604 63.2326 2.0196C63.3932 2.04963 63.5538 2.07121 63.7144 2.09654Z" fill="#09A04A"/>
<path d="M0.202829 13.0028C3.59145 13.0056 6.98006 13.0046 10.3678 13.015C10.6582 13.0159 10.9723 12.9108 11.2365 13.1445C9.59216 13.3041 7.94435 13.1952 6.29742 13.2074C4.26531 13.2224 2.23231 13.1905 0.200195 13.1792C0.201073 13.121 0.201952 13.0619 0.202829 13.0028Z" fill="#0356A1"/>
<path d="M0.0710555 1.38086C0.222859 1.54693 0.196536 1.75898 0.196536 1.96164C0.197414 5.18926 0.198288 8.41781 0.195656 11.6454C0.195656 11.8744 0.246551 12.1221 0.0473633 12.3013C0.0552606 8.66082 0.0631582 5.02037 0.0710555 1.38086Z" fill="#025197"/>
<path d="M16.3667 2.06445C16.3667 4.60614 16.3614 7.14689 16.3693 9.68858C16.3746 11.2723 16.1973 11.0462 17.6924 11.0697C16.5606 11.6082 16.1622 11.3765 16.1622 10.1793C16.1622 7.75394 16.1543 5.32859 16.1736 2.90418C16.1763 2.62927 15.9718 2.25398 16.3667 2.06445Z" fill="#09A04A"/>
<path d="M17.6921 10.8936C17.4131 10.6383 17.5271 10.2921 17.5263 9.98437C17.5175 7.34409 17.5219 4.70474 17.5219 2.06445C17.7597 2.09635 17.7307 2.29621 17.7298 2.46228C17.7202 5.27333 17.7062 8.08344 17.6921 10.8936Z" fill="#089F4A"/>
<path d="M59.4399 7.89648C59.7899 8.64714 59.5294 9.44471 59.5908 10.2179C59.6259 10.6636 59.5364 11.0915 60.1927 11.084C60.8753 11.0764 60.7437 10.6026 60.7525 10.1822C60.7674 9.48412 60.7744 8.78507 60.7885 8.08602C60.7885 8.07289 60.8279 8.04943 60.849 8.04943C60.8744 8.04943 60.8999 8.06913 60.9253 8.08039C60.9367 8.95866 60.9139 9.8388 60.9692 10.7133C61.014 11.4246 60.5726 11.2716 60.2225 11.2557C59.8698 11.2397 59.3548 11.4949 59.3986 10.7049C59.4486 9.77124 59.4285 8.83293 59.4399 7.89648Z" fill="#09A04A"/>
<path d="M26.3324 2.07422C26.4122 2.09017 26.5632 2.11738 26.5632 2.12019C26.2613 4.2894 26.5254 6.47268 26.4201 8.6447C26.4149 8.74791 26.328 8.84736 26.2789 8.94775C26.2499 6.65658 26.142 4.36446 26.3324 2.07422Z" fill="#09A04A"/>
<path d="M37.6572 11.234C38.647 11.1693 38.7057 10.4909 38.6557 9.63801C38.5952 8.6181 38.6408 7.59163 38.6417 6.56703C38.6417 6.54545 38.6628 6.50792 38.6794 6.50417C38.797 6.47696 38.7777 6.58955 38.8075 6.65335C38.811 7.78679 38.8163 8.91929 38.8181 10.0527C38.8198 11.3063 38.8181 11.3063 37.6572 11.234Z" fill="#089F4A"/>
<path d="M0.202637 13.001C0.201759 13.0601 0.20088 13.1192 0.200003 13.1782C-0.157089 13.0245 0.0798031 12.7207 0.0464628 12.4844C0.231589 12.611 0.186844 12.8163 0.202637 13.001Z" fill="#025197"/>
<path d="M2.84796 3.8587C2.84883 6.13669 2.84971 8.41374 2.85059 10.6917C2.52688 10.8268 2.63654 10.4797 2.63654 10.4103C2.63742 8.24767 2.65672 6.08415 2.67426 3.92156C2.67426 3.8981 2.69444 3.85682 2.70847 3.85401C2.75409 3.84744 2.80146 3.85588 2.84796 3.8587Z" fill="#045AA3"/>
<path d="M9.64111 9.39568C9.64111 7.20097 9.64111 5.00721 9.64111 2.8125C9.66656 2.8125 9.692 2.8125 9.71832 2.8125C9.71832 5.03254 9.71832 7.25258 9.71832 9.47168C9.69288 9.44635 9.66744 9.42101 9.64111 9.39568Z" fill="#045AA3"/>
<path d="M27.7056 5.61422C27.7056 6.65591 27.7056 7.69854 27.7056 8.74023C27.6811 8.74023 27.6574 8.74023 27.6328 8.74023C27.6328 7.6976 27.6328 6.65591 27.6328 5.61328C27.6574 5.61516 27.6819 5.61516 27.7056 5.61422Z" fill="#09A04A"/>
</svg>
