<svg width="142" height="50" viewBox="0 0 142 50" fill="none" xmlns="http://www.w3.org/2000/svg">
<path d="M139.852 33.2555H135.684C135.701 33.2042 135.706 33.1565 135.72 33.1536C136.537 32.9679 136.776 32.5185 136.486 31.6676C136.141 30.6576 135.775 29.6563 135.433 28.645C135.351 28.4022 135.239 28.3005 134.992 28.3022C133.459 28.3117 131.926 28.3144 130.392 28.3C130.119 28.2976 130.007 28.4256 129.92 28.6706C129.571 29.6463 129.209 30.6162 128.856 31.5902C128.53 32.4912 128.739 32.9363 129.596 33.2302H125.966C125.972 33.2088 125.977 33.1589 125.987 33.1577C126.948 33.0409 127.503 32.435 127.864 31.5068C129.419 27.5048 131 23.5141 132.567 19.5175C132.668 19.2618 132.738 18.9927 132.854 18.6299C132.965 18.862 133.051 19.0153 133.115 19.1788C134.75 23.3645 136.38 27.552 138.018 31.7367C138.327 32.5275 138.859 33.0346 139.687 33.1249C139.729 33.1292 139.769 33.1506 139.808 33.1679C139.817 33.1716 139.82 33.1908 139.852 33.2555ZM135.085 27.7046C134.301 25.4724 133.552 23.3367 132.802 21.2011C132.756 21.2098 132.709 21.2186 132.663 21.2274C131.881 23.3625 131.099 25.4974 130.291 27.7044H135.085V27.7046Z" fill="white"/>
<path d="M139.852 33.5875H135.684C135.583 33.5875 135.488 33.5352 135.43 33.4472C135.372 33.3591 135.357 33.2464 135.391 33.1447C135.394 33.135 135.396 33.1255 135.398 33.117C135.439 32.9542 135.526 32.8571 135.655 32.8279C135.971 32.7564 136.17 32.6452 136.246 32.4979C136.323 32.3498 136.305 32.1084 136.193 31.7809C136.034 31.3132 135.867 30.839 135.705 30.3801C135.518 29.8494 135.324 29.3007 135.141 28.7574C135.099 28.6333 135.095 28.6323 134.994 28.634C133.197 28.6452 131.734 28.6445 130.39 28.6318C130.283 28.6306 130.267 28.6308 130.21 28.7887C130.004 29.3657 129.79 29.9494 129.583 30.5139C129.437 30.9122 129.291 31.3105 129.146 31.7096C129.016 32.0704 128.988 32.3254 129.061 32.4894C129.135 32.6544 129.341 32.7931 129.692 32.9133C129.838 32.9634 129.928 33.1194 129.904 33.281C129.88 33.4425 129.75 33.5618 129.597 33.5618H125.967C125.868 33.5618 125.776 33.5124 125.718 33.4287C125.661 33.3474 125.642 33.2428 125.666 33.1449C125.717 32.8817 125.884 32.835 125.954 32.8267C126.723 32.733 127.224 32.2863 127.577 31.3784C128.611 28.7172 129.674 26.0168 130.702 23.4052C131.229 22.0665 131.756 20.7277 132.281 19.3882C132.343 19.232 132.394 19.0624 132.454 18.8663C132.486 18.7602 132.521 18.6461 132.561 18.5213C132.601 18.3952 132.708 18.3071 132.832 18.2976C132.957 18.2886 133.075 18.359 133.131 18.4777C133.169 18.5556 133.203 18.6244 133.235 18.6879C133.299 18.8169 133.355 18.9283 133.402 19.05C134.058 20.7289 134.713 22.4081 135.368 24.0873C136.346 26.5945 137.324 29.1017 138.305 31.6076C138.588 32.333 139.051 32.7206 139.719 32.7933C139.801 32.8021 139.867 32.8325 139.91 32.8525L139.927 32.86C140.045 32.9114 140.089 33.0135 140.108 33.0571C140.112 33.0673 140.118 33.0817 140.128 33.1019C140.178 33.2048 140.174 33.3284 140.118 33.4274C140.061 33.5265 139.96 33.5875 139.852 33.5875ZM126.025 33.4873L126.023 33.4875L126.025 33.4873ZM135.785 33.4781C135.785 33.4781 135.784 33.4783 135.784 33.4785C135.784 33.4783 135.785 33.4781 135.785 33.4781ZM139.684 33.472C139.686 33.4729 139.688 33.4739 139.69 33.4749L139.684 33.472ZM139.656 33.4547H139.656H139.656ZM136.729 32.9233H138.428C138.138 32.6622 137.905 32.3089 137.731 31.8643C136.75 29.3581 135.772 26.8507 134.794 24.3432C134.165 22.7305 133.536 21.1175 132.906 19.505C132.889 19.5522 132.872 19.5989 132.854 19.6457C132.328 20.9851 131.801 22.3244 131.275 23.6634C130.247 26.2742 129.185 28.9739 128.151 31.6339C127.941 32.1731 127.673 32.5933 127.34 32.898H128.564C128.54 32.8588 128.519 32.8182 128.5 32.7763C128.347 32.4335 128.368 32.0186 128.566 31.4704C128.711 31.0704 128.857 30.6713 129.004 30.272C129.211 29.7087 129.424 29.1265 129.629 28.5525C129.702 28.3471 129.833 28.0872 130.146 27.9989C130.101 27.9741 130.063 27.9376 130.034 27.8921C129.976 27.8013 129.964 27.686 130.001 27.5838L132.373 21.1066C132.413 20.999 132.502 20.9209 132.608 20.9007L132.748 20.8744C132.895 20.8465 133.04 20.9348 133.093 21.0849L135.376 27.5884C135.412 27.6904 135.398 27.8047 135.34 27.8943C135.311 27.9388 135.273 27.9746 135.23 27.9992C135.466 28.0634 135.626 28.2374 135.725 28.5328C135.907 29.0717 136.1 29.6182 136.286 30.1467C136.449 30.6071 136.617 31.0833 136.777 31.5541C136.956 32.0777 136.96 32.4921 136.79 32.8208C136.771 32.8559 136.751 32.8904 136.729 32.9233ZM130.746 27.3724H134.636L132.732 21.9487L130.746 27.3724Z" fill="white"/>
<path d="M106.777 33.2591H103.119C103.132 33.2117 103.136 33.1642 103.146 33.1628C104.103 33.0377 104.663 32.4347 105.024 31.5062C106.538 27.6213 108.077 23.7484 109.602 19.8686C109.747 19.5012 109.856 19.1179 110.024 18.6143C110.21 19.0644 110.359 19.4065 110.495 19.7542C112.057 23.7518 113.615 27.7515 115.179 31.7481C115.483 32.5223 116.007 33.0168 116.811 33.1238C116.871 33.1319 116.928 33.1625 116.974 33.2511H112.779C112.882 33.1856 112.927 33.1379 112.98 33.127C113.619 32.9919 113.923 32.5187 113.712 31.8712C113.347 30.7534 112.946 29.6487 112.538 28.5479C112.496 28.4343 112.301 28.3187 112.176 28.3175C110.614 28.3019 109.052 28.3007 107.49 28.3204C107.362 28.3221 107.171 28.4744 107.12 28.6058C106.713 29.657 106.322 30.7154 105.948 31.7804C105.696 32.5002 105.927 32.8727 106.777 33.2591ZM109.957 21.1893C109.913 21.1954 109.869 21.2018 109.826 21.2081C109.041 23.3544 108.256 25.501 107.453 27.6975H112.238C111.461 25.4803 110.709 23.3347 109.957 21.1893Z" fill="white"/>
<path d="M106.777 33.5912H103.119C103.022 33.5912 102.93 33.542 102.871 33.4586C102.812 33.3751 102.794 33.2671 102.821 33.1668C102.824 33.1569 102.825 33.1469 102.827 33.1381C102.877 32.8985 103.025 32.8442 103.108 32.833C103.883 32.7318 104.386 32.2831 104.738 31.3784C105.709 28.8861 106.707 26.3575 107.672 23.9118C108.221 22.5215 108.769 21.1311 109.316 19.7398C109.408 19.5067 109.486 19.2622 109.577 18.9792C109.624 18.8315 109.675 18.6741 109.732 18.5025C109.775 18.3745 109.886 18.2872 110.013 18.2823C110.14 18.2792 110.257 18.3556 110.309 18.4799C110.371 18.6293 110.428 18.767 110.483 18.8967C110.594 19.1617 110.69 19.3902 110.782 19.6262C111.379 21.153 111.975 22.6804 112.571 24.2077C113.535 26.6789 114.5 29.1498 115.466 31.6198C115.742 32.3225 116.194 32.7067 116.85 32.7943C117.021 32.8169 117.158 32.9196 117.247 33.0909C117.3 33.1939 117.298 33.3189 117.242 33.4204C117.186 33.5216 117.084 33.5837 116.974 33.5837H112.779C112.639 33.5837 112.516 33.4834 112.479 33.3391C112.442 33.1948 112.5 33.0418 112.621 32.9656C112.653 32.9454 112.678 32.9274 112.699 32.9118C112.758 32.8693 112.825 32.8211 112.92 32.8014C113.089 32.7656 113.312 32.6834 113.413 32.4943C113.485 32.3614 113.486 32.1887 113.419 31.9811C113.044 30.8326 112.623 29.6786 112.259 28.6977C112.236 28.6778 112.19 28.6532 112.167 28.65C110.503 28.634 108.976 28.6347 107.508 28.653C107.476 28.6659 107.419 28.7128 107.404 28.7406C106.999 29.7871 106.606 30.8519 106.239 31.8979C106.08 32.3507 106.094 32.5875 106.898 32.9534C107.034 33.0153 107.111 33.171 107.081 33.3255C107.052 33.4802 106.924 33.5912 106.777 33.5912ZM104.466 32.9269H105.753C105.532 32.6279 105.458 32.2303 105.657 31.6646C106.027 30.6115 106.422 29.5399 106.833 28.4795C106.907 28.2885 107.121 28.0773 107.349 28.0104C107.288 27.987 107.234 27.9434 107.196 27.8848C107.139 27.794 107.126 27.6787 107.164 27.5765L109.536 21.0871C109.577 20.9749 109.672 20.8949 109.784 20.8788L109.916 20.8601C110.059 20.8399 110.197 20.928 110.248 21.073L112.529 27.5809C112.564 27.6828 112.551 27.7972 112.493 27.8867C112.455 27.9456 112.4 27.9889 112.339 28.0118C112.539 28.0705 112.753 28.2252 112.827 28.4259C113.195 29.4189 113.623 30.5918 114.005 31.7621C114.167 32.2573 114.066 32.613 113.952 32.8245C113.935 32.8571 113.916 32.8887 113.895 32.9194H115.58C115.293 32.6602 115.063 32.3123 114.893 31.8765C113.926 29.4063 112.961 26.9351 111.997 24.4637C111.401 22.9366 110.805 21.4095 110.208 19.8824C110.161 19.7615 110.112 19.6413 110.06 19.5162C110.005 19.6831 109.95 19.8403 109.889 19.9973C109.342 21.3888 108.793 22.7796 108.244 24.1702C107.279 26.6149 106.282 29.143 105.311 31.6339C105.095 32.1894 104.815 32.6189 104.466 32.9269ZM107.908 27.3651H111.79L109.89 21.9451L107.908 27.3651Z" fill="white"/>
<path d="M73.4227 18.9879H76.7277C76.7302 19.0111 76.7325 19.0342 76.7348 19.057C76.6253 19.0772 76.5151 19.0943 76.4063 19.1179C75.8131 19.2466 75.5343 19.6055 75.5338 20.2569C75.5318 22.8324 75.5418 25.408 75.5293 27.9836C75.5227 29.3021 75.2934 30.5599 74.4885 31.6242C73.6982 32.6692 72.667 33.2758 71.4343 33.4559C69.6137 33.7213 67.9021 33.4617 66.4931 32.059C65.4669 31.0375 65.0751 29.7153 65.0633 28.2614C65.0423 25.7173 65.0574 23.1728 65.0574 20.6284C65.0574 19.4395 64.9395 19.285 63.8486 18.959H65.6756H67.5095C67.5124 18.9884 67.5154 19.0176 67.5183 19.0473C67.3895 19.0716 67.2604 19.0943 67.1318 19.1208C66.5898 19.2332 66.265 19.6043 66.2643 20.1829C66.2616 22.9767 66.2185 25.7725 66.2955 28.5641C66.3428 30.2815 67.0248 31.758 68.5361 32.5276C71.0861 33.8265 74.5796 32.4325 74.6556 28.4544C74.7077 25.7238 74.669 22.9913 74.6633 20.2595C74.6617 19.5016 74.3799 19.2356 73.4227 18.9879Z" fill="white"/>
<path d="M70.246 33.8782C68.6471 33.8782 67.3425 33.3572 66.2815 32.3012C65.281 31.305 64.7666 29.9466 64.7527 28.2635C64.7379 26.4685 64.7411 24.6441 64.744 22.88C64.7454 22.1293 64.7468 21.3782 64.7468 20.6275C64.7468 19.591 64.7283 19.5659 63.7652 19.2781C63.6157 19.2336 63.5198 19.0776 63.541 18.9131C63.5622 18.7486 63.6935 18.626 63.849 18.626H67.5098C67.6687 18.626 67.8019 18.754 67.8187 18.9228L67.8276 19.0112C67.8449 19.1846 67.7336 19.343 67.5726 19.3735L67.4531 19.3958C67.3657 19.4122 67.2783 19.4282 67.1914 19.4462C66.783 19.5309 66.5758 19.7786 66.5754 20.1825C66.5747 20.8845 66.5713 21.5867 66.5681 22.289C66.5585 24.3438 66.5487 26.4687 66.6061 28.5535C66.6396 29.7667 67.0245 31.3892 68.6698 32.227C69.9384 32.8732 71.4374 32.8056 72.5817 32.0508C73.6883 31.3208 74.3145 30.0412 74.345 28.447C74.3832 26.4461 74.3723 24.4085 74.3618 22.4379C74.358 21.7118 74.3541 20.9857 74.3525 20.2594C74.3514 19.7482 74.269 19.5479 73.3495 19.3097C73.1966 19.2701 73.0955 19.1146 73.1142 18.9474C73.1328 18.7802 73.2653 18.6547 73.4229 18.6547H76.7279C76.8863 18.6547 77.0195 18.7819 77.0368 18.9503L77.0438 19.0197C77.062 19.1944 76.9496 19.3538 76.7875 19.3834C76.7518 19.39 76.716 19.3961 76.6805 19.4024C76.6097 19.4148 76.5389 19.427 76.4686 19.4423C76.0199 19.5397 75.8451 19.7679 75.8446 20.256C75.844 21.1441 75.8447 22.0325 75.8456 22.9209C75.8469 24.5803 75.8485 26.2962 75.8401 27.9844C75.8319 29.6193 75.4793 30.8417 74.7304 31.8321C73.897 32.9338 72.8023 33.5906 71.4763 33.784C71.0484 33.8468 70.6382 33.8782 70.246 33.8782ZM65.129 19.2905C65.3207 19.573 65.3685 19.9742 65.3685 20.6278C65.3685 21.3789 65.3671 22.1303 65.3657 22.8814C65.3628 24.6441 65.3596 26.4666 65.3744 28.2579C65.3869 29.7726 65.8221 30.9361 66.7051 31.8153C67.3844 32.4912 68.1602 32.9175 69.0727 33.1051C68.8449 33.0309 68.6209 32.9382 68.4028 32.827C66.8982 32.0608 66.0395 30.55 65.9851 28.5732C65.9275 26.477 65.9373 24.3465 65.9466 22.286C65.9498 21.5845 65.9532 20.8833 65.9539 20.182C65.9544 19.8299 66.0534 19.5265 66.2357 19.2907H65.129V19.2905ZM74.7222 19.3194C74.8877 19.546 74.9735 19.8453 74.9744 20.2582C74.976 20.9835 74.9799 21.7089 74.9837 22.4342C74.9942 24.409 75.0051 26.451 74.9667 28.4606C74.9321 30.2663 74.218 31.7287 72.9541 32.5854C73.4427 32.2978 73.8747 31.9068 74.2471 31.4145C74.9027 30.5478 75.2114 29.4567 75.2187 27.981C75.2271 26.2948 75.2255 24.5801 75.2241 22.9216C75.2234 22.033 75.2225 21.1444 75.2234 20.2557C75.2237 19.8718 75.3086 19.5591 75.477 19.3192H74.7222V19.3194Z" fill="white"/>
<path d="M94.706 33.2305C94.706 33.2054 94.7028 33.1794 94.7064 33.1781C95.9932 32.7723 96.1093 32.6051 96.1093 31.1537C96.1093 27.7652 96.1093 24.3769 96.1093 20.9884C96.1093 19.6336 95.9154 19.3608 94.644 19.0139C94.8068 18.992 94.8958 18.9691 94.9848 18.9693C96.6786 18.9759 98.3736 18.9474 100.066 19.0034C102.154 19.0727 103.504 20.6371 103.532 22.8588C103.566 25.6186 100.881 27.619 98.1938 26.4135C98.1562 26.3967 98.1298 26.3515 98.0233 26.2439C98.197 26.2439 98.296 26.2352 98.3934 26.2452C99.3581 26.3464 100.261 26.1692 101.041 25.5218C101.696 24.9779 102.067 24.2448 102.131 23.3635C102.198 22.4522 102.15 21.552 101.68 20.7405C101.229 19.9633 100.573 19.5548 99.723 19.5302C99.0369 19.5102 98.3497 19.5392 97.6636 19.5195C97.3638 19.511 97.2974 19.6402 97.2978 19.9331C97.3046 23.8523 97.2996 27.7718 97.3046 31.691C97.3058 32.535 97.7586 33.0339 98.5644 33.1236C98.6197 33.1297 98.6734 33.1511 98.7249 33.2305H94.706Z" fill="white"/>
<path d="M98.725 33.5634H94.7061C94.5344 33.5634 94.3953 33.415 94.3953 33.2315L94.3949 33.2213C94.3828 32.9512 94.5765 32.8738 94.6157 32.8612C95.7766 32.495 95.7987 32.4631 95.7987 31.1543V20.989C95.7987 19.7831 95.6951 19.6442 94.5674 19.3361C94.4229 19.2967 94.3248 19.1529 94.3341 18.9935C94.3434 18.8341 94.4573 18.7047 94.6052 18.6845C94.6603 18.6772 94.7065 18.6694 94.747 18.6628C94.8317 18.649 94.9046 18.64 94.9858 18.6373C95.4818 18.6392 95.9779 18.6383 96.4741 18.6371C97.6546 18.6344 98.8747 18.6319 100.076 18.6716C102.299 18.7453 103.813 20.4264 103.843 22.8546C103.86 24.2556 103.215 25.5652 102.116 26.3577C100.934 27.2098 99.4607 27.3419 98.0739 26.72C97.9924 26.6837 97.9423 26.6282 97.8941 26.5747C97.8738 26.5523 97.8477 26.5231 97.8103 26.4854C97.7179 26.392 97.6879 26.2477 97.735 26.1212C97.7821 25.9946 97.8966 25.9117 98.0236 25.9117C98.0826 25.9117 98.1329 25.9104 98.177 25.9095C98.266 25.9078 98.343 25.9061 98.424 25.9146C99.4019 26.017 100.196 25.8029 100.85 25.2593C101.437 24.7724 101.764 24.1257 101.822 23.3373C101.877 22.5813 101.873 21.7024 101.416 20.915C101.017 20.2279 100.461 19.8833 99.7149 19.8617C99.3765 19.852 99.0291 19.8542 98.6935 19.8566C98.3541 19.8588 98.0029 19.8612 97.6555 19.8512C97.638 19.8507 97.6234 19.8507 97.6116 19.8515C97.61 19.8705 97.6089 19.8967 97.6089 19.932C97.6125 22.0584 97.6127 24.1848 97.613 26.3114C97.6132 28.1042 97.6134 29.8973 97.6157 31.6901C97.6166 32.3587 97.9373 32.7193 98.5968 32.7928C98.7566 32.8108 98.8857 32.8943 98.9806 33.041C99.0464 33.1425 99.0539 33.2748 99.0002 33.3841C98.9467 33.4948 98.8404 33.5634 98.725 33.5634ZM96.0177 32.8992H97.3865C97.1313 32.5996 96.9947 32.1908 96.9942 31.6923C96.992 29.899 96.9917 28.1059 96.9915 26.3127C96.9913 24.1865 96.9911 22.0606 96.9874 19.9344C96.987 19.7539 97.007 19.5257 97.1641 19.3617C97.1864 19.3383 97.2098 19.3181 97.2342 19.3008C96.9797 19.3008 96.7268 19.3013 96.4755 19.3021C96.3159 19.3025 96.1566 19.3028 95.997 19.303C96.3257 19.6459 96.4202 20.1452 96.4204 20.9892V31.1545C96.4199 32.0726 96.3491 32.5629 96.0177 32.8992ZM100.74 19.4215C101.227 19.642 101.63 20.0247 101.944 20.5664C102.498 21.5221 102.501 22.5777 102.441 23.3904C102.37 24.359 101.952 25.187 101.231 25.7851C100.873 26.083 100.483 26.2988 100.055 26.4341C100.664 26.3913 101.25 26.1813 101.768 25.8075C102.693 25.1408 103.236 24.0405 103.221 22.8643C103.198 21.0455 102.246 19.7585 100.74 19.4215Z" fill="white"/>
<path d="M68.0527 36.5686C66.6177 36.8494 65.2274 36.7236 63.8848 36.0469C62.4284 35.313 61.2818 34.1713 60.2001 32.9331C58.2877 30.7446 56.366 28.5654 54.4498 26.3806C54.3915 26.3142 54.3492 26.2315 54.2827 26.1305C55.1213 25.0054 55.9563 23.8849 56.7919 22.7646C57.3833 21.9716 57.9802 21.1833 58.5661 20.3854C59.1284 19.6197 59.0555 19.3279 58.1821 18.9824H61.933C61.9367 19.0019 61.9406 19.0214 61.9442 19.0408C61.8679 19.0634 61.793 19.098 61.7154 19.1068C60.9831 19.1922 60.3888 19.5472 59.91 20.1401C58.5276 21.8529 57.1482 23.5683 55.7541 25.2704C55.5472 25.5229 55.5399 25.6774 55.7589 25.9247C58.0262 28.4846 60.2556 31.0836 62.5545 33.6102C63.7923 34.9709 65.2806 35.9539 67.0689 36.3077C67.3922 36.3717 67.7213 36.4004 68.0477 36.4454C68.0491 36.4868 68.0509 36.5277 68.0527 36.5686Z" fill="white"/>
<path d="M66.6532 37.0414C65.6323 37.0414 64.6744 36.811 63.7525 36.3465C62.1873 35.5579 60.9637 34.2929 59.9731 33.159C58.7596 31.7699 57.5214 30.3615 56.3241 28.9991C55.6234 28.202 54.923 27.4049 54.2233 26.607C54.1664 26.5423 54.1245 26.4742 54.084 26.4085C54.0673 26.3812 54.0494 26.3523 54.0291 26.3214C53.9494 26.2007 53.9537 26.0384 54.0398 25.9228L54.781 24.9284C55.371 24.1368 55.9599 23.3468 56.5488 22.5569C56.7418 22.2983 56.9355 22.0399 57.129 21.7815C57.5217 21.2576 57.9276 20.716 58.3214 20.1797C58.6298 19.7595 58.6189 19.638 58.6136 19.6178C58.6082 19.5972 58.5563 19.4843 58.0739 19.2932C57.9328 19.2375 57.8492 19.0816 57.8759 18.9232C57.9025 18.7647 58.0313 18.6494 58.1818 18.6494H61.9328C62.0805 18.6494 62.2075 18.7604 62.2374 18.9149L62.2487 18.9735C62.2813 19.1446 62.1848 19.3132 62.0275 19.3599C62.0077 19.366 61.9879 19.3728 61.9683 19.3796C61.9084 19.4006 61.8342 19.4263 61.7491 19.4361C61.1097 19.5105 60.5852 19.8115 60.1454 20.3561L59.4486 21.2199C58.3177 22.6217 57.1486 24.0714 55.9881 25.4882C55.9401 25.5469 55.92 25.5809 55.9119 25.598C55.9203 25.6138 55.9401 25.6449 55.9847 25.6953C56.7837 26.5975 57.5913 27.5197 58.3721 28.4113C59.8067 30.0493 61.2902 31.7431 62.7773 33.3777C64.0598 34.7875 65.5228 35.663 67.1256 35.9803C67.3359 36.0219 67.5481 36.0477 67.7725 36.0752C67.8777 36.0881 67.9828 36.1007 68.0875 36.1153C68.2373 36.136 68.3514 36.2686 68.3582 36.4297L68.3634 36.5526C68.3705 36.7185 68.2617 36.8645 68.1089 36.8945C67.6088 36.9925 67.1242 37.0414 66.6532 37.0414ZM54.6694 26.144C54.6719 26.1469 54.6742 26.1498 54.6765 26.1525C55.3762 26.9504 56.0767 27.7472 56.7771 28.5441C57.9747 29.9067 59.213 31.3156 60.4272 32.7054C61.4254 33.8478 62.5513 35.0068 64.0175 35.7455C64.6296 36.054 65.2608 36.2489 65.9202 36.3312C64.6143 35.862 63.411 35.0277 62.3316 33.8413C60.8404 32.202 59.3548 30.5058 57.9182 28.8656C57.1379 27.9745 56.3311 27.0533 55.5333 26.1523C55.2089 25.7861 55.2048 25.4359 55.5203 25.0507C56.6792 23.6358 57.8479 22.1873 58.9779 20.7863L59.6749 19.9225C59.8679 19.6833 60.0785 19.4801 60.3054 19.3137H59.1673C59.1855 19.3526 59.2005 19.3935 59.2119 19.4368C59.3154 19.8283 59.0801 20.2223 58.8103 20.5894C58.4147 21.1284 58.0077 21.6712 57.6141 22.1963C57.4208 22.4542 57.2276 22.7122 57.0348 22.9706C56.4456 23.7604 55.857 24.5502 55.267 25.342L54.6694 26.144Z" fill="white"/>
<path d="M79.351 29.6266C79.3098 30.5481 79.4443 31.2987 79.9123 31.9501C80.6346 32.9558 81.6178 33.1577 82.6977 32.9154C83.679 32.6952 84.4031 32.0706 84.6638 31.0068C84.9303 29.9189 84.705 28.9517 83.8882 28.1613C82.6339 26.9477 81.371 25.7403 80.1746 24.4631C78.4978 22.6732 79.3114 19.4426 81.6062 18.847C82.3321 18.6584 83.1345 18.7922 83.9016 18.8056C84.2604 18.8119 84.6182 18.883 84.9991 18.9273V21.3225C84.9456 21.2128 84.9007 21.16 84.8946 21.1023C84.7462 19.6735 83.4111 19.0538 82.2456 19.2587C81.338 19.418 80.7091 19.9881 80.419 20.9315C80.1079 21.944 80.3779 22.8141 81.0842 23.5246C82.2843 24.7322 83.463 25.9697 84.7238 27.1017C86.4657 28.6658 86.1431 32.4365 83.6526 33.2981C82.2208 33.7935 80.8318 33.5524 79.5019 32.8404C79.1391 32.6463 78.9834 32.3409 78.9734 31.9019C78.951 30.9172 79.0446 30.1746 79.351 29.6266Z" fill="white"/>
<path d="M82.1301 33.8879C81.2243 33.8879 80.2985 33.637 79.3627 33.136C78.9111 32.8944 78.6755 32.4812 78.6627 31.9084C78.6375 30.7785 78.7674 30.0217 79.0843 29.4545C79.1574 29.3236 79.3049 29.2628 79.441 29.3068C79.5776 29.3509 79.6684 29.4886 79.6616 29.6407C79.6204 30.5607 79.7738 31.2099 80.1592 31.7462C80.7413 32.5564 81.551 32.8319 82.634 32.5885C83.2716 32.4455 84.0893 32.0398 84.3634 30.9208C84.6104 29.9125 84.3868 29.0898 83.6798 28.4058L83.3083 28.0467C82.1927 26.9683 81.039 25.8534 79.9552 24.6964C79.0784 23.7606 78.7622 22.4113 79.1096 21.0869C79.4503 19.7864 80.3566 18.8277 81.5332 18.5223C82.1071 18.3734 82.7087 18.4089 83.2903 18.4435C83.4943 18.4556 83.7053 18.468 83.907 18.4715C84.1701 18.4761 84.4319 18.5131 84.6848 18.5488C84.7991 18.5649 84.9149 18.5814 85.0329 18.5951C85.1904 18.6135 85.3099 18.7559 85.3099 18.9252V21.3203C85.3099 21.4733 85.212 21.6064 85.0729 21.6429C84.9338 21.6794 84.7895 21.6093 84.7235 21.4738C84.7076 21.4414 84.6928 21.4152 84.6798 21.3925C84.6429 21.3273 84.5972 21.2463 84.5858 21.137C84.5366 20.6638 84.327 20.265 83.9796 19.9835C83.5382 19.626 82.909 19.4764 82.296 19.5844C81.4991 19.7243 80.9669 20.2117 80.7144 21.0332C80.4519 21.887 80.6425 22.622 81.2972 23.2805C81.5557 23.5408 81.8134 23.8024 82.0711 24.064C82.9905 24.9978 83.9413 25.9634 84.9236 26.8452C85.8801 27.7038 86.3226 29.2195 86.0511 30.706C85.7936 32.1158 84.9327 33.202 83.7483 33.6117C83.2177 33.7964 82.6775 33.8879 82.1301 33.8879ZM81.0119 19.4484C80.3866 19.8231 79.9181 20.4652 79.708 21.2665C79.4223 22.3561 79.6789 23.4627 80.3944 24.2265C81.4672 25.3718 82.6151 26.4811 83.7251 27.554L84.0968 27.9133C84.9796 28.7676 85.2714 29.8361 84.9643 31.0892C84.7394 32.0075 84.1801 32.6839 83.3641 33.0426C83.4283 33.0234 83.4925 33.0027 83.5566 32.9805C84.5373 32.6413 85.2241 31.7661 85.4408 30.5794C85.6698 29.3263 85.3097 28.0605 84.5236 27.3547C83.5268 26.4597 82.5692 25.4872 81.6427 24.5465C81.3857 24.2854 81.1287 24.0246 80.8708 23.7649C80.0461 22.9352 79.7877 21.9191 80.1235 20.8263C80.3044 20.2389 80.6049 19.7754 81.0119 19.4484ZM79.2828 31.4457C79.2801 31.5863 79.2803 31.735 79.2839 31.8924C79.2912 32.2219 79.3948 32.4099 79.6409 32.5418C79.9027 32.682 80.161 32.8005 80.4169 32.8976C80.1387 32.709 79.8881 32.4598 79.6659 32.1508C79.5075 31.9303 79.3805 31.6975 79.2828 31.4457ZM83.8382 19.135C84.0244 19.2206 84.1983 19.3275 84.3552 19.4547C84.4788 19.555 84.5901 19.6659 84.6884 19.7859V19.2199C84.66 19.216 84.6315 19.2119 84.6033 19.208C84.357 19.1729 84.1241 19.1403 83.8967 19.1362C83.8772 19.136 83.8576 19.1355 83.8382 19.135Z" fill="white"/>
<path d="M123.458 33.2802C122.209 33.2802 120.961 33.2807 119.712 33.2792C119.632 33.2792 119.552 33.2671 119.464 33.26C119.485 33.2021 119.494 33.153 119.504 33.1525C120.398 33.1208 120.883 32.4135 120.874 31.4234C120.837 27.6621 120.859 23.9001 120.859 20.1384C120.859 19.4797 120.858 19.4787 120.226 19.4777C119.349 19.4768 118.473 19.4765 117.597 19.4777C116.61 19.479 116.262 19.761 115.959 20.7618V18.748C119.618 19.0653 123.26 19.0906 126.941 18.7402V20.8897C126.94 20.8895 126.897 20.8885 126.895 20.8776C126.65 19.7549 126.322 19.4785 125.224 19.4775C124.304 19.4768 123.384 19.4858 122.464 19.4739C122.17 19.4702 122.053 19.5692 122.053 19.9023C122.061 23.8668 122.055 27.8317 122.062 31.7962C122.063 32.5245 122.506 33.0245 123.179 33.1194C123.275 33.133 123.371 33.1491 123.467 33.1642C123.464 33.2031 123.461 33.2418 123.458 33.2802Z" fill="white"/>
<path d="M122.031 33.6097C121.257 33.6097 120.484 33.6095 119.711 33.6088C119.642 33.6088 119.579 33.6022 119.518 33.5961C119.492 33.5934 119.466 33.5908 119.439 33.5888C119.341 33.581 119.252 33.5234 119.199 33.4341C119.147 33.3448 119.137 33.2341 119.173 33.1358C119.179 33.1212 119.183 33.107 119.187 33.0954C119.255 32.8727 119.391 32.8216 119.493 32.8182C120.47 32.7837 120.566 31.8323 120.562 31.4247C120.536 28.7002 120.54 25.9305 120.544 23.2522C120.545 22.2135 120.547 21.175 120.547 20.1362C120.547 20.0204 120.547 19.8929 120.541 19.8151C120.465 19.8082 120.339 19.808 120.224 19.8078C119.348 19.8068 118.472 19.8065 117.596 19.8078C116.754 19.8087 116.515 19.9961 116.254 20.8618C116.207 21.0176 116.06 21.1134 115.909 21.0879C115.759 21.0623 115.647 20.9232 115.647 20.7599V18.7461C115.647 18.6534 115.683 18.5649 115.747 18.5018C115.811 18.4391 115.896 18.4077 115.983 18.415C119.803 18.7461 123.378 18.7437 126.912 18.4074C126.998 18.3997 127.085 18.4303 127.149 18.4933C127.214 18.5564 127.25 18.6452 127.25 18.7384V20.8879C127.25 20.9947 127.202 21.0949 127.121 21.1572C127.063 21.2027 126.991 21.2246 126.921 21.2193C126.666 21.2047 126.604 21.0103 126.591 20.9509C126.379 19.9793 126.175 19.8085 125.222 19.8078C124.934 19.8078 124.646 19.8082 124.357 19.809C123.736 19.8107 123.092 19.8121 122.459 19.8041C122.415 19.8029 122.386 19.8063 122.368 19.809C122.365 19.8272 122.363 19.8562 122.363 19.8995C122.367 21.976 122.367 24.0871 122.367 26.1285C122.368 28.017 122.368 29.9052 122.371 31.7936C122.372 32.3415 122.689 32.7133 123.219 32.7883C123.287 32.7978 123.355 32.8087 123.423 32.8197L123.511 32.8338C123.674 32.8591 123.79 33.0156 123.776 33.1903L123.767 33.3046C123.754 33.4769 123.619 33.6097 123.457 33.6097H122.743C122.506 33.6097 122.269 33.6097 122.031 33.6097ZM120.694 32.945C121.183 32.9452 121.672 32.9455 122.161 32.9452C121.899 32.6537 121.751 32.2564 121.75 31.7946C121.747 29.9059 121.746 28.0172 121.746 26.1285C121.746 24.0873 121.746 21.9767 121.741 19.901C121.741 19.7384 121.76 19.5021 121.924 19.3287C121.925 19.3272 121.926 19.3257 121.928 19.3243C121.618 19.3265 121.309 19.326 120.997 19.3233C121.133 19.4659 121.168 19.7138 121.169 20.136C121.169 21.175 121.167 22.214 121.166 23.253C121.161 25.9295 121.157 28.6971 121.184 31.4177C121.189 32.0566 121.012 32.5834 120.694 32.945ZM125.737 19.1724C126.123 19.2221 126.409 19.3386 126.629 19.5496V19.1002C126.332 19.1267 126.035 19.1508 125.737 19.1724ZM116.269 19.1053V19.5316C116.491 19.3301 116.768 19.2179 117.131 19.1705C116.845 19.1508 116.558 19.1289 116.269 19.1053Z" fill="white"/>
<path d="M92.2299 33.2613H88.2226C88.217 33.2355 88.2113 33.2098 88.2056 33.184C88.298 33.1628 88.3895 33.1351 88.4828 33.1219C89.1059 33.0346 89.5941 32.5594 89.5973 31.8885C89.6151 28.0326 89.6128 24.1767 89.5967 20.3207C89.5941 19.7219 89.1849 19.2793 88.636 19.1389C88.4999 19.1041 88.3601 19.0854 88.2286 18.9912H92.1931C92.1851 19.0272 92.1833 19.0693 92.1742 19.0713C91.0897 19.2927 90.8147 19.6509 90.8147 20.8456V31.1503C90.8145 32.6445 90.9315 32.8131 92.2299 33.2613Z" fill="white"/>
<path d="M92.2296 33.5941H88.2224C88.078 33.5941 87.9526 33.488 87.9198 33.3379L87.9028 33.2602C87.8836 33.1734 87.8982 33.0819 87.9428 33.0065C87.9874 32.931 88.0587 32.878 88.1404 32.8595C88.1675 32.8532 88.1943 32.8466 88.2214 32.8395C88.2877 32.8227 88.3626 32.804 88.442 32.7928C88.8604 32.7342 89.2836 32.4315 89.2861 31.8872C89.3027 28.2349 89.3025 24.4522 89.2854 20.3225C89.2834 19.824 88.9109 19.5512 88.5631 19.4621C88.5406 19.4563 88.5178 19.451 88.4953 19.4458C88.3692 19.4164 88.2121 19.3797 88.0555 19.2677C87.9417 19.1862 87.8911 19.0351 87.9308 18.895C87.9706 18.7551 88.0912 18.6592 88.2281 18.6592H92.1925C92.2874 18.6592 92.3774 18.7057 92.4363 18.7852C92.4953 18.865 92.5169 18.9692 92.4951 19.068L92.4928 19.0826C92.4568 19.3174 92.3143 19.3806 92.2326 19.3974C91.2906 19.5896 91.1251 19.8062 91.1251 20.8454V31.1501C91.1251 32.4921 91.1588 32.5424 92.3252 32.9451C92.4707 32.9953 92.5604 33.1515 92.5367 33.313C92.5128 33.4748 92.3826 33.5941 92.2296 33.5941ZM89.519 32.9296H90.8898C90.5679 32.5828 90.5033 32.0855 90.5033 31.1506V20.8459C90.5033 20.1262 90.6091 19.65 90.8927 19.3239H89.5444C89.7741 19.5918 89.905 19.9366 89.9066 20.3199C89.9237 24.4517 89.9239 28.2366 89.9073 31.8908C89.9059 32.2928 89.763 32.6544 89.519 32.9296Z" fill="white"/>
<path d="M51.0186 18.9863H54.9879C54.9901 19.0087 54.9926 19.0311 54.9951 19.0535C54.859 19.0788 54.7222 19.0987 54.5872 19.1299C53.9794 19.2708 53.5915 19.799 53.5886 20.5268C53.5818 22.2588 53.5861 23.9905 53.5861 25.7222C53.5861 27.6255 53.5859 29.529 53.5861 31.4325C53.5863 32.5971 53.8658 32.9484 54.9396 33.1404C54.961 33.1443 54.9778 33.1786 55.0356 33.2397H50.9351C51.0093 33.1905 51.0557 33.1365 51.1078 33.1292C51.9931 33.0037 52.391 32.5345 52.3949 31.5761C52.4006 30.1563 52.3965 28.7365 52.3965 27.3167C52.3965 25.1949 52.3965 23.0732 52.3965 20.9512C52.3962 19.6567 52.1672 19.3408 51.0186 18.9863Z" fill="white"/>
<path d="M55.0359 33.5702H50.9353C50.7964 33.5702 50.6744 33.4717 50.6364 33.3288C50.5984 33.186 50.6537 33.0337 50.7721 32.9553C50.79 32.9434 50.8055 32.931 50.8196 32.9198C50.8763 32.8753 50.9542 32.8142 51.0673 32.7981C51.8055 32.6935 52.0814 32.3614 52.0846 31.573C52.0887 30.5759 52.0878 29.5615 52.0869 28.5804C52.0864 28.1587 52.0862 27.7368 52.0862 27.3151V20.9496C52.0862 19.8042 51.9567 19.6198 50.933 19.3037C50.7844 19.258 50.6899 19.102 50.7115 18.938C50.7331 18.774 50.8643 18.6523 51.0193 18.6523H54.9885C55.1463 18.6523 55.279 18.7789 55.2972 18.9463L55.3045 19.0134C55.3234 19.1884 55.2112 19.349 55.0489 19.3789C55.0047 19.3872 54.9605 19.3947 54.9161 19.4025C54.8244 19.4183 54.7379 19.4334 54.6539 19.4529C54.1843 19.5616 53.9025 19.9631 53.9002 20.5264C53.8954 21.7681 53.8961 23.0309 53.897 24.2522C53.8973 24.7415 53.8977 25.2311 53.8977 25.7204V26.599C53.8977 28.2096 53.8975 29.8201 53.8977 31.4307C53.8979 32.4273 54.0719 32.6468 54.9917 32.811C55.114 32.8329 55.1818 32.9154 55.2182 32.9595C55.2273 32.9707 55.2389 32.9848 55.2551 33.0018C55.3446 33.0964 55.3719 33.2398 55.3238 33.3644C55.2754 33.4889 55.162 33.5702 55.0359 33.5702ZM52.2949 32.9057H53.6601C53.383 32.5879 53.2758 32.1227 53.2756 31.4309C53.2754 29.8204 53.2754 28.2096 53.2756 26.599V25.7204C53.2756 25.2313 53.2751 24.7417 53.2749 24.2527C53.274 23.0304 53.2731 21.7669 53.2781 20.5235C53.2799 20.0454 53.4281 19.6261 53.6858 19.3164H52.3111C52.612 19.6648 52.7076 20.1568 52.7076 20.9491V27.3146C52.7076 27.7361 52.7081 28.1577 52.7083 28.5792C52.7092 29.561 52.7101 30.5764 52.706 31.5752C52.7035 32.1502 52.5679 32.592 52.2949 32.9057Z" fill="white"/>
<path d="M23.1603 18.6516C23.1006 18.6516 23.0435 18.6263 23.0014 18.5813L20.2923 15.6853C20.2047 15.5916 20.2047 15.4395 20.2923 15.3459L23.0014 12.4503C23.089 12.3564 23.2313 12.3564 23.3189 12.4503L26.028 15.3459C26.1156 15.4395 26.1156 15.5916 26.028 15.6853L23.3189 18.5813C23.2768 18.6263 23.2197 18.6516 23.1603 18.6516ZM20.7687 15.5157L23.16 18.0721L25.5513 15.5157L23.16 12.9596L20.7687 15.5157Z" fill="white"/>
<path d="M23.1608 17.1134C23.1032 17.1134 23.0458 17.0901 23.0019 17.0431L21.7298 15.6834C21.6877 15.6384 21.6641 15.5776 21.6641 15.5136C21.6641 15.4499 21.6877 15.3888 21.7298 15.3438L23.0019 13.9843C23.0897 13.8906 23.2318 13.8906 23.3196 13.9843L24.5917 15.3438C24.6338 15.3888 24.6574 15.4496 24.6574 15.5136C24.6574 15.5774 24.6338 15.6384 24.5917 15.6834L23.3196 17.0431C23.2755 17.0901 23.2181 17.1134 23.1608 17.1134ZM22.2063 15.5138L23.1608 16.5341L24.115 15.5138L23.1608 14.4941L22.2063 15.5138Z" fill="white"/>
<path d="M23.1601 10.9504C22.7064 10.9504 22.3369 10.5555 22.3369 10.0703C22.3369 9.5851 22.7064 9.19043 23.1601 9.19043C23.6137 9.19043 23.9832 9.5851 23.9832 10.0703C23.983 10.5555 23.6137 10.9504 23.1601 10.9504ZM23.1601 9.67075C22.9538 9.67075 22.7863 9.84984 22.7863 10.0703C22.7863 10.2907 22.9538 10.4701 23.1601 10.4701C23.3663 10.4701 23.5338 10.2907 23.5338 10.0703C23.5338 9.84984 23.3661 9.67075 23.1601 9.67075Z" fill="white"/>
<path d="M23.1601 21.84C22.7064 21.84 22.3369 21.4454 22.3369 20.9602C22.3369 20.475 22.7064 20.0801 23.1601 20.0801C23.6137 20.0801 23.9832 20.475 23.9832 20.9602C23.9832 21.4454 23.6137 21.84 23.1601 21.84ZM23.1601 20.5604C22.9538 20.5604 22.7863 20.7397 22.7863 20.9602C22.7863 21.1806 22.9538 21.3597 23.1601 21.3597C23.3663 21.3597 23.5338 21.1804 23.5338 20.9602C23.5338 20.7397 23.3661 20.5604 23.1601 20.5604Z" fill="white"/>
<path d="M23.1603 36.7276C23.1006 36.7276 23.0435 36.7023 23.0014 36.6573L20.2923 33.7613C20.2047 33.6676 20.2047 33.5155 20.2923 33.4219L23.0014 30.5263C23.089 30.4326 23.2313 30.4326 23.3189 30.5263L26.028 33.4219C26.1156 33.5155 26.1156 33.6676 26.028 33.7613L23.3189 36.6573C23.2768 36.7023 23.2197 36.7276 23.1603 36.7276ZM20.7687 33.5915L23.16 36.1478L25.5513 33.5915L23.16 31.0353L20.7687 33.5915Z" fill="white"/>
<path d="M23.1608 35.1906C23.1032 35.1906 23.0458 35.1672 23.0019 35.1203L21.7298 33.7606C21.6877 33.7156 21.6641 33.6547 21.6641 33.5907C21.6641 33.527 21.6877 33.4662 21.7298 33.4209L23.0019 32.0615C23.0897 31.9678 23.2318 31.9678 23.3196 32.0615L24.5917 33.4209C24.6338 33.4659 24.6574 33.5268 24.6574 33.5907C24.6574 33.6545 24.6338 33.7156 24.5917 33.7606L23.3196 35.1203C23.2755 35.1672 23.2181 35.1906 23.1608 35.1906ZM22.2063 33.5907L23.1608 34.611L24.115 33.5907L23.1608 32.571L22.2063 33.5907Z" fill="white"/>
<path d="M23.1601 29.0266C22.7064 29.0266 22.3369 28.6317 22.3369 28.1465C22.3369 27.6613 22.7064 27.2666 23.1601 27.2666C23.6137 27.2666 23.9832 27.6613 23.9832 28.1465C23.983 28.6317 23.6137 29.0266 23.1601 29.0266ZM23.1601 27.7467C22.9538 27.7467 22.7863 27.926 22.7863 28.1462C22.7863 28.3664 22.9538 28.546 23.1601 28.546C23.3663 28.546 23.5338 28.3667 23.5338 28.1462C23.5338 27.9258 23.3661 27.7467 23.1601 27.7467Z" fill="white"/>
<path d="M23.1601 39.9162C22.7064 39.9162 22.3369 39.5215 22.3369 39.0363C22.3369 38.5512 22.7064 38.1562 23.1601 38.1562C23.6137 38.1562 23.9832 38.5512 23.9832 39.0363C23.983 39.5215 23.6137 39.9162 23.1601 39.9162ZM23.1601 38.6366C22.9538 38.6366 22.7863 38.8159 22.7863 39.0363C22.7863 39.2568 22.9538 39.4359 23.1601 39.4359C23.3663 39.4359 23.5338 39.2566 23.5338 39.0363C23.5338 38.8159 23.3661 38.6366 23.1601 38.6366Z" fill="white"/>
<path d="M34.3664 24.7372C34.3664 24.801 34.3427 24.862 34.3006 24.907L31.5913 27.8026C31.5037 27.8963 31.3614 27.8963 31.2738 27.8026L28.5649 24.907C28.4771 24.8134 28.4771 24.6613 28.5649 24.5676L31.2738 21.6718C31.3614 21.5781 31.5037 21.5781 31.5913 21.6718L34.3006 24.5676C34.3427 24.6124 34.3664 24.6735 34.3664 24.7372ZM31.4324 27.2933L33.824 24.7372L31.4324 22.1811L29.0411 24.7372L31.4324 27.2933Z" fill="white"/>
<path d="M32.9293 24.7366C32.9293 24.7981 32.9075 24.8594 32.8635 24.9064L31.5915 26.2661C31.5494 26.3111 31.4925 26.3364 31.4326 26.3364C31.373 26.3364 31.3158 26.3111 31.2737 26.2661L30.0019 24.9064C29.9141 24.8127 29.9141 24.6606 30.0019 24.5667L31.2737 23.207C31.3158 23.162 31.373 23.1367 31.4326 23.1367C31.4923 23.1367 31.5494 23.162 31.5915 23.207L32.8635 24.5667C32.9075 24.6137 32.9293 24.675 32.9293 24.7366ZM31.4326 25.7566L32.3869 24.7366L31.4326 23.7163L30.4786 24.7366L31.4326 25.7566Z" fill="white"/>
<path d="M27.1616 24.7363C27.1616 25.2213 26.7922 25.6162 26.3383 25.6162C25.8844 25.6162 25.5151 25.2213 25.5151 24.7363C25.5151 24.2514 25.8844 23.8564 26.3383 23.8564C26.7922 23.8564 27.1616 24.2514 27.1616 24.7363ZM25.9643 24.7363C25.9643 24.9568 26.1318 25.1358 26.338 25.1358C26.5443 25.1358 26.712 24.9568 26.712 24.7363C26.712 24.5159 26.5443 24.3368 26.338 24.3368C26.132 24.3365 25.9643 24.5159 25.9643 24.7363Z" fill="white"/>
<path d="M37.3506 24.7363C37.3506 25.2213 36.9814 25.6162 36.5275 25.6162C36.0736 25.6162 35.7041 25.2213 35.7041 24.7363C35.7041 24.2514 36.0736 23.8564 36.5275 23.8564C36.9814 23.8564 37.3506 24.2514 37.3506 24.7363ZM36.1535 24.7363C36.1535 24.9568 36.3212 25.1358 36.5275 25.1358C36.7337 25.1358 36.9012 24.9568 36.9012 24.7363C36.9012 24.5159 36.7335 24.3368 36.5275 24.3368C36.3212 24.3365 36.1535 24.5159 36.1535 24.7363Z" fill="white"/>
<path d="M17.8147 24.703C17.8147 24.7668 17.791 24.8278 17.7489 24.8729L15.0396 27.7684C14.952 27.8621 14.8097 27.8621 14.7221 27.7684L12.013 24.8729C11.9254 24.7792 11.9254 24.6271 12.013 24.5334L14.7221 21.6376C14.8097 21.544 14.952 21.544 15.0396 21.6376L17.7489 24.5334C17.791 24.5784 17.8147 24.6395 17.8147 24.703ZM14.881 27.2594L17.2725 24.7033L14.881 22.1472L12.4897 24.7033L14.881 27.2594Z" fill="white"/>
<path d="M16.3776 24.7024C16.3776 24.7639 16.3557 24.8253 16.3118 24.8722L15.0397 26.2319C14.9976 26.2769 14.9407 26.3022 14.8809 26.3022C14.8212 26.3022 14.7641 26.2769 14.722 26.2319L13.4502 24.8722C13.3623 24.7785 13.3623 24.6265 13.4502 24.5325L14.722 23.1729C14.7641 23.1278 14.821 23.1025 14.8809 23.1025C14.9405 23.1025 14.9974 23.1278 15.0397 23.1729L16.3118 24.5325C16.3555 24.5795 16.3776 24.6408 16.3776 24.7024ZM14.8809 25.7224L15.8351 24.7024L14.8809 23.6821L13.9268 24.7024L14.8809 25.7224Z" fill="white"/>
<path d="M10.6108 24.7031C10.6108 25.188 10.2414 25.583 9.78749 25.583C9.33358 25.583 8.96436 25.188 8.96436 24.7031C8.96436 24.2182 9.33358 23.8232 9.78749 23.8232C10.2414 23.8232 10.6108 24.2182 10.6108 24.7031ZM9.41371 24.7031C9.41371 24.9235 9.58125 25.1026 9.78749 25.1026C9.99372 25.1026 10.1617 24.9235 10.1617 24.7031C10.1617 24.4826 9.99395 24.3036 9.78749 24.3036C9.58125 24.3036 9.41371 24.4826 9.41371 24.7031Z" fill="white"/>
<path d="M20.7983 24.7031C20.7983 25.188 20.4291 25.583 19.9752 25.583C19.5213 25.583 19.1519 25.188 19.1519 24.7031C19.1519 24.2182 19.5213 23.8232 19.9752 23.8232C20.4291 23.8232 20.7983 24.2182 20.7983 24.7031ZM19.601 24.7031C19.601 24.9235 19.7688 25.1026 19.975 25.1026C20.1812 25.1026 20.3488 24.9235 20.3488 24.7031C20.3488 24.4826 20.181 24.3036 19.975 24.3036C19.769 24.3036 19.601 24.4826 19.601 24.7031Z" fill="white"/>
<path d="M23.2951 23.8181C23.3054 23.9417 23.2373 24.0583 23.1317 24.0982C23.1009 24.0836 23.0773 24.0653 23.0534 24.04C23.0024 23.9816 22.9717 23.9054 22.9785 23.8181C22.9853 23.749 23.0295 23.3234 23.1383 22.6504C23.2473 23.3234 23.2883 23.749 23.2951 23.8181Z" fill="white"/>
<path d="M22.9908 25.5515C22.9805 25.4279 23.0486 25.3114 23.1542 25.2715C23.1849 25.2861 23.2086 25.3041 23.2325 25.3296C23.2837 25.388 23.3142 25.4642 23.3074 25.5515C23.3006 25.6207 23.2564 26.0462 23.1476 26.7193C23.0383 26.0462 22.9976 25.6207 22.9908 25.5515Z" fill="white"/>
<path d="M23.9712 24.9057C23.8553 24.9166 23.7465 24.8439 23.709 24.7311C23.7226 24.6982 23.7397 24.673 23.7636 24.6474C23.818 24.5927 23.8895 24.5601 23.9712 24.5674C24.0359 24.5747 24.434 24.6219 25.0636 24.7381C24.434 24.8548 24.0359 24.8984 23.9712 24.9057Z" fill="white"/>
<path d="M22.3165 24.5548C22.4322 24.5439 22.5412 24.6166 22.5785 24.7294C22.5649 24.7622 22.5478 24.7875 22.5241 24.813C22.4695 24.8675 22.3983 24.9003 22.3165 24.893C22.2519 24.8857 21.8538 24.8386 21.2241 24.7223C21.8538 24.6059 22.2519 24.5621 22.3165 24.5548Z" fill="white"/>
<path d="M38.9396 7.57145L34.3011 12.5296C34.0555 12.7922 33.656 12.7914 33.4111 12.5296L32.8135 11.8907C32.5679 11.6281 32.5679 11.2018 32.8135 10.9393L35.1837 8.4058C35.4286 8.14399 35.8281 8.14326 36.0737 8.4058C36.3187 8.66762 36.3187 9.09538 36.0737 9.35719L34.1764 11.3853C34.089 11.4785 33.9472 11.4785 33.86 11.3853C33.7726 11.2919 33.7726 11.1403 33.86 11.0468L35.7571 9.01873C35.8281 8.94306 35.8281 8.81969 35.7571 8.74402C35.6861 8.66835 35.5709 8.66835 35.5001 8.74402L33.13 11.2775C33.0589 11.3532 33.0589 11.4765 33.13 11.5522L33.7275 12.1909C33.7985 12.2666 33.9137 12.2666 33.9845 12.1909L38.623 7.23275C38.709 7.14077 38.6703 7.03712 38.6565 7.00743C38.6426 6.97775 38.5882 6.88431 38.4677 6.90329C36.5281 7.21304 32.1277 8.14107 28.9567 10.5059C28.8181 10.6096 28.6813 10.7149 28.5486 10.8247C28.5263 10.6466 28.5003 10.4687 28.4712 10.2901C28.6023 10.1864 28.7359 10.0869 28.8721 9.98886C32.1088 7.65759 36.4623 6.73929 38.4022 6.42954C38.6758 6.38623 38.9321 6.52906 39.0569 6.79233C39.1809 7.05658 39.1354 7.36244 38.9396 7.57145Z" fill="white"/>
<path d="M36.6808 19.0649C36.5141 19.0331 36.3484 19.0048 36.182 18.981C36.284 18.8382 36.3833 18.6927 36.4796 18.5452C38.6915 15.1564 39.5588 10.4533 39.8488 8.37992C39.8665 8.2512 39.7791 8.19304 39.7513 8.1782C39.7236 8.16336 39.6266 8.12199 39.5406 8.21397L34.902 13.1722C34.8313 13.2478 34.8313 13.3712 34.902 13.4469L35.4996 14.0856C35.5704 14.1613 35.6858 14.1613 35.7566 14.0856L38.1267 11.5521C38.1975 11.4764 38.1975 11.3531 38.1267 11.2774C38.0566 11.2022 37.9407 11.2017 37.8697 11.2774L35.9724 13.3055C35.885 13.3989 35.7438 13.3997 35.656 13.3055C35.5686 13.2121 35.5686 13.0607 35.656 12.9673L37.5531 10.9392C37.798 10.6774 38.1982 10.6774 38.4434 10.9392C38.689 11.2017 38.6883 11.6288 38.4434 11.8906L36.073 14.424C35.8274 14.6866 35.4286 14.6866 35.1829 14.424L34.5854 13.7853C34.3402 13.5235 34.3398 13.0965 34.5854 12.8339L39.2239 7.87575C39.4194 7.66674 39.7056 7.61783 39.9526 7.75068C40.1989 7.88402 40.3323 8.158 40.292 8.45023C40.0022 10.5236 39.1429 15.1759 36.9633 18.636C36.8713 18.7812 36.7775 18.9248 36.6808 19.0649Z" fill="white"/>
<path d="M39.9435 41.7308C39.6965 41.8646 39.4103 41.8147 39.2148 41.6055L34.5765 36.6475C34.3316 36.3857 34.3309 35.9587 34.5765 35.6962L35.1743 35.0574C35.4192 34.7956 35.8194 34.7956 36.0643 35.0574L38.4345 37.5909C38.6801 37.8535 38.6794 38.2805 38.4345 38.5423C38.1886 38.8048 37.7898 38.8048 37.5442 38.5423L35.6469 36.5142C35.5595 36.4208 35.5595 36.2692 35.6469 36.1757C35.7343 36.0826 35.8761 36.0826 35.9635 36.1757L37.8606 38.2038C37.9316 38.2795 38.0468 38.2795 38.1176 38.2038C38.1886 38.1282 38.1886 38.0048 38.1176 37.9291L35.7475 35.3957C35.6765 35.32 35.5613 35.32 35.4905 35.3957L34.8929 36.0344C34.8221 36.1101 34.8221 36.2334 34.8929 36.3091L39.5314 41.2673C39.6182 41.36 39.7152 41.3186 39.7422 41.303C39.7696 41.2889 39.8581 41.2308 39.8397 41.1028C39.5503 39.0314 38.6849 34.3384 36.4789 30.9504C36.3819 30.8022 36.2838 30.6567 36.1818 30.5139C36.3478 30.4908 36.5135 30.4623 36.6801 30.4307C36.7771 30.5706 36.8706 30.7141 36.9617 30.8604C39.1363 34.319 39.9929 38.9615 40.2822 41.0317C40.3234 41.3235 40.1905 41.5979 39.9435 41.7308Z" fill="white"/>
<path d="M38.3934 43.0521C36.4555 42.7428 32.107 41.826 28.8708 39.4981C28.7346 39.4001 28.6003 39.2998 28.4688 39.1972C28.4986 39.019 28.5252 38.8419 28.5473 38.664C28.6809 38.773 28.817 38.8791 28.9563 38.9821C32.1259 41.343 36.5209 42.2701 38.4599 42.5793C38.5796 42.599 38.634 42.5041 38.6472 42.4752C38.6618 42.446 38.7005 42.3426 38.6137 42.2499L33.9752 37.2917C33.9042 37.216 33.789 37.216 33.7182 37.2917L33.1205 37.9304C33.0497 38.0061 33.0497 38.1295 33.1205 38.2051L35.4908 40.7386C35.5618 40.8143 35.677 40.8143 35.7478 40.7386C35.8188 40.6629 35.8188 40.5396 35.7478 40.4639L33.8505 38.436C33.7631 38.3426 33.7631 38.191 33.8505 38.0976C33.9377 38.0041 34.0795 38.0041 34.1669 38.0976L36.0642 40.1257C36.3098 40.3882 36.3098 40.8145 36.0642 41.0771C35.8193 41.3391 35.4198 41.3399 35.1742 41.0771L32.8038 38.5436C32.5589 38.2818 32.5589 37.854 32.8038 37.5922L33.4014 36.9535C33.647 36.6909 34.0465 36.6917 34.2916 36.9535L38.9301 41.9114C39.1257 42.1207 39.1726 42.4265 39.0474 42.6903C38.9233 42.9538 38.6663 43.0959 38.3934 43.0521Z" fill="white"/>
<path d="M17.8378 39.2044C17.7067 39.308 17.5726 39.408 17.4358 39.5054C14.2002 41.834 9.85102 42.7515 7.91203 43.0608C7.70943 43.0932 7.51435 43.0228 7.37709 42.8761C7.3302 42.826 7.28968 42.7666 7.25804 42.699C7.13329 42.4345 7.17882 42.1286 7.37459 41.9194L12.0131 36.9612C12.2587 36.6986 12.6582 36.6994 12.9038 36.9619L13.5007 37.5999C13.7463 37.8625 13.7463 38.2888 13.5007 38.5513L11.1306 41.0848C10.8856 41.3466 10.4861 41.3473 10.2405 41.0848C9.99557 40.823 9.99557 40.3952 10.2405 40.1334L12.1378 38.1055C12.2253 38.0121 12.3671 38.0121 12.4545 38.1055C12.5426 38.1995 12.5417 38.3503 12.4545 38.4438L10.5571 40.4718C10.4863 40.5475 10.4868 40.6714 10.5571 40.7466C10.6282 40.8222 10.7434 40.8222 10.8141 40.7466L13.1845 38.2131C13.2553 38.1374 13.2553 38.014 13.1845 37.9384L12.5877 37.3004C12.5166 37.2247 12.401 37.224 12.33 37.2997L7.69123 42.2576C7.60518 42.3496 7.64387 42.4532 7.65776 42.4829C7.67164 42.5126 7.72606 42.606 7.84648 42.5871C9.78547 42.2778 14.1802 41.3507 17.3507 38.989C17.4893 38.8868 17.6254 38.7805 17.759 38.6718C17.7816 38.8491 17.8075 39.027 17.8378 39.2044Z" fill="white"/>
<path d="M11.7288 36.658L7.09032 41.6162C6.89478 41.8252 6.60864 41.8739 6.36166 41.7413C6.29838 41.7075 6.24261 41.6641 6.19503 41.6135C6.05754 41.4666 5.99243 41.2588 6.02225 41.0417C6.31226 38.9698 7.16998 34.3202 9.34844 30.8616C9.4395 30.7154 9.53329 30.5733 9.62958 30.4326C9.79621 30.4645 9.9626 30.4922 10.129 30.5158C10.027 30.6587 9.92777 30.8042 9.83149 30.9516C7.62207 34.3404 6.75478 39.0394 6.46546 41.1123C6.44771 41.2408 6.53579 41.2997 6.56288 41.314C6.59065 41.3289 6.68763 41.3702 6.77368 41.2782L11.4119 36.3201C11.483 36.2444 11.483 36.1213 11.4119 36.0453L10.8144 35.4064C10.7436 35.3307 10.6282 35.3307 10.5572 35.4064L8.18706 37.9401C8.11626 38.0158 8.11626 38.1391 8.18706 38.2148C8.25808 38.2907 8.37327 38.2907 8.44406 38.2148L10.3414 36.1867C10.4288 36.0935 10.5706 36.0935 10.658 36.1867C10.7454 36.2802 10.7454 36.4317 10.658 36.5252L8.7607 38.5533C8.51576 38.8151 8.11558 38.8151 7.87064 38.5533C7.62502 38.2907 7.62571 37.8637 7.87064 37.6019L10.2408 35.0684C10.4864 34.8059 10.8852 34.8059 11.1308 35.0684L11.7284 35.7071C11.9744 35.9692 11.9744 36.3955 11.7288 36.658Z" fill="white"/>
<path d="M9.83406 18.5432C9.93035 18.6921 10.0296 18.8376 10.1316 18.9804C9.96516 19.004 9.79922 19.031 9.63282 19.0629C9.53585 18.9228 9.44161 18.7799 9.35056 18.6337C7.17027 15.1744 6.31187 10.523 6.02254 8.45016C5.98134 8.15842 6.1145 7.88371 6.36126 7.7511C6.60824 7.61727 6.89437 7.66715 7.08991 7.87641L11.7284 12.8346C11.9734 13.0964 11.974 13.5234 11.7284 13.786L11.1307 14.4247C10.8857 14.6865 10.4855 14.6865 10.2406 14.4247L7.87025 11.8912C7.62463 11.6287 7.62532 11.2017 7.87025 10.9398C8.11587 10.6773 8.51468 10.6773 8.7603 10.9398L10.6576 12.9679C10.7448 13.0614 10.7448 13.213 10.6576 13.3064C10.5702 13.3998 10.4284 13.3998 10.341 13.3064L8.44366 11.2783C8.37286 11.2026 8.25746 11.2026 8.18667 11.2783C8.11587 11.354 8.11587 11.4773 8.18667 11.553L10.5568 14.0865C10.6278 14.1622 10.743 14.1622 10.8138 14.0865L11.4113 13.4478C11.4823 13.3721 11.4823 13.2487 11.4113 13.1731L6.77283 8.21487C6.6861 8.12216 6.58913 8.16353 6.56135 8.17837C6.53472 8.19321 6.44617 8.25161 6.46438 8.37936C6.75415 10.4534 7.62213 15.1544 9.83406 18.5432Z" fill="white"/>
<path d="M17.8359 10.285C17.8061 10.4629 17.7802 10.641 17.7581 10.8189C17.6245 10.7098 17.4883 10.6035 17.349 10.5008C14.1785 8.13939 9.78448 7.21281 7.84549 6.90355C7.72598 6.88384 7.67135 6.97874 7.65746 7.0072C7.64358 7.03689 7.60488 7.14055 7.69161 7.23325L12.3301 12.1914C12.4009 12.2674 12.5163 12.2674 12.5871 12.1914L13.1847 11.5527C13.2557 11.477 13.2557 11.3537 13.1847 11.278L10.8145 8.74453C10.7437 8.66886 10.6283 8.66886 10.5575 8.74453C10.4867 8.82021 10.4867 8.94357 10.5575 9.01924L12.4549 11.0473C12.5423 11.1408 12.5423 11.2921 12.4549 11.3856C12.3675 11.479 12.2256 11.479 12.1382 11.3856L10.2409 9.35746C9.99527 9.09492 9.99527 8.66861 10.2409 8.40607C10.4858 8.14425 10.8853 8.14352 11.1309 8.40607L13.5011 10.9395C13.746 11.2014 13.746 11.6291 13.5011 11.8909L12.9035 12.5299C12.6579 12.7924 12.2584 12.7917 12.0135 12.5299L7.3752 7.57172C7.17966 7.3627 7.13276 7.05684 7.25796 6.79284C7.38202 6.52883 7.63902 6.38674 7.91195 6.43078C9.84981 6.74004 14.1983 7.65688 17.4346 9.98474C17.57 10.0821 17.7043 10.1821 17.8359 10.285Z" fill="white"/>
<path d="M45.6736 24.5316H39.1138C38.7669 24.5316 38.4846 24.2299 38.4846 23.8591V22.9549C38.4846 22.5841 38.7669 22.2824 39.1138 22.2824H42.4653C42.8129 22.2831 43.0951 22.5848 43.0951 22.9556C43.0951 23.3264 42.8129 23.6282 42.466 23.6282L39.7824 23.6274C39.659 23.6282 39.5584 23.5206 39.5589 23.3885C39.5589 23.2559 39.6588 23.1491 39.7824 23.1496L42.466 23.1488C42.5659 23.1488 42.6476 23.0615 42.6476 22.9547C42.6476 22.8478 42.5659 22.7605 42.466 22.7605L39.1138 22.7612C39.0132 22.7605 38.9315 22.8478 38.9322 22.9554V23.8581C38.9322 23.9652 39.0139 24.0523 39.1138 24.0523H45.6738C45.7958 24.053 45.837 23.9508 45.8466 23.9189C45.8566 23.8878 45.8803 23.7802 45.7826 23.7031C44.2069 22.4561 40.4851 19.789 36.6811 19.063C36.5145 19.0311 36.3488 19.0026 36.1821 18.979C35.725 18.9126 35.2675 18.8768 34.814 18.8768C29.2723 18.8768 23.9361 24.2572 23.7387 24.4589L23.7312 24.4669C23.7269 24.4715 23.7219 24.4757 23.7166 24.4798C23.7007 24.4939 23.6825 24.5053 23.6634 24.5136C23.6622 24.5136 23.6609 24.5151 23.6595 24.5151C23.6474 24.5197 23.6349 24.5238 23.6222 24.5265C23.5805 24.536 23.5366 24.5311 23.4967 24.5143C23.491 24.5124 23.4847 24.5097 23.479 24.5063C23.4708 24.5014 23.463 24.4976 23.4555 24.492C23.4441 24.4839 23.4332 24.4749 23.4239 24.465C23.4232 24.4642 23.4232 24.4642 23.4227 24.4637L23.4164 24.4569C23.4082 24.4479 23.4011 24.4394 23.3954 24.4292C23.3936 24.427 23.3916 24.4251 23.3909 24.4231C23.3877 24.4182 23.3845 24.4136 23.3827 24.4087C23.3654 24.3769 23.3567 24.3418 23.3547 24.3061C23.354 24.3012 23.354 24.2973 23.354 24.2917C23.354 24.2469 23.3654 24.2024 23.3888 24.164C23.3963 24.1503 23.4052 24.1382 23.4162 24.1267L23.4218 24.1207C23.4318 24.1099 24.1384 23.3829 25.295 22.4566C25.7642 22.0797 26.3087 21.6697 26.9101 21.2623C28.8395 19.9564 31.7769 18.3984 34.8131 18.3984C35.3665 18.3984 35.9238 18.45 36.4794 18.5432C36.6408 18.5697 36.8022 18.6002 36.9631 18.634C40.7919 19.4338 44.4737 22.0716 46.0487 23.3179C46.2704 23.4939 46.3583 23.7883 46.2716 24.0691C46.1851 24.3503 45.9504 24.5309 45.6736 24.5316Z" fill="white"/>
<path d="M46.0485 26.1758C44.4728 27.4216 40.7908 30.0607 36.9622 30.8605C36.8015 30.8943 36.6406 30.9242 36.4792 30.9505C35.9233 31.0437 35.3663 31.0953 34.8143 31.0953C31.7767 31.0953 28.84 29.5383 26.9106 28.2309C26.3194 27.8304 25.7831 27.4277 25.3189 27.0573C24.3852 26.3111 23.7401 25.6904 23.5129 25.465C23.4553 25.4076 23.4243 25.3757 23.4223 25.3738C23.3774 25.3271 23.354 25.2641 23.354 25.202C23.354 25.1967 23.354 25.1911 23.3547 25.1864V25.1784C23.3597 25.1271 23.3806 25.0762 23.4173 25.0356C23.5033 24.9409 23.6451 24.9383 23.7337 25.0302C23.7376 25.0344 23.7703 25.0682 23.83 25.1263C24.5814 25.8673 29.6099 30.6169 34.8136 30.6169C35.2668 30.6169 35.7246 30.5811 36.1824 30.5142C36.3481 30.4911 36.514 30.4626 36.6804 30.431C40.4846 29.7049 44.2065 27.0381 45.7826 25.7916C45.88 25.7145 45.8561 25.6062 45.8466 25.5758C45.8373 25.5439 45.796 25.4417 45.6738 25.4412H39.1138C39.0139 25.4412 38.9322 25.5286 38.9322 25.6354V26.5396C38.9322 26.6466 39.0139 26.7337 39.1138 26.7337H42.4653C42.5659 26.733 42.6469 26.6464 42.6476 26.5388C42.6476 26.432 42.5659 26.3447 42.466 26.3447L39.7824 26.3454C39.659 26.3447 39.5589 26.2378 39.5584 26.106C39.5591 25.9741 39.659 25.867 39.7824 25.8663L42.466 25.867C42.8129 25.867 43.0954 26.1687 43.0954 26.5396C43.0954 26.9104 42.8131 27.2123 42.466 27.2123H39.1134C38.7665 27.2123 38.4842 26.9106 38.4842 26.5396L38.4849 25.6361C38.4849 25.2653 38.7671 24.9636 39.1141 24.9636H45.6738C45.9504 24.9628 46.1853 25.1448 46.272 25.4256C46.3581 25.7055 46.2707 26.0004 46.0485 26.1758Z" fill="white"/>
<path d="M23.7868 49.4466C23.5241 49.3539 23.3538 49.1028 23.3545 48.8072V41.7953C23.3545 41.4245 23.6368 41.1228 23.9837 41.1228L24.8289 41.1221C25.1758 41.1221 25.4581 41.4238 25.4574 41.7953L25.4581 45.3785C25.4581 45.7493 25.1758 46.0513 24.8289 46.0513C24.482 46.0513 24.1995 45.7493 24.1995 45.3785L24.1988 42.5102C24.1993 42.3783 24.2994 42.2713 24.4228 42.2706C24.5462 42.2713 24.6463 42.3781 24.647 42.5102L24.6463 45.3785C24.6463 45.4853 24.7281 45.5727 24.828 45.5727C24.9286 45.572 25.0096 45.4853 25.0103 45.3778V41.7953C25.0103 41.6885 24.9286 41.6012 24.8287 41.6012H23.9828C23.8829 41.6012 23.8011 41.6885 23.8011 41.7953V48.8072C23.8018 48.9378 23.8974 48.9819 23.927 48.9918C23.9555 49.0021 24.0568 49.0276 24.1289 48.9235C25.2951 47.2385 27.79 43.2616 28.4685 39.1962C28.4984 39.0181 28.525 38.8409 28.5471 38.6628C28.6092 38.173 28.6434 37.6844 28.6434 37.1985C28.6434 31.6522 24.2259 26.2928 23.5123 25.4652C23.4547 25.3969 23.4205 25.3589 23.4167 25.355C23.3743 25.3083 23.3527 25.2475 23.3541 25.1864V25.1784C23.3559 25.1195 23.3786 25.0613 23.4219 25.0166C23.5104 24.9246 23.6523 24.9273 23.7383 25.0219C23.7401 25.0239 23.772 25.0591 23.8294 25.1261C24.0465 25.3757 24.6245 26.0638 25.3183 27.0573C25.6641 27.5512 26.0381 28.1218 26.411 28.7503C27.634 30.813 29.0907 33.9521 29.0907 37.199C29.0907 37.7905 29.0426 38.3859 28.9559 38.9806C28.9306 39.1524 28.9022 39.3249 28.8703 39.4969C28.1221 43.5896 25.6543 47.5239 24.4884 49.2074C24.3249 49.4454 24.0488 49.5386 23.7868 49.4466Z" fill="white"/>
<path d="M22.5184 49.4467C22.2557 49.5394 21.9803 49.4453 21.8157 49.2085C20.6509 47.5262 18.1856 43.5948 17.4349 39.506C17.4032 39.3342 17.3748 39.1615 17.3495 38.9897C17.2621 38.3916 17.2134 37.7928 17.2134 37.1986C17.2134 33.9532 18.6707 30.8133 19.8924 28.7507C20.266 28.1215 20.6413 27.5496 20.9876 27.055C21.6803 26.0644 22.2576 25.3768 22.4747 25.1271C22.5323 25.0602 22.5646 25.0242 22.5667 25.0223C22.5881 24.9979 22.614 24.9797 22.6413 24.9668H22.6425C22.7217 24.9322 22.8166 24.9485 22.8817 25.0169C22.9254 25.0622 22.9493 25.1218 22.95 25.1819C22.95 25.186 22.9507 25.1894 22.95 25.1928C22.9493 25.2517 22.9291 25.3099 22.8879 25.3551C22.8842 25.3593 22.8505 25.3965 22.7936 25.4641C22.0839 26.2863 17.6607 31.6504 17.6607 37.1993C17.6607 37.6879 17.6944 38.1799 17.7577 38.6724C17.7804 38.8498 17.8064 39.0277 17.8367 39.205C18.518 43.268 21.0103 47.2408 22.1756 48.9238C22.2478 49.028 22.3484 49.0029 22.3775 48.9922C22.4067 48.9815 22.5029 48.9382 22.5023 48.8075V41.7957C22.5023 41.6889 22.4205 41.6015 22.3206 41.6015H21.4761C21.3755 41.6008 21.2937 41.6881 21.2944 41.7957L21.2937 45.3789C21.2937 45.4857 21.3755 45.573 21.4754 45.573C21.5753 45.573 21.6571 45.4857 21.6571 45.3789L21.6577 42.5106C21.6571 42.3787 21.7577 42.2709 21.8813 42.2716C22.0053 42.2716 22.1053 42.3784 22.1048 42.5106L22.1055 45.3789C22.1055 45.7497 21.8232 46.0516 21.4761 46.0516C21.1289 46.0516 20.8469 45.7497 20.8462 45.3781V41.7957C20.8462 41.4249 21.1285 41.1231 21.4756 41.1231H22.3215C22.6684 41.1231 22.9507 41.4249 22.9507 41.7957V48.8075C22.9502 49.1032 22.7813 49.354 22.5184 49.4467Z" fill="white"/>
<path d="M22.8827 25.3748C22.8809 25.3768 22.8504 25.4079 22.7942 25.4641C22.5677 25.6875 21.9237 26.308 20.9881 27.055C20.5235 27.4273 19.9868 27.8305 19.3947 28.2317C17.4653 29.5376 14.5276 31.0956 11.4914 31.0956C10.9406 31.0956 10.3849 31.0442 9.83086 30.9515C9.66878 30.9258 9.50875 30.8953 9.34781 30.8615C5.5165 30.0629 1.83224 27.4224 0.255867 26.1761C0.0906039 26.0454 0 25.8486 0 25.6415C0 25.5697 0.0107065 25.4972 0.0334699 25.4257C0.120199 25.1449 0.354435 24.9634 0.631011 24.9629H7.19076C7.53767 24.9629 7.81993 25.2646 7.82062 25.6362L7.81994 26.5394C7.81994 26.9102 7.53767 27.2122 7.19076 27.2122H3.83929C3.49238 27.2122 3.2101 26.9104 3.20942 26.5389C3.20942 26.1681 3.49169 25.8661 3.83883 25.8661L6.52242 25.8668C6.64579 25.8661 6.74663 25.9737 6.74595 26.1058C6.74595 26.2384 6.64602 26.3452 6.52242 26.3447L3.83883 26.3455C3.7389 26.3455 3.65719 26.4328 3.65719 26.5396C3.65719 26.6467 3.7389 26.7338 3.83883 26.7338H7.19144C7.2916 26.7338 7.37309 26.6464 7.37309 26.5396L7.37241 25.6364C7.37241 25.5293 7.29069 25.4422 7.19076 25.4422H0.631011C0.508771 25.4415 0.468244 25.5444 0.458228 25.5756C0.448213 25.6067 0.424765 25.7143 0.522876 25.7921C2.09856 27.0392 5.82359 29.7082 9.62895 30.433C9.79558 30.4649 9.96198 30.4926 10.1284 30.5162C10.5836 30.5819 11.0387 30.6177 11.4908 30.6177C16.6984 30.6177 21.7236 25.8673 22.475 25.1279C22.5351 25.069 22.5675 25.0359 22.5713 25.0318C22.6606 24.939 22.8017 24.9412 22.888 25.0371C22.9253 25.0785 22.9463 25.1303 22.9506 25.1826C22.9506 25.1868 22.9513 25.1902 22.9506 25.1933C22.9538 25.2585 22.931 25.3247 22.8827 25.3748Z" fill="white"/>
<path d="M22.8905 24.4586L22.8805 24.4693C22.8759 24.4742 22.8709 24.4781 22.8659 24.4822C22.8559 24.4917 22.8445 24.4998 22.8325 24.5058C22.8275 24.5085 22.8224 24.5112 22.8179 24.5134C22.7603 24.5411 22.6945 24.5411 22.6369 24.5134C22.6324 24.5114 22.6274 24.5085 22.6221 24.5058C22.611 24.499 22.5987 24.4917 22.5887 24.4822C22.5836 24.4781 22.5786 24.4742 22.5741 24.4693L22.5666 24.4613C22.3697 24.2603 17.0298 18.88 11.4917 18.88C11.041 18.88 10.5864 18.915 10.1318 18.9814C9.96542 19.0053 9.79947 19.0321 9.63307 19.0639C5.82588 19.7881 2.10042 22.4576 0.522683 23.7053C0.425256 23.7824 0.449158 23.8907 0.458036 23.9219C0.468052 23.953 0.509259 24.0552 0.631499 24.0559H7.19147C7.2914 24.0559 7.37311 23.9686 7.37311 23.8618V22.9576C7.37311 22.8505 7.2914 22.7634 7.19147 22.7634L3.83932 22.7641C3.73939 22.7641 3.65834 22.8508 3.65766 22.9583C3.65766 23.0651 3.73939 23.1525 3.83932 23.1525L6.5229 23.1517C6.64628 23.1525 6.74644 23.2593 6.74712 23.3912C6.74644 23.5231 6.64628 23.6301 6.5229 23.6309H3.84C3.4924 23.6301 3.21014 23.3284 3.21014 22.9573C3.21014 22.5865 3.4924 22.2848 3.83954 22.2848L7.19169 22.2855C7.53906 22.2848 7.82155 22.5868 7.82087 22.9581V23.8608C7.82155 24.2323 7.53906 24.5341 7.19169 24.5333H0.631721C0.355145 24.5341 0.120228 24.3521 0.0334997 24.0713C0.0111915 24.0002 0.00117118 23.9272 0.000488281 23.8559C0.00117118 23.6481 0.0915506 23.4513 0.256813 23.3206C1.83318 22.0741 5.5188 19.4323 9.3508 18.6345C9.51151 18.6006 9.6729 18.5702 9.83452 18.544C10.3879 18.452 10.9417 18.4011 11.4913 18.4014C14.5288 18.4014 17.4655 19.9584 19.395 21.2658C19.9957 21.6726 20.5395 22.0819 21.0086 22.4573C22.1666 23.3851 22.8737 24.1126 22.8832 24.1226L22.8907 24.1306C22.8951 24.1353 22.8989 24.1409 22.9028 24.1462C22.9117 24.1569 22.9192 24.1691 22.9251 24.182C22.9276 24.1873 22.9301 24.1929 22.9319 24.1975C22.9579 24.2591 22.9579 24.3294 22.9319 24.391C22.9301 24.3959 22.9276 24.4012 22.9251 24.4066C22.9187 24.4187 22.9117 24.4316 22.9028 24.4423C22.8987 24.4484 22.8948 24.4538 22.8905 24.4586Z" fill="white"/>
<path d="M22.8899 24.4567L22.8799 24.4674C22.8753 24.4723 22.8703 24.4761 22.8653 24.4803C22.8553 24.4898 22.8439 24.4978 22.8319 24.5039C22.8269 24.5066 22.8218 24.5092 22.8173 24.5114C22.7597 24.5392 22.6939 24.5392 22.6363 24.5114C22.6318 24.5095 22.6268 24.5066 22.6215 24.5039C22.6104 24.4971 22.5981 24.4898 22.5881 24.4803C22.583 24.4761 22.578 24.4723 22.5735 24.4674L22.566 24.4594C22.5564 24.4491 21.876 23.6934 21.008 22.4556C20.6566 21.9544 20.2737 21.3728 19.8931 20.7307C18.67 18.6683 17.2134 15.5289 17.2134 12.2823C17.2134 11.6908 17.2614 11.0954 17.3481 10.5007C17.3734 10.3289 17.4019 10.1561 17.4335 9.98434C18.1817 5.89165 20.6495 1.95762 21.8157 0.273823C21.9796 0.0363403 22.2557 -0.057098 22.5177 0.0348779C22.7804 0.127584 22.9507 0.378451 22.95 0.674331V7.68616C22.9507 8.05771 22.6684 8.35943 22.3208 8.35894L21.4756 8.35968C21.1287 8.35968 20.8462 8.05795 20.8462 7.68713V4.10299C20.8462 3.73217 21.1285 3.43044 21.4756 3.43044C21.8228 3.43044 22.105 3.73216 22.1055 4.10372V6.97152C22.1048 7.1034 22.0046 7.21046 21.8815 7.21095C21.7581 7.21022 21.6579 7.1034 21.6573 6.97152L21.6579 4.10299C21.6579 3.99617 21.5762 3.90882 21.4763 3.90882C21.3757 3.90955 21.2946 3.99617 21.2939 4.10372V7.68616C21.2939 7.79298 21.3757 7.88033 21.4756 7.88033H22.3215C22.4214 7.88033 22.5031 7.79298 22.5031 7.68616V0.674331C22.5025 0.543667 22.4069 0.499868 22.3773 0.489649C22.3488 0.479429 22.2475 0.453882 22.1754 0.558024C21.0092 2.24303 18.5143 6.21989 17.8351 10.2848C17.8052 10.463 17.7793 10.6408 17.757 10.8187C17.6944 11.308 17.6609 11.7971 17.6609 12.283C17.6609 18.2026 22.6944 23.9107 22.8824 24.1211L22.8899 24.1292C22.8942 24.1338 22.8981 24.1394 22.902 24.1447C22.9108 24.1554 22.9184 24.1676 22.9243 24.1805C22.9268 24.1859 22.9293 24.1915 22.9311 24.1961C22.9571 24.2576 22.9571 24.328 22.9311 24.3895C22.9293 24.3944 22.9268 24.3997 22.9243 24.4051C22.9179 24.4173 22.9108 24.4302 22.902 24.4409C22.8981 24.4465 22.8942 24.4518 22.8899 24.4567Z" fill="white"/>
<path d="M23.7382 24.4603L23.7307 24.4684C23.7263 24.473 23.7213 24.4771 23.7161 24.4813C23.7002 24.4956 23.682 24.5071 23.6628 24.5151C23.6615 24.5151 23.6603 24.5163 23.659 24.5163C23.6469 24.5209 23.6344 24.5251 23.6216 24.5277C23.5797 24.5372 23.536 24.5326 23.4962 24.5156C23.4905 24.5136 23.4841 24.5107 23.4784 24.5075C23.4703 24.5027 23.4625 24.4988 23.455 24.4932C23.4436 24.4852 23.4327 24.4762 23.4234 24.4662C23.4227 24.4657 23.4227 24.4657 23.4222 24.465L23.4159 24.4581C23.4077 24.4494 23.4006 24.4406 23.3949 24.4304C23.3929 24.4282 23.391 24.4263 23.3904 24.4243C23.3872 24.4197 23.384 24.4148 23.3822 24.4102C23.3651 24.3783 23.3562 24.3433 23.3544 24.3073C23.3537 24.3027 23.3537 24.2985 23.3537 24.2929C23.3537 24.2484 23.3651 24.2036 23.3885 24.1652C23.396 24.1516 23.4049 24.1394 23.4159 24.128L23.4215 24.1219C23.6089 23.9107 28.643 18.2023 28.643 12.2825C28.643 11.7993 28.61 11.3122 28.5481 10.825C28.5258 10.6469 28.4998 10.4691 28.4707 10.2905C27.7921 6.22356 25.2954 2.24329 24.1286 0.559014C24.0557 0.454142 23.9551 0.479205 23.926 0.489911C23.8968 0.50086 23.8006 0.544173 23.8012 0.674593V7.68642C23.8012 7.79324 23.883 7.88059 23.9829 7.88059L24.8281 7.88132C24.928 7.88132 25.0097 7.79397 25.0091 7.68642L25.0097 4.10325C25.0097 3.99643 24.928 3.90908 24.8281 3.90908C24.7282 3.90908 24.6464 3.99643 24.6464 4.10325L24.646 6.97178C24.6464 7.10366 24.5458 7.21121 24.4225 7.21072C24.2988 7.21145 24.1982 7.1039 24.1989 6.97178L24.1982 4.10325C24.1982 3.73243 24.4805 3.43046 24.8274 3.43046C25.175 3.43119 25.4573 3.73291 25.4573 4.10374V7.68617C25.4573 8.057 25.175 8.35872 24.8281 8.35872L23.9829 8.35945C23.6353 8.35872 23.353 8.057 23.353 7.68617V0.674352C23.3537 0.378715 23.5226 0.127606 23.786 0.0356305C24.048 -0.0578053 24.3234 0.03636 24.488 0.273113C25.6542 1.95812 28.1235 5.89581 28.8713 9.98898C28.903 10.161 28.9314 10.3333 28.956 10.506C29.0427 11.0995 29.0903 11.6942 29.0903 12.283C29.0903 15.5285 27.633 18.6683 26.4111 20.7309C26.03 21.3738 25.6462 21.9558 25.2943 22.458C24.4277 23.6936 23.7477 24.4489 23.7382 24.4603Z" fill="white"/>
<path d="M136.864 15.7444C136.865 14.2283 138.016 12.9988 139.433 13C140.852 13.0012 142.002 14.2315 142 15.7466C141.998 17.2635 140.846 18.493 139.43 18.4899C138.011 18.4869 136.864 17.2591 136.864 15.7444ZM137.386 15.7457C137.386 16.9533 138.302 17.9319 139.432 17.9326C140.562 17.9334 141.479 16.9525 141.479 15.7444C141.478 14.5366 140.563 13.5582 139.433 13.5575C138.302 13.557 137.385 14.5373 137.386 15.7457Z" fill="white"/>
<path d="M138.307 17.1178C138.307 16.1603 138.307 15.2045 138.307 14.2468C138.314 14.2463 138.32 14.2453 138.326 14.2453C138.691 14.2456 139.055 14.2441 139.419 14.2465C139.596 14.2478 139.77 14.2667 139.939 14.3285C140.068 14.376 140.182 14.4473 140.265 14.5668C140.328 14.6568 140.362 14.7597 140.377 14.8699C140.397 15.0162 140.395 15.1617 140.356 15.3045C140.3 15.5077 140.171 15.6413 139.995 15.7269C139.957 15.7449 139.918 15.7595 139.879 15.7761C139.893 15.7809 139.906 15.7853 139.919 15.7902C140.033 15.8323 140.12 15.9123 140.192 16.0121C140.257 16.1019 140.307 16.2009 140.354 16.3021C140.476 16.5659 140.599 16.8297 140.722 17.0932C140.725 17.1005 140.728 17.1083 140.732 17.1187C140.723 17.1187 140.716 17.1187 140.709 17.1187C140.479 17.1187 140.248 17.1185 140.018 17.1192C140.001 17.1192 139.993 17.1134 139.985 17.0973C139.874 16.8545 139.763 16.6114 139.649 16.3698C139.621 16.3107 139.586 16.2552 139.55 16.2012C139.485 16.1041 139.393 16.0496 139.283 16.0389C139.19 16.0299 139.097 16.0321 139 16.0291C139 16.3941 139 16.755 139 17.1173C138.768 17.1178 138.539 17.1178 138.307 17.1178ZM139.001 15.5211C139.006 15.5216 139.009 15.522 139.013 15.522C139.117 15.522 139.22 15.5242 139.324 15.5208C139.376 15.5189 139.429 15.5111 139.48 15.4977C139.586 15.47 139.657 15.4001 139.684 15.2841C139.703 15.2009 139.704 15.1167 139.687 15.0332C139.666 14.924 139.609 14.8468 139.507 14.814C139.478 14.8047 139.448 14.7945 139.418 14.7935C139.28 14.7887 139.143 14.787 139.006 14.7843C139.004 14.7843 139.003 14.7855 139.001 14.7867C139.001 15.0303 139.001 15.2746 139.001 15.5211Z" fill="white"/>
</svg>
