<svg width="80" height="103" viewBox="0 0 80 103" fill="none" xmlns="http://www.w3.org/2000/svg">
<path d="M78.1344 99.1258H74.514C74.5286 99.0812 74.5328 99.0398 74.5447 99.0372C75.2545 98.876 75.4624 98.4856 75.21 97.7464C74.9109 96.869 74.5925 95.9992 74.2961 95.1208C74.2249 94.9099 74.1272 94.8215 73.9129 94.823C72.5809 94.8312 71.2489 94.8335 69.9171 94.8211C69.6792 94.819 69.5824 94.9301 69.5064 95.143C69.2039 95.9906 68.8891 96.8331 68.5826 97.6792C68.2992 98.4619 68.4807 98.8485 69.2256 99.1038H66.0723C66.0774 99.0852 66.0818 99.0419 66.0907 99.0408C66.9249 98.9394 67.4072 98.4131 67.7206 97.6067C69.0716 94.1303 70.4445 90.6637 71.8063 87.192C71.8935 86.9698 71.9546 86.736 72.0557 86.4209C72.1522 86.6225 72.2269 86.7557 72.2823 86.8977C73.7025 90.5337 75.1187 94.1713 76.5408 97.8064C76.8098 98.4934 77.2721 98.9339 77.9914 99.0123C78.0272 99.0161 78.062 99.0347 78.0961 99.0497C78.1042 99.0529 78.1069 99.0696 78.1344 99.1258ZM73.9933 94.3039C73.3127 92.3648 72.6614 90.5096 72.0102 88.6544C71.9699 88.662 71.9295 88.6696 71.8894 88.6772C71.2101 90.532 70.5309 92.3865 69.8287 94.3036H73.9933V94.3039Z" fill="#16AB7D"/>
<path d="M78.1339 99.4144H74.5133C74.4257 99.4144 74.3435 99.369 74.293 99.2925C74.2424 99.216 74.2296 99.1181 74.2588 99.0297C74.2616 99.0213 74.2634 99.013 74.2654 99.0057C74.3007 98.8642 74.3759 98.7799 74.4886 98.7545C74.7627 98.6924 74.9355 98.5958 75.0017 98.4679C75.0684 98.3392 75.053 98.1295 74.9561 97.845C74.8175 97.4388 74.6721 97.0268 74.5317 96.6282C74.3692 96.1672 74.2011 95.6906 74.0419 95.2186C74.0055 95.1108 74.0022 95.1099 73.9142 95.1114C72.353 95.1211 71.0821 95.1205 69.9145 95.1095C69.8215 95.1085 69.8075 95.1087 69.7585 95.2458C69.5795 95.747 69.3934 96.2541 69.2137 96.7444C69.0867 97.0904 68.9598 97.4365 68.8344 97.7831C68.7209 98.0966 68.6966 98.3181 68.7605 98.4605C68.8245 98.6038 69.0037 98.7243 69.3082 98.8287C69.435 98.8723 69.5131 99.0078 69.4925 99.1481C69.4719 99.2885 69.3586 99.392 69.2258 99.392H66.0722C65.987 99.392 65.9069 99.3491 65.8561 99.2764C65.8066 99.2058 65.7902 99.1149 65.8112 99.03C65.8551 98.8013 66.0004 98.7607 66.0611 98.7535C66.7295 98.6721 67.1647 98.284 67.4714 97.4954C68.3697 95.1837 69.293 92.8379 70.1858 90.5693C70.6435 89.4064 71.1011 88.2434 71.5575 87.0799C71.6109 86.9442 71.6556 86.7968 71.7074 86.6265C71.7355 86.5343 71.7655 86.4352 71.8003 86.3268C71.8355 86.2173 71.9285 86.1408 72.0364 86.1325C72.1448 86.1247 72.2468 86.1858 72.2961 86.2889C72.3285 86.3566 72.3585 86.4164 72.3858 86.4715C72.4418 86.5836 72.4902 86.6804 72.5314 86.7861C73.101 88.2445 73.6701 89.7031 74.239 91.1618C75.0885 93.3397 75.9382 95.5177 76.7899 97.6945C77.0363 98.3246 77.4383 98.6613 78.0188 98.7245C78.0894 98.7321 78.1468 98.7586 78.1847 98.7759L78.1994 98.7824C78.3014 98.827 78.3398 98.9158 78.3562 98.9537C78.3602 98.9625 78.3655 98.975 78.374 98.9925C78.4175 99.082 78.4141 99.1893 78.3651 99.2754C78.3161 99.3614 78.2281 99.4144 78.1339 99.4144ZM66.123 99.3274L66.1208 99.3276L66.123 99.3274ZM74.6015 99.3193C74.6011 99.3193 74.6005 99.3195 74.6001 99.3197C74.6007 99.3195 74.6011 99.3193 74.6015 99.3193ZM77.9878 99.314C77.9898 99.3149 77.9916 99.3157 77.9934 99.3166L77.9878 99.314ZM77.9635 99.299H77.9639H77.9635ZM75.4209 98.8374H76.8969C76.645 98.6106 76.4425 98.3037 76.2916 97.9175C75.4397 95.7404 74.59 93.5623 73.7405 91.3842C73.194 89.9832 72.6474 88.582 72.1003 87.1813C72.0859 87.2223 72.0708 87.2629 72.055 87.3035C71.5986 88.4671 71.1409 89.6304 70.6831 90.7936C69.7905 93.0616 68.8676 95.4067 67.9697 97.7174C67.7876 98.1858 67.5542 98.5508 67.2655 98.8154H68.3284C68.3076 98.7814 68.2892 98.7461 68.2728 98.7097C68.1399 98.4119 68.1581 98.0515 68.3306 97.5753C68.4563 97.2278 68.5835 96.8812 68.7108 96.5343C68.8902 96.045 69.0759 95.5392 69.2538 95.0406C69.3175 94.8622 69.4312 94.6365 69.7027 94.5597C69.6641 94.5382 69.6307 94.5065 69.6054 94.467C69.5552 94.3881 69.5445 94.2879 69.5769 94.1991L71.6376 88.5725C71.6718 88.4791 71.7491 88.4113 71.8419 88.3937L71.9627 88.3709C72.091 88.3466 72.2169 88.4233 72.2626 88.5537L74.2458 94.2032C74.2768 94.2917 74.2654 94.3911 74.2149 94.4689C74.1898 94.5075 74.1568 94.5386 74.1188 94.56C74.3239 94.6158 74.4631 94.7669 74.5495 95.0235C74.7075 95.4917 74.875 95.9664 75.0367 96.4255C75.1779 96.8254 75.3237 97.239 75.4633 97.648C75.6185 98.1029 75.6221 98.4629 75.4741 98.7484C75.4579 98.7789 75.4403 98.8089 75.4209 98.8374ZM70.2239 94.0155H73.6033L71.9494 89.3041L70.2239 94.0155Z" fill="#16AB7D"/>
<path d="M49.4022 99.1288H46.2251C46.2364 99.0876 46.2401 99.0464 46.2486 99.0451C47.0797 98.9365 47.566 98.4127 47.8802 97.6061C49.1948 94.2314 50.5323 90.8671 51.8569 87.4968C51.9825 87.1777 52.0772 86.8448 52.2233 86.4072C52.3851 86.7983 52.5142 87.0954 52.6323 87.3975C53.9892 90.87 55.3425 94.3445 56.7015 97.8162C56.9649 98.4888 57.4207 98.9183 58.1192 99.0113C58.1712 99.0183 58.2208 99.0449 58.2605 99.1218H54.6162C54.706 99.065 54.7453 99.0236 54.7906 99.014C55.3457 98.8967 55.61 98.4856 55.4265 97.9232C55.1097 96.9522 54.7617 95.9925 54.4072 95.0363C54.3706 94.9376 54.2011 94.8372 54.0926 94.8361C52.7357 94.8226 51.3786 94.8216 50.0217 94.8387C49.9106 94.8402 49.7447 94.9725 49.7004 95.0866C49.3468 95.9997 49.0071 96.9192 48.6822 97.8443C48.4631 98.4696 48.6644 98.7932 49.4022 99.1288ZM52.1648 88.6441C52.1268 88.6494 52.0889 88.6549 52.0509 88.6604C51.3693 90.5249 50.6877 92.3896 49.9901 94.2976H54.1464C53.4711 92.3716 52.818 90.5078 52.1648 88.6441Z" fill="#16AB7D"/>
<path d="M49.4025 99.4176H46.2254C46.1406 99.4176 46.0607 99.3749 46.0097 99.3024C45.9587 99.2299 45.9427 99.1361 45.9662 99.049C45.9686 99.0403 45.9701 99.0317 45.9717 99.0241C46.0148 98.8159 46.1434 98.7687 46.2159 98.759C46.889 98.6711 47.3255 98.2813 47.6316 97.4955C48.4749 95.3304 49.3418 93.1339 50.1802 91.0094C50.657 89.8017 51.1335 88.5939 51.6087 87.3853C51.6884 87.1828 51.7564 86.9704 51.8349 86.7246C51.876 86.5963 51.92 86.4595 51.9696 86.3105C52.0068 86.1993 52.1036 86.1235 52.2138 86.1192C52.3237 86.1165 52.426 86.1828 52.4707 86.2909C52.5246 86.4206 52.5747 86.5403 52.6219 86.6529C52.7184 86.8831 52.8019 87.0816 52.8818 87.2866C53.4 88.6129 53.9179 89.9397 54.4356 91.2664C55.2734 93.4131 56.1112 95.5595 56.951 97.7051C57.1901 98.3156 57.5832 98.6493 58.1529 98.7254C58.3014 98.7451 58.4207 98.8343 58.4974 98.9831C58.5437 99.0725 58.5421 99.1811 58.4934 99.2693C58.445 99.3572 58.3566 99.4111 58.2611 99.4111H54.6167C54.4949 99.4111 54.3885 99.324 54.3563 99.1987C54.3243 99.0733 54.3745 98.9404 54.4791 98.8742C54.5068 98.8567 54.5285 98.841 54.5471 98.8275C54.5985 98.7905 54.6569 98.7487 54.7389 98.7315C54.8859 98.7005 55.0796 98.629 55.1676 98.4648C55.2295 98.3494 55.2309 98.1993 55.1722 98.019C54.8467 97.0214 54.4813 96.0188 54.1653 95.1668C54.1453 95.1495 54.1054 95.1281 54.0852 95.1254C52.6395 95.1114 51.3133 95.1121 50.0375 95.1279C50.0096 95.1391 49.9607 95.1799 49.9473 95.204C49.5955 96.1131 49.2542 97.0381 48.9353 97.9467C48.797 98.3401 48.8097 98.5457 49.5081 98.8636C49.6262 98.9173 49.6926 99.0526 49.6669 99.1868C49.6414 99.3212 49.5307 99.4176 49.4025 99.4176ZM47.3955 98.8406H48.5129C48.3213 98.5808 48.2574 98.2355 48.4298 97.744C48.751 96.8292 49.0946 95.8984 49.4512 94.9772C49.5154 94.8113 49.7013 94.6278 49.8994 94.5697C49.8464 94.5494 49.7998 94.5116 49.7672 94.4606C49.7169 94.3818 49.7063 94.2816 49.7387 94.1928L51.7997 88.5557C51.8355 88.4582 51.9178 88.3887 52.0151 88.3747L52.1294 88.3585C52.2541 88.3409 52.3736 88.4174 52.4177 88.5434L54.399 94.1966C54.4301 94.2852 54.4186 94.3845 54.3682 94.4623C54.335 94.5135 54.2877 94.5511 54.2341 94.571C54.4077 94.6219 54.5936 94.7563 54.6583 94.9307C54.9782 95.7933 55.3498 96.8121 55.6816 97.8288C55.822 98.2589 55.7342 98.5679 55.6359 98.7516C55.6207 98.7799 55.6042 98.8074 55.5864 98.834H57.0499C56.8006 98.6089 56.6008 98.3067 56.4527 97.9281C55.6127 95.7823 54.7749 93.6357 53.9371 91.4888C53.4192 90.1623 52.9015 88.8357 52.3833 87.5092C52.3421 87.4041 52.2998 87.2997 52.2549 87.1911C52.2071 87.3361 52.1594 87.4726 52.1058 87.6089C51.6307 88.8178 51.1539 90.0259 50.6772 91.2339C49.8389 93.3575 48.9724 95.5536 48.1295 97.7174C47.9416 98.1999 47.6984 98.573 47.3955 98.8406ZM50.3857 94.0092H53.7572L52.107 89.3009L50.3857 94.0092Z" fill="#16AB7D"/>
<path d="M20.4291 86.7322H23.3C23.3022 86.7523 23.3042 86.7723 23.3062 86.7922C23.2111 86.8098 23.1154 86.8246 23.0208 86.8451C22.5055 86.9569 22.2633 87.2686 22.2629 87.8345C22.2611 90.0718 22.2698 92.3091 22.259 94.5464C22.2532 95.6918 22.0541 96.7844 21.3549 97.7089C20.6683 98.6168 19.7726 99.1437 18.7018 99.3001C17.1203 99.5307 15.6335 99.3052 14.4095 98.0866C13.518 97.1993 13.1777 96.0507 13.1674 94.7878C13.1493 92.5778 13.1623 90.3675 13.1623 88.1572C13.1623 87.1245 13.0599 86.9903 12.1123 86.707H13.6994H15.2924C15.2949 86.7326 15.2975 86.758 15.3001 86.7838C15.1882 86.8049 15.076 86.8246 14.9643 86.8476C14.4935 86.9452 14.2113 87.2676 14.2107 87.7702C14.2083 90.1971 14.171 92.6258 14.2378 95.0508C14.2789 96.5426 14.8714 97.8252 16.1842 98.4937C18.3993 99.622 21.434 98.4111 21.5 94.9554C21.5453 92.5835 21.5117 90.2098 21.5067 87.8368C21.5054 87.1784 21.2606 86.9474 20.4291 86.7322Z" fill="#16AB7D"/>
<path d="M17.6688 99.6671C16.2798 99.6671 15.1466 99.2146 14.2249 98.2973C13.3559 97.4319 12.909 96.2519 12.8969 94.7898C12.8841 93.2306 12.8868 91.6457 12.8894 90.1133C12.8906 89.4612 12.8918 88.8087 12.8918 88.1567C12.8918 87.2563 12.8757 87.2345 12.0391 86.9844C11.9092 86.9458 11.8259 86.8103 11.8443 86.6674C11.8627 86.5245 11.9768 86.418 12.1119 86.418H15.2919C15.43 86.418 15.5456 86.5291 15.5603 86.6758L15.568 86.7526C15.583 86.9033 15.4863 87.0409 15.3465 87.0673L15.2427 87.0867C15.1668 87.1009 15.0908 87.1148 15.0153 87.1305C14.6606 87.204 14.4806 87.4192 14.4802 87.7701C14.4796 88.3799 14.4766 88.9899 14.4739 89.5999C14.4656 91.3849 14.4571 93.2308 14.5069 95.0418C14.536 96.0957 14.8704 97.5051 16.2996 98.2328C17.4016 98.7942 18.7037 98.7354 19.6978 98.0798C20.659 97.4457 21.203 96.3341 21.2295 94.9492C21.2627 93.2111 21.2532 91.4411 21.2441 89.7293C21.2407 89.0985 21.2374 88.4678 21.236 87.8369C21.235 87.3928 21.1634 87.2188 20.3648 87.0119C20.2319 86.9775 20.1441 86.8424 20.1603 86.6972C20.1765 86.552 20.2916 86.4429 20.4284 86.4429H23.2994C23.437 86.4429 23.5527 86.5535 23.5677 86.6997L23.5739 86.76C23.5897 86.9117 23.492 87.0502 23.3512 87.076C23.3202 87.0817 23.2891 87.0869 23.2583 87.0924C23.1968 87.1032 23.1353 87.1138 23.0742 87.1271C22.6844 87.2117 22.5326 87.4099 22.5322 87.8339C22.5316 88.6054 22.5322 89.3771 22.533 90.1488C22.5342 91.5903 22.5355 93.0809 22.5282 94.5474C22.5211 95.9676 22.2148 97.0295 21.5642 97.8897C20.8403 98.8468 19.8894 99.4173 18.7375 99.5853C18.3658 99.6399 18.0095 99.6671 17.6688 99.6671ZM13.2238 86.9952C13.3903 87.2406 13.4318 87.5892 13.4318 88.1569C13.4318 88.8094 13.4306 89.4621 13.4294 90.1146C13.4268 91.6457 13.4241 93.2289 13.4369 94.785C13.4478 96.1007 13.8259 97.1115 14.5929 97.8752C15.183 98.4623 15.8569 98.8327 16.6496 98.9956C16.4517 98.9311 16.2571 98.8506 16.0677 98.754C14.7606 98.0884 14.0147 96.776 13.9675 95.0589C13.9174 93.238 13.9259 91.3872 13.934 89.5974C13.9368 88.988 13.9398 88.3788 13.9404 87.7697C13.9408 87.4638 14.0268 87.2002 14.1852 86.9954H13.2238V86.9952ZM21.5571 87.0204C21.7009 87.2172 21.7754 87.4771 21.7762 87.8358C21.7776 88.4659 21.781 89.096 21.7843 89.7261C21.7934 91.4415 21.8029 93.2153 21.7695 94.961C21.7394 96.5296 21.1191 97.7999 20.0213 98.5441C20.4456 98.2943 20.8209 97.9546 21.1444 97.527C21.7139 96.7741 21.9821 95.8264 21.9884 94.5444C21.9957 93.0796 21.9943 91.5901 21.9931 90.1495C21.9925 89.3775 21.9918 88.6056 21.9925 87.8337C21.9927 87.5002 22.0665 87.2286 22.2128 87.0202H21.5571V87.0204Z" fill="#16AB7D"/>
<path d="M38.9171 99.1045C38.9171 99.0827 38.9143 99.0601 38.9175 99.059C40.0353 98.7065 40.1361 98.5612 40.1361 97.3004C40.1361 94.3569 40.1361 91.4136 40.1361 88.4701C40.1361 87.2932 39.9677 87.0563 38.8633 86.7549C39.0047 86.7358 39.082 86.716 39.1593 86.7162C40.6307 86.7219 42.1031 86.6972 43.5735 86.7458C45.3871 86.806 46.5597 88.1649 46.5839 90.0949C46.6139 92.4922 44.2814 94.2299 41.9468 93.1828C41.9142 93.1682 41.8913 93.1289 41.7987 93.0355C41.9496 93.0355 42.0356 93.0278 42.1203 93.0365C42.9583 93.1244 43.7423 92.9706 44.4198 92.4081C44.9889 91.9357 45.311 91.2989 45.3672 90.5333C45.4253 89.7417 45.3838 88.9597 44.975 88.2547C44.5835 87.5796 44.0138 87.2247 43.2753 87.2034C42.6793 87.1861 42.0823 87.2112 41.4863 87.1941C41.2259 87.1867 41.1681 87.2989 41.1685 87.5534C41.1745 90.9579 41.1701 94.3626 41.1745 97.7671C41.1755 98.5004 41.5688 98.9337 42.2688 99.0117C42.3168 99.017 42.3635 99.0356 42.4082 99.1045H38.9171Z" fill="#16AB7D"/>
<path d="M42.408 99.394H38.9169C38.7678 99.394 38.647 99.2651 38.647 99.1057L38.6466 99.0969C38.6361 98.8622 38.8044 98.795 38.8384 98.784C39.8469 98.4659 39.866 98.4382 39.866 97.3013V88.471C39.866 87.4234 39.7761 87.3027 38.7965 87.0352C38.6709 87.0009 38.5857 86.876 38.5938 86.7376C38.6019 86.5991 38.7008 86.4867 38.8293 86.4691C38.8772 86.4628 38.9173 86.456 38.9525 86.4503C39.026 86.4383 39.0893 86.4304 39.1599 86.4281C39.5908 86.4298 40.0217 86.429 40.4528 86.4279C41.4782 86.4256 42.5381 86.4235 43.5818 86.4579C45.5125 86.522 46.8275 87.9823 46.8538 90.0915C46.869 91.3086 46.3082 92.4462 45.3535 93.1346C44.3269 93.8748 43.0471 93.9896 41.8425 93.4493C41.7717 93.4178 41.7282 93.3696 41.6863 93.3231C41.6687 93.3037 41.6459 93.2783 41.6135 93.2456C41.5332 93.1644 41.5071 93.0391 41.548 92.9291C41.589 92.8192 41.6884 92.7472 41.7988 92.7472C41.85 92.7472 41.8937 92.7461 41.932 92.7453C42.0094 92.7438 42.0762 92.7423 42.1466 92.7497C42.9961 92.8387 43.6856 92.6527 44.2543 92.1805C44.7641 91.7575 45.0478 91.1957 45.0983 90.5109C45.1465 89.8542 45.1424 89.0907 44.7457 88.4067C44.3994 87.8098 43.9162 87.5105 43.268 87.4917C42.9739 87.4833 42.6722 87.4852 42.3807 87.4873C42.0859 87.4892 41.7808 87.4913 41.479 87.4826C41.4638 87.4822 41.4511 87.4822 41.4409 87.4828C41.4395 87.4993 41.4385 87.5221 41.4385 87.5528C41.4416 89.3999 41.4418 91.2471 41.442 93.0944C41.4422 94.6518 41.4424 96.2094 41.4444 97.7667C41.4452 98.3476 41.7238 98.6608 42.2967 98.7246C42.4355 98.7403 42.5476 98.8128 42.6301 98.9402C42.6872 99.0284 42.6937 99.1434 42.6471 99.2383C42.6006 99.3344 42.5083 99.394 42.408 99.394ZM40.0563 98.817H41.2453C41.0236 98.5568 40.905 98.2017 40.9046 97.7686C40.9026 96.2108 40.9024 94.6533 40.9022 93.0955C40.902 91.2486 40.9018 89.4018 40.8987 87.5549C40.8983 87.3981 40.9157 87.1998 41.0521 87.0573C41.0715 87.0371 41.0918 87.0195 41.113 87.0045C40.8919 87.0045 40.6722 87.0049 40.4539 87.0056C40.3153 87.006 40.1769 87.0062 40.0383 87.0064C40.3238 87.3042 40.4059 87.738 40.4061 88.4712V97.3015C40.4057 98.099 40.3442 98.5249 40.0563 98.817ZM44.1586 87.1093C44.5816 87.3008 44.9316 87.6333 45.2044 88.1038C45.6859 88.9341 45.6883 89.851 45.6363 90.557C45.5746 91.3984 45.2112 92.1177 44.5853 92.6372C44.2737 92.896 43.9348 93.0834 43.5636 93.201C44.0926 93.1638 44.6013 92.9814 45.0514 92.6567C45.8546 92.0775 46.3266 91.1217 46.3138 90.1C46.294 88.52 45.467 87.4021 44.1586 87.1093Z" fill="#16AB7D"/>
<path d="M15.7644 102.003C14.5178 102.247 13.3101 102.138 12.1438 101.55C10.8786 100.913 9.88264 99.9208 8.94298 98.8451C7.28177 96.9441 5.61244 95.0511 3.94787 93.1532C3.89724 93.0955 3.86047 93.0236 3.80273 92.9359C4.53121 91.9585 5.25651 90.9852 5.98241 90.0121C6.49614 89.3232 7.01461 88.6384 7.52359 87.9453C8.01201 87.2801 7.94873 87.0267 7.19001 86.7266H10.4484C10.4515 86.7435 10.4549 86.7604 10.4581 86.7773C10.3918 86.7969 10.3268 86.827 10.2593 86.8346C9.6232 86.9088 9.10689 87.2171 8.69105 87.7322C7.49017 89.2201 6.29188 90.7102 5.08092 92.1887C4.90118 92.4081 4.89485 92.5423 5.08507 92.7571C7.05456 94.9809 8.99122 97.2385 10.9882 99.4334C12.0635 100.615 13.3563 101.469 14.9098 101.777C15.1906 101.832 15.4765 101.857 15.7601 101.896C15.7612 101.932 15.7628 101.968 15.7644 102.003Z" fill="#16AB7D"/>
<path d="M14.5479 102.414C13.6611 102.414 12.829 102.214 12.0281 101.81C10.6685 101.125 9.60562 100.027 8.74505 99.0416C7.6909 97.8349 6.61539 96.6115 5.57528 95.428C4.96664 94.7356 4.3582 94.0431 3.75035 93.3501C3.70092 93.2939 3.66453 93.2347 3.62933 93.1776C3.6149 93.1539 3.59927 93.1288 3.58167 93.1019C3.51246 92.9971 3.51622 92.8561 3.59097 92.7557L4.2348 91.8918C4.74734 91.2043 5.2589 90.518 5.77045 89.8319C5.93813 89.6072 6.10641 89.3827 6.27449 89.1582C6.61559 88.7032 6.96817 88.2326 7.31026 87.7668C7.57819 87.4018 7.5687 87.2963 7.56415 87.2787C7.55941 87.2608 7.51432 87.1627 7.09531 86.9968C6.97271 86.9484 6.90014 86.8129 6.92327 86.6753C6.94641 86.5377 7.05833 86.4375 7.18904 86.4375H10.4474C10.5757 86.4375 10.6861 86.5339 10.712 86.6681L10.7219 86.719C10.7501 86.8676 10.6663 87.0141 10.5297 87.0547C10.5125 87.06 10.4952 87.0659 10.4782 87.0718C10.4262 87.09 10.3618 87.1124 10.2878 87.1209C9.73237 87.1855 9.27678 87.447 8.89474 87.92L8.28946 88.6704C7.30709 89.8881 6.2915 91.1474 5.28342 92.3782C5.2417 92.4291 5.2243 92.4587 5.21718 92.4735C5.22449 92.4873 5.2417 92.5143 5.28046 92.5581C5.97452 93.3418 6.6761 94.1429 7.35435 94.9174C8.6005 96.3403 9.88917 97.8116 11.181 99.2316C12.2951 100.456 13.5659 101.217 14.9582 101.492C15.1409 101.529 15.3252 101.551 15.5202 101.575C15.6116 101.586 15.7029 101.597 15.7939 101.61C15.924 101.628 16.0231 101.743 16.029 101.883L16.0335 101.99C16.0397 102.134 15.9452 102.26 15.8125 102.286C15.378 102.372 14.957 102.414 14.5479 102.414ZM4.13791 92.9478C4.14009 92.9504 4.14207 92.9529 4.14404 92.9552C4.7519 93.6483 5.36035 94.3405 5.96879 95.0328C7.0091 96.2164 8.0848 97.4402 9.13954 98.6476C10.0066 99.64 10.9847 100.647 12.2583 101.288C12.79 101.556 13.3383 101.726 13.9112 101.797C12.7768 101.39 11.7315 100.665 10.7938 99.6342C9.49844 98.2103 8.208 96.7368 6.96006 95.312C6.28221 94.538 5.58141 93.7377 4.88833 92.955C4.60655 92.6369 4.603 92.3328 4.87707 91.9982C5.88376 90.7691 6.89895 89.5108 7.88053 88.2937L8.48601 87.5434C8.6537 87.3356 8.83661 87.1591 9.03376 87.0145H8.04506C8.06088 87.0484 8.07393 87.0839 8.08381 87.1215C8.17378 87.4616 7.96933 87.8038 7.735 88.1227C7.39133 88.5909 7.03777 89.0625 6.69588 89.5186C6.528 89.7427 6.36011 89.9667 6.19262 90.1912C5.68087 90.8773 5.16952 91.5634 4.65698 92.2512L4.13791 92.9478Z" fill="#16AB7D"/>
<path d="M25.5783 95.9742C25.5425 96.7747 25.6594 97.4267 26.066 97.9926C26.6934 98.8662 27.5474 99.0416 28.4855 98.8311C29.338 98.6398 29.967 98.0972 30.1934 97.1731C30.4249 96.2281 30.2292 95.3879 29.5197 94.7014C28.4301 93.6471 27.3331 92.5983 26.2938 91.4888C24.8372 89.934 25.5439 87.1276 27.5373 86.6102C28.1679 86.4464 28.865 86.5627 29.5313 86.5743C29.843 86.5798 30.1538 86.6415 30.4847 86.68V88.7607C30.4382 88.6653 30.3992 88.6195 30.3939 88.5694C30.265 87.3282 29.1052 86.7899 28.0928 86.9678C27.3044 87.1063 26.758 87.6015 26.5061 88.421C26.2358 89.3005 26.4703 90.0563 27.0839 90.6735C28.1264 91.7226 29.1503 92.7976 30.2456 93.7809C31.7587 95.1395 31.4785 98.4151 29.315 99.1636C28.0712 99.5939 26.8646 99.3844 25.7094 98.766C25.3942 98.5973 25.259 98.332 25.2503 97.9507C25.2309 97.0953 25.3122 96.4502 25.5783 95.9742Z" fill="#16AB7D"/>
<path d="M27.9927 99.675C27.2059 99.675 26.4016 99.457 25.5887 99.0218C25.1964 98.8119 24.9918 98.453 24.9807 97.9555C24.9587 96.9739 25.0717 96.3165 25.3469 95.8238C25.4104 95.7101 25.5385 95.6573 25.6568 95.6955C25.7754 95.7338 25.8543 95.8534 25.8484 95.9855C25.8126 96.7847 25.9459 97.3486 26.2806 97.8145C26.7863 98.5184 27.4896 98.7576 28.4305 98.5463C28.9843 98.422 29.6946 98.0696 29.9327 97.0975C30.1472 96.2216 29.9531 95.507 29.3389 94.9128L29.0162 94.6009C28.047 93.6641 27.0449 92.6956 26.1035 91.6905C25.3418 90.8776 25.0671 89.7056 25.3688 88.5551C25.6649 87.4254 26.4521 86.5926 27.4742 86.3273C27.9727 86.1979 28.4953 86.2288 29.0005 86.2588C29.1777 86.2694 29.361 86.2802 29.5362 86.2831C29.7648 86.2871 29.9922 86.3193 30.2119 86.3503C30.3112 86.3643 30.4118 86.3787 30.5142 86.3905C30.6511 86.4066 30.7549 86.5302 30.7549 86.6773V88.7578C30.7549 88.8908 30.6699 89.0064 30.549 89.0381C30.4282 89.0698 30.3029 89.0089 30.2455 88.8912C30.2317 88.8631 30.2188 88.8403 30.2076 88.8206C30.1755 88.7639 30.1358 88.6936 30.1259 88.5987C30.0832 88.1875 29.9011 87.8411 29.5993 87.5966C29.2159 87.2861 28.6693 87.1561 28.1368 87.2499C27.4445 87.3715 26.9822 87.7948 26.7629 88.5084C26.5349 89.2501 26.7004 89.8886 27.2691 90.4606C27.4938 90.6868 27.7176 90.914 27.9414 91.1412C28.7401 91.9524 29.5661 92.7911 30.4193 93.5571C31.2502 94.3031 31.6346 95.6197 31.3987 96.9109C31.1751 98.1356 30.4272 99.0791 29.3984 99.4351C28.9375 99.5955 28.4682 99.675 27.9927 99.675ZM27.0214 87.1318C26.4782 87.4573 26.0712 88.0151 25.8887 88.7111C25.6405 89.6576 25.8634 90.6189 26.4849 91.2824C27.4168 92.2773 28.414 93.2409 29.3782 94.1728L29.7011 94.485C30.468 95.2271 30.7215 96.1553 30.4547 97.2438C30.2594 98.0415 29.7735 98.6291 29.0646 98.9407C29.1204 98.924 29.1761 98.906 29.2319 98.8868C30.0838 98.5921 30.6804 97.8318 30.8686 96.801C31.0675 95.7124 30.7547 94.6129 30.0719 93.9997C29.206 93.2223 28.3741 92.3775 27.5693 91.5603C27.346 91.3335 27.1228 91.107 26.8988 90.8814C26.1823 90.1607 25.9579 89.278 26.2496 88.3287C26.4068 87.8185 26.6678 87.4158 27.0214 87.1318ZM25.5193 97.5535C25.517 97.6756 25.5171 97.8048 25.5203 97.9415C25.5266 98.2277 25.6166 98.3911 25.8304 98.5057C26.0578 98.6274 26.2822 98.7304 26.5045 98.8147C26.2628 98.6509 26.0451 98.4344 25.8521 98.166C25.7145 97.9745 25.6042 97.7722 25.5193 97.5535ZM29.4765 86.8595C29.6383 86.9339 29.7893 87.0267 29.9256 87.1373C30.0329 87.2243 30.1296 87.3207 30.2151 87.4249V86.9333C30.1903 86.9299 30.1656 86.9263 30.1411 86.9229C29.9272 86.8925 29.7249 86.8642 29.5273 86.8606C29.5103 86.8604 29.4933 86.8599 29.4765 86.8595Z" fill="#16AB7D"/>
<path d="M63.8928 99.1481C62.808 99.1481 61.7232 99.1485 60.6386 99.1472C60.5692 99.1472 60.4999 99.1367 60.4228 99.1305C60.4414 99.0802 60.4491 99.0375 60.4582 99.0371C61.2342 99.0096 61.6558 98.3952 61.6476 97.5351C61.616 94.2678 61.635 90.9998 61.6348 87.7321C61.6348 87.1599 61.6338 87.1591 61.0847 87.1582C60.3236 87.1574 59.5625 87.1572 58.8014 87.1582C57.944 87.1593 57.6412 87.4043 57.3784 88.2736V86.5243C60.5569 86.8 63.7205 86.8219 66.918 86.5176V88.3848C66.9176 88.3846 66.88 88.3837 66.8779 88.3742C66.6657 87.399 66.3807 87.1589 65.4266 87.158C64.6274 87.1574 63.8283 87.1652 63.0292 87.1549C62.7736 87.1517 62.6717 87.2377 62.6723 87.5271C62.6795 90.9709 62.6737 94.4151 62.6796 97.8589C62.6806 98.4916 63.0654 98.9259 63.6505 99.0084C63.734 99.0202 63.8172 99.0341 63.9007 99.0473C63.8977 99.0811 63.8952 99.1147 63.8928 99.1481Z" fill="#16AB7D"/>
<path d="M62.6535 99.4334C61.9816 99.4334 61.3099 99.4332 60.638 99.4326C60.5787 99.4326 60.5235 99.4269 60.4703 99.4216C60.4481 99.4193 60.4256 99.4169 60.4023 99.4153C60.3168 99.4085 60.2393 99.3584 60.1938 99.2808C60.1484 99.2033 60.1398 99.1071 60.1713 99.0217C60.176 99.009 60.1796 98.9967 60.1828 98.9866C60.2421 98.7932 60.3603 98.7488 60.4491 98.7459C61.2972 98.7158 61.3809 97.8894 61.3773 97.5353C61.3546 95.1687 61.3581 92.7627 61.3617 90.4361C61.3631 89.5338 61.3645 88.6317 61.3645 87.7294C61.3645 87.6288 61.3645 87.518 61.3593 87.4504C61.2935 87.4444 61.1837 87.4442 61.0841 87.444C60.3232 87.4432 59.5623 87.443 58.8013 87.444C58.0695 87.4449 57.8623 87.6076 57.6349 88.3597C57.594 88.4949 57.4664 88.5782 57.3359 88.556C57.2048 88.5338 57.1079 88.4129 57.1079 88.2711V86.5218C57.1079 86.4413 57.1395 86.3644 57.1949 86.3096C57.2503 86.2551 57.324 86.2278 57.3998 86.2341C60.7184 86.5218 63.8237 86.5197 66.8935 86.2276C66.9686 86.2208 67.0438 86.2475 67.0997 86.3022C67.1557 86.357 67.1875 86.4341 67.1875 86.5151V88.3823C67.1875 88.4751 67.1458 88.5622 67.0754 88.6163C67.0244 88.6558 66.9625 88.6748 66.901 88.6702C66.6795 88.6575 66.6257 88.4886 66.6145 88.437C66.4308 87.593 66.253 87.4447 65.4258 87.444C65.1755 87.444 64.9248 87.4444 64.6742 87.4451C64.1342 87.4466 63.5756 87.4478 63.0255 87.4408C62.9869 87.4398 62.962 87.4427 62.9462 87.4451C62.9438 87.4609 62.9416 87.4861 62.9416 87.5237C62.9454 89.3275 62.9456 91.1613 62.9458 92.9347C62.946 94.5751 62.9462 96.2154 62.9489 97.8558C62.9497 98.3318 63.225 98.6548 63.6853 98.7199C63.7444 98.7281 63.8034 98.7376 63.8623 98.7471L63.9392 98.7594C64.0804 98.7814 64.1813 98.9173 64.1692 99.069L64.1615 99.1684C64.15 99.318 64.033 99.4334 63.8924 99.4334H63.2725C63.0664 99.4334 62.86 99.4334 62.6535 99.4334ZM61.4918 98.856C61.9168 98.8562 62.3421 98.8564 62.7666 98.8562C62.5392 98.603 62.4099 98.2578 62.4093 97.8566C62.4065 96.216 62.4061 94.5754 62.4061 92.9347C62.4059 91.1616 62.4058 89.3281 62.402 87.525C62.4016 87.3838 62.4178 87.1785 62.5602 87.0278C62.5614 87.0266 62.5626 87.0253 62.5637 87.024C62.2952 87.0259 62.0261 87.0255 61.7556 87.0232C61.8736 87.147 61.9043 87.3624 61.9045 87.7292C61.9045 88.6317 61.9031 89.5342 61.9017 90.4368C61.8982 92.7618 61.8946 95.1659 61.9173 97.5292C61.9225 98.0843 61.7683 98.5419 61.4918 98.856ZM65.8731 86.8921C66.2081 86.9353 66.4569 87.0365 66.6477 87.2198V86.8294C66.3898 86.8524 66.1316 86.8733 65.8731 86.8921ZM57.6479 86.8338V87.2041C57.8409 87.0291 58.0818 86.9317 58.3974 86.8904C58.1488 86.8733 57.8989 86.8543 57.6479 86.8338Z" fill="#16AB7D"/>
<path d="M36.7659 99.1305H33.2849C33.2799 99.1081 33.275 99.0856 33.27 99.0632C33.3503 99.0448 33.4298 99.0208 33.5109 99.0093C34.0521 98.9335 34.4762 98.5207 34.479 97.9379C34.4944 94.5884 34.4925 91.2388 34.4784 87.8893C34.4762 87.3691 34.1207 86.9846 33.6439 86.8627C33.5257 86.8324 33.4043 86.8162 33.29 86.7344H36.7339C36.7269 86.7657 36.7253 86.8022 36.7174 86.8039C35.7754 86.9963 35.5365 87.3074 35.5365 88.3452V97.2966C35.5363 98.5946 35.638 98.7411 36.7659 99.1305Z" fill="#16AB7D"/>
<path d="M36.7653 99.4208H33.2843C33.1589 99.4208 33.05 99.3287 33.0215 99.1982L33.0067 99.1308C32.99 99.0554 33.0027 98.9759 33.0415 98.9104C33.0802 98.8448 33.1421 98.7988 33.2131 98.7827C33.2366 98.7772 33.26 98.7715 33.2835 98.7654C33.341 98.7508 33.4061 98.7345 33.4751 98.7248C33.8386 98.6738 34.2061 98.4109 34.2083 97.9381C34.2228 94.7654 34.2226 91.4795 34.2077 87.8922C34.2059 87.4591 33.8824 87.2221 33.5803 87.1448C33.5607 87.1397 33.5409 87.1351 33.5214 87.1306C33.4118 87.105 33.2754 87.0731 33.1393 86.9759C33.0405 86.9051 32.9966 86.7738 33.031 86.6521C33.0656 86.5305 33.1704 86.4473 33.2892 86.4473H36.7331C36.8155 86.4473 36.8936 86.4876 36.9448 86.5568C36.9961 86.6261 37.0148 86.7165 36.9959 86.8024L36.9939 86.815C36.9626 87.019 36.8389 87.074 36.7679 87.0886C35.9496 87.2555 35.8059 87.4437 35.8059 88.3464V97.2978C35.8059 98.4635 35.8351 98.5073 36.8483 98.8571C36.9747 98.9006 37.0526 99.0363 37.032 99.1767C37.0113 99.3172 36.8982 99.4208 36.7653 99.4208ZM34.4106 98.8436H35.6014C35.3218 98.5424 35.2656 98.1103 35.2656 97.2983V88.3468C35.2656 87.7216 35.3576 87.308 35.604 87.0247H34.4328C34.6323 87.2574 34.746 87.5569 34.7474 87.8899C34.7622 91.4791 34.7624 94.7669 34.7479 97.9412C34.7468 98.2904 34.6226 98.6045 34.4106 98.8436Z" fill="#16AB7D"/>
<path d="M0.966614 86.7305H4.4146C4.41657 86.7499 4.41874 86.7694 4.42092 86.7888C4.30267 86.8108 4.18383 86.8281 4.06657 86.8552C3.53861 86.9776 3.20166 87.4364 3.19909 88.0686C3.19315 89.5732 3.19691 91.0775 3.19691 92.5818C3.19691 94.2351 3.19672 95.8886 3.19691 97.5421C3.19711 98.5537 3.43993 98.859 4.37267 99.0257C4.39125 99.0291 4.40589 99.0589 4.45611 99.112H0.894043C0.958506 99.0693 0.998851 99.0224 1.04413 99.016C1.81314 98.9069 2.15879 98.4994 2.16215 97.6669C2.16709 96.4335 2.16353 95.2002 2.16353 93.9669C2.16353 92.1237 2.16353 90.2806 2.16353 88.4373C2.16333 87.3128 1.96441 87.0384 0.966614 86.7305Z" fill="#16AB7D"/>
<path d="M4.45655 99.3992H0.894464C0.773842 99.3992 0.667856 99.3136 0.634833 99.1895C0.601811 99.0654 0.649863 98.9331 0.752688 98.865C0.76831 98.8547 0.781753 98.8439 0.794013 98.8342C0.84325 98.7955 0.91088 98.7425 1.00916 98.7285C1.65043 98.6376 1.89009 98.3491 1.89285 97.6643C1.89641 96.7981 1.89563 95.9169 1.89483 95.0647C1.89444 94.6984 1.89424 94.3318 1.89424 93.9655V88.436C1.89424 87.441 1.78172 87.2808 0.892484 87.0063C0.76336 86.9665 0.681306 86.831 0.700091 86.6886C0.718876 86.5461 0.832773 86.4404 0.967433 86.4404H4.41543C4.55246 86.4404 4.66774 86.5503 4.68355 86.6958L4.68989 86.7541C4.7063 86.9061 4.60881 87.0456 4.46782 87.0716C4.42946 87.0788 4.39109 87.0853 4.35254 87.0921C4.27285 87.1058 4.19771 87.1189 4.12474 87.1358C3.71681 87.2303 3.47201 87.5791 3.47003 88.0684C3.46588 89.147 3.46646 90.244 3.46726 91.3048C3.46745 91.7299 3.46785 92.1552 3.46785 92.5802V93.3435C3.46785 94.7425 3.46765 96.1416 3.46785 97.5406C3.46804 98.4064 3.61912 98.597 4.41819 98.7397C4.52438 98.7587 4.5833 98.8304 4.61494 98.8686C4.62285 98.8784 4.63293 98.8906 4.64697 98.9054C4.72468 98.9876 4.74841 99.1121 4.70669 99.2204C4.66457 99.3286 4.56609 99.3992 4.45655 99.3992ZM2.07557 98.8219H3.26142C3.02077 98.5459 2.92763 98.1417 2.92743 97.5408C2.92723 96.1418 2.92723 94.7425 2.92743 93.3435V92.5802C2.92743 92.1554 2.92704 91.7301 2.92684 91.3053C2.92605 90.2436 2.92525 89.1459 2.9296 88.0658C2.93118 87.6505 3.05992 87.2863 3.28376 87.0173H2.08961C2.35102 87.3199 2.43407 87.7473 2.43407 88.4355V93.9651C2.43407 94.3312 2.43446 94.6975 2.43466 95.0636C2.43545 95.9165 2.43624 96.7985 2.43268 97.6662C2.43051 98.1656 2.31266 98.5495 2.07557 98.8219Z" fill="#16AB7D"/>
<path d="M38.5061 29.2448C38.4125 29.2448 38.323 29.2051 38.2569 29.1345L34.0093 24.5938C33.8719 24.4469 33.8719 24.2084 34.0093 24.0616L38.2569 19.5216C38.3943 19.3743 38.6174 19.3743 38.7548 19.5216L43.0024 24.0616C43.1398 24.2084 43.1398 24.4469 43.0024 24.5938L38.7548 29.1345C38.6888 29.2051 38.5992 29.2448 38.5061 29.2448ZM34.7563 24.3279L38.5057 28.336L42.2551 24.3279L38.5057 20.3201L34.7563 24.3279Z" fill="#16AB7D"/>
<path d="M38.5069 26.8328C38.4166 26.8328 38.3266 26.7962 38.2577 26.7225L36.2633 24.5907C36.1973 24.5201 36.1602 24.4247 36.1602 24.3244C36.1602 24.2244 36.1973 24.1286 36.2633 24.0581L38.2577 21.9266C38.3955 21.7797 38.6182 21.7797 38.756 21.9266L40.7504 24.0581C40.8164 24.1286 40.8535 24.224 40.8535 24.3244C40.8535 24.4243 40.8164 24.5201 40.7504 24.5907L38.756 26.7225C38.6867 26.7962 38.5968 26.8328 38.5069 26.8328ZM37.0103 24.3247L38.5069 25.9244L40.003 24.3247L38.5069 22.7258L37.0103 24.3247Z" fill="#16AB7D"/>
<path d="M38.5055 17.1696C37.7941 17.1696 37.2148 16.5504 37.2148 15.7897C37.2148 15.029 37.7941 14.4102 38.5055 14.4102C39.2168 14.4102 39.7961 15.029 39.7961 15.7897C39.7957 16.5504 39.2168 17.1696 38.5055 17.1696ZM38.5055 15.1633C38.1821 15.1633 37.9194 15.4441 37.9194 15.7897C37.9194 16.1353 38.1821 16.4165 38.5055 16.4165C38.8288 16.4165 39.0915 16.1353 39.0915 15.7897C39.0915 15.4441 38.8285 15.1633 38.5055 15.1633Z" fill="#16AB7D"/>
<path d="M38.5055 34.2438C37.7941 34.2438 37.2148 33.625 37.2148 32.8643C37.2148 32.1036 37.7941 31.4844 38.5055 31.4844C39.2168 31.4844 39.7961 32.1036 39.7961 32.8643C39.7961 33.625 39.2168 34.2438 38.5055 34.2438ZM38.5055 32.2375C38.1821 32.2375 37.9194 32.5186 37.9194 32.8643C37.9194 33.2099 38.1821 33.4907 38.5055 33.4907C38.8288 33.4907 39.0915 33.2096 39.0915 32.8643C39.0915 32.5186 38.8285 32.2375 38.5055 32.2375Z" fill="#16AB7D"/>
<path d="M38.5061 57.5863C38.4125 57.5863 38.323 57.5466 38.2569 57.476L34.0093 52.9353C33.8719 52.7884 33.8719 52.55 34.0093 52.4031L38.2569 47.8631C38.3943 47.7162 38.6174 47.7162 38.7548 47.8631L43.0024 52.4031C43.1398 52.55 43.1398 52.7884 43.0024 52.9353L38.7548 57.476C38.6888 57.5466 38.5992 57.5863 38.5061 57.5863ZM34.7563 52.669L38.5057 56.6771L42.2551 52.669L38.5057 48.6612L34.7563 52.669Z" fill="#16AB7D"/>
<path d="M38.5069 55.1765C38.4166 55.1765 38.3266 55.1399 38.2577 55.0663L36.2633 52.9344C36.1973 52.8638 36.1602 52.7684 36.1602 52.6681C36.1602 52.5681 36.1973 52.4728 36.2633 52.4018L38.2577 50.2703C38.3955 50.1234 38.6182 50.1234 38.756 50.2703L40.7504 52.4018C40.8164 52.4724 40.8535 52.5678 40.8535 52.6681C40.8535 52.7681 40.8164 52.8638 40.7504 52.9344L38.756 55.0663C38.6867 55.1399 38.5968 55.1765 38.5069 55.1765ZM37.0103 52.6681L38.5069 54.2678L40.003 52.6681L38.5069 51.0692L37.0103 52.6681Z" fill="#16AB7D"/>
<path d="M38.5055 45.5114C37.7941 45.5114 37.2148 44.8922 37.2148 44.1315C37.2148 43.3708 37.7941 42.752 38.5055 42.752C39.2168 42.752 39.7961 43.3708 39.7961 44.1315C39.7957 44.8922 39.2168 45.5114 38.5055 45.5114ZM38.5055 43.5047C38.1821 43.5047 37.9194 43.7859 37.9194 44.1311C37.9194 44.4764 38.1821 44.758 38.5055 44.758C38.8288 44.758 39.0915 44.4768 39.0915 44.1311C39.0915 43.7855 38.8285 43.5047 38.5055 43.5047Z" fill="#16AB7D"/>
<path d="M38.5055 62.5856C37.7941 62.5856 37.2148 61.9668 37.2148 61.2061C37.2148 60.4454 37.7941 59.8262 38.5055 59.8262C39.2168 59.8262 39.7961 60.4454 39.7961 61.2061C39.7957 61.9668 39.2168 62.5856 38.5055 62.5856ZM38.5055 60.5793C38.1821 60.5793 37.9194 60.8604 37.9194 61.2061C37.9194 61.5517 38.1821 61.8325 38.5055 61.8325C38.8288 61.8325 39.0915 61.5514 39.0915 61.2061C39.0915 60.8604 38.8285 60.5793 38.5055 60.5793Z" fill="#16AB7D"/>
<path d="M56.0761 38.7856C56.0761 38.8855 56.0389 38.9813 55.9729 39.0519L51.7249 43.5918C51.5875 43.7387 51.3645 43.7387 51.227 43.5918L46.9798 39.0519C46.842 38.905 46.842 38.6665 46.9798 38.5197L51.227 33.9793C51.3645 33.8324 51.5875 33.8324 51.7249 33.9793L55.9729 38.5197C56.0389 38.5899 56.0761 38.6856 56.0761 38.7856ZM51.4758 42.7933L55.2255 38.7856L51.4758 34.7778L47.7264 38.7856L51.4758 42.7933Z" fill="#16AB7D"/>
<path d="M53.8231 38.7848C53.8231 38.8813 53.7888 38.9775 53.72 39.0511L51.7255 41.183C51.6595 41.2536 51.5703 41.2932 51.4764 41.2932C51.3829 41.2932 51.2933 41.2536 51.2273 41.183L49.2332 39.0511C49.0954 38.9042 49.0954 38.6658 49.2332 38.5185L51.2273 36.3866C51.2933 36.316 51.3829 36.2764 51.4764 36.2764C51.5699 36.2764 51.6595 36.316 51.7255 36.3866L53.72 38.5185C53.7888 38.5921 53.8231 38.6883 53.8231 38.7848ZM51.4764 40.3841L52.9726 38.7848L51.4764 37.1851L49.9806 38.7848L51.4764 40.3841Z" fill="#16AB7D"/>
<path d="M44.7798 38.7848C44.7798 39.5452 44.2005 40.1644 43.4889 40.1644C42.7772 40.1644 42.1982 39.5452 42.1982 38.7848C42.1982 38.0245 42.7772 37.4053 43.4889 37.4053C44.2005 37.4053 44.7798 38.0245 44.7798 38.7848ZM42.9024 38.7848C42.9024 39.1305 43.1651 39.4113 43.4885 39.4113C43.8118 39.4113 44.0749 39.1305 44.0749 38.7848C44.0749 38.4392 43.8118 38.1584 43.4885 38.1584C43.1655 38.158 42.9024 38.4392 42.9024 38.7848Z" fill="#16AB7D"/>
<path d="M60.7554 38.7848C60.7554 39.5452 60.1765 40.1644 59.4648 40.1644C58.7531 40.1644 58.1738 39.5452 58.1738 38.7848C58.1738 38.0245 58.7531 37.4053 59.4648 37.4053C60.1765 37.4053 60.7554 38.0245 60.7554 38.7848ZM58.8784 38.7848C58.8784 39.1305 59.1414 39.4113 59.4648 39.4113C59.7882 39.4113 60.0508 39.1305 60.0508 38.7848C60.0508 38.4392 59.7878 38.1584 59.4648 38.1584C59.1414 38.158 58.8784 38.4392 58.8784 38.7848Z" fill="#16AB7D"/>
<path d="M30.1245 38.7328C30.1245 38.8328 30.0874 38.9286 30.0213 38.9991L25.7734 43.5391C25.636 43.686 25.4129 43.686 25.2755 43.5391L21.0279 38.9991C20.8905 38.8522 20.8905 38.6138 21.0279 38.4669L25.2755 33.9266C25.4129 33.7797 25.636 33.7797 25.7734 33.9266L30.0213 38.4669C30.0874 38.5375 30.1245 38.6333 30.1245 38.7328ZM25.5246 42.741L29.2743 38.7332L25.5246 34.7255L21.7752 38.7332L25.5246 42.741Z" fill="#16AB7D"/>
<path d="M27.871 38.7311C27.871 38.8276 27.8367 38.9237 27.7678 38.9974L25.7734 41.1293C25.7073 41.1998 25.6181 41.2395 25.5242 41.2395C25.4307 41.2395 25.3412 41.1998 25.2751 41.1293L23.2811 38.9974C23.1433 38.8505 23.1433 38.6121 23.2811 38.4648L25.2751 36.3329C25.3412 36.2623 25.4304 36.2227 25.5242 36.2227C25.6178 36.2227 25.707 36.2623 25.7734 36.3329L27.7678 38.4648C27.8363 38.5384 27.871 38.6346 27.871 38.7311ZM25.5242 40.3304L27.0204 38.7311L25.5242 37.1314L24.0284 38.7311L25.5242 40.3304Z" fill="#16AB7D"/>
<path d="M18.8291 38.7321C18.8291 39.4924 18.2498 40.1116 17.5382 40.1116C16.8265 40.1116 16.2476 39.4924 16.2476 38.7321C16.2476 37.9717 16.8265 37.3525 17.5382 37.3525C18.2498 37.3525 18.8291 37.9717 18.8291 38.7321ZM16.9521 38.7321C16.9521 39.0777 17.2148 39.3585 17.5382 39.3585C17.8615 39.3585 18.1249 39.0777 18.1249 38.7321C18.1249 38.3864 17.8619 38.1056 17.5382 38.1056C17.2148 38.1056 16.9521 38.3864 16.9521 38.7321Z" fill="#16AB7D"/>
<path d="M34.8028 38.7321C34.8028 39.4924 34.2238 40.1116 33.5121 40.1116C32.8005 40.1116 32.2212 39.4924 32.2212 38.7321C32.2212 37.9717 32.8005 37.3525 33.5121 37.3525C34.2238 37.3525 34.8028 37.9717 34.8028 38.7321ZM32.9254 38.7321C32.9254 39.0777 33.1884 39.3585 33.5118 39.3585C33.8352 39.3585 34.0978 39.0777 34.0978 38.7321C34.0978 38.3864 33.8348 38.1056 33.5118 38.1056C33.1888 38.1056 32.9254 38.3864 32.9254 38.7321Z" fill="#16AB7D"/>
<path d="M38.7172 37.3445C38.7332 37.5384 38.6265 37.7211 38.4609 37.7837C38.4127 37.7608 38.3756 37.7322 38.3381 37.6925C38.2582 37.6009 38.21 37.4815 38.2207 37.3445C38.2314 37.2362 38.3007 36.5689 38.4713 35.5137C38.6422 36.5689 38.7065 37.2362 38.7172 37.3445Z" fill="#16AB7D"/>
<path d="M38.2399 40.0631C38.2238 39.8693 38.3305 39.6866 38.4961 39.624C38.5443 39.6469 38.5814 39.6751 38.6189 39.7152C38.6992 39.8068 38.7471 39.9262 38.7363 40.0631C38.7256 40.1715 38.6564 40.8387 38.4858 41.894C38.3145 40.8387 38.2506 40.1715 38.2399 40.0631Z" fill="#16AB7D"/>
<path d="M39.7774 39.0505C39.5957 39.0676 39.4251 38.9536 39.3662 38.7767C39.3876 38.7253 39.4144 38.6856 39.4519 38.6456C39.5372 38.5598 39.6492 38.5087 39.7774 38.5201C39.8787 38.5316 40.503 38.6055 41.4902 38.7878C40.503 38.9708 39.8787 39.039 39.7774 39.0505Z" fill="#16AB7D"/>
<path d="M37.183 38.4997C37.3644 38.4826 37.5353 38.5966 37.5939 38.7735C37.5724 38.825 37.5457 38.8646 37.5085 38.9046C37.4229 38.99 37.3112 39.0415 37.183 39.0301C37.0817 39.0186 36.4574 38.9447 35.4702 38.7624C36.4574 38.5798 37.0817 38.5112 37.183 38.4997Z" fill="#16AB7D"/>
<path d="M63.2467 11.8718L55.9739 19.6458C55.5888 20.0575 54.9624 20.0563 54.5784 19.6458L53.6415 18.644C53.2564 18.2323 53.2564 17.5639 53.6415 17.1523L57.3576 13.18C57.7417 12.7695 58.3681 12.7683 58.7532 13.18C59.1372 13.5905 59.1372 14.2612 58.7532 14.6717L55.7783 17.8516C55.6413 17.9977 55.4189 17.9977 55.2822 17.8516C55.1451 17.7051 55.1451 17.4674 55.2822 17.3209L58.2567 14.141C58.3681 14.0224 58.3681 13.8289 58.2567 13.7103C58.1454 13.5916 57.9648 13.5916 57.8538 13.7103L54.1376 17.6826C54.0262 17.8012 54.0262 17.9946 54.1376 18.1133L55.0745 19.1148C55.1858 19.2334 55.3664 19.2334 55.4774 19.1148L62.7502 11.3407C62.8851 11.1965 62.8245 11.034 62.8027 10.9874C62.7809 10.9409 62.6956 10.7944 62.5068 10.8242C59.4656 11.3098 52.5661 12.7649 47.5943 16.4728C47.3769 16.6353 47.1624 16.8005 46.9544 16.9726C46.9194 16.6933 46.8787 16.4144 46.833 16.1344C47.0386 15.9719 47.2481 15.8158 47.4615 15.6621C52.5365 12.0068 59.3624 10.567 62.404 10.0814C62.833 10.0134 63.2349 10.2374 63.4305 10.6502C63.625 11.0645 63.5536 11.5441 63.2467 11.8718Z" fill="#16AB7D"/>
<path d="M59.7048 29.8919C59.4435 29.8419 59.1837 29.7977 58.9228 29.7603C59.0827 29.5363 59.2383 29.3082 59.3893 29.077C62.8574 23.7637 64.2172 16.3895 64.6719 13.1386C64.6998 12.9368 64.5627 12.8456 64.5192 12.8224C64.4756 12.7991 64.3236 12.7342 64.1887 12.8784L56.9159 20.6525C56.8049 20.7711 56.8049 20.9646 56.9159 21.0832L57.8528 22.0847C57.9638 22.2033 58.1447 22.2033 58.2557 22.0847L61.9719 18.1124C62.0829 17.9937 62.0829 17.8003 61.9719 17.6817C61.862 17.5638 61.6803 17.563 61.569 17.6817L58.5941 20.8615C58.457 21.008 58.2358 21.0092 58.098 20.8615C57.9609 20.715 57.9609 20.4777 58.098 20.3312L61.0725 17.1514C61.4565 16.7408 62.084 16.7408 62.4684 17.1514C62.8535 17.563 62.8524 18.2326 62.4684 18.6431L58.7518 22.6153C58.3667 23.027 57.7414 23.027 57.3563 22.6153L56.4194 21.6139C56.035 21.2034 56.0343 20.5338 56.4194 20.1222L63.6922 12.3481C63.9988 12.0204 64.4475 11.9437 64.8347 12.152C65.2209 12.3611 65.43 12.7907 65.3669 13.2489C64.9125 16.4997 63.5652 23.7942 60.1477 29.2193C60.0035 29.4471 59.8565 29.6721 59.7048 29.8919Z" fill="#16AB7D"/>
<path d="M64.8205 65.4306C64.4333 65.6404 63.9847 65.5622 63.6781 65.2341L56.4056 57.4605C56.0216 57.05 56.0205 56.3804 56.4056 55.9688L57.3429 54.9673C57.7269 54.5568 58.3543 54.5568 58.7384 54.9673L62.4546 58.9396C62.8397 59.3512 62.8386 60.0208 62.4546 60.4313C62.0691 60.8429 61.4438 60.8429 61.0587 60.4313L58.0838 57.2514C57.9468 57.1049 57.9468 56.8672 58.0838 56.7207C58.2209 56.5746 58.4432 56.5746 58.5803 56.7207L61.5548 59.9006C61.6662 60.0193 61.8467 60.0193 61.9577 59.9006C62.0691 59.782 62.0691 59.5885 61.9577 59.4699L58.2416 55.4976C58.1302 55.379 57.9496 55.379 57.8386 55.4976L56.9017 56.4991C56.7907 56.6177 56.7907 56.8111 56.9017 56.9298L64.1745 64.7038C64.3105 64.8492 64.4626 64.7843 64.505 64.7599C64.5479 64.7378 64.6867 64.6466 64.6578 64.4459C64.2042 61.1981 62.8472 53.8399 59.3883 48.5278C59.2363 48.2955 59.0825 48.0673 58.9226 47.8434C59.1828 47.8071 59.4426 47.7625 59.7038 47.7129C59.8559 47.9323 60.0026 48.1573 60.1453 48.3866C63.5549 53.8094 64.898 61.0886 65.3516 64.3345C65.4162 64.792 65.2078 65.2223 64.8205 65.4306Z" fill="#16AB7D"/>
<path d="M62.3902 67.5023C59.3518 67.0174 52.5336 65.5799 47.4594 61.93C47.246 61.7762 47.0354 61.6191 46.8291 61.4581C46.8759 61.1788 46.9176 60.901 46.9522 60.6222C47.1617 60.7931 47.3752 60.9594 47.5936 61.1208C52.5633 64.8226 59.4542 66.2762 62.4944 66.7611C62.6821 66.792 62.7674 66.6432 62.7881 66.5978C62.8109 66.552 62.8716 66.3898 62.7357 66.2445L55.4628 58.4704C55.3515 58.3518 55.1709 58.3518 55.0599 58.4704L54.1226 59.4719C54.0116 59.5906 54.0116 59.784 54.1226 59.9026L57.8391 63.8749C57.9505 63.9936 58.1311 63.9936 58.2421 63.8749C58.3535 63.7563 58.3535 63.5628 58.2421 63.4442L55.2672 60.2647C55.1302 60.1182 55.1302 59.8805 55.2672 59.734C55.4039 59.5875 55.6263 59.5875 55.7633 59.734L58.7382 62.9139C59.1233 63.3256 59.1233 63.994 58.7382 64.4056C58.3542 64.8165 57.7278 64.8176 57.3427 64.4056L53.6262 60.4333C53.2421 60.0228 53.2421 59.3521 53.6262 58.9416L54.5631 57.9401C54.9482 57.5285 55.5745 57.5296 55.9589 57.9401L63.2317 65.7138C63.5383 66.0419 63.6119 66.5215 63.4156 66.935C63.221 67.3482 62.8181 67.571 62.3902 67.5023Z" fill="#16AB7D"/>
<path d="M30.1607 61.4698C29.9551 61.6324 29.7449 61.7892 29.5304 61.9418C24.4572 65.5928 17.638 67.0315 14.5978 67.5164C14.2802 67.5671 13.9743 67.4569 13.7591 67.2268C13.6856 67.1482 13.6221 67.0552 13.5724 66.9491C13.3769 66.5344 13.4482 66.0548 13.7552 65.7267L21.028 57.9527C21.4131 57.541 22.0395 57.5422 22.4246 57.9538L23.3604 58.9542C23.7455 59.3658 23.7455 60.0342 23.3604 60.4459L19.6443 64.4182C19.2602 64.8287 18.6338 64.8298 18.2487 64.4182C17.8647 64.0076 17.8647 63.337 18.2487 62.9264L21.2236 59.7469C21.3606 59.6004 21.583 59.6004 21.7201 59.7469C21.8582 59.8942 21.8568 60.1307 21.7201 60.2772L18.7452 63.4571C18.6342 63.5758 18.6349 63.77 18.7452 63.8878C18.8565 64.0065 19.0371 64.0065 19.1481 63.8878L22.8647 59.9156C22.9757 59.7969 22.9757 59.6035 22.8647 59.4848L21.9289 58.4845C21.8175 58.3659 21.6362 58.3647 21.5248 58.4834L14.2517 66.257C14.1167 66.4012 14.1774 66.5638 14.1992 66.6103C14.2209 66.6569 14.3063 66.8034 14.4951 66.7736C17.5353 66.2887 24.4258 64.8351 29.3969 61.1322C29.6143 60.972 29.8277 60.8053 30.0372 60.6347C30.0725 60.9128 30.1132 61.1917 30.1607 61.4698Z" fill="#16AB7D"/>
<path d="M20.5821 57.4768L13.3093 65.2508C13.0027 65.5785 12.5541 65.6548 12.1669 65.4469C12.0676 65.3939 11.9802 65.326 11.9056 65.2466C11.69 65.0162 11.5879 64.6904 11.6347 64.3501C12.0894 61.1015 13.4342 53.8112 16.8499 48.3884C16.9927 48.1591 17.1397 47.9363 17.2907 47.7158C17.552 47.7658 17.8129 47.8093 18.0738 47.8463C17.9139 48.0702 17.7582 48.2984 17.6073 48.5296C14.1431 53.8429 12.7832 61.2106 12.3296 64.4607C12.3018 64.6621 12.4399 64.7545 12.4824 64.777C12.5259 64.8003 12.678 64.8651 12.8129 64.7209L20.0853 56.9469C20.1967 56.8282 20.1967 56.6352 20.0853 56.5161L19.1484 55.5143C19.0374 55.3956 18.8565 55.3956 18.7451 55.5143L15.0289 59.487C14.9179 59.6056 14.9179 59.799 15.0289 59.9177C15.1403 60.0367 15.3209 60.0367 15.4319 59.9177L18.4067 56.7378C18.5438 56.5917 18.7662 56.5917 18.9032 56.7378C19.0403 56.8843 19.0403 57.122 18.9032 57.2685L15.9284 60.4484C15.5443 60.8589 14.9169 60.8589 14.5328 60.4484C14.1477 60.0367 14.1488 59.3672 14.5328 58.9567L18.249 54.9844C18.6341 54.5727 19.2594 54.5727 19.6445 54.9844L20.5814 55.9858C20.9672 56.3967 20.9673 57.0651 20.5821 57.4768Z" fill="#16AB7D"/>
<path d="M17.6113 29.0738C17.7623 29.3073 17.9179 29.5355 18.0778 29.7594C17.8169 29.7964 17.5567 29.8388 17.2958 29.8887C17.1437 29.669 16.996 29.445 16.8532 29.2158C13.4347 23.7918 12.0888 16.4989 11.6351 13.2488C11.5705 12.7913 11.7793 12.3606 12.1662 12.1527C12.5535 11.9429 13.0021 12.0211 13.3087 12.3492L20.5815 20.1232C20.9656 20.5337 20.9666 21.2033 20.5815 21.6149L19.6443 22.6164C19.2602 23.0269 18.6328 23.0269 18.2487 22.6164L14.5322 18.6441C14.1471 18.2324 14.1482 17.5629 14.5322 17.1524C14.9173 16.7407 15.5426 16.7407 15.9277 17.1524L18.9026 20.3323C19.0393 20.4788 19.0393 20.7165 18.9026 20.863C18.7656 21.0095 18.5432 21.0095 18.4061 20.863L15.4313 17.6831C15.3203 17.5644 15.1393 17.5644 15.0283 17.6831C14.9173 17.8017 14.9173 17.9951 15.0283 18.1138L18.7445 22.0861C18.8559 22.2047 19.0364 22.2047 19.1474 22.0861L20.0843 21.0846C20.1957 20.966 20.1957 20.7725 20.0843 20.6539L12.8115 12.8799C12.6756 12.7345 12.5235 12.7993 12.48 12.8226C12.4382 12.8459 12.2994 12.9375 12.3279 13.1378C12.7823 16.3897 14.1432 23.7605 17.6113 29.0738Z" fill="#16AB7D"/>
<path d="M30.1577 16.1259C30.111 16.4048 30.0703 16.684 30.0357 16.9629C29.8262 16.792 29.6127 16.6253 29.3943 16.4643C24.4232 12.7617 17.5337 11.3089 14.4935 10.824C14.3061 10.7931 14.2205 10.9419 14.1987 10.9865C14.1769 11.0331 14.1163 11.1956 14.2523 11.341L21.5251 19.115C21.6361 19.234 21.817 19.234 21.928 19.115L22.8649 18.1135C22.9763 17.9949 22.9763 17.8015 22.8649 17.6828L19.1487 13.7105C19.0377 13.5919 18.8568 13.5919 18.7458 13.7105C18.6348 13.8292 18.6348 14.0226 18.7458 14.1412L21.7207 17.3211C21.8577 17.4676 21.8577 17.7049 21.7207 17.8514C21.5836 17.9979 21.3613 17.9979 21.2242 17.8514L18.2493 14.6715C17.8642 14.2599 17.8642 13.5915 18.2493 13.1798C18.6334 12.7693 19.2597 12.7682 19.6448 13.1798L23.361 17.1521C23.7451 17.5626 23.7451 18.2333 23.361 18.6438L22.4241 19.6457C22.039 20.0573 21.4126 20.0562 21.0286 19.6457L13.7561 11.8716C13.4496 11.5439 13.376 11.0644 13.5723 10.6504C13.7668 10.2365 14.1698 10.0137 14.5977 10.0827C17.6361 10.5676 24.4543 12.0052 29.5285 15.6551C29.7409 15.8077 29.9514 15.9645 30.1577 16.1259Z" fill="#16AB7D"/>
<path d="M73.8049 38.464H63.5197C62.9758 38.464 62.5332 37.9909 62.5332 37.4095V35.9918C62.5332 35.4104 62.9758 34.9373 63.5197 34.9373H68.7746C69.3196 34.9385 69.7621 35.4115 69.7621 35.993C69.7621 36.5744 69.3196 37.0475 68.7756 37.0475L64.568 37.0463C64.3745 37.0475 64.2168 36.8788 64.2175 36.6717C64.2175 36.4637 64.3742 36.2963 64.568 36.297L68.7756 36.2959C68.9323 36.2959 69.0604 36.1589 69.0604 35.9914C69.0604 35.824 68.9323 35.687 68.7756 35.687L63.5197 35.6881C63.362 35.687 63.2339 35.824 63.2349 35.9926V37.408C63.2349 37.5758 63.363 37.7124 63.5197 37.7124H73.8052C73.9966 37.7136 74.0612 37.5533 74.0762 37.5034C74.0919 37.4545 74.129 37.2859 73.9759 37.165C71.5053 35.2097 65.6698 31.028 59.7054 29.8896C59.4441 29.8396 59.1843 29.7949 58.9231 29.7579C58.2064 29.6538 57.489 29.5977 56.778 29.5977C48.089 29.5977 39.7222 38.0337 39.4128 38.3499L39.401 38.3625C39.3942 38.3698 39.3863 38.3763 39.3781 38.3828C39.3531 38.4049 39.3246 38.4228 39.2946 38.4358C39.2928 38.4358 39.2907 38.4381 39.2885 38.4381C39.2696 38.4453 39.25 38.4518 39.23 38.456C39.1647 38.4709 39.0958 38.4633 39.0333 38.4369C39.0244 38.4339 39.0144 38.4297 39.0055 38.4243C38.9927 38.4167 38.9805 38.4106 38.9687 38.4018C38.9509 38.3892 38.9338 38.3751 38.9191 38.3595C38.9181 38.3583 38.9181 38.3583 38.9174 38.3576L38.9074 38.3469C38.8945 38.3328 38.8835 38.3194 38.8745 38.3034C38.8717 38.3 38.8685 38.2969 38.8674 38.2939C38.8624 38.2862 38.8574 38.279 38.8545 38.2713C38.8274 38.2214 38.8138 38.1664 38.8106 38.1103C38.8096 38.1027 38.8096 38.0966 38.8096 38.0878C38.8096 38.0176 38.8274 37.9478 38.8642 37.8875C38.8759 37.8662 38.8899 37.8471 38.907 37.8292L38.9159 37.8196C38.9316 37.8029 40.0395 36.6629 41.853 35.2105C42.5886 34.6195 43.4423 33.9767 44.3853 33.338C47.4105 31.2905 52.0161 28.8477 56.7766 28.8477C57.6442 28.8477 58.5179 28.9285 59.3892 29.0747C59.6422 29.1162 59.8953 29.1639 60.1476 29.217C66.1509 30.471 71.9236 34.6069 74.3931 36.561C74.7407 36.8369 74.8785 37.2985 74.7425 37.7388C74.6069 38.1798 74.2389 38.4629 73.8049 38.464Z" fill="#16AB7D"/>
<path d="M74.3927 41.0414C71.9222 42.9947 66.1491 47.1326 60.1462 48.3866C59.8942 48.4396 59.6419 48.4866 59.3888 48.5278C58.5173 48.6739 57.6439 48.7548 56.7784 48.7548C52.0157 48.7548 47.4112 46.3135 44.386 44.2636C43.4591 43.6357 42.6182 43.0043 41.8904 42.4236C40.4264 41.2535 39.4149 40.2803 39.0587 39.927C38.9684 39.837 38.9199 39.787 38.9166 39.7839C38.8463 39.7107 38.8096 39.6119 38.8096 39.5146C38.8096 39.5062 38.8096 39.4974 38.8106 39.4902V39.4776C38.8185 39.3971 38.8513 39.3173 38.9088 39.2536C39.0437 39.1052 39.2661 39.101 39.4049 39.2452C39.411 39.2517 39.4624 39.3047 39.5559 39.3959C40.734 40.5576 48.6183 48.0047 56.7773 48.0047C57.4879 48.0047 58.2057 47.9486 58.9234 47.8437C59.1832 47.8075 59.4434 47.7628 59.7043 47.7132C65.6691 46.5748 71.5046 42.3935 73.9759 40.439C74.1286 40.318 74.0912 40.1483 74.0762 40.1006C74.0615 40.0506 73.9969 39.8904 73.8053 39.8896H63.5197C63.3631 39.8896 63.2349 40.0266 63.2349 40.1941V41.6117C63.2349 41.7796 63.3631 41.9162 63.5197 41.9162H68.7746C68.9323 41.915 69.0594 41.7792 69.0605 41.6106C69.0605 41.4431 68.9323 41.3061 68.7756 41.3061L64.568 41.3073C64.3745 41.3062 64.2175 41.1387 64.2168 40.9319C64.2179 40.7251 64.3745 40.5573 64.568 40.5561L68.7756 40.5572C69.3196 40.5572 69.7625 41.0303 69.7625 41.6117C69.7625 42.1932 69.3199 42.6666 68.7756 42.6666H63.519C62.9751 42.6666 62.5325 42.1935 62.5325 41.6117L62.5336 40.1952C62.5336 39.6138 62.9762 39.1407 63.5201 39.1407H73.8053C74.2389 39.1395 74.6072 39.4249 74.7432 39.8652C74.8781 40.3039 74.7411 40.7663 74.3927 41.0414Z" fill="#16AB7D"/>
<path d="M39.4882 77.5282C39.0763 77.3828 38.8093 76.9891 38.8104 76.5256V65.5316C38.8104 64.9501 39.2529 64.4771 39.7969 64.4771L41.1221 64.4759C41.666 64.4759 42.1086 64.949 42.1075 65.5316L42.1086 71.1497C42.1086 71.7311 41.666 72.2046 41.1221 72.2046C40.5782 72.2046 40.1352 71.7311 40.1352 71.1497L40.1342 66.6524C40.1349 66.4457 40.2919 66.2778 40.4854 66.2767C40.6788 66.2778 40.8359 66.4453 40.8369 66.6524L40.8359 71.1497C40.8359 71.3172 40.964 71.4541 41.1207 71.4541C41.2784 71.453 41.4055 71.3172 41.4066 71.1485V65.5316C41.4066 65.3641 41.2784 65.2271 41.1217 65.2271H39.7954C39.6388 65.2271 39.5106 65.3641 39.5106 65.5316V76.5256C39.5117 76.7304 39.6616 76.7995 39.708 76.8151C39.7526 76.8311 39.9115 76.8712 40.0246 76.7079C41.8531 74.066 45.7648 67.8305 46.8288 61.4563C46.8755 61.177 46.9173 60.8993 46.9519 60.62C47.0493 59.852 47.1029 59.0859 47.1029 58.3241C47.1029 49.6279 40.1766 41.2248 39.0577 39.9273C38.9674 39.82 38.9139 39.7605 38.9078 39.7544C38.8414 39.6812 38.8075 39.5858 38.8097 39.49V39.4775C38.8125 39.3851 38.8482 39.2939 38.916 39.2237C39.0549 39.0795 39.2772 39.0837 39.4121 39.2321C39.415 39.2352 39.4649 39.2905 39.5549 39.3954C39.8954 39.7869 40.8016 40.8658 41.8894 42.4235C42.4316 43.1979 43.018 44.0926 43.6026 45.078C45.5203 48.3121 47.8042 53.234 47.8042 58.3248C47.8042 59.2523 47.7289 60.1858 47.5929 61.1183C47.5533 61.3876 47.5087 61.6581 47.4587 61.9278C46.2855 68.3448 42.4163 74.5135 40.5881 77.1531C40.3319 77.5263 39.899 77.6724 39.4882 77.5282Z" fill="#16AB7D"/>
<path d="M37.4995 77.5283C37.0877 77.6737 36.6558 77.526 36.3977 77.1548C34.5714 74.5171 30.706 68.353 29.5289 61.9421C29.4793 61.6727 29.4347 61.4019 29.3951 61.1325C29.258 60.1948 29.1816 59.2559 29.1816 58.3242C29.1816 53.2356 31.4666 48.3126 33.3822 45.0786C33.9679 44.092 34.5564 43.1954 35.0993 42.4198C36.1854 40.8667 37.0905 39.7885 37.431 39.3971C37.5213 39.2922 37.572 39.2357 37.5752 39.2327C37.6087 39.1945 37.6494 39.1659 37.6923 39.1457H37.694C37.8183 39.0915 37.9671 39.1171 38.0692 39.2243C38.1377 39.2952 38.1752 39.3887 38.1762 39.4829C38.1762 39.4894 38.1773 39.4948 38.1762 39.5001C38.1752 39.5924 38.1434 39.6836 38.0788 39.7546C38.0731 39.7611 38.0203 39.8194 37.931 39.9255C36.8182 41.2146 29.883 49.625 29.883 58.3254C29.883 59.0914 29.9358 59.8629 30.035 60.635C30.0707 60.9132 30.1114 61.192 30.1589 61.4702C31.2271 67.8406 35.135 74.0695 36.962 76.7085C37.0752 76.8717 37.2329 76.8325 37.2786 76.8157C37.3243 76.7989 37.4753 76.731 37.4742 76.5261V65.5321C37.4742 65.3646 37.3461 65.2277 37.1894 65.2277H35.8652C35.7075 65.2265 35.5793 65.3635 35.5804 65.5321L35.5793 71.1502C35.5793 71.3177 35.7075 71.4547 35.8641 71.4547C36.0208 71.4547 36.149 71.3177 36.149 71.1502L36.15 66.653C36.149 66.4462 36.3067 66.2772 36.5005 66.2783C36.695 66.2783 36.8517 66.4458 36.851 66.653L36.8521 71.1502C36.8521 71.7317 36.4095 72.2051 35.8652 72.2051C35.3209 72.2051 34.8787 71.7317 34.8776 71.1491V65.5321C34.8776 64.9507 35.3202 64.4776 35.8645 64.4776H37.1908C37.7347 64.4776 38.1773 64.9507 38.1773 65.5321V76.5261C38.1766 76.9896 37.9118 77.383 37.4995 77.5283Z" fill="#16AB7D"/>
<path d="M38.0707 39.7855C38.0679 39.7886 38.02 39.8374 37.9319 39.9256C37.5768 40.2758 36.5671 41.2486 35.1001 42.4199C34.3717 43.0036 33.5301 43.6358 32.6018 44.2649C29.5766 46.3124 24.9706 48.7552 20.2101 48.7552C19.3463 48.7552 18.4751 48.6747 17.6064 48.5294C17.3523 48.4889 17.1014 48.4413 16.849 48.3882C10.8418 47.1361 5.06518 42.996 2.59356 41.0419C2.33444 40.837 2.19238 40.5283 2.19238 40.2037C2.19238 40.0911 2.20917 39.9774 2.24486 39.8653C2.38084 39.425 2.74811 39.1404 3.18176 39.1396H13.4669C14.0109 39.1396 14.4534 39.6127 14.4545 40.1953L14.4534 41.6115C14.4534 42.1929 14.0109 42.6663 13.4669 42.6663H8.21209C7.66815 42.6663 7.22557 42.1933 7.2245 41.6107C7.2245 41.0293 7.66708 40.5558 8.21137 40.5558L12.419 40.557C12.6125 40.5558 12.7706 40.7245 12.7695 40.9316C12.7695 41.1395 12.6128 41.307 12.419 41.3063L8.21137 41.3074C8.05469 41.3074 7.92656 41.4444 7.92656 41.6118C7.92656 41.7797 8.05469 41.9163 8.21137 41.9163H13.468C13.625 41.9163 13.7528 41.7793 13.7528 41.6118L13.7517 40.1957C13.7517 40.0278 13.6236 39.8912 13.4669 39.8912H3.18176C2.9901 39.8901 2.92655 40.0515 2.91085 40.1003C2.89514 40.1491 2.85838 40.3178 3.01221 40.4398C5.48276 42.3951 11.3233 46.5799 17.2898 47.7164C17.5511 47.7664 17.812 47.8099 18.0729 47.8469C18.7867 47.9499 19.5002 48.006 20.209 48.006C28.3741 48.006 36.2533 40.5577 37.4315 39.3983C37.5257 39.306 37.5764 39.2541 37.5825 39.2476C37.7224 39.1023 37.9437 39.1057 38.0789 39.256C38.1375 39.3209 38.1703 39.4021 38.1771 39.4842C38.1771 39.4906 38.1782 39.496 38.1771 39.5009C38.1821 39.6032 38.1464 39.707 38.0707 39.7855Z" fill="#16AB7D"/>
<path d="M38.0831 38.3489L38.0674 38.3657C38.0603 38.3733 38.0524 38.3794 38.0446 38.3859C38.0289 38.4008 38.011 38.4133 37.9921 38.4229C37.9842 38.4271 37.9764 38.4313 37.9692 38.4347C37.8789 38.4782 37.7758 38.4782 37.6855 38.4347C37.6784 38.4317 37.6705 38.4271 37.6623 38.4229C37.6448 38.4122 37.6255 38.4008 37.6098 38.3859C37.602 38.3794 37.5941 38.3733 37.587 38.3657L37.5752 38.3531C37.2665 38.0379 28.894 29.602 20.2107 29.602C19.504 29.602 18.7912 29.6569 18.0785 29.7611C17.8176 29.7985 17.5574 29.8404 17.2965 29.8904C11.3271 31.0258 5.48588 35.2113 3.01212 37.1677C2.85936 37.2887 2.89684 37.4584 2.91076 37.5073C2.92646 37.5561 2.99107 37.7163 3.18273 37.7175H13.4683C13.6249 37.7175 13.7531 37.5805 13.7531 37.413V35.9953C13.7531 35.8275 13.6249 35.6909 13.4683 35.6909L8.21235 35.692C8.05566 35.692 7.92859 35.8279 7.92752 35.9965C7.92752 36.164 8.05566 36.3009 8.21235 36.3009L12.42 36.2998C12.6134 36.3009 12.7705 36.4684 12.7715 36.6752C12.7705 36.882 12.6134 37.0498 12.42 37.051H8.21341C7.66841 37.0498 7.22585 36.5768 7.22585 35.995C7.22585 35.4135 7.6684 34.9405 8.21269 34.9405L13.4686 34.9416C14.0132 34.9405 14.4562 35.4139 14.4551 35.9961V37.4115C14.4562 37.9941 14.0132 38.4671 13.4686 38.466H3.18308C2.74943 38.4671 2.3811 38.1818 2.24512 37.7415C2.21014 37.6301 2.19443 37.5157 2.19336 37.4039C2.19443 37.0781 2.33614 36.7694 2.59526 36.5646C5.06688 34.6101 10.8456 30.468 16.8539 29.217C17.1059 29.164 17.3589 29.1163 17.6124 29.0751C18.48 28.9309 19.3484 28.8512 20.21 28.8516C24.9726 28.8516 29.5772 31.2928 32.6024 33.3427C33.5442 33.9806 34.3969 34.6223 35.1325 35.211C36.9481 36.6657 38.0567 37.8064 38.0717 37.822L38.0835 37.8346C38.0902 37.8418 38.0963 37.8506 38.1024 37.859C38.1163 37.8758 38.1281 37.8949 38.1374 37.9151C38.1413 37.9235 38.1452 37.9323 38.1481 37.9395C38.1888 38.036 38.1888 38.1463 38.1481 38.2428C38.1452 38.2504 38.1413 38.2588 38.1374 38.2672C38.1274 38.2863 38.1163 38.3065 38.1024 38.3233C38.0959 38.3329 38.0899 38.3412 38.0831 38.3489Z" fill="#16AB7D"/>
<path d="M38.082 38.3461L38.0663 38.3629C38.0591 38.3706 38.0513 38.3767 38.0434 38.3832C38.0277 38.398 38.0099 38.4106 37.991 38.4202C37.9831 38.4244 37.9753 38.4286 37.9681 38.432C37.8778 38.4755 37.7747 38.4755 37.6844 38.432C37.6772 38.4289 37.6694 38.4244 37.6612 38.4202C37.6437 38.4095 37.6244 38.398 37.6087 38.3832C37.6009 38.3767 37.593 38.3706 37.5859 38.3629L37.5741 38.3503C37.5591 38.3343 36.4923 37.1494 35.1314 35.2086C34.5803 34.4227 33.98 33.5109 33.3832 32.5041C31.4655 29.2704 29.1816 24.3481 29.1816 19.2576C29.1816 18.3302 29.2569 17.3966 29.3929 16.4642C29.4325 16.1949 29.4772 15.924 29.5268 15.6547C30.6999 9.23765 34.5693 3.06939 36.3977 0.429333C36.6547 0.0569787 37.0876 -0.0895252 37.4984 0.0546858C37.9103 0.200041 38.1773 0.593381 38.1762 1.0573V12.0513C38.1773 12.6339 37.7347 13.1069 37.1897 13.1062L35.8645 13.1073C35.3205 13.1073 34.8776 12.6342 34.8776 12.0528V6.43317C34.8776 5.85174 35.3202 5.37867 35.8645 5.37867C36.4088 5.37867 36.8513 5.85174 36.8521 6.43431V10.9308C36.851 11.1376 36.694 11.3054 36.5009 11.3062C36.3074 11.3051 36.1504 11.1376 36.1493 10.9308L36.1504 6.43317C36.1504 6.26568 36.0222 6.12872 35.8656 6.12872C35.7078 6.12986 35.5807 6.26568 35.5797 6.43431V12.0513C35.5797 12.2188 35.7078 12.3557 35.8645 12.3557H37.1908C37.3475 12.3557 37.4756 12.2188 37.4756 12.0513V1.0573C37.4745 0.852427 37.3246 0.783754 37.2782 0.767731C37.2336 0.751707 37.0748 0.711651 36.9616 0.874937C35.1332 3.5169 31.2214 9.75231 30.1564 16.1258C30.1096 16.4051 30.0689 16.684 30.0339 16.9629C29.9358 17.7301 29.8833 18.4969 29.8833 19.2588C29.8833 28.5402 37.7754 37.49 38.0702 37.82L38.082 37.8326C38.0888 37.8399 38.0948 37.8487 38.1009 37.8571C38.1148 37.8738 38.1266 37.8929 38.1359 37.9131C38.1398 37.9215 38.1437 37.9303 38.1466 37.9376C38.1873 38.0341 38.1873 38.1443 38.1466 38.2409C38.1437 38.2485 38.1398 38.2569 38.1359 38.2653C38.1259 38.2844 38.1148 38.3046 38.1009 38.3214C38.0948 38.3301 38.0888 38.3385 38.082 38.3461Z" fill="#16AB7D"/>
<path d="M39.412 38.3519L39.4002 38.3645C39.3934 38.3717 39.3856 38.3782 39.3774 38.3847C39.3524 38.4072 39.3238 38.4251 39.2938 38.4377C39.2917 38.4377 39.2899 38.4396 39.2878 38.4396C39.2689 38.4469 39.2492 38.4534 39.2293 38.4576C39.1636 38.4724 39.0951 38.4652 39.0326 38.4385C39.0237 38.4354 39.0137 38.4309 39.0048 38.4259C38.9919 38.4183 38.9798 38.4122 38.968 38.4034C38.9502 38.3908 38.933 38.3767 38.9184 38.361C38.9173 38.3603 38.9173 38.3603 38.9166 38.3591L38.9066 38.3484C38.8938 38.3347 38.8827 38.321 38.8738 38.305C38.8706 38.3015 38.8677 38.2985 38.8666 38.2954C38.8616 38.2882 38.8566 38.2805 38.8538 38.2733C38.827 38.2233 38.8131 38.1684 38.8102 38.1119C38.8092 38.1047 38.8092 38.0982 38.8092 38.0894C38.8092 38.0196 38.827 37.9494 38.8638 37.8891C38.8755 37.8678 38.8895 37.8487 38.9066 37.8307L38.9155 37.8212C39.2093 37.4901 47.1024 28.5398 47.1024 19.258C47.1024 18.5004 47.0506 17.7366 46.9535 16.9728C46.9186 16.6935 46.8779 16.4146 46.8322 16.1346C45.7683 9.75806 41.8536 3.51731 40.0241 0.876489C39.9099 0.712058 39.7521 0.751355 39.7064 0.768142C39.6608 0.78531 39.5098 0.85322 39.5109 1.05771V12.0517C39.5109 12.2192 39.639 12.3561 39.7957 12.3561L41.1209 12.3573C41.2776 12.3573 41.4057 12.2203 41.4046 12.0517L41.4057 6.43357C41.4057 6.26609 41.2776 6.12913 41.1209 6.12913C40.9642 6.12913 40.8361 6.26609 40.8361 6.43357L40.8354 10.9312C40.8361 11.138 40.6783 11.3066 40.4849 11.3058C40.2911 11.307 40.1333 11.1384 40.1344 10.9312L40.1333 6.43357C40.1333 5.85215 40.5759 5.3787 41.1198 5.3787C41.6648 5.37984 42.1074 5.85292 42.1074 6.43434V12.0513C42.1074 12.6327 41.6648 13.1058 41.1209 13.1058L39.7957 13.107C39.2507 13.1058 38.8081 12.6327 38.8081 12.0513V1.05733C38.8092 0.593796 39.074 0.200077 39.4869 0.0558658C39.8978 -0.0906342 40.3296 0.0570096 40.5877 0.428219C42.4161 3.07018 46.2879 9.24416 47.4604 15.6619C47.51 15.9317 47.5546 16.2018 47.5931 16.4726C47.7291 17.4031 47.8037 18.3356 47.8037 19.2588C47.8037 24.3474 45.5188 29.2704 43.6029 32.5045C43.0054 33.5124 42.4036 34.425 41.8518 35.2124C40.4931 37.1497 39.427 38.334 39.412 38.3519Z" fill="#16AB7D"/>
<path d="M75.5386 83.9162C75.539 82.5992 76.5387 81.5312 77.7701 81.5322C79.0026 81.5333 80.0014 82.602 79.9998 83.9182C79.9982 85.2358 78.9974 86.3039 77.7673 86.3011C76.5346 86.2986 75.5382 85.232 75.5386 83.9162ZM75.9916 83.9173C75.992 84.9663 76.7873 85.8164 77.7689 85.8171C78.7506 85.8177 79.5475 84.9657 79.5471 83.9162C79.5468 82.867 78.7514 82.0171 77.7699 82.0165C76.7879 82.016 75.9912 82.8677 75.9916 83.9173Z" fill="#16AB7D"/>
<path d="M76.792 85.1077C76.792 84.276 76.792 83.4457 76.792 82.6138C76.7979 82.6133 76.8033 82.6125 76.8088 82.6125C77.1252 82.6127 77.4416 82.6114 77.7579 82.6135C77.9112 82.6146 78.0631 82.6311 78.2092 82.6848C78.3213 82.726 78.4206 82.7879 78.4929 82.8917C78.5475 82.9699 78.577 83.0593 78.59 83.1551C78.6076 83.2821 78.6057 83.4085 78.5716 83.5326C78.523 83.7091 78.4115 83.8251 78.258 83.8995C78.2256 83.9152 78.1916 83.9278 78.1574 83.9422C78.1694 83.9464 78.1811 83.9502 78.1926 83.9545C78.2911 83.991 78.3664 84.0606 78.4291 84.1472C78.4854 84.2252 78.5293 84.3113 78.5701 84.3992C78.6762 84.6283 78.7828 84.8574 78.8894 85.0863C78.8924 85.0927 78.8949 85.0994 78.8987 85.1085C78.8904 85.1085 78.8843 85.1085 78.8783 85.1085C78.6784 85.1085 78.4783 85.1083 78.2784 85.109C78.2636 85.109 78.2562 85.1039 78.2499 85.0899C78.1532 84.879 78.0567 84.6678 77.9579 84.4579C77.9337 84.4066 77.9033 84.3584 77.8718 84.3115C77.8151 84.2271 77.7352 84.1798 77.6397 84.1705C77.5592 84.1627 77.4777 84.1646 77.3941 84.162C77.3941 84.4791 77.3941 84.7925 77.3941 85.1073C77.1922 85.1077 76.9931 85.1077 76.792 85.1077ZM77.3943 83.7207C77.3991 83.7211 77.402 83.7215 77.4052 83.7215C77.4951 83.7215 77.5851 83.7234 77.6751 83.7205C77.7206 83.7188 77.7668 83.712 77.8109 83.7004C77.9031 83.6763 77.965 83.6156 77.9879 83.5148C78.0043 83.4425 78.0053 83.3694 77.9911 83.2969C77.9725 83.202 77.9228 83.135 77.8339 83.1065C77.8088 83.0984 77.7827 83.0895 77.7568 83.0887C77.6375 83.0845 77.5181 83.083 77.3987 83.0807C77.3977 83.0807 77.3965 83.0817 77.3943 83.0828C77.3943 83.2944 77.3943 83.5066 77.3943 83.7207Z" fill="#16AB7D"/>
</svg>
