<svg width="30" height="18" viewBox="0 0 30 18" fill="none" xmlns="http://www.w3.org/2000/svg">
<path d="M9.14612 17.3434C14.1974 17.3434 18.2922 13.6533 18.2922 9.1014C18.2922 4.54945 14.1974 0.859375 9.14612 0.859375C4.09486 0.859375 0 4.54945 0 9.1014C0 13.6533 4.09486 17.3434 9.14612 17.3434Z" fill="#EE0005"/>
<path d="M20.5094 17.3434C25.5607 17.3434 29.6555 13.6533 29.6555 9.1014C29.6555 4.54945 25.5607 0.859375 20.5094 0.859375C15.4581 0.859375 11.3633 4.54945 11.3633 9.1014C11.3633 13.6533 15.4581 17.3434 20.5094 17.3434Z" fill="#F9A000"/>
<path d="M11.3638 9.10122C11.3638 11.7182 12.7175 14.0501 14.8282 15.5599C16.9387 14.0501 18.2925 11.7182 18.2925 9.10122C18.2925 6.48421 16.9388 4.15232 14.8282 2.64258C12.7176 4.15245 11.3638 6.48428 11.3638 9.10122Z" fill="#FF6300"/>
</svg>
