<svg width="27" height="29" viewBox="0 0 27 29" fill="none" xmlns="http://www.w3.org/2000/svg">
<path d="M13.4702 28.8631C11.9651 28.9133 10.5093 28.5463 9.05908 28.0976C7.38361 27.579 5.70973 27.6573 4.05574 28.2517C2.99235 28.634 2.03005 28.4211 1.23649 27.5841C0.459639 26.7649 0.247118 25.7457 0.587785 24.6413C1.07331 23.0668 1.18953 21.4745 0.902984 19.8489C0.770856 19.1004 0.504213 18.3903 0.349799 17.6469C0.0353983 16.1338 -0.0824038 14.6095 0.0759903 13.07C0.560724 8.34834 2.68273 4.69024 6.42528 2.15016C8.97233 0.421586 11.79 -0.231535 14.7899 0.0716049C18.4004 0.436054 21.3884 2.12205 23.7603 5.04105C25.5432 7.23541 26.6026 9.79677 26.9027 12.6843C27.3445 16.9291 26.2827 20.7004 23.664 23.9464C22.2886 25.6512 20.6123 26.9276 18.6758 27.7893C17.021 28.5259 15.289 28.9073 13.4702 28.8631ZM10.0906 16.5808L10.0883 16.5859C10.1105 16.5357 10.132 16.4854 10.1543 16.4352L10.1535 16.4377C10.3995 16.052 10.417 15.6016 10.4592 15.1622C10.5451 14.2715 10.4799 13.3859 10.0739 12.5949C9.49049 11.4572 8.53774 11.0689 7.2085 11.2622C6.54149 11.3593 5.89996 11.5509 5.20907 11.4223C4.47361 11.2861 4.19583 11.5688 4.19583 12.3598C4.19583 14.8863 4.20538 17.4119 4.21254 19.9383C4.21334 20.0797 4.18867 20.233 4.30806 20.3445C4.66544 20.9687 5.46696 20.9891 5.82116 20.3828C5.96045 20.2542 5.93578 20.0771 5.93737 19.9102C5.94135 19.4632 5.92224 19.0153 5.94851 18.5699C5.98194 18.0096 6.22311 17.8189 6.73252 17.9254C7.43296 18.0718 8.12384 18.0795 8.8012 17.8087C9.33448 17.595 9.77623 17.2629 10.0206 16.6872C10.0437 16.6523 10.0668 16.6166 10.0906 16.5808ZM11.5074 14.0382C11.5035 15.1017 11.4947 16.1661 11.4987 17.2297C11.5003 17.7252 11.7613 18.0565 12.1482 18.0965C12.7762 18.1621 13.077 17.9551 13.2004 17.3736C13.2076 17.2288 13.2219 17.0849 13.2219 16.9401C13.2251 14.8113 13.2267 12.6834 13.2275 10.5546C13.2275 10.3128 13.2418 10.0693 13.2203 9.82913C13.1773 9.34121 12.8335 9.03211 12.3679 9.03977C11.8226 9.04829 11.5019 9.33355 11.4987 9.8666C11.4923 11.258 11.5035 12.6477 11.5074 14.0382ZM17.286 14.8905C17.286 15.7097 17.2828 16.3637 17.2868 17.0168C17.2916 17.8777 17.52 18.1144 18.3224 18.0999C18.7569 18.0922 19.0427 17.7985 19.0499 17.3335C19.0578 16.8133 19.0427 16.293 19.053 15.7727C19.0705 14.9272 18.9949 14.0782 19.1056 13.2352C19.1621 12.8035 19.4805 12.4688 19.8577 12.422C20.3735 12.3573 20.7142 12.5327 20.8877 12.9687C20.9761 13.1901 21.0278 13.42 21.0254 13.6703C21.0166 14.8803 21.0182 16.0903 21.0214 17.3003C21.023 17.7763 21.3215 18.0922 21.7593 18.1016C22.4112 18.1152 22.755 17.8606 22.759 17.3131C22.7693 15.8613 22.7765 14.4086 22.7534 12.9567C22.7399 12.1282 22.2639 11.499 21.5372 11.3312C21.0748 11.2248 20.6012 11.2299 20.13 11.3712C19.6771 11.5075 19.2194 11.6463 18.7339 11.4726C18.4776 11.3814 18.191 11.3968 17.9252 11.4487C17.4771 11.5364 17.3959 11.7978 17.3282 12.5216C17.2502 13.3689 17.3282 14.2127 17.286 14.8905ZM16.1287 14.8079C16.1295 14.8079 16.1303 14.8079 16.1303 14.8079C16.1303 13.9981 16.1319 13.1875 16.1295 12.3777C16.1271 11.7604 15.8613 11.4419 15.3447 11.4283C14.7016 11.4112 14.384 11.6897 14.3792 12.3454C14.3665 13.9896 14.3689 15.6339 14.384 17.2782C14.3888 17.8359 14.7366 18.1152 15.3264 18.1016C15.8183 18.0897 16.1239 17.7678 16.1279 17.2382C16.1327 16.4284 16.1287 15.6177 16.1287 14.8079ZM16.1208 9.98325C16.1223 9.46042 15.7506 9.05936 15.2675 9.06191C14.7804 9.06447 14.3999 9.46724 14.4015 9.97815C14.4031 10.5052 14.7653 10.891 15.2619 10.8944C15.7522 10.8986 16.12 10.5086 16.1208 9.98325Z" fill="#48C2C6"/>
<path d="M17.2862 14.8914C17.3292 14.2136 17.2504 13.3698 17.3292 12.5225C17.396 11.7988 17.478 11.5373 17.9261 11.4496C18.192 11.3977 18.4785 11.3824 18.7348 11.4735C19.2203 11.6472 19.678 11.5084 20.1309 11.3721C20.6021 11.2299 21.0757 11.2248 21.5381 11.3321C22.2656 11.4999 22.7416 12.1283 22.7543 12.9577C22.7774 14.4095 22.7703 15.8622 22.7599 17.314C22.7559 17.8615 22.4121 18.1161 21.7602 18.1025C21.3216 18.0931 21.0232 17.7772 21.0224 17.3012C21.0184 16.0912 21.0168 14.8812 21.0263 13.6712C21.0279 13.4209 20.977 13.1918 20.8886 12.9696C20.7151 12.5336 20.3745 12.3582 19.8587 12.4229C19.4806 12.4706 19.163 12.8044 19.1065 13.2361C18.9959 14.0791 19.0707 14.9272 19.054 15.7736C19.0436 16.2939 19.0588 16.8142 19.0508 17.3344C19.0436 17.8002 18.7579 18.0931 18.3233 18.1008C17.521 18.1153 17.2926 17.8786 17.2878 17.0177C17.283 16.3646 17.2862 15.7106 17.2862 14.8914Z" fill="white"/>
<path d="M4.30803 20.3442C4.18864 20.2327 4.21252 20.0794 4.21252 19.9381C4.20456 17.4116 4.1958 14.886 4.1958 12.3596C4.1958 11.5685 4.47359 11.2858 5.20905 11.4221C5.90073 11.5498 6.54147 11.3582 7.20847 11.262C8.53771 11.0695 9.49046 11.457 10.0739 12.5946C10.4798 13.3857 10.5443 14.2712 10.4591 15.1619C10.4169 15.6005 10.3994 16.0518 10.1535 16.4375C10.1559 16.0901 10.1774 15.758 10.2609 15.4072C10.3668 14.9652 10.2872 14.4722 10.284 14.0013C10.2832 13.906 10.2872 13.7859 10.167 13.7757C10.0182 13.7629 10.0198 13.8966 10.019 14.0039C10.015 14.4024 10.0166 14.8009 10.0158 15.1994C9.7969 15.2181 9.67671 15.1313 9.67035 14.875C9.66477 14.6587 9.62737 14.4441 9.60428 14.2287C9.59632 14.1529 9.57881 14.0831 9.50001 14.0618C9.44111 14.0456 9.38221 14.0635 9.35037 14.1188C9.23974 14.3138 9.09806 14.502 9.15059 14.7523C9.24292 15.1943 9.2461 15.1934 8.79162 15.1994C8.79002 14.9703 8.78286 14.7421 8.78684 14.5131C8.79639 13.9673 8.65312 13.4657 8.38091 13.011C7.85001 12.1254 6.74762 12.1416 6.22229 13.0289C5.98828 13.424 5.90312 13.871 5.80124 14.313C5.80283 14.2287 5.80681 14.1435 5.80362 14.0592C5.80044 13.9783 5.83626 13.8702 5.75666 13.8259C5.64443 13.7629 5.69776 14.0141 5.56086 13.9553C5.4351 13.665 5.84661 13.3908 5.57837 13.0578C5.52265 13.4351 5.28944 13.4087 5.04747 13.3618C4.95912 13.3448 4.86838 13.3056 4.78162 13.315C4.49826 13.344 4.43857 13.1915 4.44096 12.9242C4.44255 12.6925 4.50702 12.4422 4.31201 12.2293C4.31201 13.6301 4.31201 15.0299 4.31201 16.4307C4.31122 17.7352 4.30963 19.0397 4.30803 20.3442Z" fill="white"/>
<path d="M16.1286 14.808C16.1286 15.6178 16.1326 16.4284 16.127 17.2382C16.1231 17.7678 15.8174 18.0897 15.3255 18.1016C14.7357 18.1152 14.3887 17.8359 14.3831 17.2782C14.368 15.6339 14.3656 13.9897 14.3783 12.3455C14.3831 11.6898 14.7015 11.4122 15.3438 11.4284C15.8612 11.442 16.127 11.7596 16.1286 12.3778C16.131 13.1876 16.1294 13.9982 16.1294 14.808C16.1302 14.808 16.1294 14.808 16.1286 14.808Z" fill="white"/>
<path d="M4.30811 20.3441C4.3097 19.0396 4.31208 17.735 4.31367 16.4305C4.58987 16.2781 4.85094 16.0771 5.17808 16.0729C5.45746 16.0695 5.5474 15.9179 5.53865 15.636C5.53387 15.4845 5.46065 15.2861 5.67078 15.1992C5.67157 15.3082 5.666 15.4172 5.67316 15.5253C5.69863 15.883 5.98757 16.3181 6.22158 16.3581C6.46196 16.5301 6.60522 16.8307 6.89177 16.9423C6.9443 17.116 7.082 17.0853 7.20219 17.0879C7.39481 17.0921 7.58664 17.0862 7.77926 17.0904C7.87557 17.093 7.97506 17.1236 7.95278 17.2539C7.92969 17.3876 7.82781 17.3842 7.74185 17.328C7.46645 17.1492 7.16637 17.2684 6.87824 17.2369C6.8066 17.2292 6.69517 17.2062 6.68323 17.3187C6.67447 17.4038 6.75964 17.4634 6.83287 17.4983C7.07086 17.6107 7.31203 17.695 7.58346 17.6729C7.73469 17.6601 7.90661 17.6201 8.04272 17.7717C7.66066 17.8134 7.28099 17.8168 6.90132 17.8117C6.72939 17.8091 6.5519 17.8602 6.44604 17.6099C6.38156 17.4583 6.26058 17.5349 6.20805 17.6814C6.16666 17.7955 6.07034 17.9726 6.00587 17.942C5.65804 17.7759 5.80529 18.1063 5.81405 18.1795C5.89524 18.9144 5.87852 19.6467 5.82041 20.3807C5.46621 20.9887 4.66549 20.9683 4.30811 20.3441ZM5.61188 16.3087C5.62621 16.2875 5.65247 16.2653 5.65725 16.2381C5.66521 16.1938 5.65804 16.141 5.60392 16.1367C5.58561 16.135 5.55377 16.1751 5.54741 16.2006C5.53785 16.244 5.5482 16.29 5.61188 16.3087Z" fill="white"/>
<path d="M11.5074 14.0376C11.5034 12.6471 11.4923 11.2566 11.4994 9.86601C11.5026 9.33296 11.8234 9.04769 12.3686 9.03917C12.8343 9.03236 13.1781 9.34147 13.2211 9.82854C13.2426 10.0687 13.2283 10.3122 13.2283 10.554C13.2267 12.6829 13.2251 14.8108 13.2227 16.9396C13.2227 17.0844 13.2092 17.2283 13.2012 17.373C13.1128 17.2436 13.1431 17.0938 13.1423 16.9515C13.1391 16.0813 13.1407 15.211 13.1391 14.3408C13.1391 14.2335 13.1781 14.087 13.0937 14.0291C12.7833 13.8188 12.5795 13.4867 12.2874 13.2602C12.1123 13.1248 12.0072 13.1835 11.9436 13.4032C11.891 13.5846 11.9762 13.7984 11.8687 13.9644C11.8313 13.9618 11.7947 13.9593 11.7573 13.9576C11.7573 13.2346 11.7573 12.5117 11.7573 11.7879C11.7199 11.7896 11.6825 11.7913 11.6451 11.793C11.6451 12.418 11.6475 13.0439 11.6435 13.6689C11.6419 13.8077 11.6865 13.9721 11.5074 14.0376Z" fill="white"/>
<path d="M11.5078 14.0378C11.686 13.9722 11.6423 13.807 11.6431 13.67C11.647 13.045 11.6447 12.4191 11.6447 11.7942C11.6821 11.7925 11.7195 11.7908 11.7569 11.7891C11.7569 12.512 11.7569 13.2349 11.7569 13.9586C11.7943 13.9612 11.8309 13.9637 11.8683 13.9654C11.9758 13.7985 11.8906 13.5857 11.9431 13.4043C12.0068 13.1846 12.1119 13.125 12.287 13.2613C12.5791 13.4877 12.7829 13.8198 13.0933 14.0301C13.1776 14.0872 13.1386 14.2345 13.1386 14.3418C13.1402 15.212 13.1394 16.0822 13.1418 16.9524C13.1426 17.0946 13.1124 17.2444 13.2007 17.3738C13.0774 17.9554 12.7765 18.1623 12.1485 18.0967C11.7617 18.0567 11.5006 17.7246 11.499 17.2299C11.495 16.1656 11.5046 15.1021 11.5078 14.0378Z" fill="white"/>
<path d="M5.82147 20.3833C5.87958 19.6493 5.89629 18.9162 5.8151 18.1822C5.80714 18.1089 5.65989 17.7786 6.00692 17.9446C6.0714 17.9753 6.16771 17.7981 6.2091 17.684C6.26163 17.5384 6.38341 17.4609 6.44709 17.6125C6.55295 17.8629 6.73044 17.8118 6.90237 17.8143C7.28204 17.8194 7.66171 17.816 8.04377 17.7743C7.90766 17.6219 7.73573 17.6628 7.5845 17.6755C7.31308 17.6977 7.0727 17.6125 6.83392 17.501C6.76069 17.4669 6.67473 17.4065 6.68428 17.3213C6.69622 17.2089 6.80765 17.231 6.87929 17.2396C7.16662 17.2702 7.4667 17.1518 7.74289 17.3307C7.82886 17.3869 7.93153 17.3903 7.95382 17.2566C7.97611 17.1263 7.87662 17.0957 7.78031 17.0931C7.58769 17.0888 7.39586 17.0939 7.20324 17.0905C7.08226 17.088 6.94455 17.1186 6.89282 16.9449C6.97082 16.9441 7.04962 16.9364 7.12763 16.9424C7.80657 16.9969 8.26185 16.6512 8.53566 16.0159C8.64709 15.7579 8.70838 15.4744 8.79275 15.2028C9.24804 15.1959 9.24486 15.1968 9.15173 14.7557C9.0992 14.5054 9.24088 14.3163 9.35151 14.1222C9.38335 14.0669 9.44145 14.049 9.50115 14.0652C9.57995 14.0864 9.59746 14.1571 9.60542 14.232C9.6285 14.4475 9.66671 14.6621 9.67148 14.8783C9.67785 15.1346 9.79804 15.2215 10.0169 15.2028C10.0257 15.2794 9.99305 15.3697 10.0695 15.4233C10.1053 15.448 10.1284 15.4097 10.1355 15.3739C10.1546 15.2726 10.0997 15.2257 10.0177 15.2019C10.0185 14.8034 10.0169 14.4049 10.0209 14.0064C10.0217 13.8991 10.0201 13.7654 10.169 13.7782C10.2899 13.7884 10.2852 13.9085 10.286 14.0038C10.2883 14.4747 10.3679 14.9677 10.2629 15.4097C10.1793 15.7605 10.1578 16.0926 10.1554 16.44L10.1562 16.4374C10.1339 16.4877 10.1124 16.5379 10.0902 16.5882L10.0925 16.583C10.0695 16.6188 10.0464 16.6546 10.0225 16.6895C9.77814 17.2651 9.33718 17.5972 8.8031 17.8109C8.12575 18.0817 7.43406 18.074 6.73442 17.9276C6.22502 17.8211 5.98384 18.0119 5.95041 18.5722C5.92415 19.0175 5.94325 19.4654 5.93927 19.9124C5.93608 20.0776 5.96076 20.2539 5.82147 20.3833Z" fill="white"/>
<path d="M16.1206 9.98276C16.119 10.508 15.7521 10.8988 15.2618 10.8945C14.7651 10.8911 14.403 10.5046 14.4014 9.97852C14.3998 9.46774 14.7802 9.06508 15.2674 9.06252C15.7513 9.05912 16.1222 9.45922 16.1206 9.98276Z" fill="#E280B3"/>
<path d="M10.0884 16.5859C10.1107 16.5358 10.1322 16.4857 10.1545 16.4355C10.1322 16.4857 10.1099 16.5358 10.0884 16.5859Z" fill="#34C0D4"/>
<path d="M10.021 16.6855C10.0441 16.6501 10.0672 16.6147 10.091 16.5801C10.0672 16.6147 10.0441 16.6501 10.021 16.6855Z" fill="#34C0D4"/>
<path d="M8.79152 15.2006C8.70715 15.4722 8.64586 15.7558 8.53443 16.0138C8.26062 16.649 7.80534 16.9947 7.12639 16.9402C7.04838 16.9342 6.97038 16.9419 6.89158 16.9428C6.60503 16.8312 6.46176 16.5306 6.22139 16.3586C5.91256 15.7226 5.78441 15.0422 5.79953 14.3287L5.80192 14.3133C5.9038 13.8714 5.98897 13.4244 6.22298 13.0293C6.74831 12.142 7.8507 12.1258 8.3816 13.0114C8.65382 13.4652 8.79709 13.9668 8.78754 14.5134C8.78277 14.7425 8.78993 14.9715 8.79152 15.2006Z" fill="#48C2C6"/>
<path d="M5.67009 15.2008C5.45996 15.2868 5.53319 15.486 5.53796 15.6376C5.54672 15.9203 5.45678 16.0711 5.17739 16.0745C4.85026 16.0787 4.58918 16.2797 4.31299 16.4321C4.31299 15.0313 4.31299 13.6313 4.31299 12.2305C4.508 12.4434 4.44353 12.6937 4.44194 12.9254C4.44034 13.1928 4.49925 13.3452 4.78261 13.3162C4.86936 13.3077 4.9601 13.346 5.04845 13.3631C5.29042 13.4099 5.52444 13.4354 5.57936 13.0591C5.84759 13.3929 5.43529 13.6662 5.56184 13.9566C5.69875 14.0154 5.64542 13.765 5.75765 13.8272C5.83724 13.8714 5.80143 13.9796 5.80461 14.0605C5.80779 14.1448 5.80302 14.23 5.80222 14.3143L5.79984 14.3296C5.69477 14.5391 5.74093 14.7622 5.75685 14.9802C5.76402 15.0781 5.79347 15.1692 5.67009 15.2008Z" fill="white"/>
<path d="M5.66962 15.2002C5.79299 15.1687 5.76354 15.0776 5.75637 14.9806C5.74046 14.7626 5.69429 14.5395 5.79935 14.3301C5.78423 15.0436 5.91237 15.723 6.22119 16.3599C5.98639 16.3198 5.69747 15.8848 5.6728 15.5272C5.66484 15.4182 5.67041 15.3092 5.66962 15.2002Z" fill="white"/>
<path d="M5.6116 16.3086C5.54792 16.2899 5.53756 16.2448 5.54791 16.2006C5.55349 16.175 5.58613 16.1351 5.60444 16.1368C5.65777 16.141 5.66573 16.1938 5.65777 16.238C5.6522 16.2644 5.62593 16.2873 5.6116 16.3086Z" fill="white"/>
<path d="M10.0161 15.1992C10.0981 15.223 10.1523 15.2698 10.134 15.371C10.1276 15.4068 10.1037 15.4451 10.0679 15.4204C9.99223 15.3659 10.0249 15.2758 10.0161 15.1992Z" fill="white"/>
</svg>
