<svg width="53" height="55" viewBox="0 0 53 55" fill="none" xmlns="http://www.w3.org/2000/svg">
<path d="M5.076 47.7H1.089C1.017 47.7 0.972 47.745 0.963 47.817L0.918 48.15C0.909 48.222 0.945 48.267 1.017 48.267H2.628C2.655 48.267 2.664 48.285 2.664 48.312L1.98 53.883C1.971 53.955 2.007 54 2.079 54H2.475C2.538 54 2.592 53.955 2.601 53.883L3.285 48.312C3.285 48.285 3.303 48.267 3.33 48.267H5.004C5.076 48.267 5.13 48.222 5.139 48.15L5.175 47.817C5.184 47.745 5.148 47.7 5.076 47.7ZM7.36221 49.401C6.85821 49.401 6.44421 49.671 6.16521 50.085C6.13821 50.121 6.11121 50.112 6.12021 50.067L6.18321 49.563C6.19221 49.491 6.14721 49.446 6.08421 49.446H5.68821C5.61621 49.446 5.57121 49.491 5.56221 49.563L5.03121 53.883C5.02221 53.955 5.05821 54 5.13021 54H5.51721C5.58921 54 5.64321 53.955 5.65221 53.883L5.97621 51.255C6.05721 50.58 6.56121 50.094 7.16421 50.076C7.34421 50.067 7.48821 50.085 7.58721 50.121C7.65921 50.148 7.71321 50.121 7.73121 50.049L7.87521 49.653C7.89321 49.59 7.88421 49.536 7.83021 49.509C7.72221 49.446 7.57821 49.401 7.36221 49.401ZM11.3296 49.563L11.2936 49.887C11.2936 49.923 11.2576 49.941 11.2396 49.905C11.0236 49.563 10.6636 49.374 10.2046 49.374C9.35859 49.374 8.73759 49.86 8.44059 50.607C8.31459 50.913 8.25159 51.282 8.19759 51.723C8.14359 52.182 8.11659 52.551 8.17959 52.866C8.29659 53.595 8.80059 54.072 9.62859 54.072C10.0876 54.072 10.4926 53.874 10.7896 53.532C10.8256 53.496 10.8526 53.514 10.8436 53.55L10.7986 53.883C10.7986 53.955 10.8346 54 10.9066 54H11.2936C11.3656 54 11.4106 53.955 11.4196 53.883L11.9506 49.563C11.9596 49.491 11.9236 49.446 11.8516 49.446H11.4646C11.3926 49.446 11.3386 49.491 11.3296 49.563ZM10.7806 52.821C10.5826 53.226 10.2406 53.514 9.75459 53.514C9.26859 53.514 8.92659 53.244 8.83659 52.812C8.76459 52.569 8.74659 52.308 8.81859 51.723C8.89059 51.102 8.99859 50.832 9.15159 50.589C9.34959 50.202 9.73659 49.932 10.2046 49.932C10.6726 49.932 10.9516 50.211 11.0416 50.607C11.1136 50.85 11.1316 51.12 11.0596 51.723C10.9876 52.317 10.9066 52.587 10.7806 52.821ZM15.2121 49.383C14.6991 49.383 14.2671 49.563 13.9791 49.923C13.9521 49.959 13.9341 49.932 13.9341 49.896L13.9791 49.563C13.9881 49.491 13.9431 49.446 13.8801 49.446H13.4841C13.4121 49.446 13.3671 49.491 13.3581 49.563L12.8271 53.883C12.8181 53.955 12.8541 54 12.9261 54H13.3131C13.3851 54 13.4391 53.955 13.4481 53.883L13.8171 50.886C13.9431 50.319 14.4111 49.941 15.0051 49.941C15.6261 49.941 15.9861 50.4 15.9051 51.066L15.5541 53.883C15.5451 53.955 15.5901 54 15.6531 54H16.0491C16.1211 54 16.1661 53.955 16.1751 53.883L16.5351 50.94C16.6521 49.995 16.1301 49.383 15.2121 49.383ZM18.969 54.045C19.95 54.045 20.652 53.532 20.751 52.758C20.859 51.867 20.04 51.624 19.32 51.408C18.753 51.228 18.303 51.066 18.357 50.616C18.411 50.184 18.843 49.923 19.428 49.923C20.085 49.923 20.436 50.247 20.391 50.643L20.382 50.697C20.373 50.733 20.418 50.76 20.49 50.76H20.841C20.913 50.76 20.967 50.715 20.976 50.643C21.057 49.932 20.481 49.401 19.5 49.401C18.555 49.401 17.844 49.887 17.745 50.661C17.646 51.516 18.411 51.777 19.14 52.002C19.689 52.182 20.184 52.317 20.121 52.803C20.067 53.226 19.626 53.55 19.014 53.55C18.393 53.55 18.015 53.19 18.06 52.812L18.069 52.731C18.078 52.686 18.033 52.65 17.97 52.65H17.592C17.52 52.65 17.475 52.695 17.466 52.767L17.457 52.848C17.376 53.505 17.961 54.045 18.969 54.045ZM24.1782 48.258H24.3492C24.4212 48.258 24.4662 48.213 24.4752 48.141L24.5202 47.817C24.5292 47.745 24.4842 47.7 24.4212 47.7H24.1872C23.1072 47.7 22.7472 48.123 22.6212 49.194L22.5942 49.401C22.5942 49.428 22.5672 49.446 22.5402 49.446H21.9912C21.9282 49.446 21.8742 49.491 21.8652 49.563L21.8202 49.914C21.8112 49.986 21.8562 50.031 21.9192 50.031H22.4682C22.4952 50.031 22.5132 50.049 22.5132 50.076L22.0452 53.883C22.0362 53.955 22.0722 54 22.1442 54H22.5222C22.5942 54 22.6482 53.955 22.6572 53.883L23.1252 50.076C23.1252 50.049 23.1432 50.031 23.1702 50.031H24.1152C24.1872 50.031 24.2322 49.986 24.2412 49.914L24.2862 49.563C24.2952 49.491 24.2592 49.446 24.1872 49.446H23.2422C23.2152 49.446 23.1972 49.428 23.2062 49.401L23.2242 49.23C23.3052 48.546 23.5122 48.258 24.1782 48.258ZM26.1839 53.523C25.5449 53.523 25.1579 53.163 25.1039 52.641C25.0859 52.506 25.0949 52.281 25.1309 51.984C25.1309 51.957 25.1579 51.939 25.1849 51.939H27.9749C28.0469 51.939 28.0919 51.894 28.1009 51.822C28.1549 51.399 28.1729 51.165 28.1639 50.922C28.1189 49.977 27.6419 49.374 26.6069 49.374C25.7429 49.374 25.0499 49.887 24.7619 50.661C24.6539 50.94 24.6089 51.246 24.5549 51.705C24.4919 52.209 24.4829 52.614 24.5639 52.947C24.7169 53.64 25.2299 54.072 26.0579 54.072C26.8499 54.072 27.4619 53.676 27.8039 53.091C27.8489 53.028 27.8309 52.974 27.7769 52.938L27.5339 52.794C27.4799 52.758 27.4169 52.785 27.3809 52.848C27.1379 53.253 26.7239 53.514 26.1839 53.523ZM26.5349 49.932C27.1379 49.932 27.4979 50.292 27.5519 50.814C27.5609 50.94 27.5519 51.147 27.5339 51.39C27.5339 51.417 27.5159 51.435 27.4889 51.435H25.2389C25.2119 51.435 25.2029 51.417 25.2029 51.39C25.2479 51.129 25.2929 50.922 25.3469 50.778C25.5269 50.283 25.9409 49.932 26.5349 49.932ZM31.4091 49.401C30.9051 49.401 30.4911 49.671 30.2121 50.085C30.1851 50.121 30.1581 50.112 30.1671 50.067L30.2301 49.563C30.2391 49.491 30.1941 49.446 30.1311 49.446H29.7351C29.6631 49.446 29.6181 49.491 29.6091 49.563L29.0781 53.883C29.0691 53.955 29.1051 54 29.1771 54H29.5641C29.6361 54 29.6901 53.955 29.6991 53.883L30.0231 51.255C30.1041 50.58 30.6081 50.094 31.2111 50.076C31.3911 50.067 31.5351 50.085 31.6341 50.121C31.7061 50.148 31.7601 50.121 31.7781 50.049L31.9221 49.653C31.9401 49.59 31.9311 49.536 31.8771 49.509C31.7691 49.446 31.6251 49.401 31.4091 49.401ZM33.971 53.523C33.332 53.523 32.945 53.163 32.891 52.641C32.873 52.506 32.882 52.281 32.918 51.984C32.918 51.957 32.945 51.939 32.972 51.939H35.762C35.834 51.939 35.879 51.894 35.888 51.822C35.942 51.399 35.96 51.165 35.951 50.922C35.906 49.977 35.429 49.374 34.394 49.374C33.53 49.374 32.837 49.887 32.549 50.661C32.441 50.94 32.396 51.246 32.342 51.705C32.279 52.209 32.27 52.614 32.351 52.947C32.504 53.64 33.017 54.072 33.845 54.072C34.637 54.072 35.249 53.676 35.591 53.091C35.636 53.028 35.618 52.974 35.564 52.938L35.321 52.794C35.267 52.758 35.204 52.785 35.168 52.848C34.925 53.253 34.511 53.514 33.971 53.523ZM34.322 49.932C34.925 49.932 35.285 50.292 35.339 50.814C35.348 50.94 35.339 51.147 35.321 51.39C35.321 51.417 35.303 51.435 35.276 51.435H33.026C32.999 51.435 32.99 51.417 32.99 51.39C33.035 51.129 33.08 50.922 33.134 50.778C33.314 50.283 33.728 49.932 34.322 49.932ZM39.2502 49.383C38.7372 49.383 38.3052 49.563 38.0172 49.923C37.9902 49.959 37.9722 49.932 37.9722 49.896L38.0172 49.563C38.0262 49.491 37.9812 49.446 37.9182 49.446H37.5222C37.4502 49.446 37.4052 49.491 37.3962 49.563L36.8652 53.883C36.8562 53.955 36.8922 54 36.9642 54H37.3512C37.4232 54 37.4772 53.955 37.4862 53.883L37.8552 50.886C37.9812 50.319 38.4492 49.941 39.0432 49.941C39.6642 49.941 40.0242 50.4 39.9432 51.066L39.5922 53.883C39.5832 53.955 39.6282 54 39.6912 54H40.0872C40.1592 54 40.2042 53.955 40.2132 53.883L40.5732 50.94C40.6902 49.995 40.1682 49.383 39.2502 49.383ZM43.2141 54.072C44.0781 54.072 44.8161 53.595 45.0771 52.902C45.0951 52.839 45.1131 52.785 45.1221 52.749C45.1491 52.668 45.1041 52.623 45.0411 52.614L44.6721 52.551C44.6001 52.542 44.5461 52.569 44.5281 52.65C44.5191 52.65 44.5191 52.659 44.5191 52.659C44.5191 52.668 44.5191 52.686 44.5011 52.704C44.3481 53.163 43.8711 53.514 43.2861 53.514C42.6921 53.514 42.3321 53.154 42.2871 52.632C42.2691 52.452 42.2691 52.155 42.3231 51.714C42.3681 51.309 42.4401 50.994 42.5121 50.805C42.6831 50.292 43.1331 49.932 43.7271 49.932C44.3301 49.932 44.7081 50.31 44.7531 50.751C44.7531 50.787 44.7621 50.823 44.7621 50.859C44.7621 50.94 44.8071 50.967 44.8791 50.958L45.2661 50.913C45.3381 50.904 45.3831 50.859 45.3831 50.778C45.3831 50.715 45.3831 50.625 45.3651 50.535C45.2661 49.896 44.6811 49.374 43.7991 49.374C42.9441 49.374 42.2511 49.869 41.9541 50.607C41.8461 50.886 41.7651 51.21 41.7021 51.705C41.6481 52.164 41.6301 52.515 41.6751 52.821C41.8011 53.577 42.3591 54.072 43.2141 54.072ZM47.1283 48.627C47.4073 48.627 47.6233 48.438 47.6593 48.159C47.6953 47.889 47.5243 47.7 47.2453 47.7C46.9663 47.7 46.7503 47.889 46.7143 48.159C46.6783 48.438 46.8493 48.627 47.1283 48.627ZM46.2823 54H46.6693C46.7413 54 46.7863 53.955 46.7953 53.883L47.3263 49.563C47.3353 49.491 47.2993 49.446 47.2273 49.446H46.8403C46.7683 49.446 46.7143 49.491 46.7053 49.563L46.1833 53.883C46.1743 53.955 46.2103 54 46.2823 54ZM51.4868 49.563L51.4508 49.887C51.4508 49.923 51.4148 49.941 51.3968 49.905C51.1808 49.563 50.8208 49.374 50.3618 49.374C49.5158 49.374 48.8948 49.86 48.5978 50.607C48.4718 50.913 48.4088 51.282 48.3548 51.723C48.3008 52.182 48.2738 52.551 48.3368 52.866C48.4538 53.595 48.9578 54.072 49.7858 54.072C50.2448 54.072 50.6498 53.874 50.9468 53.532C50.9828 53.496 51.0098 53.514 51.0008 53.55L50.9558 53.883C50.9558 53.955 50.9918 54 51.0638 54H51.4508C51.5228 54 51.5678 53.955 51.5768 53.883L52.1078 49.563C52.1168 49.491 52.0808 49.446 52.0088 49.446H51.6218C51.5498 49.446 51.4958 49.491 51.4868 49.563ZM50.9378 52.821C50.7398 53.226 50.3978 53.514 49.9118 53.514C49.4258 53.514 49.0838 53.244 48.9938 52.812C48.9218 52.569 48.9038 52.308 48.9758 51.723C49.0478 51.102 49.1558 50.832 49.3088 50.589C49.5068 50.202 49.8938 49.932 50.3618 49.932C50.8298 49.932 51.1088 50.211 51.1988 50.607C51.2708 50.85 51.2888 51.12 51.2168 51.723C51.1448 52.317 51.0638 52.587 50.9378 52.821Z" fill="white"/>
<path d="M25.5831 38.2805C25.4889 37.5969 25.3956 36.9134 25.2923 36.1627C24.3957 36.1627 23.4414 36.1649 22.486 36.1627C19.6807 36.154 17.4833 34.5638 16.4956 31.7581C16.2615 31.093 16.1947 30.3607 16.0366 29.5938C16.9808 29.5938 17.8146 29.5938 18.6909 29.5938C18.7659 30.4225 18.9878 31.2197 19.4984 31.9C20.2136 32.8522 21.1366 33.3689 22.2793 33.3895C23.3006 33.409 24.3228 33.3939 25.3916 33.3939C25.3916 32.8717 25.3794 32.3983 25.3946 31.926C25.4129 31.3389 25.6884 31.1721 26.1676 31.4656C27.7157 32.4135 29.2606 33.3668 30.8016 34.3287C31.3051 34.644 31.3041 34.9332 30.7945 35.2517C29.3548 36.1529 27.9071 37.0391 26.4645 37.9349C26.2973 38.0389 26.1413 38.1646 25.9792 38.2805C25.8475 38.2805 25.7158 38.2805 25.5831 38.2805Z" fill="white"/>
<path d="M29.4606 0.00217377C29.5345 0.279511 29.648 0.551429 29.6743 0.834183C29.7108 1.23394 29.6834 1.64019 29.6834 2.11795C30.3116 2.11795 30.9022 2.09195 31.4908 2.12337C32.4614 2.17646 33.4572 2.14179 34.3954 2.36496C37.0072 2.9868 39.0749 5.91076 38.9635 8.70038C38.1276 8.70038 37.2898 8.70038 36.5938 8.70038C36.2493 7.8922 35.9981 7.10786 35.602 6.41885C35.1218 5.58467 34.3376 5.05816 33.436 4.98558C32.2071 4.88699 30.967 4.96066 29.6774 4.96066C29.6774 5.42216 29.6814 5.89559 29.6763 6.36901C29.6693 6.96594 29.4413 7.12844 28.9702 6.84027C27.405 5.88584 25.8428 4.92274 24.2866 3.95098C23.8135 3.65522 23.8277 3.32264 24.3272 3.01063C25.8407 2.06812 27.3614 1.13969 28.879 0.204756C28.9773 0.144089 29.0675 0.0693343 29.1617 0C29.262 0.0021667 29.3613 0.00217377 29.4606 0.00217377Z" fill="white"/>
<path d="M27.6218 10.185C31.2345 10.185 34.8462 10.1807 38.4589 10.1872C39.6898 10.1893 40.5317 10.8318 40.8367 11.9974C40.9066 12.2639 40.9157 12.5553 40.9167 12.8348C40.9218 16.946 40.9238 21.056 40.9177 25.1672C40.9157 26.8756 39.9887 27.8581 38.385 27.8592C31.1605 27.8636 23.9351 27.8657 16.7107 27.8636C15.193 27.8636 14.2357 26.8886 14.2296 25.2799C14.2134 21.0983 14.2134 16.9167 14.2286 12.7351C14.2346 11.1297 15.1758 10.1904 16.734 10.1872C20.3639 10.1807 23.9928 10.185 27.6218 10.185ZM18.9415 25.7089C24.6534 25.7089 30.3257 25.7089 35.995 25.7089C36.1582 23.7491 36.8126 23.1252 38.9027 22.9258C38.9027 20.405 38.9027 17.8819 38.9027 15.3546C38.0567 15.5019 37.3313 15.2917 36.7366 14.6645C36.1288 14.0243 35.9545 13.2259 36.0731 12.3311C30.348 12.3311 24.6473 12.3311 18.9223 12.3311C18.978 13.1858 18.8007 13.9105 18.2496 14.5053C17.6873 15.1119 16.9872 15.2896 16.2051 15.2235C16.2051 17.7834 16.2051 20.275 16.2051 22.7655C18.0419 22.7438 19.0276 23.9691 18.9415 25.7089Z" fill="white"/>
<path d="M27.5459 13.6094C30.4333 13.617 32.657 16.0166 32.6408 19.1085C32.6256 22.014 30.2945 24.4711 27.5682 24.4538C24.7386 24.4364 22.4844 21.9902 22.4976 18.9525C22.5108 16.0079 24.7842 13.6018 27.5459 13.6094ZM28.1639 15.9094C28.1639 15.7241 28.1497 15.5822 28.167 15.4435C28.2156 15.0405 28.018 14.9842 27.6969 14.9809C27.3777 14.9777 27.2106 15.073 27.2734 15.4262C27.3433 15.8184 27.1447 15.9343 26.8388 16.0329C26.2572 16.2214 25.8631 16.6309 25.7831 17.2993C25.695 18.0371 25.851 18.6795 26.5176 19.0619C26.9249 19.2948 27.3392 19.5137 27.7536 19.7314C28.1436 19.9351 28.2814 20.2915 28.1558 20.6967C28.0981 20.8809 27.8499 21.103 27.6736 21.1181C27.3068 21.1495 27.0151 20.9491 26.9036 20.519C26.8712 20.3944 26.7547 20.2113 26.6635 20.2016C26.313 20.1637 25.9564 20.1864 25.6099 20.1864C25.5582 21.2167 26.0192 21.8765 26.932 22.1094C27.2004 22.1776 27.3109 22.2838 27.2724 22.5633C27.2177 22.9642 27.3869 23.079 27.7496 23.0844C28.1325 23.0898 28.2014 22.8948 28.173 22.5611C28.1629 22.4409 28.171 22.3185 28.171 22.2123C29.2074 21.7898 29.5701 21.3088 29.559 20.4356C29.5478 19.5624 29.0261 19.1172 28.3746 18.7662C28.0221 18.5755 27.63 18.426 27.3453 18.1508C27.1832 17.9937 27.1457 17.6189 27.163 17.3502C27.1721 17.2105 27.4223 16.9775 27.5581 16.9819C27.7536 16.9884 28.0869 17.1455 28.1112 17.2874C28.2267 17.9558 28.6603 17.8767 29.0899 17.8605C29.5569 17.8431 29.642 17.724 29.5083 17.2332C29.3168 16.5247 28.866 16.1 28.1639 15.9094Z" fill="white"/>
<path d="M36.3439 19.0072C36.353 19.8327 35.7522 20.5 34.9843 20.5184C34.2072 20.5379 33.5548 19.863 33.5427 19.0288C33.5305 18.1979 34.1596 17.5328 34.963 17.5274C35.738 17.523 36.3348 18.1622 36.3439 19.0072Z" fill="white"/>
<path d="M20.1818 17.5236C20.9355 17.5127 21.5778 18.1768 21.5981 18.9882C21.6183 19.8082 20.9629 20.5232 20.1949 20.5221C19.4128 20.52 18.7878 19.844 18.7837 18.9969C18.7797 18.1855 19.3976 17.5344 20.1818 17.5236Z" fill="white"/>
</svg>
