<svg width="23" height="23" viewBox="0 0 23 23" fill="none" xmlns="http://www.w3.org/2000/svg">
<path fill-rule="evenodd" clip-rule="evenodd" d="M11.9724 16.2161C9.80497 16.2161 6.78442 17.2307 6.28868 18.2683C7.8566 19.5134 9.82803 20.2512 11.9724 20.2512C14.1168 20.2512 16.0882 19.5134 17.6561 18.2683C17.1719 17.2307 14.1398 16.2161 11.9724 16.2161ZM11.9724 13.9104C13.6556 13.9104 17.6561 14.5906 19.3047 16.5966C20.4807 15.0517 21.1955 13.1264 21.1955 11.0282C21.1955 5.94395 17.0566 1.80509 11.9724 1.80509C6.88818 1.80509 2.74932 5.94395 2.74932 11.0282C2.74932 13.1264 3.46411 15.0517 4.64005 16.5966C6.28868 14.5906 10.2892 13.9104 11.9724 13.9104ZM7.9373 8.14596C7.9373 5.90936 9.7358 4.11086 11.9724 4.11086C14.209 4.11086 16.0075 5.90936 16.0075 8.14596C16.0075 10.3826 14.209 12.181 11.9724 12.181C9.7358 12.181 7.9373 10.3826 7.9373 8.14596ZM10.2431 8.14596C10.2431 9.10285 11.0155 9.87528 11.9724 9.87528C12.9293 9.87528 13.7017 9.10285 13.7017 8.14596C13.7017 7.18906 12.9293 6.41663 11.9724 6.41663C11.0155 6.41663 10.2431 7.18906 10.2431 8.14596ZM11.9724 22.0552C18.0628 22.0552 23 17.118 23 11.0276C23 4.93722 18.0628 0 11.9724 0C5.88204 0 0.944824 4.93722 0.944824 11.0276C0.944824 17.118 5.88204 22.0552 11.9724 22.0552Z" fill="white"/>
</svg>
