<svg width="38" height="12" viewBox="0 0 38 12" fill="none" xmlns="http://www.w3.org/2000/svg">
<path d="M13.5804 0L11.5445 11.4164H14.7985L16.8331 0H13.5804ZM23.3956 4.65039C22.2585 4.14436 21.5614 3.80282 21.5614 3.28527C21.5753 2.81469 22.1509 2.33259 23.4362 2.33259C24.4934 2.30866 25.2704 2.53254 25.8599 2.7553L26.1552 2.87407L26.5976 0.485486C25.9548 0.261598 24.9358 0.0149086 23.677 0.0149086C20.4636 0.0149086 18.2009 1.52048 18.1868 3.67378C18.1603 5.26279 19.8068 6.14456 21.039 6.67352C22.2978 7.21613 22.7263 7.56794 22.7263 8.05004C22.7124 8.79023 21.7085 9.13177 20.7717 9.13177C19.4737 9.13177 18.7765 8.95586 17.718 8.54342L17.2895 8.36752L16.8345 10.8498C17.5989 11.156 19.0046 11.4255 20.4637 11.4393C23.8787 11.4393 26.1008 9.95653 26.1288 7.66165C26.1399 6.40277 25.2717 5.43857 23.3956 4.65039ZM34.9398 0.0353305H32.4222C31.6465 0.0353305 31.057 0.236416 30.7211 0.953807L25.8876 11.4164H29.3025L30.2431 9.15118H34.0638L34.5518 11.4255H37.5637L34.9398 0.0353305ZM31.1902 6.8652C31.2561 6.87097 32.5009 3.1675 32.5009 3.1675L33.4922 6.8652C33.4922 6.8652 31.8329 6.8652 31.1902 6.8652ZM8.82554 0L5.63745 7.75637L5.29016 6.22674C4.70067 4.46183 2.85255 2.54394 0.790039 1.59126L3.70939 11.405H7.15232L12.2685 0.00125218H8.82554V0Z" fill="#2394BC"/>
</svg>
