<svg width="32" height="44" viewBox="0 0 32 44" fill="none" xmlns="http://www.w3.org/2000/svg">
<path d="M20.567 32.2496C20.2092 32.3019 19.8536 32.3613 19.4958 32.4041C19.338 32.4231 19.2957 32.4873 19.2535 32.6584C19.1668 33.0102 19.1002 33.3714 18.8712 33.6756C18.6557 33.9608 18.4201 34.1605 18.0689 34.0701C17.6889 33.9751 17.5555 33.6257 17.5977 33.2858C17.6755 32.6632 17.3777 32.6869 16.9732 32.7606C14.2951 33.255 11.6258 33.7992 8.97879 34.4623C8.67431 34.5383 8.51428 34.6857 8.4076 35.0184C8.07645 36.0618 7.69861 37.0885 7.33856 38.1223C6.8096 39.1823 6.28953 40.2494 5.56277 41.1811C4.80489 42.1507 3.96034 42.9303 2.7624 43.2987C1.56001 43.6694 0.304285 42.5262 0.0820331 41.5138C-0.0846561 40.7485 0.0220292 40.0189 0.228724 39.2988C0.722124 37.5781 1.70003 36.1925 2.89352 34.9614C3.10688 34.7427 3.42248 34.6691 3.61362 34.4124C4.56486 33.7232 5.53166 33.072 6.63403 32.6869C6.82739 32.6204 6.93629 32.4802 6.99408 32.2829C7.31634 31.2015 7.63861 30.1202 7.96088 29.0364C8.01199 28.9651 8.04089 28.8891 7.99199 28.8011C7.94532 28.8392 7.90087 28.8796 7.85419 28.9176C7.52304 29.2432 7.20744 29.5902 6.82294 29.8516C5.54499 30.7167 4.26482 30.0655 4.16703 28.4565C4.08702 27.166 4.49819 25.9587 4.84712 24.7489C5.00937 24.1881 5.20939 23.6391 5.40942 23.09C5.55166 22.7027 5.62945 22.3105 5.62723 21.8922C5.62501 21.0747 5.74724 20.8845 6.2162 20.894C6.91185 20.9083 7.37413 21.3646 7.34968 22.0301C7.33634 22.3866 7.23855 22.7312 7.14965 23.0758C6.85183 24.2071 6.42955 25.3027 6.25842 26.472C6.24286 26.579 6.22064 26.6835 6.21842 26.7905C6.20953 27.1018 6.21619 27.425 6.51846 27.5843C6.80516 27.734 7.07187 27.6033 7.30968 27.4108C7.68973 27.1018 7.97865 26.7025 8.18757 26.2534C8.83432 24.863 9.33217 23.4085 9.71666 21.9112C9.88335 21.4478 10.0389 20.9772 10.2212 20.5209C10.4923 19.8388 11.3258 19.3516 11.9992 19.4514C12.3815 19.5084 12.4193 19.7461 12.3592 20.1026C12.157 21.3218 11.7636 22.4888 11.4791 23.6842C11.2769 24.5279 11.0568 25.3669 10.8435 26.2082C10.3367 28.0929 9.83002 29.9776 9.3055 31.9359C11.0035 31.6198 12.6237 31.318 14.2439 31.0162C14.3617 31.0352 14.4706 31.0162 14.5662 30.9377C14.6929 30.9258 14.8174 30.9163 14.944 30.9045C15.8664 30.7666 16.7865 30.6288 17.7089 30.4885C17.8511 30.4672 18.02 30.4695 18.0556 30.2556C18.1623 29.6401 18.2689 29.0269 18.3823 28.3614C16.7843 29.2337 16.2131 29.1125 15.7753 27.7839C15.4063 28.6585 14.8751 29.2883 14.0217 29.5212C12.7749 29.488 12.3303 29.1291 11.9192 27.8124C11.937 27.6865 11.9103 27.5748 11.8392 27.4726C11.8303 27.3347 11.8214 27.1969 11.8125 27.059C11.728 24.6872 12.2837 22.5078 13.5505 20.5542C13.8817 20.0432 14.2951 19.6011 14.8062 19.2827C15.5308 18.8311 16.2198 18.9048 17.0154 19.5179C17.0488 19.4657 17.0954 19.4181 17.1154 19.3587C17.3533 18.6933 17.5511 18.5768 18.1645 18.7527C18.7201 18.9119 18.8823 19.1876 18.7445 19.8935C18.4778 21.2553 18.18 22.61 17.9044 23.9694C17.7711 24.6325 17.6333 25.2979 17.6555 25.9824C17.6733 26.5504 17.8444 26.6479 18.3112 26.3627C18.609 26.1797 18.8179 25.9492 18.889 25.5475C19.2646 23.3895 19.6669 21.2386 20.0625 19.0854C20.1158 18.7883 20.1403 18.4366 20.487 18.3748C20.8715 18.3059 21.2627 18.3843 21.5827 18.641C21.7916 18.8073 21.5916 19.083 21.6805 19.3492C21.9139 19.0735 22.1183 18.805 22.3495 18.5625C23.4163 17.4384 24.812 17.8329 25.1921 19.3706C25.6233 21.1151 25.2965 22.8096 24.8432 24.4875C24.6431 25.2243 24.3786 25.9373 24.0164 26.6051C22.9718 28.5278 21.7627 28.8249 20.0114 27.5177C19.8958 28.3519 19.7847 29.1529 19.6736 29.9538C19.6425 30.1748 19.7669 30.1748 19.918 30.1534C21.8872 29.8896 23.8563 29.6234 25.8277 29.3691C26.7234 29.2551 27.6213 29.1481 28.5281 29.2052C28.9348 29.2313 29.2793 29.3668 29.4571 29.8041C29.6927 30.384 29.4882 30.8878 28.9148 31.0494C27.8124 31.3631 26.6701 31.394 25.5455 31.5533C23.8852 31.7886 22.225 32.0167 20.567 32.2496ZM23.623 21.5429C23.603 21.3028 23.6096 21.0105 23.5519 20.7348C23.3985 19.9885 22.9851 19.8554 22.4406 20.3545C22.0072 20.7514 21.7627 21.2743 21.5671 21.828C21.1093 23.1162 20.8537 24.4614 20.5737 25.7994C20.4848 26.2272 20.6804 26.3983 21.036 26.434C21.7916 26.51 22.265 26.0656 22.594 25.412C23.1963 24.2189 23.5274 22.9403 23.623 21.5429ZM13.6372 25.0817C13.635 25.8089 13.7061 26.2272 13.8439 26.51C14.1328 27.1042 14.6396 27.1802 15.0463 26.6812C15.1441 26.5623 15.233 26.4269 15.2996 26.2843C15.9953 24.7703 16.3976 23.1518 16.7354 21.5167C16.8443 20.9915 16.4865 20.6944 16.002 20.8679C15.4463 21.0651 15.004 21.4478 14.6729 21.9588C14.0172 22.9617 13.6928 24.0906 13.6372 25.0817ZM6.13618 35.287C4.29593 36.221 2.96242 37.5543 2.14676 39.4509C2.00007 39.7907 1.88005 40.1425 1.89116 40.5299C1.90894 41.1003 2.24677 41.3332 2.73128 41.0907C3.18023 40.865 3.51138 40.48 3.81587 40.0759C4.82267 38.745 5.50721 37.224 6.06729 35.634C6.09618 35.5532 6.10284 35.4676 6.13618 35.287Z" fill="#7F3393"/>
<path d="M13.569 1.75699C15.0069 0.5782 16.6183 -0.0801159 18.4452 0.00781803C21.8723 0.171803 24.6082 2.83596 25.0994 6.32718C25.4105 8.54691 24.8127 10.4743 23.5836 12.2306C22.4279 13.6186 21.0233 14.5407 19.2964 14.8686C18.1762 15.0802 17.0672 15.0231 15.9871 14.65C15.6137 14.5217 15.3159 14.5716 15.0069 14.8021C14.4713 15.1966 13.9379 15.5983 13.38 15.9524C12.9222 16.2447 12.7511 16.1187 12.7377 15.5484C12.7222 14.795 12.9355 14.0677 12.98 13.3191C13 12.9888 12.9755 12.6893 12.7555 12.4231C10.2041 9.32405 10.5374 4.67782 13.4289 1.90909C13.4801 1.86156 13.5223 1.8069 13.569 1.75699ZM16.6338 11.1968C16.7449 11.1897 16.8961 11.1825 17.045 11.1683C17.8829 11.0946 18.4518 10.5741 18.6296 9.72333C18.7674 9.06263 18.4385 8.40907 17.7428 7.96702C17.3539 7.71986 16.9361 7.54637 16.5116 7.38238C16.2138 7.26831 15.9159 7.13997 15.6826 6.89994C15.2981 6.50305 15.367 5.97306 15.8382 5.70213C16.5449 5.29336 17.4184 5.70926 17.5895 6.54107C17.6606 6.8833 17.7673 7.1875 18.174 7.08768C18.5496 6.995 18.503 6.67653 18.4896 6.36045C18.4252 4.89171 16.5182 4.35698 15.3536 4.99153C14.4246 5.49774 14.2779 6.75259 15.0581 7.49408C15.3759 7.79591 15.7648 7.96227 16.1449 8.14289C16.556 8.33777 16.9828 8.4875 17.345 8.78695C17.6651 9.05313 17.7162 9.41199 17.654 9.797C17.5984 10.1392 17.3072 10.22 17.0539 10.2818C16.1249 10.5076 15.5137 10.0941 15.3159 9.1268C15.2492 8.80359 15.1425 8.51364 14.7669 8.59207C14.398 8.66812 14.3913 8.97945 14.4269 9.30504C14.5469 10.4791 15.3625 11.1897 16.6338 11.1968ZM22.5879 5.28148C22.6079 5.02481 22.5679 4.84893 22.3946 4.76338C22.219 4.67782 22.0279 4.67782 21.8923 4.85607C21.7989 4.97965 21.7234 5.11986 21.6523 5.26008C20.9677 6.60523 20.2832 7.95039 19.6009 9.29554C19.4186 9.65441 19.2453 10.0204 19.0586 10.3769C18.9075 10.6668 18.9586 10.8997 19.2253 11.0518C19.4853 11.2039 19.6698 11.0518 19.812 10.8213C19.8476 10.7619 19.8765 10.6977 19.9076 10.6336C20.7566 8.95806 21.6078 7.28495 22.4546 5.60945C22.5146 5.48824 22.5591 5.35515 22.5879 5.28148Z" fill="#44BDAD"/>
<path d="M28.1101 17.8476C28.7702 17.2559 29.4792 16.8424 30.3926 17.0301C31.4128 17.2416 31.9595 18.071 31.7839 19.1737C31.6839 19.7964 31.4328 20.3573 31.2061 20.93C30.4149 22.2633 29.3103 23.1069 27.8478 23.3898C27.7989 23.3993 27.7412 23.3945 27.7011 23.4183C27.4478 23.5704 27.3033 24.6541 27.4544 25.1484C27.6056 25.6427 27.9501 25.7497 28.3679 25.6665C29.1836 25.5001 29.7503 24.9131 30.3037 24.3119C30.4215 24.1859 30.5238 24.0433 30.6416 23.9174C30.7616 23.7914 30.9105 23.7653 31.0572 23.8508C31.3928 24.0481 31.6372 25.1294 31.3839 25.4574C30.5393 26.5482 29.5525 27.4489 28.2346 27.8078C26.8455 28.1856 25.7853 27.3752 25.592 25.8519C25.3542 23.9863 25.7053 22.23 26.4299 20.545C26.8544 19.5564 27.3678 18.6176 28.1101 17.8476ZM27.9856 21.5551C28.948 21.4861 29.9215 20.5902 30.1348 19.6396C30.2015 19.3425 30.2237 19.0573 29.9459 18.8838C29.6836 18.7198 29.4592 18.8791 29.2747 19.0692C28.6168 19.7536 28.2546 20.6116 27.9856 21.5551Z" fill="#7F3393"/>
<path d="M11.9221 27.8062C11.8465 27.7065 11.831 27.5902 11.8421 27.4668C11.9132 27.5665 11.9399 27.6804 11.9221 27.8062Z" fill="#752E91"/>
<path d="M14.2461 31.0063C14.3417 30.9278 14.4528 30.9159 14.5684 30.9278C14.4706 31.0064 14.3617 31.0254 14.2461 31.0063Z" fill="#752E91"/>
<path d="M7.85938 28.9116C7.90605 28.8735 7.95051 28.833 7.99718 28.7949C8.04608 28.8831 8.01719 28.9593 7.96606 29.0308C7.9305 28.9926 7.89494 28.9521 7.85938 28.9116Z" fill="#6E2C8A"/>
<path d="M16.6338 11.1958C15.3647 11.191 14.5491 10.4781 14.4224 9.30889C14.3868 8.98331 14.3957 8.67199 14.7624 8.59595C15.138 8.51752 15.2469 8.80745 15.3114 9.13065C15.5092 10.0979 16.1204 10.5114 17.0494 10.2856C17.305 10.2238 17.5939 10.143 17.6495 9.80082C17.7117 9.41345 17.6606 9.0546 17.3406 8.79081C16.9783 8.49137 16.5516 8.33928 16.1404 8.14679C15.7604 7.96617 15.3714 7.79982 15.0536 7.49801C14.2735 6.75655 14.4202 5.50177 15.3492 4.99558C16.5138 4.36106 18.4207 4.89577 18.4852 6.36443C18.4985 6.6805 18.5452 6.99895 18.1696 7.09163C17.7629 7.19144 17.6562 6.88726 17.5851 6.54504C17.4139 5.71328 16.5405 5.29977 15.8337 5.70615C15.3647 5.97706 15.2936 6.50702 15.6781 6.90389C15.9115 7.14392 16.2093 7.27224 16.5071 7.38631C16.9316 7.54791 17.3495 7.72378 17.7384 7.97093C18.4341 8.41296 18.7608 9.06648 18.6252 9.72714C18.4474 10.5779 17.8784 11.096 17.0405 11.172C16.8938 11.1792 16.7449 11.1863 16.6338 11.1958Z" fill="#752E91"/>
<path d="M22.5872 5.28041C22.5583 5.35408 22.5138 5.48717 22.4516 5.61075C21.6048 7.28623 20.7536 8.96171 19.9046 10.6348C19.8735 10.6966 19.8446 10.7631 19.809 10.8226C19.6668 11.0531 19.4846 11.2052 19.2223 11.0531C18.9578 10.8986 18.9045 10.6657 19.0556 10.3781C19.2423 10.0217 19.4157 9.65567 19.5979 9.2968C20.2802 7.95167 20.9647 6.60415 21.6493 5.26139C21.7204 5.12117 21.796 4.98095 21.8893 4.85737C22.0249 4.67913 22.2138 4.67913 22.3916 4.76468C22.5672 4.84549 22.6072 5.02374 22.5872 5.28041Z" fill="#752E91"/>
</svg>
